<svg width="512" height="240" viewBox="0 0 512 240" fill="none" xmlns="http://www.w3.org/2000/svg">
<path d="M494.146 121.096H489.767V113.431H494.146C495.786 113.431 496.881 113.431 497.43 114.527C498.527 115.073 498.527 116.169 498.527 117.265C498.527 118.361 498.527 119.452 497.43 120C496.881 120.548 495.785 121.096 494.146 121.096ZM494.146 109.051H484.839V131.494H489.767V124.928H494.146C496.338 124.928 497.978 124.928 499.618 124.379C500.714 123.831 501.809 122.735 502.906 121.644C503.453 120 504.001 118.903 504.001 117.265C504.001 115.62 503.453 113.979 502.905 112.883C501.808 111.789 500.713 110.693 499.617 110.145C497.978 109.6 496.338 109.051 494.146 109.051ZM471.7 131.494H477.172V109.051H471.7V131.494ZM459.11 109.051V117.808H449.256V109.051H443.779V131.494H449.256V122.192H459.11V131.494H464.581V109.051H459.11ZM428.449 131.494C430.641 131.494 432.28 131.494 433.377 130.951C435.021 130.402 436.112 129.306 436.665 128.216C437.756 127.12 437.756 126.024 437.756 124.928C437.756 123.288 437.756 122.193 436.665 121.096C436.112 120.548 435.02 120 433.924 119.451C432.833 118.903 431.737 118.36 429.545 118.36C427.905 117.807 426.81 117.264 426.257 117.264C425.165 116.715 425.165 116.167 425.165 115.619C425.165 114.525 425.165 113.977 425.714 113.43C426.81 112.882 427.905 112.882 428.997 112.882C431.185 112.882 433.377 113.43 435.568 114.526L436.665 110.692C436.112 110.144 434.473 109.599 433.377 109.05C431.737 109.05 430.642 108.502 428.997 108.502C427.353 108.502 425.714 109.05 424.069 109.599C422.425 110.144 421.334 111.24 420.786 112.336C420.237 113.43 419.69 114.525 419.69 115.619C419.69 117.264 420.237 118.359 420.786 119.45C421.882 119.999 422.426 120.547 423.521 121.095C424.616 121.643 426.256 122.192 427.905 122.192C428.997 122.735 430.093 122.735 430.641 123.288C431.184 123.288 431.737 123.288 432.28 123.831C432.28 124.379 432.833 124.379 432.833 124.928C432.833 126.024 432.28 126.568 431.737 127.12C431.184 127.12 430.092 127.663 428.449 127.663C427.353 127.663 425.714 127.12 424.617 127.12C422.978 126.567 421.882 126.023 421.334 125.474L419.146 129.306C420.237 129.855 421.881 130.402 423.521 130.951C425.165 131.494 426.81 131.494 428.449 131.494ZM409.292 117.265C409.292 118.361 408.739 119.452 408.195 120C407.099 120.548 406.003 121.096 404.907 121.096H400.532V113.431H404.907C406.003 113.431 407.099 113.431 408.195 114.527C408.739 115.072 409.292 116.168 409.292 117.265ZM414.763 131.494L409.835 124.379C411.48 123.288 412.57 122.735 413.666 121.644C414.219 120 414.763 118.904 414.763 117.265C414.763 115.62 414.219 113.979 413.666 112.883C412.57 111.789 411.479 110.693 409.835 110.145C408.739 109.6 407.1 109.051 404.907 109.051H395.052V131.494H400.532V124.928H404.907H405.46L409.292 131.494H414.763ZM376.439 127.12V122.192H386.846V117.807H376.439V113.43H388.486V109.05H371.512V131.493H388.486V127.119L376.439 127.12ZM347.974 127.12V113.431H352.902C355.09 113.431 356.734 113.979 357.826 115.073C359.473 116.169 360.017 117.808 360.017 120.001C360.017 122.194 359.473 123.832 357.826 125.476C356.734 126.569 355.091 127.122 352.902 127.122H347.974V127.12ZM343.046 131.494H352.901C355.636 131.494 357.825 130.951 359.472 129.855C361.112 128.758 362.751 127.663 363.848 126.023C364.943 124.378 365.492 122.192 365.492 120C365.492 117.808 364.943 116.168 363.848 114.526C362.751 112.882 361.112 111.24 359.472 110.692C357.825 109.599 355.636 109.05 352.901 109.05H343.046V131.494ZM322.245 122.735L325.528 113.978L329.359 122.735H322.245ZM332.644 131.494H338.12L328.265 109.051H323.342L313.488 131.494H318.416L320.603 126.567H331.006L332.644 131.494ZM297.06 127.12V122.192H307.463V117.807H297.06V113.43H308.559V109.05H291.584V131.493H309.102V127.119L297.06 127.12ZM270.234 131.494H286.656V127.12H275.705V109.051H270.234V131.494Z" fill="#788B95"/>
<path d="M429.544 75.6564V88.7944L418.593 75.6564H414.218V97.5524H419.146V84.4154L430.641 97.5534H434.472V75.6564H429.544ZM393.412 89.3424L396.696 80.5834L400.531 89.3424H393.412ZM403.811 97.5534H409.291L399.436 75.6574H394.508L384.653 97.5534H389.581L391.773 93.1744H402.171L403.811 97.5534ZM372.063 98.1024C374.251 98.1024 375.894 97.5534 377.534 97.0054C379.179 96.4574 380.274 95.3634 381.365 94.2704L378.087 90.9854C376.439 92.6274 374.799 93.7224 372.607 93.7224C370.967 93.7224 369.872 93.1744 368.776 92.6264C367.68 92.0784 366.588 91.5324 366.04 90.4364C365.493 89.3424 365.493 88.2474 365.493 86.6054C365.493 85.5094 365.493 83.8684 366.04 82.7714C366.589 81.6774 367.681 81.1294 368.776 80.5834C369.872 80.0354 370.967 79.4874 372.607 79.4874C374.799 79.4874 376.439 80.5834 378.087 82.2244L381.365 78.9394C380.274 77.8454 379.178 76.7494 377.534 76.2014C375.894 75.6564 374.251 75.1074 372.063 75.1074C369.871 75.1074 367.679 75.6564 366.039 76.7494C364.4 77.8464 362.752 78.9394 361.66 80.5834C360.564 82.2254 360.016 84.4154 360.016 86.6044C360.016 88.7934 360.564 90.9844 361.66 92.6254C362.752 94.2694 364.4 95.9104 366.039 96.4564C367.679 97.5534 369.87 98.1024 372.063 98.1024ZM348.521 97.5534H353.992V75.6564H348.521V97.5534ZM337.027 83.3194C337.027 84.9634 336.474 85.5084 335.93 86.6044C334.834 87.1524 333.738 87.6984 332.099 87.6984H328.262V79.4874H332.099C333.738 79.4874 334.834 80.0354 335.93 80.5834C336.475 81.1294 337.027 82.2254 337.027 83.3194ZM342.498 97.5534L337.57 90.4364C339.214 89.8884 340.305 88.7944 340.858 87.6994C341.949 86.6054 342.498 84.9644 342.498 83.3204C342.498 81.6774 341.949 80.5844 340.858 79.4884C340.305 77.8464 339.213 77.2994 337.57 76.7504C336.474 75.6574 334.286 75.6574 332.642 75.6574H322.787V97.5534H328.263V91.5324H332.643L337.028 97.5534H342.498ZM317.316 79.4874V75.6564H300.341V97.5524H305.269V89.8874H315.671V85.5094H305.27V79.4884L317.316 79.4874ZM279.541 89.3424L282.823 80.5834L286.655 89.3424H279.541ZM289.943 97.5534H295.414L285.56 75.6574H280.632L270.781 97.5534H275.704L277.896 93.1744H288.3L289.943 97.5534Z" fill="#B42426"/>
<path d="M36.4688 75.1074H62.1998L79.7178 119.999H53.9888L36.4688 75.1074Z" fill="#B42426"/>
<path d="M97.236 164.347L84.096 130.951H21.139L8 164.347H33.183L38.111 153.396H67.125L72.053 164.347H97.236Z" fill="#788B95"/>
<path d="M248.881 75.1074H224.793V120.546H248.881V75.1074Z" fill="#B42426"/>
<path d="M105.996 164.347V130.951H129.537V142.445H171.69V164.347H105.996Z" fill="#788B95"/>
<path d="M129.537 75.1074H105.996V120.546H129.537V75.1074Z" fill="#B42426"/>
<path d="M213.845 164.347C195.777 164.347 180.996 151.205 179.901 133.138L179.355 130.951H202.349L202.894 132.591C203.99 137.519 208.37 141.35 213.845 141.35C219.866 141.35 224.246 137.519 225.342 132.591V130.951H248.334V133.138C247.239 151.205 232.456 164.347 213.845 164.347Z" fill="#788B95"/>
<path d="M202.894 75.1074H179.355V120.546H202.894V75.1074Z" fill="#B42426"/>
<path d="M503.998 142.444H499.07L493.047 152.299L487.024 142.444H481.553L490.312 156.678V164.345H495.24V156.678L503.998 142.444ZM464.578 164.346H469.506V146.277H476.625V142.445H457.463V146.277H464.578V164.346ZM445.965 164.346H450.892V142.445H445.965V164.346ZM429.542 164.891C431.182 164.891 432.83 164.346 434.47 163.794C436.11 163.25 436.662 162.702 437.753 161.606C438.302 160.51 438.849 159.419 438.849 157.775C438.849 156.678 438.302 155.587 437.753 154.492C436.662 153.395 435.565 152.847 435.018 152.3C433.921 152.3 432.278 151.751 430.639 151.204C428.994 151.204 427.903 150.66 426.807 150.107C426.254 150.107 425.711 149.564 425.711 148.468C425.711 147.919 426.254 147.371 426.807 146.823C427.351 146.275 428.447 146.275 430.09 146.275C432.278 146.275 433.921 146.823 436.11 147.919L437.754 144.087C436.663 142.991 435.566 142.991 433.922 142.443C432.831 141.9 431.183 141.9 430.091 141.9C427.903 141.9 426.255 142.443 425.163 142.991C423.519 143.54 422.424 144.087 421.88 145.179C420.784 146.275 420.784 147.37 420.784 149.014C420.784 150.106 421.332 151.749 421.88 152.298C422.424 153.394 423.52 153.938 424.615 154.49C425.712 154.49 427.351 155.033 428.995 155.586C430.091 155.586 430.64 156.13 431.183 156.13C432.279 156.677 432.279 156.677 432.831 157.226C433.375 157.226 433.375 157.774 433.375 158.322C433.375 158.866 433.375 159.419 432.278 159.962C431.735 160.51 430.639 160.51 429.543 160.51C427.903 160.51 426.808 160.51 425.163 159.962C424.067 159.419 422.976 158.866 421.88 158.322L420.235 162.154C421.332 163.249 422.423 163.793 424.067 164.344C425.711 164.346 427.351 164.891 429.542 164.891ZM408.736 150.107C408.736 151.751 408.736 152.299 407.645 153.395C407.096 153.939 405.999 153.939 404.361 153.939H399.976V146.276H404.361C406 146.276 407.096 146.824 407.645 147.372C408.736 147.92 408.736 149.016 408.736 150.107ZM414.76 164.346L409.832 157.228C410.928 156.679 412.024 155.588 413.12 154.493C413.663 153.396 414.216 151.752 414.216 150.108C414.216 148.469 413.663 147.373 413.12 146.277C412.024 144.637 410.928 144.089 409.832 143.542C408.192 142.445 406.549 142.445 404.361 142.445H395.048V164.346H399.976V158.324H404.361H404.904L409.289 164.346H414.76ZM374.796 160.511V155.035H385.194V151.204H374.796V146.276H386.843V142.444H369.868V164.345H386.843V160.51L374.796 160.511ZM358.918 142.444L351.803 158.323L345.232 142.444H339.761L349.063 164.345H353.991L363.846 142.444H358.918ZM328.261 164.346H333.737V142.445H328.261V164.346ZM314.574 142.444V155.588L303.628 142.444H299.244V164.345H304.172V151.203L315.123 164.345H319.502V142.444H314.574ZM280.63 164.891C283.37 164.891 286.11 163.794 287.749 162.156C289.389 160.511 290.484 157.776 290.484 154.493V142.445H285.557V154.493C285.557 156.68 285.013 158.324 283.917 158.868C283.369 159.964 282.277 160.512 280.629 160.512C277.35 160.512 275.701 158.324 275.701 154.493V142.445H270.23V154.493C270.23 157.776 271.326 160.512 272.965 162.156C274.611 163.794 277.351 164.891 280.63 164.891Z" fill="#788B95"/>
</svg>
