<svg width="455" height="240" viewBox="0 0 455 240" fill="none" xmlns="http://www.w3.org/2000/svg">
<g clip-path="url(#clip0_3293_7424)">
<path d="M252.677 142.91L227.884 118.268L252.689 93.4627L254.89 91.2625L252.689 89.0625L236.081 72.4541L233.881 70.2539L231.681 72.4541L206.875 97.2597L182.233 72.4667L180.033 70.2539L177.82 72.4541L161.212 89.0625L159.024 91.2625L161.199 93.4627L185.866 118.268L161.212 142.923L159.012 145.123L161.212 147.324L177.82 163.932L180.02 166.132L182.221 163.932L206.875 139.277L231.693 163.944L233.881 166.132L236.081 163.932L252.689 147.324L254.89 145.111L252.677 142.91Z" fill="#262626"/>
<path d="M114.996 68.7921V185H145.824V55L114.996 68.7921Z" fill="#262626"/>
<path d="M65.3897 138.76C64.8616 148.668 56.6644 156.551 46.619 156.551C36.5736 156.551 27.823 148.14 27.823 137.755C27.823 127.37 36.2339 118.959 46.619 118.959C57.004 118.959 64.8616 126.842 65.3897 136.749V138.76ZM65.3897 91.0098V95.0833C59.644 92.5564 53.2951 91.1355 46.619 91.1355C20.8704 91.1482 0 112.006 0 137.755C0 163.503 20.8704 184.374 46.619 184.374C53.2951 184.374 59.644 182.953 65.3897 180.426V185.002H96.2176V91.0224H65.3897V91.0098Z" fill="#262626"/>
</g>
<defs>
<clipPath id="clip0_3293_7424">
<rect width="256.75" height="130" fill="white" transform="translate(0 55)"/>
</clipPath>
</defs>
</svg>
