<svg width="416" height="417" viewBox="0 0 416 417" fill="none" xmlns="http://www.w3.org/2000/svg">
<g clip-path="url(#clip0_3687_5671)">
<path d="M341.939 90.2289H334.539L272.009 27.6989C267.014 22.7039 258.874 22.7039 253.694 27.6989C248.699 32.6939 248.699 40.8339 253.694 46.0139L297.909 90.2289H118.089L162.304 46.0139C167.299 41.0189 167.299 32.8789 162.304 27.6989C157.309 22.7039 149.169 22.7039 143.989 27.6989L81.644 90.2289H74.244C57.594 90.2289 22.999 90.2289 22.999 137.589C22.999 155.534 26.699 167.374 34.469 175.144C38.909 179.769 44.274 182.174 50.009 183.469C55.374 184.764 61.109 184.949 66.659 184.949H349.339C355.074 184.949 360.439 184.579 365.619 183.469C381.159 179.769 392.999 168.669 392.999 137.589C392.999 90.2289 358.404 90.2289 341.939 90.2289Z" fill="#FDEACB" fill-opacity="0.5"/>
<path d="M349.524 184.947H66.6593C61.2943 184.947 55.3743 184.762 50.0093 183.282L73.3193 325.547C78.4993 357.367 92.3743 393.997 153.979 393.997H257.764C320.109 393.997 331.209 362.732 337.869 327.767L365.804 183.282C360.624 184.577 355.074 184.947 349.524 184.947ZM207.999 329.247C164.709 329.247 129.374 293.912 129.374 250.622C129.374 243.037 135.664 236.747 143.249 236.747C150.834 236.747 157.124 243.037 157.124 250.622C157.124 278.742 179.879 301.497 207.999 301.497C236.119 301.497 258.874 278.742 258.874 250.622C258.874 243.037 265.164 236.747 272.749 236.747C280.334 236.747 286.624 243.037 286.624 250.622C286.624 293.912 251.289 329.247 207.999 329.247Z" fill="#FDEACB" fill-opacity="0.5"/>
</g>
<defs>
<clipPath id="clip0_3687_5671">
<rect width="416" height="417" fill="white"/>
</clipPath>
</defs>
</svg>
