<svg width="504" height="109" viewBox="0 0 504 109" fill="none" xmlns="http://www.w3.org/2000/svg">
<path d="M68.593 33.1154H67.2294L55.7067 21.5927C54.7862 20.6722 53.2862 20.6722 52.3317 21.5927C51.4112 22.5131 51.4112 24.0131 52.3317 24.9677L60.4794 33.1154H27.343L35.4908 24.9677C36.4112 24.0472 36.4112 22.5472 35.4908 21.5927C34.5703 20.6722 33.0703 20.6722 32.1158 21.5927L20.6271 33.1154H19.2635C16.1953 33.1154 9.82031 33.1154 9.82031 41.8427C9.82031 45.1495 10.5021 47.3313 11.9339 48.7631C12.7521 49.6154 13.7408 50.0586 14.7976 50.2972C15.7862 50.5359 16.843 50.57 17.8658 50.57H69.9567C71.0135 50.57 72.0021 50.5018 72.9567 50.2972C75.8203 49.6154 78.0021 47.57 78.0021 41.8427C78.0021 33.1154 71.6271 33.1154 68.593 33.1154Z" fill="#F6AC00"/>
<path d="M69.99 50.5705H17.8651C16.8764 50.5705 15.7855 50.5364 14.7969 50.2637L19.0923 76.4796C20.0469 82.3432 22.6037 89.0932 33.956 89.0932H53.081C64.5696 89.0932 66.6151 83.3319 67.8423 76.8887L72.9901 50.2637C72.0355 50.5023 71.0128 50.5705 69.99 50.5705ZM43.9105 77.1614C35.9332 77.1614 29.4219 70.65 29.4219 62.6728C29.4219 61.275 30.581 60.1159 31.9787 60.1159C33.3764 60.1159 34.5355 61.275 34.5355 62.6728C34.5355 67.8546 38.7287 72.0478 43.9105 72.0478C49.0923 72.0478 53.2855 67.8546 53.2855 62.6728C53.2855 61.275 54.4446 60.1159 55.8423 60.1159C57.2401 60.1159 58.3991 61.275 58.3991 62.6728C58.3991 70.65 51.8878 77.1614 43.9105 77.1614Z" fill="#292D32"/>
<path d="M125.203 76.6545C118.833 76.6545 113.487 74.2109 109.167 69.3236C104.891 64.4364 102.753 58.72 102.753 52.1745C102.753 45.4545 104.76 39.9127 108.774 35.5491C112.789 31.1418 118.047 28.9382 124.549 28.9382C129.698 28.9382 134.149 30.1818 137.902 32.6691C141.654 35.1127 143.531 38.0364 143.531 41.44C143.531 42.9673 143.029 44.2109 142.025 45.1709C141.065 46.1309 139.756 46.6109 138.098 46.6109C136.614 46.6109 135.283 46.1745 134.105 45.3018C132.927 44.3855 131.945 43.2945 131.16 42.0291C130.418 40.7636 129.654 39.4982 128.869 38.2327C128.083 36.9236 127.123 35.8327 125.989 34.96C124.898 34.0436 123.633 33.5855 122.193 33.5855C120.011 33.5855 118.134 34.6109 116.563 36.6618C115.036 38.7127 114.273 41.4836 114.273 44.9745C114.273 51.1273 115.756 56.1891 118.723 60.16C121.691 64.0873 125.116 66.0509 129 66.0509C130.44 66.0509 131.749 65.8327 132.927 65.3964C134.149 64.96 135.218 64.3491 136.134 63.5636C137.094 62.7345 137.814 62.0145 138.294 61.4036C138.818 60.7927 139.407 60.0291 140.062 59.1127C140.673 58.3709 141.436 58.1309 142.353 58.3927C143.269 58.6109 143.705 59.2436 143.662 60.2909C143.487 64.8291 141.807 68.6909 138.622 71.8764C135.48 75.0618 131.007 76.6545 125.203 76.6545ZM177.886 68.8655C178.017 69.9127 178.257 70.7636 178.606 71.4182C178.999 72.0291 179.37 72.4218 179.719 72.5964C180.112 72.7709 180.461 72.9891 180.766 73.2509C181.072 73.5127 181.224 73.84 181.224 74.2327C181.224 75.6727 178.759 76.3927 173.828 76.3927C171.821 76.3927 170.315 76.1527 169.312 75.6727C168.352 75.1927 167.741 74.3855 167.479 73.2509C165.821 75.52 163.05 76.6545 159.166 76.6545C155.501 76.6545 152.512 75.8036 150.199 74.1018C147.93 72.4 146.795 69.9345 146.795 66.7055C146.795 63.5636 147.93 61.12 150.199 59.3745C152.468 57.5855 155.261 56.6909 158.577 56.6909C161.152 56.6909 163.355 57.2364 165.188 58.3273V58.1309C164.752 53.8109 164.25 50.8873 163.683 49.36C163.159 47.8327 162.112 47.0691 160.541 47.0691C159.537 47.0691 158.73 47.5273 158.119 48.4436C157.508 49.36 157.05 50.3636 156.744 51.4545C156.483 52.5455 155.959 53.5491 155.173 54.4655C154.388 55.3818 153.341 55.84 152.032 55.84C150.679 55.84 149.566 55.4473 148.693 54.6618C147.864 53.8764 147.45 52.8509 147.45 51.5855C147.45 49.0545 148.715 47.1564 151.246 45.8909C153.777 44.5818 156.875 43.9273 160.541 43.9273C164.904 43.9273 168.504 45.1273 171.341 47.5273C174.221 49.8836 175.923 53.0909 176.446 57.1491L177.886 68.8655ZM162.766 73.3164C163.77 73.3164 164.577 72.8364 165.188 71.8764C165.843 70.9164 166.17 69.8255 166.17 68.6036L165.908 65.5927C165.472 61.9709 164.119 60.16 161.85 60.16C160.846 60.16 160.039 60.5745 159.428 61.4036C158.817 62.1891 158.512 63.2582 158.512 64.6109C158.512 67.0545 158.883 69.1273 159.624 70.8291C160.41 72.4873 161.457 73.3164 162.766 73.3164ZM238.286 68.8655C238.374 69.9564 238.788 71.0473 239.53 72.1382C240.272 73.2291 240.643 74.0364 240.643 74.56V74.8218C240.643 75.6509 240.119 76.0655 239.072 76.0655H225.981C224.934 76.0655 224.41 75.6509 224.41 74.8218V74.56C224.41 74.08 224.825 73.2945 225.654 72.2036C226.483 71.1127 226.854 70 226.766 68.8655L226.112 57.28C225.937 54.0073 225.501 51.6945 224.803 50.3418C224.105 48.9455 223.035 48.2473 221.595 48.2473C220.286 48.2473 219.283 48.8145 218.585 49.9491C217.886 51.0836 217.537 52.5891 217.537 54.4655C217.668 55.3818 217.734 56.2982 217.734 57.2145V68.8655C217.734 69.9564 218.126 71.0473 218.912 72.1382C219.697 73.2291 220.09 74.0364 220.09 74.56V74.8218C220.09 75.6509 219.566 76.0655 218.519 76.0655H205.494C204.446 76.0655 203.923 75.6509 203.923 74.8218V74.56C203.923 74.0364 204.294 73.2291 205.035 72.1382C205.821 71.0473 206.214 69.9564 206.214 68.8655V56.4291C206.214 50.9745 204.73 48.2473 201.763 48.2473C200.323 48.2473 199.232 48.8145 198.49 49.9491C197.748 51.0836 197.377 52.5891 197.377 54.4655V68.8655C197.377 69.9564 197.857 71.0473 198.817 72.1382C199.777 73.2291 200.257 74.0364 200.257 74.56V74.8218C200.257 75.6509 199.734 76.0655 198.686 76.0655H184.548C183.501 76.0655 182.977 75.6509 182.977 74.8218V74.56C182.977 74.0364 183.457 73.2291 184.417 72.1382C185.377 71.0473 185.857 69.9564 185.857 68.8655V55.9709C185.857 55.0982 185.552 54.3564 184.941 53.7455C184.374 53.0909 183.806 52.5236 183.239 52.0436C182.672 51.5636 182.388 51.0618 182.388 50.5382V50.3418C182.388 49.7745 182.912 49.2291 183.959 48.7055L193.777 44.1891C194.563 43.84 195.174 43.84 195.61 44.1891C196.046 44.5382 196.265 45.0618 196.265 45.76V48.1164C198.272 45.3236 201.174 43.9273 204.97 43.9273C209.814 43.9273 213.392 45.7164 215.705 49.2945C216.577 47.5927 217.865 46.2836 219.566 45.3673C221.268 44.4073 223.21 43.9273 225.392 43.9273C228.577 43.9273 231.283 44.9964 233.508 47.1345C235.777 49.2727 237.086 52.7855 237.435 57.6727L238.286 68.8655ZM263.416 43.9273C267.474 43.9273 271.052 45.3236 274.15 48.1164C277.292 50.8655 278.863 54.7491 278.863 59.7673C278.863 64.7855 277.336 68.8655 274.281 72.0073C271.27 75.1055 267.649 76.6545 263.416 76.6545C260.754 76.6545 258.529 76.0218 256.739 74.7564V82.6764C256.739 83.7673 257.219 84.8364 258.179 85.8836C259.183 86.9745 259.685 87.7818 259.685 88.3055V88.5673C259.685 89.3964 259.161 89.8109 258.114 89.8109H244.238C243.19 89.8109 242.667 89.3964 242.667 88.5673V88.3055C242.667 87.7818 243.103 86.9745 243.976 85.8836C244.849 84.8364 245.285 83.7673 245.285 82.6764V55.84C245.285 54.8364 244.761 53.8982 243.714 53.0255C242.667 52.1091 242.143 51.3673 242.143 50.8V50.4727C242.143 49.7745 242.645 49.1418 243.649 48.5745L252.289 44.32C253.249 43.9273 253.947 43.8618 254.383 44.1236C254.819 44.3855 255.038 44.8873 255.038 45.6291V47.5273C256.739 45.1273 259.532 43.9273 263.416 43.9273ZM262.369 73.4473C265.685 73.4473 267.343 70.6982 267.343 65.2C267.343 62.5818 267.125 59.9636 266.689 57.3455C266.296 54.7273 265.554 52.3709 264.463 50.2764C263.416 48.1818 262.15 47.1345 260.667 47.1345C259.489 47.1345 258.529 47.6145 257.787 48.5745C257.089 49.5345 256.739 50.7782 256.739 52.3055V64.1527C256.739 66.8582 257.307 69.0836 258.441 70.8291C259.576 72.5745 260.885 73.4473 262.369 73.4473ZM315.434 68.8C315.434 69.9782 315.565 70.8727 315.827 71.4836C316.132 72.0945 316.46 72.4436 316.809 72.5309C317.202 72.5745 317.529 72.7273 317.791 72.9891C318.096 73.2509 318.249 73.6655 318.249 74.2327C318.249 75.0618 317.682 75.6291 316.547 75.9345C315.456 76.24 313.776 76.3927 311.507 76.3927C309.456 76.3927 307.951 76.1091 306.991 75.5418C306.074 74.9745 305.529 73.9927 305.354 72.5964C303.609 75.3018 300.532 76.6545 296.125 76.6545C292.634 76.6545 289.711 75.52 287.354 73.2509C285.042 70.9382 283.885 67.7745 283.885 63.76V52.8291C283.885 51.6945 283.449 50.6036 282.576 49.5564C281.703 48.5091 281.267 47.7673 281.267 47.3309V47.0691C281.267 46.1964 281.769 45.6945 282.772 45.5636L292.525 44.2545C294.576 43.9927 295.602 44.4291 295.602 45.5636L295.405 64.9382C295.362 67.5564 295.667 69.4545 296.322 70.6327C297.02 71.7673 298.111 72.3345 299.594 72.3345C300.816 72.3345 301.842 71.7455 302.671 70.5673C303.5 69.3455 303.914 67.7527 303.914 65.7891V52.8291C303.914 51.6945 303.478 50.6036 302.605 49.5564C301.732 48.5091 301.296 47.7673 301.296 47.3309V47.0691C301.296 46.1964 301.798 45.6945 302.802 45.5636L312.554 44.2545C314.474 43.9927 315.434 44.4291 315.434 45.5636V68.8ZM335.248 76.5891C331.058 76.5891 327.611 75.8909 324.906 74.4945C322.2 73.0545 320.848 71.2 320.848 68.9309C320.848 67.5345 321.262 66.4873 322.091 65.7891C322.964 65.0909 324.098 64.7418 325.495 64.7418C326.978 64.7418 328.157 65.2218 329.029 66.1818C329.902 67.0982 330.491 68.1236 330.797 69.2582C331.102 70.3491 331.626 71.3745 332.368 72.3345C333.109 73.2509 334.069 73.7091 335.248 73.7091C337.604 73.7091 338.782 72.5091 338.782 70.1091C338.782 68.5382 338.171 67.2945 336.949 66.3782C335.771 65.4618 334.331 64.7636 332.629 64.2836C330.928 63.8036 329.226 63.2582 327.524 62.6473C325.866 62.0364 324.426 61.0109 323.204 59.5709C322.026 58.1309 321.437 56.2327 321.437 53.8764C321.437 50.9527 322.724 48.5745 325.298 46.7418C327.873 44.8655 331.189 43.9273 335.248 43.9273C339.306 43.9273 342.6 44.6909 345.131 46.2182C347.706 47.7455 348.993 49.6 348.993 51.7818C348.993 52.9164 348.557 53.8764 347.684 54.6618C346.855 55.4036 345.829 55.7745 344.608 55.7745C343.168 55.7745 342.033 55.3164 341.204 54.4C340.375 53.4836 339.808 52.48 339.502 51.3891C339.24 50.2545 338.804 49.2291 338.193 48.3127C337.626 47.3964 336.84 46.9382 335.837 46.9382C334.877 46.9382 334.113 47.3091 333.546 48.0509C333.022 48.7927 332.76 49.6655 332.76 50.6691C332.76 52.2836 333.328 53.5927 334.462 54.5964C335.64 55.6 337.037 56.3636 338.651 56.8873C340.309 57.4109 341.946 57.9782 343.56 58.5891C345.218 59.2 346.615 60.2036 347.749 61.6C348.928 62.9527 349.517 64.7418 349.517 66.9673C349.517 69.76 348.229 72.0727 345.655 73.9055C343.124 75.6945 339.655 76.5891 335.248 76.5891ZM387.916 76.6545C381.546 76.6545 376.2 74.2109 371.88 69.3236C367.604 64.4364 365.466 58.72 365.466 52.1745C365.466 45.4545 367.473 39.9127 371.487 35.5491C375.502 31.1418 380.76 28.9382 387.262 28.9382C392.411 28.9382 396.862 30.1818 400.615 32.6691C404.367 35.1127 406.244 38.0364 406.244 41.44C406.244 42.9673 405.742 44.2109 404.738 45.1709C403.778 46.1309 402.469 46.6109 400.811 46.6109C399.327 46.6109 397.996 46.1745 396.818 45.3018C395.64 44.3855 394.658 43.2945 393.873 42.0291C393.131 40.7636 392.367 39.4982 391.582 38.2327C390.796 36.9236 389.836 35.8327 388.702 34.96C387.611 34.0436 386.346 33.5855 384.906 33.5855C382.724 33.5855 380.847 34.6109 379.277 36.6618C377.749 38.7127 376.986 41.4836 376.986 44.9745C376.986 51.1273 378.469 56.1891 381.437 60.16C384.404 64.0873 387.829 66.0509 391.713 66.0509C393.153 66.0509 394.462 65.8327 395.64 65.3964C396.862 64.96 397.931 64.3491 398.847 63.5636C399.807 62.7345 400.527 62.0145 401.007 61.4036C401.531 60.7927 402.12 60.0291 402.775 59.1127C403.386 58.3709 404.149 58.1309 405.066 58.3927C405.982 58.6109 406.418 59.2436 406.375 60.2909C406.2 64.8291 404.52 68.6909 401.335 71.8764C398.193 75.0618 393.72 76.6545 387.916 76.6545ZM440.599 68.8655C440.73 69.9127 440.97 70.7636 441.319 71.4182C441.712 72.0291 442.083 72.4218 442.432 72.5964C442.825 72.7709 443.174 72.9891 443.479 73.2509C443.785 73.5127 443.937 73.84 443.937 74.2327C443.937 75.6727 441.472 76.3927 436.541 76.3927C434.534 76.3927 433.028 76.1527 432.025 75.6727C431.065 75.1927 430.454 74.3855 430.192 73.2509C428.534 75.52 425.763 76.6545 421.879 76.6545C418.214 76.6545 415.225 75.8036 412.912 74.1018C410.643 72.4 409.508 69.9345 409.508 66.7055C409.508 63.5636 410.643 61.12 412.912 59.3745C415.181 57.5855 417.974 56.6909 421.29 56.6909C423.865 56.6909 426.068 57.2364 427.901 58.3273V58.1309C427.465 53.8109 426.963 50.8873 426.396 49.36C425.872 47.8327 424.825 47.0691 423.254 47.0691C422.25 47.0691 421.443 47.5273 420.832 48.4436C420.221 49.36 419.763 50.3636 419.457 51.4545C419.196 52.5455 418.672 53.5491 417.886 54.4655C417.101 55.3818 416.054 55.84 414.745 55.84C413.392 55.84 412.279 55.4473 411.406 54.6618C410.577 53.8764 410.163 52.8509 410.163 51.5855C410.163 49.0545 411.428 47.1564 413.959 45.8909C416.49 44.5818 419.588 43.9273 423.254 43.9273C427.617 43.9273 431.217 45.1273 434.054 47.5273C436.934 49.8836 438.636 53.0909 439.159 57.1491L440.599 68.8655ZM425.479 73.3164C426.483 73.3164 427.29 72.8364 427.901 71.8764C428.556 70.9164 428.883 69.8255 428.883 68.6036L428.621 65.5927C428.185 61.9709 426.832 60.16 424.563 60.16C423.559 60.16 422.752 60.5745 422.141 61.4036C421.53 62.1891 421.225 63.2582 421.225 64.6109C421.225 67.0545 421.596 69.1273 422.337 70.8291C423.123 72.4873 424.17 73.3164 425.479 73.3164ZM467.487 43.9273C469.363 43.9273 470.847 44.5382 471.938 45.76C473.072 46.9818 473.639 48.5309 473.639 50.4073C473.639 54.5091 471.959 56.56 468.599 56.56C467.247 56.56 466.221 56.2545 465.523 55.6436C464.825 54.9891 464.41 54.2691 464.279 53.4836C464.192 52.6982 463.974 52 463.625 51.3891C463.276 50.7345 462.752 50.4073 462.054 50.4073C460.439 50.4073 459.632 52.5018 459.632 56.6909V68.8655C459.632 69.9564 460.199 71.0473 461.334 72.1382C462.512 73.1855 463.101 73.9709 463.101 74.4945V74.7564C463.101 75.5855 462.578 76 461.53 76H447.458C446.41 76 445.887 75.5855 445.887 74.7564V74.4945C445.887 73.9709 446.323 73.1855 447.196 72.1382C448.069 71.0473 448.505 69.9564 448.505 68.8655V55.84C448.505 54.9673 448.243 54.2255 447.719 53.6145C447.196 53.0036 446.672 52.48 446.149 52.0436C445.625 51.6073 445.363 51.1273 445.363 50.6036V50.4073C445.363 49.6655 445.865 49.0327 446.869 48.5091L456.098 44.1891C456.97 43.8836 457.581 43.8618 457.93 44.1236C458.279 44.3855 458.454 44.8873 458.454 45.6291V50.4073C459.938 46.0873 462.949 43.9273 467.487 43.9273ZM488.897 76.6545C485.581 76.6545 482.962 75.6073 481.042 73.5127C479.166 71.4182 478.228 68.4291 478.228 64.5455V49.0327H475.741C475.304 49.0327 474.933 48.9018 474.628 48.64C474.366 48.3345 474.235 47.9636 474.235 47.5273V46.0873C474.235 45.0836 474.737 44.5818 475.741 44.5818H476.984C478.992 44.5818 480.715 43.9927 482.155 42.8145C483.595 41.5927 484.533 39.9782 484.97 37.9709C485.188 36.8364 485.777 36.2691 486.737 36.2691H488.242C489.421 36.2691 490.01 36.8364 490.01 37.9709V44.5818H496.752C497.188 44.5818 497.537 44.7345 497.799 45.04C498.104 45.3018 498.257 45.6509 498.257 46.0873V47.5273C498.257 47.9636 498.104 48.3345 497.799 48.64C497.537 48.9018 497.188 49.0327 496.752 49.0327H490.01V64.7418C490.01 65.8327 490.293 66.7055 490.861 67.36C491.428 67.9709 492.126 68.2764 492.955 68.2764C494.832 68.2764 496.272 67.4691 497.275 65.8545C497.581 65.4618 497.93 65.2436 498.322 65.2C498.715 65.1127 499.042 65.1782 499.304 65.3964C499.61 65.6145 499.762 65.92 499.762 66.3127C499.762 69.0618 498.781 71.4836 496.817 73.5782C494.897 75.6291 492.257 76.6545 488.897 76.6545Z" fill="black"/>
</svg>
