<svg width="729" height="750" viewBox="0 0 729 750" fill="none" xmlns="http://www.w3.org/2000/svg">
<g clip-path="url(#clip0_3033_2362)">
<path d="M613.175 154.045H599.408L483.08 37.7167C473.787 28.4242 458.644 28.4242 449.007 37.7167C439.715 47.0092 439.715 62.1525 449.007 71.7892L531.263 154.045H196.733L278.989 71.7892C288.282 62.4967 288.282 47.3533 278.989 37.7167C269.697 28.4242 254.553 28.4242 244.917 37.7167L128.932 154.045H115.166C84.1907 154.045 19.8315 154.045 19.8315 242.152C19.8315 275.536 26.7149 297.562 41.1699 312.017C49.4299 320.622 59.4107 325.096 70.0799 327.505C80.0607 329.914 90.7299 330.258 101.055 330.258H626.942C637.611 330.258 647.592 329.57 657.228 327.505C686.138 320.622 708.165 299.972 708.165 242.152C708.165 154.045 643.806 154.045 613.175 154.045Z" fill="#FDEACB" fill-opacity="0.5"/>
<path d="M627.286 330.258H101.055C91.0745 330.258 80.0612 329.914 70.0803 327.161L113.445 591.825C123.082 651.022 148.894 719.167 263.502 719.167H456.579C572.564 719.167 593.214 661.002 605.604 595.955L657.573 327.161C647.936 329.57 637.611 330.258 627.286 330.258ZM363.999 598.708C283.464 598.708 217.728 532.972 217.728 452.437C217.728 438.327 229.429 426.625 243.54 426.625C257.651 426.625 269.353 438.327 269.353 452.437C269.353 504.751 311.685 547.083 363.999 547.083C416.312 547.083 458.645 504.751 458.645 452.437C458.645 438.327 470.346 426.625 484.457 426.625C498.568 426.625 510.27 438.327 510.27 452.437C510.27 532.972 444.534 598.708 363.999 598.708Z" fill="#FDEACB" fill-opacity="0.5"/>
</g>
<defs>
<clipPath id="clip0_3033_2362">
<rect width="729" height="750" fill="white"/>
</clipPath>
</defs>
</svg>
