<?xml version="1.0" encoding="UTF-8"?>
<svg width="118px" height="19px" viewBox="0 0 118 19" version="1.1" xmlns="http://www.w3.org/2000/svg" xmlns:xlink="http://www.w3.org/1999/xlink">
    <!-- Generator: Sketch 42 (36781) - http://www.bohemiancoding.com/sketch -->
    <title>four-stars@2x</title>
    <desc>Created with Sketch.</desc>
    <defs></defs>
    <g id="Cronologics" stroke="none" stroke-width="1" fill="none" fill-rule="evenodd">
        <g id="four-stars">
            <g id="Group-9">
                <polygon id="Star" fill="#FFBA00" points="10 15 4.12214748 18.0901699 5.24471742 11.545085 0.489434837 6.90983006 7.06107374 5.95491503 10 0 12.9389263 5.95491503 19.5105652 6.90983006 14.7552826 11.545085 15.8778525 18.0901699"></polygon>
                <polygon id="Star-Copy" fill="#FFBA00" points="34.5 15 28.6221475 18.0901699 29.7447174 11.545085 24.9894348 6.90983006 31.5610737 5.95491503 34.5 0 37.4389263 5.95491503 44.0105652 6.90983006 39.2552826 11.545085 40.3778525 18.0901699"></polygon>
                <polygon id="Star-Copy" fill="#FFBA00" points="59 15 53.1221475 18.0901699 54.2447174 11.545085 49.4894348 6.90983006 56.0610737 5.95491503 59 0 61.9389263 5.95491503 68.5105652 6.90983006 63.7552826 11.545085 64.8778525 18.0901699"></polygon>
                <polygon id="Star-Copy" fill="#FFBA00" points="83.5 15 77.6221475 18.0901699 78.7447174 11.545085 73.9894348 6.90983006 80.5610737 5.95491503 83.5 0 86.4389263 5.95491503 93.0105652 6.90983006 88.2552826 11.545085 89.3778525 18.0901699"></polygon>
                <polygon id="Star-Copy" fill="#D2D6D8" points="108 15 102.122147 18.0901699 103.244717 11.545085 98.4894348 6.90983006 105.061074 5.95491503 108 0 110.938926 5.95491503 117.510565 6.90983006 112.755283 11.545085 113.877853 18.0901699"></polygon>
            </g>
        </g>
    </g>
</svg>