<svg width="22" height="22" viewBox="0 0 22 22" fill="none" xmlns="http://www.w3.org/2000/svg">
<path d="M10.9997 6.41732C11.5059 6.41732 11.9163 6.00691 11.9163 5.50065C11.9163 4.99439 11.5059 4.58398 10.9997 4.58398C10.4934 4.58398 10.083 4.99439 10.083 5.50065C10.083 6.00691 10.4934 6.41732 10.9997 6.41732Z" fill="#619155"/>
<path d="M5.5 15.584H16.5V17.4173H5.5V15.584ZM9.16667 10.8448L11.726 13.406L15.3303 9.7989L16.5 11.0007V7.33398H12.8333L14.0342 8.50273L11.7251 10.8118L9.16667 8.25065L5.5 11.9173L6.79617 13.2135L9.16667 10.8448Z" fill="#619155"/>
<path d="M17.4163 2.74941H14.3932C14.3024 2.61444 14.2045 2.48439 14.0998 2.35983L14.0907 2.34883C13.4169 1.56469 12.4695 1.06703 11.4415 0.957328C11.1495 0.902245 10.8498 0.902245 10.5578 0.957328C9.52985 1.06703 8.58241 1.56469 7.90867 2.34883L7.89951 2.35983C7.79491 2.48409 7.697 2.61383 7.60617 2.74849V2.74941H4.58301C3.85389 2.75014 3.15484 3.0401 2.63927 3.55567C2.1237 4.07124 1.83374 4.77029 1.83301 5.49941V18.3327C1.83374 19.0619 2.1237 19.7609 2.63927 20.2765C3.15484 20.7921 3.85389 21.082 4.58301 21.0827H17.4163C18.1455 21.082 18.8445 20.7921 19.3601 20.2765C19.8756 19.7609 20.1656 19.0619 20.1663 18.3327V5.49941C20.1656 4.77029 19.8756 4.07124 19.3601 3.55567C18.8445 3.0401 18.1455 2.75014 17.4163 2.74941ZM18.333 18.3327C18.333 18.5759 18.2364 18.809 18.0645 18.9809C17.8926 19.1528 17.6595 19.2494 17.4163 19.2494H4.58301C4.33989 19.2494 4.10674 19.1528 3.93483 18.9809C3.76292 18.809 3.66634 18.5759 3.66634 18.3327V5.49941C3.66634 5.2563 3.76292 5.02314 3.93483 4.85123C4.10674 4.67932 4.33989 4.58274 4.58301 4.58274H8.75384C8.85904 4.0647 9.14009 3.59894 9.54939 3.26441C9.95869 2.92987 10.4711 2.74711 10.9997 2.74711C11.5283 2.74711 12.0407 2.92987 12.45 3.26441C12.8593 3.59894 13.1403 4.0647 13.2455 4.58274H17.4163C17.6595 4.58274 17.8926 4.67932 18.0645 4.85123C18.2364 5.02314 18.333 5.2563 18.333 5.49941V18.3327Z" fill="#619155"/>
</svg>
