<svg width="22" height="22" viewBox="0 0 22 22" fill="none" xmlns="http://www.w3.org/2000/svg">
<g clip-path="url(#clip0_3772_7889)">
<path d="M10.3125 2.74908C10.4948 2.74908 10.6697 2.82151 10.7986 2.95044C10.9276 3.07937 11 3.25424 11 3.43658C11 3.61891 10.9276 3.79378 10.7986 3.92271C10.6697 4.05164 10.4948 4.12408 10.3125 4.12408H6.1875C5.64049 4.12408 5.11589 4.34138 4.72909 4.72817C4.3423 5.11496 4.125 5.63957 4.125 6.18658V15.8116C4.125 16.3586 4.3423 16.8832 4.72909 17.27C5.11589 17.6568 5.64049 17.8741 6.1875 17.8741H15.8125C16.3595 17.8741 16.8841 17.6568 17.2709 17.27C17.6577 16.8832 17.875 16.3586 17.875 15.8116V13.0616C17.875 12.8792 17.9474 12.7044 18.0764 12.5754C18.2053 12.4465 18.3802 12.3741 18.5625 12.3741C18.7448 12.3741 18.9197 12.4465 19.0486 12.5754C19.1776 12.7044 19.25 12.8792 19.25 13.0616V15.8116C19.25 16.7233 18.8878 17.5976 18.2432 18.2423C17.5985 18.8869 16.7242 19.2491 15.8125 19.2491H6.1875C5.27582 19.2491 4.40148 18.8869 3.75682 18.2423C3.11216 17.5976 2.75 16.7233 2.75 15.8116V6.18658C2.75 5.2749 3.11216 4.40055 3.75682 3.7559C4.40148 3.11124 5.27582 2.74908 6.1875 2.74908H10.3125ZM14.8225 1.44283C14.9382 1.38628 15.0675 1.36339 15.1957 1.37676C15.3238 1.39013 15.4456 1.43923 15.5471 1.51845L21.7346 6.33095C21.8174 6.39522 21.8844 6.47756 21.9305 6.5717C21.9766 6.66583 22.0006 6.76926 22.0006 6.87408C22.0006 6.97889 21.9766 7.08232 21.9305 7.17646C21.8844 7.27059 21.8174 7.35294 21.7346 7.4172L15.5471 12.2297C15.4455 12.3088 15.3237 12.3577 15.1957 12.3709C15.0676 12.3841 14.9384 12.3612 14.8228 12.3046C14.7071 12.248 14.6097 12.16 14.5416 12.0508C14.4735 11.9415 14.4374 11.8153 14.4375 11.6866V9.65845C11.3685 9.9747 9.4545 12.3713 8.393 14.3321L8.17713 14.7446C8.10776 14.883 7.99371 14.9939 7.85344 15.0594C7.71318 15.1249 7.5549 15.1412 7.40425 15.1056C7.25359 15.0699 7.11937 14.9845 7.02332 14.8631C6.92727 14.7417 6.87501 14.5914 6.875 14.4366C6.875 11.5821 7.58725 9.0177 8.98838 7.14908C10.2781 5.43033 12.1316 4.33445 14.4375 4.15295V2.06158C14.4372 1.93273 14.4732 1.8064 14.5413 1.69699C14.6093 1.58759 14.7068 1.49952 14.8225 1.44283ZM15.8125 4.81158C15.8125 4.99391 15.7401 5.16878 15.6111 5.29771C15.4822 5.42664 15.3073 5.49908 15.125 5.49908C12.9387 5.49908 11.2516 6.42445 10.0897 7.97408C9.35137 8.95858 8.81375 10.2098 8.51675 11.6591C9.93025 9.89633 12.0656 8.24908 15.125 8.24908C15.3073 8.24908 15.4822 8.32151 15.6111 8.45044C15.7401 8.57937 15.8125 8.75424 15.8125 8.93658V10.2813L20.1919 6.87408L15.8125 3.46545V4.81158Z" fill="#619155"/>
</g>
<defs>
<clipPath id="clip0_3772_7889">
<rect width="22" height="22" fill="white"/>
</clipPath>
</defs>
</svg>
