<svg width="22" height="22" viewBox="0 0 22 22" fill="none" xmlns="http://www.w3.org/2000/svg">
<path d="M8.25275 5.4992C8.25275 4.77059 8.54219 4.07181 9.0574 3.5566C9.57261 3.04139 10.2714 2.75195 11 2.75195C11.7286 2.75195 12.4274 3.04139 12.9426 3.5566C13.4578 4.07181 13.7473 4.77059 13.7473 5.4992C13.7473 6.22782 13.4578 6.92659 12.9426 7.4418C12.4274 7.95701 11.7286 8.24645 11 8.24645C10.2714 8.24645 9.57261 7.95701 9.0574 7.4418C8.54219 6.92659 8.25275 6.22782 8.25275 5.4992ZM11 4.12695C10.8198 4.12695 10.6414 4.16245 10.4749 4.23141C10.3084 4.30037 10.1571 4.40145 10.0297 4.52888C9.90225 4.6563 9.80117 4.80758 9.73221 4.97407C9.66324 5.14055 9.62775 5.319 9.62775 5.4992C9.62775 5.67941 9.66324 5.85785 9.73221 6.02434C9.80117 6.19083 9.90225 6.34211 10.0297 6.46953C10.1571 6.59696 10.3084 6.69803 10.4749 6.767C10.6414 6.83596 10.8198 6.87145 11 6.87145C11.3639 6.87145 11.713 6.72688 11.9703 6.46953C12.2277 6.21218 12.3723 5.86315 12.3723 5.4992C12.3723 5.13526 12.2277 4.78622 11.9703 4.52888C11.713 4.27153 11.3639 4.12695 11 4.12695ZM15.125 6.1867C15.125 5.91585 15.1783 5.64765 15.282 5.39742C15.3856 5.14718 15.5376 4.91982 15.7291 4.7283C15.9206 4.53677 16.148 4.38485 16.3982 4.2812C16.6484 4.17755 16.9166 4.1242 17.1875 4.1242C17.4584 4.1242 17.7266 4.17755 17.9768 4.2812C18.227 4.38485 18.4544 4.53677 18.6459 4.7283C18.8374 4.91982 18.9894 5.14718 19.093 5.39742C19.1967 5.64765 19.25 5.91585 19.25 6.1867C19.25 6.73371 19.0327 7.25832 18.6459 7.64511C18.2591 8.0319 17.7345 8.2492 17.1875 8.2492C16.6405 8.2492 16.1159 8.0319 15.7291 7.64511C15.3423 7.25832 15.125 6.73371 15.125 6.1867ZM17.1875 5.4992C17.0052 5.4992 16.8303 5.57164 16.7014 5.70057C16.5724 5.8295 16.5 6.00437 16.5 6.1867C16.5 6.36904 16.5724 6.54391 16.7014 6.67284C16.8303 6.80177 17.0052 6.8742 17.1875 6.8742C17.3698 6.8742 17.5447 6.80177 17.6736 6.67284C17.8026 6.54391 17.875 6.36904 17.875 6.1867C17.875 6.00437 17.8026 5.8295 17.6736 5.70057C17.5447 5.57164 17.3698 5.4992 17.1875 5.4992ZM4.8125 4.1242C4.26549 4.1242 3.74089 4.3415 3.35409 4.7283C2.9673 5.11509 2.75 5.63969 2.75 6.1867C2.75 6.73371 2.9673 7.25832 3.35409 7.64511C3.74089 8.0319 4.26549 8.2492 4.8125 8.2492C5.35951 8.2492 5.88411 8.0319 6.27091 7.64511C6.6577 7.25832 6.875 6.73371 6.875 6.1867C6.875 5.63969 6.6577 5.11509 6.27091 4.7283C5.88411 4.3415 5.35951 4.1242 4.8125 4.1242ZM4.125 6.1867C4.125 6.00437 4.19743 5.8295 4.32636 5.70057C4.4553 5.57164 4.63016 5.4992 4.8125 5.4992C4.99484 5.4992 5.1697 5.57164 5.29864 5.70057C5.42757 5.8295 5.5 6.00437 5.5 6.1867C5.5 6.36904 5.42757 6.54391 5.29864 6.67284C5.1697 6.80177 4.99484 6.8742 4.8125 6.8742C4.63016 6.8742 4.4553 6.80177 4.32636 6.67284C4.19743 6.54391 4.125 6.36904 4.125 6.1867ZM5.8685 9.6242C5.62711 10.0422 5.50002 10.5165 5.5 10.9992H2.75V14.4367C2.74989 14.7787 2.83483 15.1154 2.99718 15.4164C3.15953 15.7174 3.39419 15.9734 3.68003 16.1612C3.96588 16.3489 4.29394 16.4627 4.63468 16.4922C4.97542 16.5217 5.31814 16.466 5.632 16.3301C5.73375 16.7852 5.89325 17.2197 6.0995 17.6253C5.57764 17.836 5.01202 17.9154 4.45233 17.8564C3.89263 17.7975 3.35597 17.602 2.88948 17.2871C2.42299 16.9723 2.04094 16.5477 1.77688 16.0507C1.51281 15.5537 1.37481 14.9995 1.375 14.4367V10.9992C1.375 10.6345 1.51987 10.2848 1.77773 10.0269C2.03559 9.76907 2.38533 9.6242 2.75 9.6242H5.8685ZM15.9005 17.6253C16.4224 17.836 16.988 17.9154 17.5477 17.8564C18.1074 17.7975 18.644 17.602 19.1105 17.2871C19.577 16.9723 19.9591 16.5477 20.2231 16.0507C20.4872 15.5537 20.6252 14.9995 20.625 14.4367V10.9992C20.625 10.6345 20.4801 10.2848 20.2223 10.0269C19.9644 9.76907 19.6147 9.6242 19.25 9.6242H16.1315C16.3653 10.0285 16.5 10.4973 16.5 10.9992H19.25V14.4367C19.2501 14.7787 19.1652 15.1154 19.0028 15.4164C18.8405 15.7174 18.6058 15.9734 18.32 16.1612C18.0341 16.3489 17.7061 16.4627 17.3653 16.4922C17.0246 16.5217 16.6819 16.466 16.368 16.3301C16.2635 16.7866 16.1077 17.2183 15.9005 17.6253ZM8.25 9.62283C7.88533 9.62283 7.53559 9.76769 7.27773 10.0256C7.01987 10.2834 6.875 10.6332 6.875 10.9978V15.1242C6.875 16.2182 7.3096 17.2674 8.08318 18.041C8.85677 18.8146 9.90598 19.2492 11 19.2492C12.094 19.2492 13.1432 18.8146 13.9168 18.041C14.6904 17.2674 15.125 16.2182 15.125 15.1242V10.9992C15.125 10.6345 14.9801 10.2848 14.7223 10.0269C14.4644 9.76907 14.1147 9.6242 13.75 9.6242L8.25 9.62283ZM8.25 10.9978H13.75V15.1242C13.75 15.8535 13.4603 16.553 12.9445 17.0687C12.4288 17.5845 11.7293 17.8742 11 17.8742C10.2707 17.8742 9.57118 17.5845 9.05546 17.0687C8.53973 16.553 8.25 15.8535 8.25 15.1242V10.9978Z" fill="#619155"/>
</svg>
