<svg width="44" height="51" viewBox="0 0 44 51" fill="none" xmlns="http://www.w3.org/2000/svg">
<g clip-path="url(#clip0_3244_19747)">
<path d="M13.6819 16.9683L13.9753 16.9432C14.0816 16.9319 14.1833 16.8937 14.2707 16.8321L14.2686 16.8342C14.5494 17.8022 14.893 18.8205 15.3225 19.887C15.8735 21.2824 16.4162 22.4285 17.0238 23.5348L16.94 23.3672C16.8897 24.1299 16.829 24.9135 16.7494 25.672C16.7137 26.1193 16.6229 26.5606 16.4791 26.9857L16.4895 26.948C16.4644 26.9584 16.4288 31.3061 16.4288 31.3061C16.4303 32.6549 16.8852 33.964 17.7205 35.0231C18.5557 36.0822 19.7228 36.8297 21.0341 37.1455L21.076 37.1539C21.1333 37.0019 21.2356 36.8711 21.3693 36.779C21.503 36.6869 21.6617 36.6378 21.824 36.6384H23.0267C23.1873 36.6406 23.3437 36.69 23.4764 36.7806C23.609 36.8712 23.7121 36.9988 23.7726 37.1476L23.7747 37.1539C25.0969 36.8471 26.2771 36.1034 27.1246 35.0431C27.972 33.9827 28.4372 32.6676 28.445 31.3102C28.445 31.3102 28.3716 26.9794 28.3339 26.9501C28.207 26.5456 28.1214 26.1293 28.0783 25.7076L28.0762 25.6761C28.0029 24.9135 27.9547 24.1487 27.8855 23.3714C28.4031 22.4369 28.9457 21.2929 29.4234 20.1133L29.5031 19.8912C29.9326 18.8247 30.2657 17.8085 30.557 16.8384C30.6432 16.8993 30.7433 16.9375 30.8482 16.9495H30.8503L31.1457 16.9746C31.5019 17.0123 31.8162 16.719 31.8455 16.2643L32.164 12.2184V12.2142C32.1638 12.0514 32.1044 11.8943 31.9968 11.772C31.8893 11.6498 31.7409 11.5709 31.5794 11.5501H31.5396C31.8215 9.44334 31.6486 7.3007 31.0326 5.26643L31.0598 5.37329C30.4688 4.06108 29.57 2.91081 28.4397 2.02008C27.3093 1.12935 25.9807 0.524449 24.5667 0.25672L24.5122 0.248339C23.8264 0.112399 23.1305 0.0339046 22.4316 0.0136719H22.3876C21.6565 0.0268922 20.9282 0.109678 20.2128 0.26091L20.2882 0.248339C18.8752 0.511484 17.5457 1.10885 16.4107 1.99056C15.2757 2.87227 14.3681 4.01273 13.7636 5.31672L13.7406 5.37329C13.1376 7.40027 12.9768 9.5331 13.2692 11.6276L13.2608 11.5501C13.0989 11.5676 12.9491 11.6441 12.8401 11.7651C12.7311 11.8861 12.6705 12.043 12.6699 12.2059V12.2205L12.9884 16.2664C13.0177 16.7316 13.3362 17.0123 13.6798 16.9746L13.6819 16.9683Z" fill="#38424B"/>
<path d="M44.8733 43.7442C44.7267 37.3747 44.0897 35.9332 43.7461 34.9568C43.6099 34.565 43.4989 31.9166 39.124 30.1985C36.4421 29.1425 32.9808 29.1216 30.0516 27.8833V31.3278C30.0494 33.0939 29.4326 34.8042 28.3071 36.1652C27.1816 37.5262 25.6175 38.4531 23.8832 38.7869L23.8351 38.7953C23.8037 38.9811 23.708 39.15 23.5648 39.2726C23.4216 39.3951 23.2399 39.4635 23.0514 39.4658H23.0137V42.0638C23.0137 43.283 23.498 44.4523 24.3601 45.3144C25.2222 46.1765 26.3915 46.6608 27.6107 46.6608C28.8299 46.6608 29.9991 46.1765 30.8612 45.3144C31.7233 44.4523 32.2076 43.283 32.2076 42.0638V40.2494C31.5748 40.1566 30.998 39.8351 30.5862 39.3457C30.1745 38.8564 29.9563 38.2331 29.9731 37.5938C29.9898 36.9544 30.2402 36.3434 30.6771 35.8763C31.1139 35.4091 31.7067 35.1183 32.3435 35.0587C32.9803 34.9991 33.6168 35.175 34.1326 35.553C34.6485 35.9311 35.0079 36.485 35.1429 37.1102C35.278 37.7353 35.1792 38.3883 34.8653 38.9455C34.5514 39.5027 34.0442 39.9256 33.4396 40.1341L33.4208 40.1404V42.1623C33.4208 43.7038 32.8084 45.1822 31.7184 46.2722C30.6284 47.3622 29.1501 47.9745 27.6086 47.9745C26.0671 47.9745 24.5887 47.3622 23.4987 46.2722C22.4087 45.1822 21.7964 43.7038 21.7964 42.1623V42.0576V42.0618V39.4406C21.6169 39.4287 21.4466 39.3564 21.3135 39.2354C21.1803 39.1144 21.092 38.9519 21.0631 38.7743V38.7701C19.3272 38.4391 17.7605 37.5147 16.6314 36.1555C15.5022 34.7962 14.8808 33.0866 14.8737 31.3195V27.8477C11.932 29.1111 8.44972 29.1362 5.75315 30.1943C1.36572 31.9103 1.26515 34.5524 1.13106 34.9505C0.79582 35.9311 0.150486 37.3663 0.00381964 43.74C-0.0213232 44.5781 0.00381976 45.8625 2.53068 46.9856C8.03277 49.1437 15.121 49.8141 22.1086 50.296H22.7791C29.7813 49.8183 36.8591 49.1499 42.357 46.9856C44.8733 45.8688 44.8964 44.5907 44.8733 43.7442ZM14.1132 41.1461H11.5025V43.7673H9.63772V41.1545H7.02706V39.2898H9.63772V36.6791H11.5025V39.2898H14.1132V41.1461Z" fill="#38424B"/>
<path d="M33.994 37.6416C33.9937 37.2677 33.845 36.9072 33.5805 36.6429C33.3159 36.3787 32.9573 36.2303 32.5834 36.2305C32.2095 36.2306 31.851 36.3792 31.5867 36.6437C31.3223 36.9081 31.1738 37.2667 31.1738 37.6406C31.1738 38.0145 31.3223 38.373 31.5867 38.6375C31.851 38.9019 32.2095 39.0505 32.5834 39.0507C32.9573 39.0508 33.3159 38.9024 33.5805 38.6382C33.845 38.374 33.9937 38.0155 33.994 37.6416Z" fill="#38424B"/>
</g>
<defs>
<clipPath id="clip0_3244_19747">
<rect width="44" height="50.2857" fill="white"/>
</clipPath>
</defs>
</svg>
