<svg width="22" height="22" viewBox="0 0 22 22" fill="none" xmlns="http://www.w3.org/2000/svg">
<path d="M1.94742 19.0215L0.881797 18.5975C0.805656 18.7891 0.782612 18.9977 0.815094 19.2013C0.847577 19.4048 0.934383 19.5959 1.06636 19.7543C1.19834 19.9126 1.3706 20.0325 1.56499 20.1011C1.75938 20.1698 1.96869 20.1847 2.17086 20.1444L1.94742 19.0215ZM7.33971 17.949L7.88283 16.9395L7.5196 16.7447L7.11627 16.8249L7.33971 17.949ZM3.80825 14.343L4.87388 14.767L5.06065 14.2926L4.83606 13.8354L3.80825 14.343ZM19.1349 11.0006C19.1349 14.72 15.8658 17.8756 11.6526 17.8756V20.1673C16.9704 20.1673 21.4266 16.1408 21.4266 11.0006H19.1349ZM4.17148 11.0006C4.17148 7.28127 7.44169 4.12565 11.6538 4.12565V1.83398C6.33596 1.83398 1.87867 5.86044 1.87867 11.0006H4.17148ZM11.6538 4.12565C15.8658 4.12565 19.1349 7.28127 19.1349 11.0006H21.4266C21.4266 5.86044 16.9716 1.83398 11.6538 1.83398V4.12565ZM11.6526 17.8756C10.2719 17.8756 8.98627 17.5319 7.88283 16.9395L6.79658 18.9573C8.28998 19.7579 9.95818 20.1738 11.6526 20.1673V17.8756ZM2.17086 20.1444L7.56315 19.0719L7.11627 16.8249L1.72398 17.8974L2.17086 20.1455V20.1444ZM4.83606 13.8354C4.39985 12.954 4.17322 11.9841 4.17148 11.0006H1.87867C1.87867 12.3756 2.2018 13.6796 2.7793 14.8506L4.83606 13.8354ZM2.74377 13.9191L0.881797 18.5987L3.01075 19.4443L4.87159 14.7658L2.74263 13.9191H2.74377Z" fill="#619155"/>
<path d="M7.67708 12.1471C8.30991 12.1471 8.82291 11.6341 8.82291 11.0013C8.82291 10.3685 8.30991 9.85547 7.67708 9.85547C7.04426 9.85547 6.53125 10.3685 6.53125 11.0013C6.53125 11.6341 7.04426 12.1471 7.67708 12.1471Z" fill="#619155"/>
<path d="M11.6868 12.1471C12.3197 12.1471 12.8327 11.6341 12.8327 11.0013C12.8327 10.3685 12.3197 9.85547 11.6868 9.85547C11.054 9.85547 10.541 10.3685 10.541 11.0013C10.541 11.6341 11.054 12.1471 11.6868 12.1471Z" fill="#619155"/>
<path d="M15.6976 12.1471C16.3304 12.1471 16.8434 11.6341 16.8434 11.0013C16.8434 10.3685 16.3304 9.85547 15.6976 9.85547C15.0648 9.85547 14.5518 10.3685 14.5518 11.0013C14.5518 11.6341 15.0648 12.1471 15.6976 12.1471Z" fill="#619155"/>
</svg>
