<svg width="230" height="70" viewBox="0 0 230 70" fill="none" xmlns="http://www.w3.org/2000/svg">
<g clip-path="url(#clip0_3685_5644)">
<path d="M45.2948 21.6414C45.2948 19.9817 43.9497 18.6416 42.2962 18.6416C40.6426 18.6416 39.2964 19.9817 39.2964 21.6414C39.2964 23.2949 40.6426 24.635 42.2962 24.635C43.9497 24.635 45.2948 23.2949 45.2948 21.6414Z" fill="url(#paint0_linear_3685_5644)"/>
<path d="M49.2904 45.0571C49.1793 47.4918 48.7721 48.8146 48.4341 49.6931C47.9799 50.858 47.4382 51.691 46.5596 52.5645C45.6909 53.4382 44.858 53.9787 43.6931 54.4278C42.8145 54.7709 41.4868 55.1793 39.0522 55.2954C36.4201 55.4114 35.6403 55.4361 28.9657 55.4361C22.2974 55.4361 21.5112 55.4114 18.8792 55.2954C16.4447 55.1793 15.123 54.7709 14.2444 54.4278C13.0734 53.9787 12.2467 53.4382 11.373 52.5645C10.4932 51.691 9.95147 50.858 9.50354 49.6931C9.16536 48.8146 8.75205 47.4918 8.6471 45.0571C8.51883 42.425 8.49533 41.6328 8.49533 34.9719C8.49533 28.2973 8.51883 27.5113 8.6471 24.8792C8.75205 22.4446 9.16536 21.1231 9.50354 20.237C9.95147 19.0734 10.4932 18.2454 11.373 17.3717C12.2467 16.4994 13.0734 15.9576 14.2444 15.5035C15.123 15.1593 16.4447 14.757 18.8792 14.641C21.5112 14.5249 22.2974 14.4953 28.9657 14.4953C35.6403 14.4953 36.4201 14.5249 39.0522 14.641C41.4868 14.757 42.8145 15.1593 43.6931 15.5035C44.858 15.9576 45.6909 16.4994 46.5596 17.3717C47.4382 18.2454 47.9799 19.0734 48.4341 20.237C48.7721 21.1231 49.1793 22.4446 49.2904 24.8792C49.4125 27.5113 49.4421 28.2973 49.4421 34.9719C49.4421 41.6328 49.4125 42.425 49.2904 45.0571ZM53.7858 24.6744C53.6637 22.0139 53.244 20.1963 52.6209 18.6131C51.9867 16.9707 51.1364 15.5788 49.7445 14.1869C48.3588 12.8011 46.9669 11.9509 45.3244 11.3093C43.7351 10.6923 41.9236 10.2677 39.2619 10.1518C36.6002 10.0234 35.7501 10 28.9657 10C22.1875 10 21.3312 10.0234 18.6695 10.1518C16.014 10.2677 14.2037 10.6923 12.6069 11.3093C10.9707 11.9509 9.57878 12.8011 8.19306 14.1869C6.80114 15.5788 5.95091 16.9707 5.31048 18.6131C4.69346 20.1963 4.27394 22.0139 4.14558 24.6744C4.02962 27.3361 4 28.1875 4 34.9719C4 41.7501 4.02962 42.6002 4.14558 45.2619C4.27394 47.9175 4.69346 49.7338 5.31048 51.3245C5.95091 52.9607 6.80114 54.3588 8.19306 55.7445C9.57878 57.1303 10.9707 57.9866 12.6069 58.6271C14.2037 59.244 16.014 59.6636 18.6695 59.7858C21.3312 59.908 22.1875 59.9376 28.9657 59.9376C35.7501 59.9376 36.6002 59.908 39.2619 59.7858C41.9236 59.6636 43.7351 59.244 45.3244 58.6271C46.9669 57.9866 48.3588 57.1303 49.7445 55.7445C51.1364 54.3588 51.9867 52.9607 52.6209 51.3245C53.244 49.7338 53.6637 47.9175 53.7858 45.2619C53.908 42.6002 53.9375 41.7501 53.9375 34.9719C53.9375 28.1875 53.908 27.3361 53.7858 24.6744Z" fill="url(#paint1_linear_3685_5644)"/>
<path d="M28.9657 43.2879C24.3716 43.2879 20.6438 39.5662 20.6438 34.9721C20.6438 30.3706 24.3716 26.6441 28.9657 26.6441C33.5611 26.6441 37.2938 30.3706 37.2938 34.9721C37.2938 39.5662 33.5611 43.2879 28.9657 43.2879ZM28.9657 22.1426C21.8839 22.1426 16.1484 27.8903 16.1484 34.9721C16.1484 42.0477 21.8839 47.7894 28.9657 47.7894C36.0474 47.7894 41.7891 42.0477 41.7891 34.9721C41.7891 27.8903 36.0474 22.1426 28.9657 22.1426Z" fill="url(#paint2_linear_3685_5644)"/>
</g>
<g clip-path="url(#clip1_3685_5644)">
<path d="M70.4148 14.7447C67.4664 15.9917 64.2243 19.5109 63.201 23.9374C61.9027 29.541 67.3004 31.9075 67.7414 31.1354C68.2603 30.2197 66.7711 29.9123 66.467 27.0068C66.0757 23.2495 67.7995 19.0516 69.9748 17.2096C70.3806 16.8729 70.3609 17.348 70.3609 18.224C70.3609 19.8037 70.2737 33.9371 70.2737 36.8878C70.2737 40.8822 70.1118 42.1398 69.8129 43.3817C69.5192 44.6446 69.0439 45.4963 69.4019 45.8278C69.8077 46.1939 71.5315 45.3224 72.5309 43.9125C73.7265 42.2236 74.1478 40.194 74.2256 37.9913C74.3138 35.3385 74.3087 31.1207 74.3138 28.7197C74.3138 26.5116 74.3481 20.0565 74.2796 16.1701C74.2599 15.2199 71.6446 14.2244 70.4148 14.7447ZM206.349 35.714C205.928 35.714 205.728 36.1598 205.566 36.9078C205.008 39.5165 204.42 40.1049 203.661 40.1049C202.814 40.1049 202.054 38.8138 201.854 36.2291C201.702 34.1994 201.726 30.4568 201.922 26.7341C201.962 25.9715 201.755 25.2152 199.727 24.4674C198.851 24.1505 197.582 23.6754 196.951 25.2194C195.163 29.5715 194.468 33.0361 194.301 34.4375C194.297 34.5109 194.208 34.5214 194.193 34.3536C194.091 33.2291 193.855 31.1847 193.826 26.8873C193.816 26.0565 193.645 25.3379 192.724 24.7537C192.131 24.3781 190.329 23.7047 189.677 24.502C189.119 25.1554 188.468 26.9082 187.787 28.9872C187.238 30.6802 186.856 31.8288 186.856 31.8288C186.856 31.8288 186.86 27.2638 186.871 25.531C186.871 24.8775 186.43 24.6603 186.298 24.6204C185.695 24.4422 184.505 24.1505 184.006 24.1505C183.384 24.1505 183.237 24.502 183.237 25.0117C183.237 25.0757 183.134 31.0159 183.134 35.1697V35.7539C182.795 37.6651 181.68 40.2592 180.47 40.2592C179.26 40.2592 178.687 39.1745 178.687 34.2245C178.687 31.3379 178.775 30.0813 178.814 27.9918C178.838 26.7886 178.887 25.8634 178.883 25.6506C178.873 25.0117 177.77 24.6845 177.261 24.5659C176.747 24.4422 176.301 24.4023 175.949 24.417C175.459 24.4474 175.112 24.7736 175.112 25.2299V25.9222C174.48 24.9131 173.455 24.2093 172.77 24.0068C170.939 23.4572 169.023 23.947 167.578 25.9862C166.432 27.611 165.741 29.4467 165.472 32.0858C165.271 34.0168 165.336 35.9721 165.693 37.6252C165.262 39.4913 164.468 40.2592 163.601 40.2592C162.337 40.2592 161.427 38.1791 161.53 34.5801C161.604 32.2148 162.069 30.5564 162.582 28.1501C162.803 27.1253 162.622 26.5915 162.176 26.0711C161.77 25.6054 160.898 25.3631 159.649 25.6547C158.762 25.8677 157.484 26.0953 156.323 26.2694C156.323 26.2694 156.392 25.9862 156.451 25.4869C156.75 22.8677 153.933 23.0806 153.037 23.9177C152.498 24.417 152.131 25.0065 151.993 26.0659C151.773 27.7495 153.13 28.5414 153.13 28.5414C152.685 30.6005 151.597 33.2931 150.466 35.239C149.863 36.2836 149.402 37.0515 148.805 37.8728C148.8 37.5707 148.8 37.2633 148.8 36.9622C148.79 32.6302 148.844 29.2201 148.868 27.9918C148.893 26.7886 148.942 25.8876 148.942 25.6746C148.932 25.2089 148.663 25.0264 148.094 24.8082C147.595 24.611 147.002 24.4674 146.39 24.417C145.621 24.3582 145.151 24.7736 145.166 25.2635V25.9222C144.529 24.9131 143.505 24.2093 142.829 24.0068C140.992 23.4572 139.078 23.947 137.633 25.9862C136.492 27.611 135.737 29.883 135.521 32.0606C135.326 34.1008 135.36 35.8231 135.634 37.279C135.341 38.7339 134.503 40.2592 133.554 40.2592C132.343 40.2592 131.652 39.1745 131.652 34.2245C131.652 31.3379 131.741 30.0813 131.785 27.9918C131.809 26.7886 131.854 25.8634 131.848 25.6506C131.843 25.0117 130.742 24.6845 130.227 24.5659C129.694 24.4379 129.228 24.3981 128.875 24.417C128.405 24.4568 128.077 24.8775 128.077 25.1995V25.9222C127.441 24.9131 126.417 24.2093 125.736 24.0068C123.904 23.4572 122.004 23.9576 120.549 25.9862C119.599 27.3089 118.83 28.7785 118.434 32.0365C118.326 32.9774 118.272 33.8575 118.277 34.6798C117.899 37.0158 116.23 39.7094 114.868 39.7094C114.065 39.7094 113.301 38.1444 113.301 34.8036C113.301 30.3582 113.575 24.0215 113.624 23.4079C113.624 23.4079 115.347 23.3774 115.686 23.3733C116.543 23.368 117.326 23.388 118.468 23.3282C119.046 23.2989 119.599 21.2146 119.001 20.9523C118.737 20.838 116.837 20.7341 116.082 20.7195C115.446 20.7048 113.687 20.5716 113.687 20.5716C113.687 20.5716 113.845 16.3685 113.879 15.9279C113.908 15.5513 113.438 15.3636 113.164 15.2492C112.502 14.9628 111.909 14.8286 111.214 14.6849C110.239 14.4825 109.803 14.6807 109.72 15.5062C109.593 16.7597 109.524 20.4331 109.524 20.4331C108.809 20.4331 106.385 20.2884 105.674 20.2884C105.014 20.2884 104.298 23.1603 105.214 23.1949C106.268 23.2348 108.094 23.2747 109.308 23.3082C109.308 23.3082 109.254 29.7498 109.254 31.7344V32.348C108.584 35.8671 106.238 37.7689 106.238 37.7689C106.742 35.4373 105.713 33.6896 103.853 32.2148C103.167 31.6652 101.815 30.6298 100.301 29.5064C100.301 29.5064 101.178 28.6306 101.957 26.8778C102.506 25.6348 102.531 24.2051 101.178 23.8925C98.9449 23.3733 97.108 25.0317 96.5548 26.8033C96.1335 28.1701 96.3545 29.1896 97.191 30.2438L97.3819 30.4819C96.8828 31.4616 96.1875 32.7833 95.6042 33.8081C93.9737 36.655 92.744 38.9029 91.8182 38.9029C91.0741 38.9029 91.0834 36.6205 91.0834 34.4816C91.0834 32.6396 91.2206 29.8631 91.3284 26.9921C91.3628 26.046 90.8926 25.5015 90.1049 25.0117C89.6242 24.7148 88.6051 24.1306 88.0126 24.1306C87.1316 24.1306 84.5744 24.2491 82.1605 31.3033C81.8564 32.1948 81.2586 33.8134 81.2586 33.8134L81.3126 25.3285C81.3126 25.1302 81.2099 24.9425 80.9701 24.8082C80.5633 24.5858 79.4715 24.1306 78.5115 24.1306C78.0456 24.1306 77.8152 24.3488 77.8152 24.7789L77.7373 38.0459C77.7373 39.056 77.7612 40.2339 77.8598 40.7489C77.9574 41.264 78.1193 41.6846 78.3154 41.9364C78.5115 42.1797 78.7409 42.3675 79.1135 42.4515C79.4611 42.5259 81.3759 42.7681 81.4745 42.0309C81.5969 41.1444 81.6011 40.1899 82.6057 36.6109C84.1728 31.0462 86.2111 28.3337 87.171 27.3676C87.3423 27.1998 87.5331 27.1894 87.5228 27.4673C87.4792 28.6893 87.337 31.7344 87.2395 34.3232C86.9799 41.2589 88.2232 42.5406 90.0114 42.5406C91.3731 42.5406 93.2931 41.1696 95.3552 37.705C96.6431 35.5411 97.8874 33.4274 98.7881 31.898C99.4057 32.4812 100.11 33.1106 100.811 33.784C102.442 35.3428 102.976 36.8281 102.619 38.2347C102.349 39.3129 101.326 40.4217 99.5083 39.3433C98.9792 39.0308 98.754 38.7886 98.2204 38.4318C97.9361 38.2388 97.495 38.1843 97.2356 38.3825C96.5496 38.9029 96.1624 39.5606 95.9372 40.3778C95.7266 41.1749 96.5154 41.5902 97.3332 41.9563C98.0336 42.2784 99.5427 42.5604 100.507 42.5952C104.264 42.7242 107.271 40.7636 109.362 35.714C109.74 40.0757 111.331 42.5459 114.099 42.5459C115.954 42.5459 117.811 40.1249 118.625 37.7438C118.854 38.714 119.202 39.5553 119.648 40.2739C121.784 43.6891 125.927 42.957 128.003 40.0556C128.65 39.1545 128.749 38.8326 128.749 38.8326C129.052 41.5714 131.236 42.5353 132.486 42.5353C133.891 42.5353 135.331 41.8631 136.344 39.5553C136.467 39.8081 136.594 40.0462 136.742 40.2739C138.872 43.6891 143.015 42.957 145.097 40.0556C145.19 39.912 145.279 39.7934 145.351 39.6792L145.416 41.4811C145.416 41.4811 144.225 42.5805 143.496 43.258C140.288 46.2339 137.848 48.4912 137.668 51.1146C137.442 54.4659 140.126 55.709 142.163 55.8715C144.319 56.0457 146.17 54.8424 147.305 53.1495C148.305 51.6642 148.962 48.4714 148.913 45.313C148.893 44.0457 148.863 42.4419 148.834 40.7144C149.965 39.3979 151.239 37.7238 152.405 35.7645C153.683 33.6351 155.044 30.7683 155.74 28.5362C155.74 28.5362 156.93 28.5467 158.194 28.467C158.601 28.4418 158.718 28.5268 158.639 28.8236C158.551 29.1844 157.043 35.071 158.419 38.992C159.365 41.6742 161.485 42.5406 162.749 42.5406C164.223 42.5406 165.634 41.412 166.388 39.7388C166.481 39.9224 166.574 40.1049 166.682 40.2739C168.813 43.6891 172.941 42.9518 175.038 40.0556C175.513 39.3979 175.778 38.8326 175.778 38.8326C176.228 41.6699 178.413 42.5459 179.661 42.5459C180.969 42.5459 182.203 42.0065 183.207 39.6099C183.247 40.6651 183.31 41.5262 183.418 41.7979C183.481 41.9669 183.854 42.1746 184.119 42.2784C185.313 42.7242 186.528 42.5112 186.974 42.4168C187.287 42.3528 187.532 42.1053 187.562 41.4518C187.649 39.7388 187.595 36.8627 188.11 34.7197C188.976 31.1355 189.78 29.7446 190.161 29.0564C190.373 28.6694 190.617 28.6054 190.622 29.0114C190.637 29.8379 190.682 32.2641 191.019 35.5315C191.26 37.9273 191.588 39.3476 191.842 39.7987C192.557 41.0805 193.448 41.1401 194.169 41.1401C194.629 41.1401 195.589 41.0112 195.505 40.194C195.462 39.7987 195.535 37.3379 196.382 33.804C196.941 31.4921 197.866 29.4079 198.199 28.6452C198.327 28.3631 198.381 28.5813 198.381 28.6253C198.307 30.2145 198.151 35.4172 198.787 38.2589C199.66 42.1157 202.171 42.5459 203.048 42.5459C204.914 42.5459 206.448 41.1099 206.962 37.3285C207.089 36.4169 206.903 35.714 206.349 35.714ZM128.038 33.378C127.935 35.3774 127.548 37.0513 126.931 38.264C125.804 40.4667 123.586 41.16 122.611 37.987C121.901 35.6952 122.141 32.5661 122.44 30.8773C122.87 28.3725 123.963 26.6008 125.667 26.7633C127.411 26.9375 128.263 29.2095 128.038 33.378ZM145.126 33.4074C145.029 35.2934 144.544 37.194 144.015 38.264C142.923 40.4814 140.64 41.1747 139.694 37.987C139.049 35.8031 139.2 32.9867 139.523 31.2141C139.94 28.9074 140.944 26.7633 142.752 26.7633C144.51 26.7633 145.376 28.7144 145.126 33.4074ZM145.572 46.2977C145.548 49.7488 145.014 52.7687 143.867 53.6498C142.232 54.897 140.033 53.9562 140.488 51.4418C140.89 49.2139 142.795 46.9419 145.578 44.1643C145.578 44.1643 145.587 44.7977 145.572 46.2977ZM175.077 33.4273C174.979 35.502 174.523 37.1206 173.961 38.264C172.868 40.4814 170.605 41.1696 169.64 37.987C169.116 36.2489 169.091 33.3476 169.469 30.9277C169.851 28.4616 170.924 26.6008 172.697 26.7633C174.449 26.9323 175.268 29.2095 175.077 33.4273Z" fill="#DE384C"/>
</g>
<defs>
<linearGradient id="paint0_linear_3685_5644" x1="4.45034" y1="59.4213" x2="49.7782" y2="14.0936" gradientUnits="userSpaceOnUse">
<stop stop-color="#FFD521"/>
<stop offset="0.05" stop-color="#FFD521"/>
<stop offset="0.501119" stop-color="#F50000"/>
<stop offset="0.95" stop-color="#B900B4"/>
<stop offset="0.950079" stop-color="#B900B4"/>
<stop offset="1" stop-color="#B900B4"/>
</linearGradient>
<linearGradient id="paint1_linear_3685_5644" x1="4.45043" y1="59.4835" x2="49.8155" y2="14.1184" gradientUnits="userSpaceOnUse">
<stop stop-color="#FFD521"/>
<stop offset="0.05" stop-color="#FFD521"/>
<stop offset="0.501119" stop-color="#F50000"/>
<stop offset="0.95" stop-color="#B900B4"/>
<stop offset="0.950079" stop-color="#B900B4"/>
<stop offset="1" stop-color="#B900B4"/>
</linearGradient>
<linearGradient id="paint2_linear_3685_5644" x1="4.46217" y1="59.4849" x2="49.8163" y2="14.1308" gradientUnits="userSpaceOnUse">
<stop stop-color="#FFD521"/>
<stop offset="0.05" stop-color="#FFD521"/>
<stop offset="0.501119" stop-color="#F50000"/>
<stop offset="0.95" stop-color="#B900B4"/>
<stop offset="0.950079" stop-color="#B900B4"/>
<stop offset="1" stop-color="#B900B4"/>
</linearGradient>
<clipPath id="clip0_3685_5644">
<rect width="50" height="50" fill="white" transform="translate(4 10)"/>
</clipPath>
<clipPath id="clip1_3685_5644">
<rect width="144" height="40.7966" fill="white" transform="translate(63 14.6016)"/>
</clipPath>
</defs>
</svg>
