<svg width="24" height="24" viewBox="0 0 24 24" fill="none" xmlns="http://www.w3.org/2000/svg">
<path fill-rule="evenodd" clip-rule="evenodd" d="M18.2974 5.6824C17.9174 5.7504 17.3814 5.9264 16.5214 6.2124L10.0294 8.3774C9.20141 8.6534 8.61741 8.8484 8.19741 9.0124C8.04356 9.07125 7.89271 9.13766 7.74541 9.2114C7.65941 9.2564 7.62941 9.2814 7.62741 9.2814C7.53109 9.37464 7.45451 9.48629 7.4022 9.60972C7.34989 9.73315 7.32294 9.86584 7.32294 9.9999C7.32294 10.134 7.34989 10.2666 7.4022 10.3901C7.45451 10.5135 7.53109 10.6252 7.62741 10.7184C7.66507 10.7447 7.7045 10.7685 7.74541 10.7894C7.84541 10.8424 7.99041 10.9074 8.19741 10.9894C8.61741 11.1524 9.20141 11.3474 10.0294 11.6234L10.0854 11.6424C10.3584 11.7324 10.5984 11.8124 10.8194 11.9294C11.3522 12.2111 11.7878 12.6466 12.0694 13.1794C12.1864 13.3994 12.2664 13.6394 12.3564 13.9134L12.3764 13.9694C12.6514 14.7974 12.8464 15.3814 13.0104 15.8014C13.0674 15.956 13.1338 16.107 13.2094 16.2534C13.2544 16.3394 13.2794 16.3694 13.2794 16.3714C13.3727 16.4677 13.4843 16.5443 13.6077 16.5966C13.7312 16.6489 13.8639 16.6759 13.9979 16.6759C14.132 16.6759 14.2647 16.6489 14.3881 16.5966C14.5115 16.5443 14.6232 16.4677 14.7164 16.3714C14.7428 16.3337 14.7665 16.2943 14.7874 16.2534C14.8404 16.1534 14.9054 16.0084 14.9874 15.8004C15.1504 15.3804 15.3454 14.7974 15.6214 13.9704L17.7844 7.4794C18.0714 6.6194 18.2474 6.0814 18.3144 5.7024L18.3194 5.6794L18.2974 5.6824ZM17.9474 3.7134C18.4974 3.6154 19.2524 3.5864 19.8324 4.1664C20.4124 4.7464 20.3824 5.5004 20.2854 6.0514C20.1894 6.5934 19.9624 7.2724 19.7074 8.0384L19.6834 8.1104L17.5194 14.6004L17.5094 14.6304C17.2454 15.4224 17.0354 16.0544 16.8504 16.5264C16.6774 16.9714 16.4724 17.4314 16.1624 17.7534C15.8825 18.0447 15.5466 18.2764 15.1749 18.4347C14.8032 18.593 14.4034 18.6746 13.9994 18.6746C13.5954 18.6746 13.1956 18.593 12.8239 18.4347C12.4522 18.2764 12.1164 18.0447 11.8364 17.7534C11.5264 17.4314 11.3214 16.9714 11.1484 16.5264C10.9634 16.0544 10.7534 15.4224 10.4884 14.6294L10.4784 14.6014C10.3584 14.2404 10.3314 14.1684 10.3024 14.1134C10.2085 13.9356 10.0632 13.7903 9.88541 13.6964C9.83041 13.6664 9.75841 13.6404 9.39741 13.5194L9.36941 13.5094C8.57641 13.2454 7.94441 13.0354 7.47141 12.8504C7.02741 12.6774 6.56741 12.4724 6.24541 12.1624C5.95414 11.8825 5.7224 11.5466 5.56411 11.1749C5.40581 10.8032 5.32422 10.4034 5.32422 9.9994C5.32422 9.59541 5.40581 9.19558 5.56411 8.8239C5.7224 8.45222 5.95414 8.11634 6.24541 7.8364C6.56741 7.5264 7.02741 7.3214 7.47141 7.1484C8.09909 6.9143 8.73191 6.69424 9.36941 6.4884L9.39741 6.4784L15.8884 4.3154L15.9604 4.2914C16.7264 4.0364 17.4054 3.8094 17.9474 3.7134Z" fill="#F4F4F4"/>
</svg>
