<svg width="729" height="750" viewBox="0 0 729 750" fill="none" xmlns="http://www.w3.org/2000/svg">
<g clip-path="url(#clip0_3041_3116)">
<path fill-rule="evenodd" clip-rule="evenodd" d="M393.082 45.6659C389.732 46.9452 386.064 47.7312 382.078 48.0239C390.28 51.404 398.665 52.19 407.23 50.3819C407.753 50.3819 408.278 50.3819 408.802 50.3819C407.132 52.0724 407.132 53.6444 408.802 55.0979C411.803 56.4313 414.947 56.9554 418.234 56.6699C418.234 58.2419 418.234 59.8139 418.234 61.3859C421.378 61.3859 424.522 61.3859 427.666 61.3859C427.666 62.9579 427.666 64.5299 427.666 66.1019C430.436 65.8776 433.056 66.4015 435.526 67.6739C438.838 71.1743 442.505 74.3183 446.53 77.1059C447.922 78.4028 448.446 79.9748 448.102 81.8219C454.498 84.0568 457.905 88.7728 458.32 95.9699C459.909 97.285 461.744 97.8091 463.822 97.5419C463.265 102.248 464.837 103.82 468.538 102.258C468.538 107.498 468.538 112.738 468.538 117.978C470.11 117.978 471.682 117.978 473.254 117.978C473.224 125.15 474.533 131.962 477.184 138.414C477.97 156.222 478.232 174.039 477.97 191.862C477.46 216.351 477.984 240.717 479.542 264.96C496.571 265.222 513.602 265.483 530.632 265.746C548.219 265.744 565.249 264.696 581.722 262.602C603.513 262.679 623.949 267.918 643.03 278.322C641.876 280.221 641.352 282.316 641.458 284.61C645.188 287.21 649.381 289.305 654.034 290.898C657.182 293.465 659.278 296.609 660.322 300.33C662.615 300.435 664.711 299.912 666.61 298.758C666.363 300.916 666.625 303.013 667.396 305.046C673.536 315.904 679.3 326.908 684.688 338.058C686.252 345.844 687.3 353.704 687.832 361.638C688.88 362.686 689.927 363.733 690.976 364.782C691.276 361.311 692.062 358.167 693.334 355.35C698.71 398 685.609 433.632 654.034 462.246C654.24 460.869 653.716 459.82 652.462 459.102C649.321 461.985 645.652 463.557 641.458 463.818C641.458 465.39 641.458 466.962 641.458 468.534C632.071 470.769 623.163 474.176 614.734 478.752C610.541 479.275 606.35 479.8 602.158 480.324C600.842 481.913 600.318 483.748 600.586 485.826C563.265 485.318 526.06 485.843 488.974 487.398C488.974 486.874 488.974 486.349 488.974 485.826C487.732 483.792 486.16 481.957 484.258 480.324C476.72 477.123 469.383 473.456 462.25 469.32C460.217 468.55 458.12 468.287 455.962 468.534C455.962 466.962 455.962 465.39 455.962 463.818C451.019 462.762 446.303 461.19 441.814 459.102C441.949 457.536 441.424 456.227 440.242 455.172C435.296 452.567 430.58 449.684 426.094 446.526C423.927 441.216 420.26 437.548 415.09 435.522C415.09 434.998 415.09 434.473 415.09 433.95C413.447 429.163 410.303 426.019 405.658 424.518C406.305 420.63 404.733 418.535 400.942 418.23C401.589 414.342 400.017 412.247 396.226 411.942C396.226 411.418 396.226 410.893 396.226 410.37C396.477 407.699 396.216 405.079 395.44 402.51C392.657 398.985 389.251 396.367 385.222 394.65C385.222 394.126 385.222 393.601 385.222 393.078C385.222 389.934 385.222 386.79 385.222 383.646C383.65 383.646 382.078 383.646 380.506 383.646C381.153 379.758 379.581 377.663 375.79 377.358C375.79 375.786 375.79 374.214 375.79 372.642C373.223 368.446 371.388 363.73 370.288 358.494C368.698 357.178 366.864 356.655 364.786 356.922C364.786 354.301 364.786 351.682 364.786 349.062C363.214 349.062 361.642 349.062 360.07 349.062C360.07 348.538 360.07 348.013 360.07 347.49C359.405 343.904 360.453 341.284 363.214 339.63C364.262 340.678 365.309 341.725 366.358 342.774C368.353 352.637 374.117 356.304 383.65 353.778C386.613 350.032 390.28 347.15 394.654 345.132C395.836 344.077 396.361 342.768 396.226 341.202C400.013 337.426 403.157 333.233 405.658 328.626C406.706 326.53 408.278 324.958 410.374 323.91C413.653 320.879 417.059 317.735 420.592 314.478C422.146 310.595 423.979 306.928 426.094 303.474C427.666 302.425 429.238 301.378 430.81 300.33C435.23 298.137 437.327 294.468 437.098 289.326C438.67 289.326 440.242 289.326 441.814 289.326C443.364 284.621 444.936 279.905 446.53 275.178C448.968 270.275 450.54 265.035 451.246 259.458C452.811 259.593 454.121 259.068 455.176 257.886C455.952 255.317 456.213 252.697 455.962 250.026C461.744 244.065 463.839 236.728 462.25 228.018C464.499 227.419 465.809 225.847 466.18 223.302C467.228 203.389 467.228 183.478 466.18 163.566C465.131 162.517 464.084 161.47 463.036 160.422C463.448 153.753 461.09 148.514 455.962 144.702C456.708 138.546 455.136 133.306 451.246 128.982C449.845 128.023 448.273 127.499 446.53 127.41C446.53 126.362 446.53 125.314 446.53 124.266C446.53 122.694 446.53 121.122 446.53 119.55C446.53 117.978 446.53 116.406 446.53 114.834C444.958 114.834 443.386 114.834 441.814 114.834C442.365 109.628 440.27 105.96 435.526 103.83C432.311 101.593 430.739 98.4493 430.81 94.3979C429.238 94.3979 427.666 94.3979 426.094 94.3979C424.522 91.7778 422.426 89.6819 419.806 88.1099C420.076 86.5511 419.551 85.5031 418.234 84.9659C415.321 77.9038 410.342 74.7598 403.3 75.5339C402.523 78.1027 402.262 80.7228 402.514 83.3939C402.514 83.9178 402.514 84.442 402.514 84.9659C401.008 85.6777 399.697 86.7258 398.584 88.1099C397.802 91.7409 397.541 95.409 397.798 99.1139C397.798 100.686 397.798 102.258 397.798 103.83C396.238 106.905 394.666 110.049 393.082 113.262C389.119 115.668 387.547 119.336 388.366 124.266C386.945 125.38 386.421 126.952 386.794 128.982C385.142 130.117 384.093 131.689 383.65 133.698C382.601 133.698 382.078 134.222 382.078 135.27C378.934 135.27 377.362 136.842 377.362 139.986C377.362 141.558 377.362 143.13 377.362 144.702C374.218 144.702 372.646 146.274 372.646 149.418C372.122 149.418 371.597 149.418 371.074 149.418C369.502 149.418 367.93 149.418 366.358 149.418C364.313 152.832 362.741 156.5 361.642 160.422C361.642 161.994 361.642 163.566 361.642 165.138C360.076 165.003 358.766 165.528 357.712 166.71C356.264 171.168 354.429 175.359 352.21 179.286C347.465 181.416 345.37 185.083 345.922 190.29C345.922 190.813 345.922 191.338 345.922 191.862C341.721 194.835 340.149 199.027 341.206 204.438C338.411 208.099 336.839 212.292 336.49 217.014C334.946 218.022 333.374 219.069 331.774 220.158C329.603 241.163 329.864 262.124 332.56 283.038C333.162 283.912 333.948 284.435 334.918 284.61C335.966 287.754 337.013 290.898 338.062 294.042C339.838 296.895 340.885 300.039 341.206 303.474C340.959 305.632 341.221 307.729 341.992 309.762C344.219 310.671 345.529 312.243 345.922 314.478C346.294 316.507 345.771 318.079 344.35 319.194C343.235 317.773 341.663 317.249 339.634 317.622C338.585 314.478 336.49 312.382 333.346 311.334C333.346 308.19 331.774 306.618 328.63 306.618C328.63 303.474 327.058 301.902 323.914 301.902C323.824 300.159 323.301 298.587 322.342 297.186C321.573 292.747 318.952 290.651 314.482 290.898C313.433 290.898 312.91 290.374 312.91 289.326C310.643 287.251 309.596 284.632 309.766 281.466C306.098 281.466 302.429 281.466 298.762 281.466C298.762 279.894 298.762 278.322 298.762 276.75C293.032 273.661 287.267 270.517 281.47 267.318C278.517 266.205 275.897 264.372 273.61 261.816C271.577 261.046 269.48 260.783 267.322 261.03C266.273 261.03 265.226 261.03 264.178 261.03C264.313 259.464 263.788 258.155 262.606 257.1C260.037 256.323 257.417 256.062 254.746 256.314C254.483 219.63 254.746 182.95 255.532 146.274C257.401 133.211 260.284 120.635 264.178 108.546C267.462 98.6959 273.489 90.8359 282.256 84.9659C283.417 82.2613 284.728 79.6412 286.186 77.1059C291.595 72.6224 297.359 68.9544 303.478 66.1019C303.478 64.5299 303.478 62.9579 303.478 61.3859C310.481 60.3768 317.292 58.8048 323.914 56.6699C323.914 54.574 323.914 52.4778 323.914 50.3819C346.527 43.9323 369.583 42.3603 393.082 45.6659Z" fill="#B8D8F0" fill-opacity="0.5"/>
<path opacity="0.835" fill-rule="evenodd" clip-rule="evenodd" d="M393.082 45.666C398.006 47.0179 402.722 48.5899 407.23 50.382C398.666 52.1901 390.281 51.4041 382.078 48.024C386.065 47.7313 389.732 46.9453 393.082 45.666Z" fill="#B8D8F0" fill-opacity="0.5"/>
<path opacity="0.71" fill-rule="evenodd" clip-rule="evenodd" d="M323.914 50.382C323.914 52.4779 323.914 54.574 323.914 56.67C317.293 58.8049 310.481 60.3769 303.478 61.386C303.478 62.958 303.478 64.53 303.478 66.102C297.36 68.9545 291.595 72.6225 286.186 77.106C284.729 79.6413 283.418 82.2613 282.256 84.966C273.489 90.836 267.462 98.696 264.178 108.546C262.936 110.289 262.15 112.385 261.82 114.834C260.61 116.56 259.3 116.56 257.89 114.834C269.523 82.7656 291.531 61.2817 323.914 50.382Z" fill="#B8D8F0" fill-opacity="0.5"/>
<path opacity="0.631" fill-rule="evenodd" clip-rule="evenodd" d="M408.802 50.382C435.823 59.67 455.736 76.962 468.538 102.258C464.838 103.82 463.266 102.248 463.822 97.542C461.744 97.8092 459.909 97.2851 458.32 95.97C457.905 88.7729 454.499 84.0569 448.102 81.822C448.446 79.9749 447.923 78.4029 446.53 77.106C442.506 74.3183 438.838 71.1743 435.526 67.674C433.057 66.4016 430.436 65.8776 427.666 66.102C427.666 64.53 427.666 62.958 427.666 61.386C424.522 61.386 421.378 61.386 418.234 61.386C418.234 59.814 418.234 58.242 418.234 56.67C414.947 56.9554 411.803 56.4313 408.802 55.098C407.133 53.6445 407.133 52.0725 408.802 50.382Z" fill="#B8D8F0" fill-opacity="0.5"/>
<path fill-rule="evenodd" clip-rule="evenodd" d="M402.514 84.9661C403.093 90.5377 401.521 95.2537 397.798 99.1141C397.542 95.4092 397.803 91.7411 398.584 88.1101C399.697 86.7259 401.008 85.6779 402.514 84.9661Z" fill="#B8D8F0" fill-opacity="0.5"/>
<path fill-rule="evenodd" clip-rule="evenodd" d="M435.526 103.83C440.27 105.96 442.366 109.628 441.814 114.834C443.386 114.834 444.958 114.834 446.53 114.834C446.53 116.406 446.53 117.978 446.53 119.55C444.434 118.502 442.337 117.454 440.242 116.406C440.242 115.882 440.242 115.358 440.242 114.834C439.338 111.829 437.766 109.209 435.526 106.974C435.526 105.926 435.526 104.878 435.526 103.83Z" fill="#B8D8F0" fill-opacity="0.5"/>
<path fill-rule="evenodd" clip-rule="evenodd" d="M393.082 113.262C392.488 117.068 391.439 120.736 389.938 124.266C389.415 124.266 388.89 124.266 388.366 124.266C387.547 119.336 389.119 115.668 393.082 113.262Z" fill="#B8D8F0" fill-opacity="0.5"/>
<path fill-rule="evenodd" clip-rule="evenodd" d="M427.666 184.002C427.666 184.525 427.666 185.05 427.666 185.574C423.775 187.44 422.203 190.584 422.95 195.006C422.95 197.101 422.95 199.198 422.95 201.294C420.905 203.086 419.07 205.181 417.448 207.582C416.709 217.019 413.565 225.402 408.016 232.734C407.235 236.893 406.972 241.086 407.23 245.31C404.199 248.896 402.627 253.087 402.514 257.886C400.994 259.939 398.897 260.987 396.226 261.03C394.091 267.651 392.519 274.463 391.51 281.466C388.418 286.042 386.846 291.282 386.794 297.186C386.794 297.709 386.794 298.234 386.794 298.758C384.159 299.832 383.111 301.929 383.65 305.046C383.126 306.094 382.601 307.141 382.078 308.19C380.583 305.959 380.059 303.34 380.506 300.33C380.506 296.137 380.506 291.946 380.506 287.754C380.506 287.23 380.506 286.705 380.506 286.182C381.528 285.704 382.576 285.181 383.65 284.61C385.19 280.545 385.714 276.352 385.222 272.034C385.222 271.51 385.222 270.985 385.222 270.462C388.65 266.903 390.747 262.71 391.51 257.886C392.887 258.092 393.936 257.568 394.654 256.314C395.1 250.906 396.935 246.19 400.156 242.166C400.939 237.478 401.201 232.762 400.942 228.018C400.942 227.494 400.942 226.969 400.942 226.446C404.611 223.811 406.183 220.144 405.658 215.442C405.658 214.918 405.658 214.393 405.658 213.87C409.858 210.897 411.43 206.705 410.374 201.294C410.22 198.067 411.268 195.446 413.518 193.434C416.09 187.602 417.137 181.314 416.662 174.57C419.366 171.178 420.675 166.985 420.592 161.994C421.115 145.225 421.64 128.458 422.164 111.69C422.401 115.807 423.712 119.476 426.094 122.694C427.664 143.103 428.188 163.539 427.666 184.002Z" fill="#B8D8F0" fill-opacity="0.5"/>
<path fill-rule="evenodd" clip-rule="evenodd" d="M419.806 99.114C420.199 102.531 421.771 105.151 424.522 106.974C424.101 109.488 424.626 111.584 426.094 113.262C428.325 118.787 429.373 124.551 429.238 130.554C429.238 145.225 429.238 159.898 429.238 174.57C429.702 178.083 429.177 181.227 427.666 184.002C428.188 163.539 427.664 143.103 426.094 122.694C423.712 119.476 422.401 115.808 422.164 111.69C421.641 128.458 421.115 145.225 420.592 161.994C420.675 166.985 419.366 171.178 416.662 174.57C417.684 171.528 418.207 168.384 418.234 165.138C418.234 163.042 418.234 160.945 418.234 158.85C420.054 144.455 420.315 129.782 419.02 114.834C418.13 111.34 416.819 108.196 415.09 105.402C415.09 104.878 415.09 104.354 415.09 103.83C414.642 101.019 415.165 98.3992 416.662 95.97C417.734 97.1375 418.783 98.1855 419.806 99.114Z" fill="#B8D8F0" fill-opacity="0.5"/>
<path fill-rule="evenodd" clip-rule="evenodd" d="M451.246 128.982C455.137 133.306 456.709 138.546 455.962 144.702C454.403 141.627 452.831 138.483 451.246 135.27C451.246 133.174 451.246 131.078 451.246 128.982Z" fill="#B8D8F0" fill-opacity="0.5"/>
<path opacity="0.409" fill-rule="evenodd" clip-rule="evenodd" d="M256.318 116.406C257.349 118.169 257.872 120.265 257.89 122.694C257.516 129.297 256.206 135.585 253.96 141.558C253.696 175.362 252.91 208.898 251.602 242.166C249.94 205.983 250.201 169.827 252.388 133.698C253.952 127.968 255.261 122.204 256.318 116.406Z" fill="#DFEDF1"/>
<path opacity="0.576" fill-rule="evenodd" clip-rule="evenodd" d="M468.538 102.258C474.136 112.492 478.066 123.496 480.328 135.27C481.114 153.603 481.377 171.943 481.114 190.29C480.066 190.814 479.019 191.339 477.97 191.862C478.233 174.039 477.97 156.222 477.184 138.414C474.534 131.962 473.224 125.15 473.254 117.978C471.682 117.978 470.11 117.978 468.538 117.978C468.538 112.738 468.538 107.498 468.538 102.258Z" fill="#B8D8F0" fill-opacity="0.5"/>
<path opacity="0.997" fill-rule="evenodd" clip-rule="evenodd" d="M264.178 108.546C260.284 120.635 257.401 133.211 255.532 146.274C254.746 182.95 254.484 219.63 254.746 256.314C257.417 256.062 260.037 256.323 262.606 257.1C263.788 258.155 264.313 259.464 264.178 261.03C259.729 260.725 255.538 259.677 251.602 257.886C251.602 252.647 251.602 247.405 251.602 242.166C252.91 208.898 253.696 175.362 253.96 141.558C256.206 135.585 257.516 129.297 257.89 122.694C257.873 120.265 257.349 118.169 256.318 116.406C256.318 115.358 256.842 114.834 257.89 114.834C259.3 116.56 260.61 116.56 261.82 114.834C262.15 112.385 262.936 110.289 264.178 108.546Z" fill="#B8D8F0" fill-opacity="0.5"/>
<path fill-rule="evenodd" clip-rule="evenodd" d="M371.074 149.418C369.49 152.631 367.918 155.775 366.358 158.85C364.615 158.94 363.043 159.463 361.642 160.422C362.741 156.5 364.313 152.832 366.358 149.418C367.93 149.418 369.502 149.418 371.074 149.418Z" fill="#B8D8F0" fill-opacity="0.5"/>
<path fill-rule="evenodd" clip-rule="evenodd" d="M366.358 158.85C364.767 161.007 363.195 163.102 361.642 165.138C361.642 163.566 361.642 161.994 361.642 160.422C363.043 159.463 364.615 158.94 366.358 158.85Z" fill="#B8D8F0" fill-opacity="0.5"/>
<path fill-rule="evenodd" clip-rule="evenodd" d="M361.642 165.138C359.913 166.875 358.864 168.971 358.498 171.426C358.498 171.95 358.498 172.475 358.498 172.998C356.968 175.575 354.873 177.672 352.21 179.286C354.43 175.359 356.264 171.168 357.712 166.71C358.767 165.528 360.076 165.003 361.642 165.138Z" fill="#B8D8F0" fill-opacity="0.5"/>
<path fill-rule="evenodd" clip-rule="evenodd" d="M352.21 179.286C352.21 180.335 352.21 181.381 352.21 182.43C349.004 184.272 346.909 186.891 345.922 190.29C345.37 185.084 347.465 181.416 352.21 179.286Z" fill="#B8D8F0" fill-opacity="0.5"/>
<path fill-rule="evenodd" clip-rule="evenodd" d="M455.962 144.702C461.09 148.514 463.448 153.754 463.036 160.422C464.084 161.471 465.131 162.518 466.18 163.566C467.228 183.479 467.228 203.39 466.18 223.302C465.809 225.847 464.499 227.419 462.25 228.018C464.729 218.324 465.777 208.366 465.394 198.15C465.131 190.29 464.87 182.43 464.608 174.57C464.243 172.625 463.457 171.053 462.25 169.854C461.539 164.096 460.753 158.331 459.892 152.562C458.779 151.177 457.468 150.13 455.962 149.418C455.962 147.846 455.962 146.274 455.962 144.702Z" fill="#B8D8F0" fill-opacity="0.5"/>
<path fill-rule="evenodd" clip-rule="evenodd" d="M349.066 191.862C349.813 196.284 348.241 199.428 344.35 201.294C345.935 198.081 347.507 194.937 349.066 191.862Z" fill="#B8D8F0" fill-opacity="0.5"/>
<path fill-rule="evenodd" clip-rule="evenodd" d="M400.942 228.018C401.201 232.762 400.939 237.478 400.156 242.166C396.935 246.19 395.1 250.906 394.654 256.314C393.936 257.569 392.887 258.092 391.51 257.886C393.301 253.95 394.349 249.759 394.654 245.31C396.822 239.509 398.917 233.746 400.942 228.018Z" fill="#B8D8F0" fill-opacity="0.5"/>
<path opacity="0.914" fill-rule="evenodd" clip-rule="evenodd" d="M251.602 257.886C255.538 259.676 259.729 260.725 264.178 261.03C265.227 261.03 266.273 261.03 267.322 261.03C269.164 264.235 271.783 266.331 275.182 267.318C271.475 267.706 268.331 266.659 265.75 264.174C261.782 262.13 257.59 262.13 253.174 264.174C255.353 267.698 258.497 269.794 262.606 270.462C263.721 271.883 265.293 272.407 267.322 272.034C269.417 274.655 271.515 277.273 273.61 279.894C272.561 279.894 271.515 279.894 270.466 279.894C266.244 276.189 261.528 273.045 256.318 270.462C255.795 270.462 255.269 270.462 254.746 270.462C252.651 267.841 250.553 265.223 248.458 262.602C249.507 261.03 250.553 259.458 251.602 257.886Z" fill="#B8D8F0" fill-opacity="0.5"/>
<path fill-rule="evenodd" clip-rule="evenodd" d="M141.562 262.602C141.737 263.572 142.26 264.358 143.134 264.96C177.195 265.484 211.254 266.009 245.314 266.532C247.92 269.146 251.064 270.456 254.746 270.462C255.27 270.462 255.795 270.462 256.318 270.462C258.59 273.029 260.687 275.911 262.606 279.108C265.175 279.885 267.795 280.146 270.466 279.894C271.515 279.894 272.562 279.894 273.61 279.894C273.495 282.295 274.544 283.867 276.754 284.61C276.754 286.182 276.754 287.754 276.754 289.326C278.326 289.326 279.898 289.326 281.47 289.326C281.126 291.173 281.649 292.745 283.042 294.042C288.275 297.196 292.991 300.863 297.19 305.046C301.557 312.92 306.273 320.78 311.338 328.626C312.635 330.019 314.207 330.542 316.054 330.198C320.004 334.821 323.674 339.537 327.058 344.346C327.058 346.442 327.058 348.539 327.058 350.634C327.913 353.904 329.224 357.048 330.988 360.066C332.577 361.382 334.412 361.905 336.49 361.638C336.088 365.241 336.611 368.648 338.062 371.856C336.572 372.615 335 372.876 333.346 372.642C330.856 367.205 327.189 362.489 322.342 358.494C319.872 357.222 317.252 356.697 314.482 356.922C314.617 355.356 314.092 354.047 312.91 352.992C307.965 350.387 303.249 347.504 298.762 344.346C297.19 343.298 295.618 342.251 294.046 341.202C294.093 339.635 293.307 338.586 291.688 338.058C287.48 336.923 283.55 335.351 279.898 333.342C278.85 333.342 277.803 333.342 276.754 333.342C275.195 333.612 274.148 333.087 273.61 331.77C273.489 329.805 272.44 328.496 270.466 327.84C267.897 327.064 265.277 326.803 262.606 327.054C262.606 325.482 262.606 323.91 262.606 322.338C246.822 319.983 231.102 320.246 215.446 323.124C214.264 324.179 213.739 325.488 213.874 327.054C210.183 327.199 207.564 328.771 206.014 331.77C205.491 331.77 204.966 331.77 204.442 331.77C197.472 333.425 190.659 335.521 184.006 338.058C179.345 339.858 174.629 341.691 169.858 343.56C168.676 344.615 168.151 345.924 168.286 347.49C165.142 347.49 163.57 349.062 163.57 352.206C160.426 352.206 157.282 352.206 154.138 352.206C154.138 353.778 154.138 355.35 154.138 356.922C150.471 356.922 146.802 356.922 143.134 356.922C143.134 358.494 143.134 360.066 143.134 361.638C142.596 362.955 141.549 363.48 139.99 363.21C135.191 363.323 131 364.895 127.414 367.926C124.27 367.926 121.126 367.926 117.982 367.926C106.454 367.926 94.926 367.926 83.398 367.926C76.566 367.665 69.754 367.928 62.962 368.712C60.3506 373.664 61.9226 376.022 67.678 375.786C67.678 377.358 67.678 378.93 67.678 380.502C69.774 380.502 71.8701 380.502 73.966 380.502C75.0141 380.502 76.062 380.502 77.11 380.502C77.11 381.551 77.634 382.074 78.682 382.074C79.1074 385.108 80.6794 387.205 83.398 388.362C81.826 388.362 80.254 388.362 78.682 388.362C78.5825 395.092 81.7265 399.284 88.114 400.938C89.686 400.938 91.258 400.938 92.83 400.938C92.83 403.034 92.83 405.131 92.83 407.226C97.3354 409.205 102.051 410.777 106.978 411.942C106.978 413.514 106.978 415.086 106.978 416.658C109.074 416.658 111.17 416.658 113.266 416.658C113.79 416.658 114.314 416.658 114.838 416.658C114.723 419.059 115.771 420.631 117.982 421.374C120.936 426.89 125.652 428.986 132.13 427.662C132.654 427.662 133.179 427.662 133.702 427.662C134.007 431.454 136.102 433.026 139.99 432.378C139.99 433.95 139.99 435.522 139.99 437.094C142.611 437.094 145.23 437.094 147.85 437.094C149.946 437.094 152.043 437.094 154.138 437.094C153.918 439.647 154.966 441.48 157.282 442.596C164.568 442.579 171.381 444.151 177.718 447.312C195.526 448.098 213.343 448.361 231.166 448.098C237.476 448.359 243.764 448.097 250.03 447.312C258.613 444.292 267.52 442.195 276.754 441.024C277.936 439.969 278.461 438.66 278.326 437.094C279.898 437.094 281.47 437.094 283.042 437.094C288.541 437.951 293.257 436.641 297.19 433.164C306.764 431.149 316.196 428.791 325.486 426.09C328.94 422.918 333.132 421.083 338.062 420.588C339.244 419.533 339.769 418.224 339.634 416.658C344.636 415.825 349.352 414.253 353.782 411.942C356.403 411.942 359.022 411.942 361.642 411.942C361.642 413.514 361.642 415.086 361.642 416.658C363.214 416.658 364.786 416.658 366.358 416.658C366.93 421.847 368.765 426.563 371.86 430.806C373.449 432.122 375.284 432.645 377.362 432.378C377.362 433.95 377.362 435.522 377.362 437.094C378.934 437.094 380.506 437.094 382.078 437.094C384.174 440.238 386.794 442.859 389.938 444.954C390.476 446.271 391.523 446.796 393.082 446.526C393.082 448.098 393.082 449.67 393.082 451.242C397.617 452.629 401.81 454.726 405.658 457.53C405.963 461.322 408.058 462.894 411.946 462.246C411.74 463.408 412.003 464.456 412.732 465.39C414.779 466.31 416.613 467.357 418.234 468.534C418.234 470.106 418.234 471.678 418.234 473.25C421.378 473.25 424.522 473.25 427.666 473.25C429.823 474.841 431.918 476.413 433.954 477.966C433.819 479.532 434.344 480.841 435.526 481.896C439.461 482.099 442.605 483.671 444.958 486.612C452.739 488.948 460.599 490.781 468.538 492.114C471.313 493.625 474.457 494.15 477.97 493.686C477.708 524.606 477.97 555.522 478.756 586.434C479.193 587.874 479.979 588.921 481.114 589.578C480.891 605.183 478.272 620.38 473.254 635.166C472.119 634.509 471.333 633.462 470.896 632.022C468.771 635.314 467.985 638.981 468.538 643.026C459.74 654.744 449.784 666.01 438.67 676.824C435.864 680.323 432.197 682.156 427.666 682.326C427.666 683.898 427.666 685.47 427.666 687.042C414.538 690.993 401.439 694.923 388.366 698.832C387.648 699.483 387.123 700.269 386.794 701.19C387.962 702.262 389.009 703.311 389.938 704.334C372.339 706.646 355.047 706.123 338.062 702.762C341.767 703.018 345.435 702.757 349.066 701.976C342.56 699.574 335.748 698.002 328.63 697.26C319.673 693.558 311.288 688.842 303.478 683.112C300.376 682.334 297.232 682.071 294.046 682.326C294.046 680.754 294.046 679.182 294.046 677.61C292.474 677.61 290.902 677.61 289.33 677.61C289.33 675.515 289.33 673.418 289.33 671.322C287.483 671.666 285.911 671.143 284.614 669.75C281.789 667.872 280.217 665.251 279.898 661.89C277.803 661.89 275.706 661.89 273.61 661.89C273.61 658.746 273.61 655.602 273.61 652.458C272.038 652.458 270.466 652.458 268.894 652.458C268.894 649.314 268.894 646.17 268.894 643.026C267.322 643.026 265.75 643.026 264.178 643.026C260.693 630.95 258.335 618.374 257.104 605.298C256.056 604.25 255.009 603.203 253.96 602.154C253.696 568.35 252.91 534.814 251.602 501.546C251.861 496.802 251.599 492.086 250.816 487.398C247.073 485.928 243.143 485.405 239.026 485.826C204.709 484.518 170.125 483.732 135.274 483.468C130.77 479.874 125.53 478.563 119.554 479.538C116.883 479.79 114.263 479.529 111.694 478.752C101.06 473.832 90.5797 468.853 80.254 463.818C79.1796 464.389 78.1317 464.912 77.11 465.39C76.062 465.39 75.538 464.867 75.538 463.818C75.0141 458.054 71.8701 454.91 66.106 454.386C65.0074 450.464 63.4354 446.796 61.39 443.382C59.2941 443.382 57.198 443.382 55.102 443.382C55.102 440.238 55.102 437.094 55.102 433.95C53.53 433.95 51.958 433.95 50.386 433.95C50.6409 430.764 50.379 427.62 49.6 424.518C46.8171 419.918 44.1971 415.202 41.74 410.37C41.6276 402.669 40.0556 395.332 37.024 388.362C36.6939 390.811 35.9079 392.907 34.666 394.65C34.666 394.127 34.666 393.602 34.666 393.078C34.4046 382.585 34.6667 372.104 35.452 361.638C35.976 362.687 36.5001 363.734 37.024 364.782C38.3797 362.287 39.4278 359.667 40.168 356.922C40.4392 350.051 41.2252 343.239 42.526 336.486C43.4472 336.158 44.2332 335.632 44.884 334.914C45.0636 327.526 46.8976 320.713 50.386 314.478C51.958 314.478 53.53 314.478 55.102 314.478C55.102 311.334 55.102 308.19 55.102 305.046C59.0239 303.947 62.6918 302.375 66.106 300.33C66.4251 296.969 67.9971 294.349 70.822 292.47C76.1478 289.7 81.3879 287.08 86.542 284.61C86.542 283.038 86.542 281.466 86.542 279.894C89.2132 280.146 91.8332 279.885 94.402 279.108C97.4141 276.252 101.082 274.417 105.406 273.606C107.436 271.992 107.436 270.42 105.406 268.89C116.986 264.375 129.038 262.278 141.562 262.602Z" fill="#B8D8F0" fill-opacity="0.5"/>
<path fill-rule="evenodd" clip-rule="evenodd" d="M267.322 261.03C269.48 260.783 271.577 261.046 273.61 261.816C275.897 264.372 278.518 266.205 281.47 267.318C279.375 267.318 277.277 267.318 275.182 267.318C271.783 266.331 269.164 264.235 267.322 261.03Z" fill="#B8D8F0" fill-opacity="0.5"/>
<path opacity="0.763" fill-rule="evenodd" clip-rule="evenodd" d="M481.114 190.29C480.605 214.255 481.128 238.096 482.686 261.816C515.693 262.602 548.705 262.865 581.722 262.602C565.249 264.696 548.219 265.744 530.632 265.746C513.602 265.484 496.571 265.223 479.542 264.96C477.984 240.717 477.461 216.351 477.97 191.862C479.018 191.339 480.065 190.814 481.114 190.29Z" fill="#B8D8F0" fill-opacity="0.5"/>
<path opacity="0.999" fill-rule="evenodd" clip-rule="evenodd" d="M141.562 262.602C177.195 262.602 212.825 262.602 248.458 262.602C250.553 265.223 252.651 267.842 254.746 270.462C251.064 270.456 247.92 269.146 245.314 266.532C211.253 266.009 177.195 265.484 143.134 264.96C142.26 264.358 141.737 263.572 141.562 262.602Z" fill="#B8D8F0" fill-opacity="0.5"/>
<path fill-rule="evenodd" clip-rule="evenodd" d="M336.49 217.014C336.49 217.538 336.49 218.063 336.49 218.586C336.49 219.11 336.49 219.635 336.49 220.158C334.186 221.49 332.875 223.585 332.56 226.446C331.263 241.918 331.526 257.114 333.346 272.034C332.925 274.548 333.45 276.643 334.918 278.322C334.918 280.418 334.918 282.515 334.918 284.61C333.948 284.436 333.162 283.912 332.56 283.038C329.864 262.124 329.603 241.163 331.774 220.158C333.375 219.069 334.947 218.022 336.49 217.014Z" fill="#B8D8F0" fill-opacity="0.5"/>
<path fill-rule="evenodd" clip-rule="evenodd" d="M275.182 268.89C275.182 268.367 275.182 267.841 275.182 267.318C277.278 267.318 279.375 267.318 281.47 267.318C281.264 268.48 281.527 269.528 282.256 270.462C284.303 271.382 286.137 272.429 287.758 273.606C287.235 273.606 286.71 273.606 286.186 273.606C284.614 273.606 283.042 273.606 281.47 273.606C280.272 270.836 278.175 269.264 275.182 268.89Z" fill="#B8D8F0" fill-opacity="0.5"/>
<path fill-rule="evenodd" clip-rule="evenodd" d="M402.514 257.886C402.514 258.935 402.514 259.981 402.514 261.03C402.514 261.553 402.514 262.079 402.514 262.602C400.947 262.555 399.898 263.341 399.37 264.96C397.432 270.646 395.335 276.148 393.082 281.466C392.559 281.466 392.033 281.466 391.51 281.466C392.519 274.463 394.091 267.651 396.226 261.03C398.897 260.988 400.994 259.939 402.514 257.886Z" fill="#B8D8F0" fill-opacity="0.5"/>
<path fill-rule="evenodd" clip-rule="evenodd" d="M281.47 267.318C287.268 270.517 293.032 273.661 298.762 276.75C298.762 278.322 298.762 279.894 298.762 281.466C297.713 280.943 296.667 280.417 295.618 279.894C293.037 277.846 290.416 275.75 287.758 273.606C286.137 272.429 284.303 271.382 282.256 270.462C281.527 269.528 281.264 268.48 281.47 267.318Z" fill="#B8D8F0" fill-opacity="0.5"/>
<path opacity="0.976" fill-rule="evenodd" clip-rule="evenodd" d="M105.406 268.89C107.436 270.42 107.436 271.992 105.406 273.606C101.082 274.417 97.4142 276.252 94.4021 279.108C91.8332 279.885 89.2132 280.146 86.5421 279.894C86.5421 281.466 86.5421 283.038 86.5421 284.61C81.3879 287.08 76.1478 289.7 70.8221 292.47C67.9972 294.349 66.4252 296.969 66.1061 300.33C62.6918 302.375 59.0239 303.947 55.1021 305.046C67.9071 287.625 84.6751 275.573 105.406 268.89Z" fill="#B8D8F0" fill-opacity="0.5"/>
<path fill-rule="evenodd" clip-rule="evenodd" d="M256.318 270.462C261.527 273.045 266.243 276.189 270.466 279.894C267.795 280.146 265.175 279.885 262.606 279.108C260.686 275.911 258.589 273.029 256.318 270.462Z" fill="#B8D8F0" fill-opacity="0.5"/>
<path fill-rule="evenodd" clip-rule="evenodd" d="M446.53 275.178C444.936 279.905 443.364 284.621 441.814 289.326C440.242 289.326 438.67 289.326 437.098 289.326C437.328 294.468 435.231 298.137 430.81 300.33C430.81 298.235 430.81 296.137 430.81 294.042C432.376 294.177 433.685 293.652 434.74 292.47C437.012 288.398 438.846 284.206 440.242 279.894C442.338 278.322 444.435 276.75 446.53 275.178Z" fill="#B8D8F0" fill-opacity="0.5"/>
<path fill-rule="evenodd" clip-rule="evenodd" d="M273.61 279.894C275.706 280.943 277.278 282.515 278.326 284.61C277.803 284.61 277.278 284.61 276.754 284.61C274.544 283.866 273.495 282.294 273.61 279.894Z" fill="#B8D8F0" fill-opacity="0.5"/>
<path fill-rule="evenodd" clip-rule="evenodd" d="M298.762 281.466C302.429 281.466 306.098 281.466 309.766 281.466C309.596 284.632 310.643 287.251 312.91 289.326C311.861 289.326 310.814 289.326 309.766 289.326C308.06 286.045 305.441 283.95 301.906 283.038C300.347 283.308 299.3 282.783 298.762 281.466Z" fill="#B8D8F0" fill-opacity="0.5"/>
<path opacity="0.69" fill-rule="evenodd" clip-rule="evenodd" d="M643.03 278.322C652.322 283.418 660.182 290.23 666.61 298.758C664.711 299.912 662.616 300.435 660.322 300.33C659.278 296.609 657.183 293.465 654.034 290.898C649.381 289.306 645.188 287.21 641.458 284.61C641.353 282.316 641.876 280.221 643.03 278.322Z" fill="#B8D8F0" fill-opacity="0.5"/>
<path fill-rule="evenodd" clip-rule="evenodd" d="M309.766 289.326C310.815 289.326 311.862 289.326 312.91 289.326C312.91 290.374 313.434 290.898 314.482 290.898C314.482 291.421 314.482 291.946 314.482 292.47C312.082 292.585 310.51 291.536 309.766 289.326Z" fill="#B8D8F0" fill-opacity="0.5"/>
<path fill-rule="evenodd" clip-rule="evenodd" d="M276.754 284.61C277.277 284.61 277.802 284.61 278.326 284.61C284.549 290.359 290.837 296.123 297.19 301.902C297.19 302.951 297.19 303.997 297.19 305.046C292.991 300.863 288.275 297.195 283.042 294.042C281.649 292.745 281.126 291.173 281.47 289.326C279.898 289.326 278.326 289.326 276.754 289.326C276.754 287.754 276.754 286.182 276.754 284.61Z" fill="#B8D8F0" fill-opacity="0.5"/>
<path fill-rule="evenodd" clip-rule="evenodd" d="M314.482 292.47C314.482 291.946 314.482 291.421 314.482 290.898C318.953 290.651 321.573 292.747 322.342 297.186C321.293 297.186 320.246 297.186 319.198 297.186C319.198 294.042 317.626 292.47 314.482 292.47Z" fill="#B8D8F0" fill-opacity="0.5"/>
<path fill-rule="evenodd" clip-rule="evenodd" d="M380.506 300.33C380.06 303.34 380.583 305.959 382.078 308.19C382.078 309.762 382.078 311.334 382.078 312.906C380.511 312.859 379.462 313.645 378.934 315.264C377.642 319.09 377.117 323.02 377.362 327.054C375.559 320.536 375.296 313.723 376.576 306.618C377.532 304.156 378.843 302.059 380.506 300.33Z" fill="#B8D8F0" fill-opacity="0.5"/>
<path fill-rule="evenodd" clip-rule="evenodd" d="M305.05 311.334C307.26 312.078 308.309 313.65 308.194 316.05C305.984 315.306 304.935 313.734 305.05 311.334Z" fill="#B8D8F0" fill-opacity="0.5"/>
<path fill-rule="evenodd" clip-rule="evenodd" d="M341.206 303.474C342.149 305.675 343.721 307.247 345.922 308.19C347.25 310.031 348.297 312.128 349.066 314.478C350.842 317.331 351.889 320.475 352.21 323.91C349.449 321.161 347.354 318.017 345.922 314.478C345.529 312.243 344.219 310.671 341.992 309.762C341.222 307.729 340.959 305.632 341.206 303.474Z" fill="#B8D8F0" fill-opacity="0.5"/>
<path fill-rule="evenodd" clip-rule="evenodd" d="M308.194 316.05C308.718 316.05 309.243 316.05 309.766 316.05C311.495 317.787 312.544 319.883 312.91 322.338C312.91 323.387 312.91 324.434 312.91 325.482C310.598 322.784 309.026 319.64 308.194 316.05Z" fill="#B8D8F0" fill-opacity="0.5"/>
<path fill-rule="evenodd" clip-rule="evenodd" d="M262.606 327.054C259.379 327.208 256.758 326.16 254.746 323.91C244.023 322.094 233.019 321.833 221.734 323.124C219.189 323.495 217.617 324.805 217.018 327.054C215.97 327.054 214.923 327.054 213.874 327.054C213.739 325.488 214.264 324.179 215.446 323.124C231.102 320.246 246.822 319.983 262.606 322.338C262.606 323.91 262.606 325.482 262.606 327.054Z" fill="#B8D8F0" fill-opacity="0.5"/>
<path fill-rule="evenodd" clip-rule="evenodd" d="M345.922 314.478C347.354 318.017 349.45 321.161 352.21 323.91C353.611 324.869 355.183 325.392 356.926 325.482C356.926 326.531 356.926 327.578 356.926 328.626C357.838 332.161 359.933 334.78 363.214 336.486C363.214 337.535 363.214 338.582 363.214 339.63C360.454 341.284 359.405 343.904 360.07 347.49C358.517 345.454 356.945 343.359 355.354 341.202C355.145 336.697 353.05 333.553 349.066 331.77C347.54 328.653 345.968 325.509 344.35 322.338C344.35 321.29 344.35 320.243 344.35 319.194C345.771 318.079 346.295 316.507 345.922 314.478Z" fill="#B8D8F0" fill-opacity="0.5"/>
<path fill-rule="evenodd" clip-rule="evenodd" d="M666.61 298.758C673.624 305.412 679.126 313.272 683.116 322.338C687.255 333.135 690.662 344.139 693.334 355.35C692.062 358.167 691.276 361.311 690.976 364.782C689.927 363.734 688.881 362.687 687.832 361.638C687.301 353.704 686.252 345.844 684.688 338.058C679.301 326.908 673.536 315.904 667.396 305.046C666.626 303.013 666.363 300.916 666.61 298.758Z" fill="#B8D8F0" fill-opacity="0.5"/>
<path fill-rule="evenodd" clip-rule="evenodd" d="M382.078 312.906C380.567 317.506 379.52 322.222 378.934 327.054C378.41 327.054 377.885 327.054 377.362 327.054C377.117 323.02 377.642 319.09 378.934 315.264C379.462 313.645 380.511 312.859 382.078 312.906Z" fill="#B8D8F0" fill-opacity="0.5"/>
<path opacity="0.831" fill-rule="evenodd" clip-rule="evenodd" d="M55.1019 305.046C55.1019 308.19 55.1019 311.334 55.1019 314.478C53.5299 314.478 51.9579 314.478 50.3859 314.478C46.8975 320.713 45.0635 327.526 44.8839 334.914C44.2331 335.632 43.4471 336.157 42.5259 336.486C41.2251 343.239 40.4391 350.051 40.1679 356.922C39.4277 359.667 38.3796 362.287 37.0239 364.782C36.5 363.733 35.9759 362.687 35.4519 361.638C34.6666 372.104 34.4045 382.585 34.6659 393.078C30.5685 368.861 33.4505 345.281 43.3119 322.338C46.5007 315.924 50.4307 310.161 55.1019 305.046Z" fill="#B8D8F0" fill-opacity="0.5"/>
<path fill-rule="evenodd" clip-rule="evenodd" d="M254.746 323.91C251.602 323.91 248.458 323.91 245.314 323.91C237.959 323.649 230.624 323.911 223.306 324.696C222.432 325.298 221.909 326.084 221.734 327.054C220.162 327.054 218.59 327.054 217.018 327.054C217.617 324.804 219.189 323.495 221.734 323.124C233.019 321.833 244.023 322.094 254.746 323.91Z" fill="#B8D8F0" fill-opacity="0.5"/>
<path fill-rule="evenodd" clip-rule="evenodd" d="M245.314 323.91C245.314 324.434 245.314 324.959 245.314 325.482C237.356 325.127 229.496 325.652 221.734 327.054C221.908 326.084 222.432 325.298 223.306 324.696C230.624 323.912 237.958 323.649 245.314 323.91Z" fill="#B8D8F0" fill-opacity="0.5"/>
<path fill-rule="evenodd" clip-rule="evenodd" d="M245.314 325.482C245.314 324.959 245.314 324.434 245.314 323.91C248.458 323.91 251.602 323.91 254.746 323.91C256.758 326.16 259.379 327.208 262.606 327.054C265.277 326.803 267.897 327.063 270.466 327.84C272.44 328.496 273.489 329.805 273.61 331.77C271.068 330.924 268.448 330.401 265.75 330.198C264.178 330.198 262.606 330.198 261.034 330.198C256.31 327.405 251.071 325.833 245.314 325.482Z" fill="#B8D8F0" fill-opacity="0.5"/>
<path fill-rule="evenodd" clip-rule="evenodd" d="M245.314 325.482C251.071 325.833 256.31 327.405 261.034 330.198C258.939 330.198 256.841 330.198 254.746 330.198C242.675 326.193 230.622 326.193 218.59 330.198C217.018 330.198 215.446 330.198 213.874 330.198C213.351 330.198 212.825 330.198 212.302 330.198C213.874 329.15 215.446 328.103 217.018 327.054C218.59 327.054 220.162 327.054 221.734 327.054C229.497 325.652 237.357 325.127 245.314 325.482Z" fill="#B8D8F0" fill-opacity="0.5"/>
<path fill-rule="evenodd" clip-rule="evenodd" d="M213.874 327.054C214.922 327.054 215.969 327.054 217.018 327.054C215.446 328.102 213.874 329.149 212.302 330.198C211.778 330.198 211.253 330.198 210.73 330.198C208.987 330.288 207.415 330.811 206.014 331.77C207.564 328.771 210.183 327.199 213.874 327.054Z" fill="#B8D8F0" fill-opacity="0.5"/>
<path fill-rule="evenodd" clip-rule="evenodd" d="M297.19 305.046C299.81 307.141 302.429 309.239 305.05 311.334C304.935 313.734 305.983 315.306 308.194 316.05C309.025 319.64 310.597 322.784 312.91 325.482C315.12 326.226 316.168 327.798 316.054 330.198C314.207 330.542 312.635 330.019 311.338 328.626C306.273 320.78 301.557 312.92 297.19 305.046Z" fill="#B8D8F0" fill-opacity="0.5"/>
<path fill-rule="evenodd" clip-rule="evenodd" d="M312.91 322.338C313.433 322.338 313.958 322.338 314.482 322.338C315.53 324.433 317.102 326.005 319.198 327.054C322.106 332.613 324.727 338.376 327.058 344.346C323.673 339.537 320.004 334.821 316.054 330.198C316.169 327.798 315.12 326.226 312.91 325.482C312.91 324.433 312.91 323.387 312.91 322.338Z" fill="#B8D8F0" fill-opacity="0.5"/>
<path fill-rule="evenodd" clip-rule="evenodd" d="M204.442 331.77C203.394 332.819 202.347 333.865 201.298 334.914C200.775 334.914 200.25 334.914 199.726 334.914C194.479 337.014 189.239 339.11 184.006 341.202C184.006 340.153 184.006 339.107 184.006 338.058C190.659 335.521 197.472 333.425 204.442 331.77Z" fill="#B8D8F0" fill-opacity="0.5"/>
<path fill-rule="evenodd" clip-rule="evenodd" d="M184.006 338.058C184.006 339.107 184.006 340.153 184.006 341.202C183.469 342.519 182.422 343.044 180.862 342.774C176.44 342.027 173.296 343.599 171.43 347.49C170.382 347.49 169.335 347.49 168.286 347.49C168.151 345.924 168.676 344.615 169.858 343.56C174.629 341.691 179.345 339.858 184.006 338.058Z" fill="#B8D8F0" fill-opacity="0.5"/>
<path fill-rule="evenodd" clip-rule="evenodd" d="M180.862 342.774C177.787 344.333 174.643 345.905 171.43 347.49C173.296 343.599 176.44 342.027 180.862 342.774Z" fill="#B8D8F0" fill-opacity="0.5"/>
<path fill-rule="evenodd" clip-rule="evenodd" d="M327.058 344.346C328.611 346.382 330.183 348.477 331.774 350.634C331.774 351.682 331.774 352.729 331.774 353.778C330.639 352.126 329.067 351.077 327.058 350.634C327.058 348.538 327.058 346.441 327.058 344.346Z" fill="#B8D8F0" fill-opacity="0.5"/>
<path fill-rule="evenodd" clip-rule="evenodd" d="M405.658 328.626C403.157 333.234 400.013 337.426 396.226 341.202C391.306 342.887 387.115 345.77 383.65 349.848C376.944 352.203 372.228 350.37 369.502 344.346C371.957 344.712 374.053 345.761 375.79 347.49C380.801 349.936 384.469 348.364 386.794 342.774C387.317 342.774 387.842 342.774 388.366 342.774C394.586 338.652 400.351 333.936 405.658 328.626Z" fill="#B8D8F0" fill-opacity="0.5"/>
<path fill-rule="evenodd" clip-rule="evenodd" d="M168.286 347.49C169.335 347.49 170.382 347.49 171.43 347.49C168.726 348.76 166.106 350.332 163.57 352.206C163.57 349.062 165.142 347.49 168.286 347.49Z" fill="#B8D8F0" fill-opacity="0.5"/>
<path fill-rule="evenodd" clip-rule="evenodd" d="M360.07 350.634C360.07 350.111 360.07 349.586 360.07 349.062C361.642 349.062 363.214 349.062 364.786 349.062C364.786 351.683 364.786 354.302 364.786 356.922C364.263 356.922 363.738 356.922 363.214 356.922C363.214 356.399 363.214 355.874 363.214 355.35C363.329 352.95 362.28 351.378 360.07 350.634Z" fill="#B8D8F0" fill-opacity="0.5"/>
<path fill-rule="evenodd" clip-rule="evenodd" d="M163.57 352.206C160.495 353.765 157.351 355.337 154.138 356.922C154.138 355.35 154.138 353.778 154.138 352.206C157.282 352.206 160.426 352.206 163.57 352.206Z" fill="#B8D8F0" fill-opacity="0.5"/>
<path fill-rule="evenodd" clip-rule="evenodd" d="M396.226 341.202C396.361 342.768 395.836 344.077 394.654 345.132C390.281 347.15 386.613 350.032 383.65 353.778C374.117 356.304 368.353 352.637 366.358 342.774C367.406 343.298 368.453 343.823 369.502 344.346C372.228 350.37 376.944 352.203 383.65 349.848C387.115 345.77 391.306 342.887 396.226 341.202Z" fill="#B8D8F0" fill-opacity="0.5"/>
<path fill-rule="evenodd" clip-rule="evenodd" d="M154.138 356.922C154.138 357.445 154.138 357.971 154.138 358.494C150.038 358.337 146.369 359.385 143.134 361.638C143.134 360.066 143.134 358.494 143.134 356.922C146.802 356.922 150.471 356.922 154.138 356.922Z" fill="#B8D8F0" fill-opacity="0.5"/>
<path fill-rule="evenodd" clip-rule="evenodd" d="M139.99 363.21C137.513 364.221 135.416 365.793 133.702 367.926C132.023 369.394 129.928 369.919 127.414 369.498C127.414 368.974 127.414 368.449 127.414 367.926C131 364.895 135.191 363.323 139.99 363.21Z" fill="#B8D8F0" fill-opacity="0.5"/>
<path fill-rule="evenodd" clip-rule="evenodd" d="M364.786 356.922C366.864 356.655 368.699 357.178 370.288 358.494C371.389 363.73 373.223 368.446 375.79 372.642C374.633 369.924 372.536 368.352 369.502 367.926C368.649 363.936 367.077 360.267 364.786 356.922Z" fill="#B8D8F0" fill-opacity="0.5"/>
<path fill-rule="evenodd" clip-rule="evenodd" d="M117.982 367.926C121.126 367.926 124.27 367.926 127.414 367.926C127.414 368.45 127.414 368.975 127.414 369.498C126.89 369.498 126.366 369.498 125.842 369.498C121.741 369.341 118.073 370.389 114.838 372.642C115.362 371.594 115.886 370.547 116.41 369.498C117.458 369.498 117.982 368.975 117.982 367.926Z" fill="#B8D8F0" fill-opacity="0.5"/>
<path fill-rule="evenodd" clip-rule="evenodd" d="M83.3979 367.926C94.9259 367.926 106.454 367.926 117.982 367.926C117.982 368.975 117.458 369.498 116.41 369.498C111.249 370.411 106.009 370.935 100.69 371.07C94.4512 371.394 88.6871 370.345 83.3979 367.926Z" fill="#B8D8F0" fill-opacity="0.5"/>
<path fill-rule="evenodd" clip-rule="evenodd" d="M83.3978 367.926C88.687 370.345 94.4511 371.394 100.69 371.07C106.009 370.935 111.249 370.411 116.41 369.498C115.886 370.547 115.362 371.594 114.838 372.642C114.314 372.642 113.79 372.642 113.266 372.642C103.834 372.642 94.4018 372.642 84.9698 372.642C81.2794 370.36 77.0874 369.313 72.3938 369.498C69.4553 369.509 66.8353 370.033 64.5338 371.07C66.4971 373.642 69.1172 375.476 72.3938 376.572C73.5766 377.627 74.1007 378.936 73.9658 380.502C71.8699 380.502 69.7738 380.502 67.6778 380.502C67.6778 378.93 67.6778 377.358 67.6778 375.786C61.9224 376.022 60.3504 373.664 62.9618 368.712C69.7538 367.928 76.5658 367.665 83.3978 367.926Z" fill="#B8D8F0" fill-opacity="0.5"/>
<path fill-rule="evenodd" clip-rule="evenodd" d="M275.182 371.07C276.23 371.07 277.277 371.07 278.326 371.07C278.783 372.876 280.093 373.925 282.256 374.214C288.77 375.258 295.321 376.044 301.906 376.572C304.229 379.777 307.373 381.087 311.338 380.502C311.338 381.025 311.338 381.55 311.338 382.074C311.459 384.039 312.507 385.348 314.482 386.004C311.075 386.266 307.67 386.527 304.264 386.79C293.93 383.459 283.188 381.887 272.038 382.074C266.798 382.336 261.557 382.597 256.318 382.86C252.429 382.918 249.285 384.228 246.886 386.79C245.837 386.79 245.314 387.313 245.314 388.362C237.422 387.376 230.086 388.686 223.306 392.292C219.675 393.073 216.007 393.334 212.302 393.078C204.274 395.823 195.89 397.656 187.15 398.58C186.101 399.629 185.054 400.675 184.006 401.724C164.101 402.51 144.189 402.773 124.27 402.51C120.68 402.34 117.536 401.031 114.838 398.58C110.151 397.797 105.435 397.535 100.69 397.794C100.825 396.228 100.301 394.919 99.1179 393.864C95.1074 393.861 91.9634 392.55 89.6859 389.934C88.0076 388.466 85.9115 387.941 83.3979 388.362C80.6793 387.205 79.1073 385.108 78.6819 382.074C80.975 381.969 83.0711 382.492 84.9699 383.646C85.1439 384.616 85.6679 385.402 86.5419 386.004C90.1729 386.785 93.841 387.046 97.5459 386.79C98.5939 386.79 99.6418 386.79 100.69 386.79C102.546 389.253 105.166 390.564 108.55 390.72C126.64 392.018 144.456 391.756 161.998 389.934C170.601 386.869 179.51 385.034 188.722 384.432C193.202 381.617 197.918 379.782 202.87 378.93C204.107 376.408 206.203 375.36 209.158 375.786C214.424 376.045 219.664 375.783 224.878 375C225.926 373.951 226.973 372.904 228.022 371.856C243.732 371.07 259.452 370.809 275.182 371.07Z" fill="#B8D8F0" fill-opacity="0.5"/>
<path fill-rule="evenodd" clip-rule="evenodd" d="M327.058 350.634C329.067 351.077 330.639 352.126 331.774 353.778C331.659 356.178 332.708 357.75 334.918 358.494C335.966 359.018 337.013 359.543 338.062 360.066C338.065 365.827 340.161 370.543 344.35 374.214C346.673 380.145 349.292 385.91 352.21 391.506C352.21 393.602 351.161 394.65 349.066 394.65C348.204 391.456 346.109 389.884 342.778 389.934C342.412 387.479 341.363 385.383 339.634 383.646C337.991 378.859 334.847 375.715 330.202 374.214C329.678 372.642 328.63 371.594 327.058 371.07C326.009 369.498 324.962 367.926 323.914 366.354C323.409 363.921 321.837 362.872 319.198 363.21C319.198 361.638 319.198 360.066 319.198 358.494C317.626 358.494 316.054 358.494 314.482 358.494C314.482 357.971 314.482 357.446 314.482 356.922C317.252 356.697 319.872 357.222 322.342 358.494C327.188 362.488 330.856 367.204 333.346 372.642C335 372.876 336.572 372.615 338.062 371.856C336.611 368.648 336.088 365.241 336.49 361.638C334.412 361.905 332.577 361.382 330.988 360.066C329.224 357.048 327.913 353.904 327.058 350.634Z" fill="#B8D8F0" fill-opacity="0.5"/>
<path fill-rule="evenodd" clip-rule="evenodd" d="M278.326 371.07C280.946 371.07 283.565 371.07 286.186 371.07C294.926 372.829 303.31 375.45 311.338 378.93C311.338 379.454 311.338 379.979 311.338 380.502C307.373 381.087 304.229 379.777 301.906 376.572C295.321 376.044 288.77 375.258 282.256 374.214C280.093 373.925 278.783 372.876 278.326 371.07Z" fill="#B8D8F0" fill-opacity="0.5"/>
<path fill-rule="evenodd" clip-rule="evenodd" d="M311.338 380.502C311.338 379.978 311.338 379.453 311.338 378.93C311.861 378.93 312.386 378.93 312.91 378.93C315.53 378.93 318.149 378.93 320.77 378.93C320.77 379.978 320.77 381.025 320.77 382.074C317.728 381.052 314.584 380.529 311.338 380.502Z" fill="#B8D8F0" fill-opacity="0.5"/>
<path fill-rule="evenodd" clip-rule="evenodd" d="M320.77 378.93C322.865 378.93 323.914 379.978 323.914 382.074C322.865 382.074 321.819 382.074 320.77 382.074C320.77 381.025 320.77 379.978 320.77 378.93Z" fill="#B8D8F0" fill-opacity="0.5"/>
<path fill-rule="evenodd" clip-rule="evenodd" d="M84.97 383.646C88.0121 384.668 91.1561 385.191 94.402 385.218C95.45 385.218 96.4979 385.218 97.546 385.218C97.546 385.741 97.546 386.267 97.546 386.79C93.8411 387.046 90.173 386.785 86.542 386.004C85.6679 385.402 85.144 384.616 84.97 383.646Z" fill="#B8D8F0" fill-opacity="0.5"/>
<path fill-rule="evenodd" clip-rule="evenodd" d="M311.338 382.074C316.241 384.512 321.481 386.084 327.058 386.79C327.058 388.362 327.058 389.934 327.058 391.506C329.729 391.254 332.349 391.515 334.918 392.292C330.758 393.073 326.566 393.336 322.342 393.078C317.321 391.1 312.082 390.053 306.622 389.934C301.709 388.395 296.47 387.87 290.902 388.362C284.762 386.098 278.211 385.051 271.252 385.218C263.126 385.809 255.005 386.333 246.886 386.79C249.285 384.228 252.429 382.918 256.318 382.86C261.557 382.597 266.799 382.337 272.038 382.074C283.188 381.887 293.93 383.459 304.264 386.79C307.671 386.527 311.075 386.267 314.482 386.004C312.508 385.348 311.459 384.039 311.338 382.074Z" fill="#B8D8F0" fill-opacity="0.5"/>
<path fill-rule="evenodd" clip-rule="evenodd" d="M375.79 377.358C379.582 377.663 381.154 379.758 380.506 383.646C382.078 383.646 383.65 383.646 385.222 383.646C385.222 386.79 385.222 389.934 385.222 393.078C384.174 392.555 383.127 392.03 382.078 391.506C381.555 390.458 381.03 389.411 380.506 388.362C379.838 384.245 378.266 380.576 375.79 377.358Z" fill="#B8D8F0" fill-opacity="0.5"/>
<path fill-rule="evenodd" clip-rule="evenodd" d="M290.902 388.362C275.705 388.362 260.51 388.362 245.314 388.362C245.314 387.313 245.837 386.79 246.886 386.79C255.005 386.332 263.126 385.809 271.252 385.218C278.211 385.051 284.762 386.098 290.902 388.362Z" fill="#B8D8F0" fill-opacity="0.5"/>
<path fill-rule="evenodd" clip-rule="evenodd" d="M100.69 386.79C116.628 389.675 132.872 390.723 149.422 389.934C153.614 389.934 157.805 389.934 161.998 389.934C144.456 391.756 126.64 392.019 108.55 390.72C105.166 390.564 102.546 389.253 100.69 386.79Z" fill="#B8D8F0" fill-opacity="0.5"/>
<path fill-rule="evenodd" clip-rule="evenodd" d="M295.618 391.506C295.618 390.982 295.618 390.457 295.618 389.934C299.285 389.934 302.954 389.934 306.622 389.934C312.081 390.053 317.321 391.1 322.342 393.078C322.342 393.601 322.342 394.126 322.342 394.65C321.818 394.65 321.293 394.65 320.77 394.65C316.493 393.922 312.3 392.875 308.194 391.506C305.05 391.506 301.906 391.506 298.762 391.506C298.238 391.506 297.713 391.506 297.19 391.506C296.666 391.506 296.141 391.506 295.618 391.506Z" fill="#B8D8F0" fill-opacity="0.5"/>
<path fill-rule="evenodd" clip-rule="evenodd" d="M89.686 389.934C91.9635 392.55 95.1075 393.861 99.118 393.864C100.301 394.919 100.825 396.228 100.69 397.794C97.2294 396.118 93.5614 395.07 89.686 394.65C89.686 396.222 89.686 397.794 89.686 399.366C91.7154 398.993 93.2874 399.517 94.402 400.938C93.878 400.938 93.3539 400.938 92.83 400.938C91.258 400.938 89.686 400.938 88.114 400.938C87.0659 397.27 86.018 393.601 84.97 389.934C86.542 389.934 88.114 389.934 89.686 389.934Z" fill="#B8D8F0" fill-opacity="0.5"/>
<path fill-rule="evenodd" clip-rule="evenodd" d="M245.314 388.362C260.511 388.362 275.705 388.362 290.902 388.362C296.47 387.87 301.71 388.395 306.622 389.934C302.955 389.934 299.285 389.934 295.618 389.934C277.803 389.934 259.985 389.934 242.17 389.934C235.42 388.845 229.655 390.417 224.878 394.65C222.783 394.65 220.685 394.65 218.59 394.65C216.495 394.65 214.397 394.65 212.302 394.65C212.302 394.127 212.302 393.602 212.302 393.078C216.007 393.334 219.675 393.073 223.306 392.292C230.086 388.686 237.423 387.376 245.314 388.362Z" fill="#B8D8F0" fill-opacity="0.5"/>
<path fill-rule="evenodd" clip-rule="evenodd" d="M242.17 389.934C237.162 393.666 231.397 395.238 224.878 394.65C229.655 390.417 235.42 388.845 242.17 389.934Z" fill="#B8D8F0" fill-opacity="0.5"/>
<path fill-rule="evenodd" clip-rule="evenodd" d="M311.338 382.074C311.338 381.55 311.338 381.025 311.338 380.502C314.584 380.529 317.728 381.052 320.77 382.074C321.818 382.074 322.865 382.074 323.914 382.074C326.009 383.646 328.106 385.218 330.202 386.79C333.066 389.164 336.21 391.259 339.634 393.078C340.748 394.499 342.32 395.023 344.35 394.65C344.35 396.222 344.35 397.794 344.35 399.366C342.254 399.366 340.157 399.366 338.062 399.366C336.032 399.739 334.46 399.215 333.346 397.794C333.171 396.824 332.648 396.038 331.774 395.436C328.672 394.658 325.528 394.395 322.342 394.65C322.342 394.126 322.342 393.601 322.342 393.078C326.566 393.336 330.758 393.073 334.918 392.292C332.349 391.515 329.729 391.254 327.058 391.506C327.058 389.934 327.058 388.362 327.058 386.79C321.48 386.084 316.241 384.512 311.338 382.074Z" fill="#B8D8F0" fill-opacity="0.5"/>
<path fill-rule="evenodd" clip-rule="evenodd" d="M212.302 393.078C212.302 393.601 212.302 394.127 212.302 394.65C212.128 395.62 211.604 396.406 210.73 397.008C205.049 398.494 199.284 399.542 193.438 400.152C191.754 401.491 190.182 402.801 188.722 404.082C179.779 404.132 170.872 404.657 161.998 405.654C149.414 405.291 136.838 404.766 124.27 404.082C124.27 403.559 124.27 403.033 124.27 402.51C144.189 402.773 164.101 402.51 184.006 401.724C185.055 400.675 186.101 399.629 187.15 398.58C195.89 397.656 204.274 395.823 212.302 393.078Z" fill="#B8D8F0" fill-opacity="0.5"/>
<path fill-rule="evenodd" clip-rule="evenodd" d="M320.77 396.222C320.77 395.699 320.77 395.173 320.77 394.65C321.293 394.65 321.819 394.65 322.342 394.65C325.528 394.395 328.672 394.658 331.774 395.436C332.648 396.038 333.172 396.824 333.346 397.794C330.804 396.948 328.184 396.425 325.486 396.222C323.914 396.222 322.342 396.222 320.77 396.222Z" fill="#B8D8F0" fill-opacity="0.5"/>
<path fill-rule="evenodd" clip-rule="evenodd" d="M212.302 394.65C214.397 394.65 216.494 394.65 218.59 394.65C218.59 395.699 218.066 396.222 217.018 396.222C214.617 396.107 213.045 397.156 212.302 399.366C204.203 399.962 196.343 401.534 188.722 404.082C190.182 402.801 191.754 401.491 193.438 400.152C199.284 399.542 205.048 398.494 210.73 397.008C211.604 396.406 212.127 395.62 212.302 394.65Z" fill="#B8D8F0" fill-opacity="0.5"/>
<path fill-rule="evenodd" clip-rule="evenodd" d="M217.018 396.222C216.274 398.432 214.702 399.481 212.302 399.366C213.046 397.156 214.618 396.107 217.018 396.222Z" fill="#B8D8F0" fill-opacity="0.5"/>
<path fill-rule="evenodd" clip-rule="evenodd" d="M83.398 388.362C85.9116 387.941 88.0077 388.466 89.686 389.934C88.114 389.934 86.542 389.934 84.97 389.934C86.018 393.602 87.0659 397.271 88.114 400.938C81.7265 399.284 78.5825 395.092 78.682 388.362C80.254 388.362 81.826 388.362 83.398 388.362Z" fill="#B8D8F0" fill-opacity="0.5"/>
<path fill-rule="evenodd" clip-rule="evenodd" d="M100.69 397.794C102.786 398.843 104.882 399.89 106.978 400.938C99.6381 400.136 98.0661 402.232 102.262 407.226C100.519 407.136 98.9467 406.613 97.546 405.654C97.6608 403.254 96.6127 401.682 94.402 400.938C93.2875 399.517 91.7155 398.993 89.686 399.366C89.686 397.794 89.686 396.222 89.686 394.65C93.5615 395.07 97.2294 396.118 100.69 397.794Z" fill="#B8D8F0" fill-opacity="0.5"/>
<path fill-rule="evenodd" clip-rule="evenodd" d="M100.69 397.794C105.435 397.535 110.151 397.797 114.838 398.58C117.536 401.031 120.68 402.34 124.27 402.51C124.27 403.033 124.27 403.558 124.27 404.082C122.174 404.082 120.078 404.082 117.982 404.082C115.734 402.452 113.113 401.403 110.122 400.938C109.074 400.938 108.026 400.938 106.978 400.938C104.882 399.889 102.786 398.842 100.69 397.794Z" fill="#B8D8F0" fill-opacity="0.5"/>
<path fill-rule="evenodd" clip-rule="evenodd" d="M342.778 389.934C346.109 389.884 348.205 391.456 349.066 394.65C350.115 397.271 351.161 399.89 352.21 402.51C348.432 402.592 344.765 402.068 341.206 400.938C340.157 400.938 339.111 400.938 338.062 400.938C338.062 400.415 338.062 399.89 338.062 399.366C340.157 399.366 342.255 399.366 344.35 399.366C344.35 397.794 344.35 396.222 344.35 394.65C342.321 395.023 340.749 394.499 339.634 393.078C341.729 393.078 342.778 392.03 342.778 389.934Z" fill="#B8D8F0" fill-opacity="0.5"/>
<path fill-rule="evenodd" clip-rule="evenodd" d="M242.17 389.934C259.986 389.934 277.803 389.934 295.618 389.934C295.618 390.457 295.618 390.982 295.618 391.506C278.318 391.243 261.026 391.506 243.742 392.292C236.233 395.405 228.373 396.977 220.162 397.008C219.114 398.056 218.067 399.103 217.018 400.152C209.655 400.55 202.842 402.647 196.582 406.44C191.894 407.223 187.178 407.485 182.434 407.226C181.386 407.226 180.339 407.226 179.29 407.226C179.29 406.702 179.29 406.177 179.29 405.654C182.803 406.118 185.947 405.593 188.722 404.082C196.343 401.534 204.203 399.962 212.302 399.366C214.702 399.481 216.274 398.432 217.018 396.222C218.067 396.222 218.59 395.698 218.59 394.65C220.686 394.65 222.783 394.65 224.878 394.65C231.397 395.238 237.162 393.666 242.17 389.934Z" fill="#B8D8F0" fill-opacity="0.5"/>
<path fill-rule="evenodd" clip-rule="evenodd" d="M385.222 396.222C385.222 395.699 385.222 395.174 385.222 394.65C389.251 396.367 392.657 398.986 395.44 402.51C396.216 405.079 396.477 407.699 396.226 410.37C392.279 405.816 388.61 401.1 385.222 396.222Z" fill="#B8D8F0" fill-opacity="0.5"/>
<path fill-rule="evenodd" clip-rule="evenodd" d="M110.122 400.938C113.114 401.403 115.734 402.452 117.982 404.082C114.527 404.679 111.907 403.631 110.122 400.938Z" fill="#B8D8F0" fill-opacity="0.5"/>
<path opacity="0.969" fill-rule="evenodd" clip-rule="evenodd" d="M55.102 443.382C44.3458 428.967 37.5338 412.723 34.666 394.65C35.9079 392.907 36.6939 390.811 37.024 388.362C40.0556 395.332 41.6276 402.669 41.74 410.37C44.1971 415.202 46.8171 419.918 49.6 424.518C50.3789 427.62 50.6408 430.764 50.386 433.95C51.958 433.95 53.53 433.95 55.102 433.95C55.102 437.094 55.102 440.238 55.102 443.382Z" fill="#B8D8F0" fill-opacity="0.5"/>
<path fill-rule="evenodd" clip-rule="evenodd" d="M94.4018 400.938C96.6125 401.681 97.6606 403.253 97.5458 405.654C95.1122 405.149 94.0641 403.577 94.4018 400.938Z" fill="#B8D8F0" fill-opacity="0.5"/>
<path fill-rule="evenodd" clip-rule="evenodd" d="M385.222 396.222C388.61 401.1 392.279 405.816 396.226 410.37C396.226 410.893 396.226 411.418 396.226 411.942C397.955 413.679 399.004 415.774 399.37 418.23C398.846 418.23 398.321 418.23 397.798 418.23C396.226 416.134 394.654 414.037 393.082 411.942C389.869 407.033 387.248 401.793 385.222 396.222Z" fill="#B8D8F0" fill-opacity="0.5"/>
<path fill-rule="evenodd" clip-rule="evenodd" d="M106.978 400.938C108.026 400.938 109.074 400.938 110.122 400.938C111.907 403.631 114.527 404.679 117.982 404.082C120.078 404.082 122.174 404.082 124.27 404.082C127.414 405.13 130.558 406.177 133.702 407.226C131.082 407.226 128.463 407.226 125.842 407.226C124.794 407.226 123.746 407.226 122.698 407.226C118.85 405.696 114.658 405.173 110.122 405.654C109.074 404.082 108.026 402.51 106.978 400.938Z" fill="#B8D8F0" fill-opacity="0.5"/>
<path fill-rule="evenodd" clip-rule="evenodd" d="M124.27 404.082C136.838 404.766 149.414 405.291 161.998 405.654C152.865 407.21 143.433 407.734 133.702 407.226C130.558 406.178 127.414 405.131 124.27 404.082Z" fill="#B8D8F0" fill-opacity="0.5"/>
<path fill-rule="evenodd" clip-rule="evenodd" d="M352.21 391.506C353.74 394.082 355.835 396.18 358.498 397.794C357.959 400.911 359.007 403.008 361.642 404.082C361.642 405.131 361.642 406.177 361.642 407.226C358.225 407.619 355.604 409.191 353.782 411.942C349.352 414.253 344.636 415.825 339.634 416.658C339.634 416.135 339.634 415.609 339.634 415.086C340.158 415.086 340.683 415.086 341.206 415.086C344.913 412.926 348.582 410.831 352.21 408.798C354.074 406.904 354.074 404.807 352.21 402.51C351.162 399.889 350.115 397.271 349.066 394.65C351.162 394.65 352.21 393.601 352.21 391.506Z" fill="#B8D8F0" fill-opacity="0.5"/>
<path fill-rule="evenodd" clip-rule="evenodd" d="M92.8301 400.938C93.354 400.938 93.8781 400.938 94.4021 400.938C94.0644 403.577 95.1125 405.149 97.5461 405.654C98.9467 406.613 100.519 407.136 102.262 407.226C103.006 409.436 104.578 410.485 106.978 410.37C106.978 410.893 106.978 411.418 106.978 411.942C102.051 410.777 97.3354 409.205 92.8301 407.226C92.8301 405.13 92.8301 403.033 92.8301 400.938Z" fill="#B8D8F0" fill-opacity="0.5"/>
<path fill-rule="evenodd" clip-rule="evenodd" d="M188.722 404.082C185.947 405.593 182.803 406.118 179.29 405.654C164.274 408.458 149.078 409.505 133.702 408.798C133.702 408.275 133.702 407.75 133.702 407.226C143.433 407.734 152.865 407.21 161.998 405.654C170.872 404.657 179.779 404.132 188.722 404.082Z" fill="#B8D8F0" fill-opacity="0.5"/>
<path fill-rule="evenodd" clip-rule="evenodd" d="M125.842 407.226C128.463 407.226 131.082 407.226 133.702 407.226C133.702 407.75 133.702 408.275 133.702 408.798C133.702 409.322 133.702 409.847 133.702 410.37C130.116 411.035 127.496 409.987 125.842 407.226Z" fill="#B8D8F0" fill-opacity="0.5"/>
<path fill-rule="evenodd" clip-rule="evenodd" d="M179.29 405.654C179.29 406.178 179.29 406.703 179.29 407.226C164.285 410.09 149.09 411.139 133.702 410.37C133.702 409.847 133.702 409.322 133.702 408.798C149.078 409.505 164.274 408.459 179.29 405.654Z" fill="#B8D8F0" fill-opacity="0.5"/>
<path fill-rule="evenodd" clip-rule="evenodd" d="M106.978 411.942C109.134 413.533 111.23 415.105 113.266 416.658C111.17 416.658 109.074 416.658 106.978 416.658C106.978 415.086 106.978 413.514 106.978 411.942Z" fill="#B8D8F0" fill-opacity="0.5"/>
<path fill-rule="evenodd" clip-rule="evenodd" d="M361.642 407.226C366.144 416.966 372.432 425.35 380.506 432.378C381.029 433.427 381.555 434.474 382.078 435.522C382.078 436.046 382.078 436.571 382.078 437.094C380.506 437.094 378.934 437.094 377.362 437.094C377.362 435.522 377.362 433.95 377.362 432.378C375.284 432.645 373.449 432.122 371.86 430.806C368.765 426.563 366.93 421.847 366.358 416.658C364.786 416.658 363.214 416.658 361.642 416.658C361.642 415.086 361.642 413.514 361.642 411.942C359.021 411.942 356.403 411.942 353.782 411.942C355.604 409.191 358.224 407.619 361.642 407.226Z" fill="#B8D8F0" fill-opacity="0.5"/>
<path fill-rule="evenodd" clip-rule="evenodd" d="M396.226 411.942C400.018 412.247 401.59 414.342 400.942 418.23C400.419 418.23 399.894 418.23 399.37 418.23C399.004 415.775 397.955 413.679 396.226 411.942Z" fill="#B8D8F0" fill-opacity="0.5"/>
<path fill-rule="evenodd" clip-rule="evenodd" d="M339.634 415.086C339.634 415.61 339.634 416.135 339.634 416.658C334.731 419.096 329.492 420.668 323.914 421.374C324.963 420.326 326.01 419.279 327.058 418.23C327.582 418.23 328.107 418.23 328.63 418.23C331.865 415.977 335.534 414.929 339.634 415.086Z" fill="#B8D8F0" fill-opacity="0.5"/>
<path fill-rule="evenodd" clip-rule="evenodd" d="M399.37 418.23C399.894 418.23 400.419 418.23 400.942 418.23C402.671 419.967 403.72 422.063 404.086 424.518C401.316 423.32 399.744 421.223 399.37 418.23Z" fill="#B8D8F0" fill-opacity="0.5"/>
<path fill-rule="evenodd" clip-rule="evenodd" d="M400.942 418.23C404.734 418.535 406.306 420.63 405.658 424.518C405.134 424.518 404.609 424.518 404.086 424.518C403.72 422.063 402.671 419.967 400.942 418.23Z" fill="#B8D8F0" fill-opacity="0.5"/>
<path fill-rule="evenodd" clip-rule="evenodd" d="M117.982 421.374C119.554 421.374 121.126 421.374 122.698 421.374C124.435 423.103 126.531 424.152 128.986 424.518C129.509 424.518 130.034 424.518 130.558 424.518C131.081 425.567 131.606 426.613 132.13 427.662C125.652 428.986 120.936 426.89 117.982 421.374Z" fill="#B8D8F0" fill-opacity="0.5"/>
<path fill-rule="evenodd" clip-rule="evenodd" d="M322.342 421.374C319.707 425.043 316.04 426.615 311.338 426.09C311.338 425.567 311.338 425.041 311.338 424.518C313.367 424.891 314.939 424.367 316.054 422.946C318.149 422.423 320.246 421.897 322.342 421.374Z" fill="#B8D8F0" fill-opacity="0.5"/>
<path fill-rule="evenodd" clip-rule="evenodd" d="M404.086 424.518C404.609 424.518 405.134 424.518 405.658 424.518C408.278 428.186 411.422 431.33 415.09 433.95C415.09 434.474 415.09 434.999 415.09 435.522C415.09 436.046 415.09 436.571 415.09 437.094C414.566 437.094 414.041 437.094 413.518 437.094C412.994 437.094 412.469 437.094 411.946 437.094C409.325 432.902 406.706 428.711 404.086 424.518Z" fill="#B8D8F0" fill-opacity="0.5"/>
<path fill-rule="evenodd" clip-rule="evenodd" d="M405.658 424.518C410.303 426.019 413.447 429.163 415.09 433.95C411.422 431.33 408.278 428.186 405.658 424.518Z" fill="#B8D8F0" fill-opacity="0.5"/>
<path fill-rule="evenodd" clip-rule="evenodd" d="M339.634 416.658C339.769 418.224 339.244 419.533 338.062 420.588C333.132 421.083 328.94 422.918 325.486 426.09C316.195 428.791 306.763 431.149 297.19 433.164C293.257 436.641 288.541 437.951 283.042 437.094C283.042 436.57 283.042 436.045 283.042 435.522C292.864 433.096 302.296 429.952 311.338 426.09C316.04 426.615 319.707 425.043 322.342 421.374C322.865 421.374 323.391 421.374 323.914 421.374C329.491 420.668 334.731 419.096 339.634 416.658Z" fill="#B8D8F0" fill-opacity="0.5"/>
<path fill-rule="evenodd" clip-rule="evenodd" d="M133.702 427.662C134.225 427.662 134.75 427.662 135.274 427.662C137.058 430.355 139.679 431.403 143.134 430.806C144.151 433.386 145.723 435.481 147.85 437.094C145.229 437.094 142.61 437.094 139.99 437.094C139.99 435.522 139.99 433.95 139.99 432.378C136.102 433.026 134.007 431.454 133.702 427.662Z" fill="#B8D8F0" fill-opacity="0.5"/>
<path fill-rule="evenodd" clip-rule="evenodd" d="M415.09 437.094C418.758 440.238 422.427 443.382 426.094 446.526C429.971 452.506 435.21 456.698 441.814 459.102C441.814 459.625 441.814 460.151 441.814 460.674C441.814 461.197 441.814 461.723 441.814 462.246C438.9 461.081 436.279 459.509 433.954 457.53C428.19 452.291 422.427 447.049 416.662 441.81C415.703 440.409 415.18 438.837 415.09 437.094Z" fill="#B8D8F0" fill-opacity="0.5"/>
<path fill-rule="evenodd" clip-rule="evenodd" d="M415.09 437.094C415.09 436.57 415.09 436.045 415.09 435.522C420.26 437.548 423.928 441.216 426.094 446.526C422.427 443.382 418.758 440.238 415.09 437.094Z" fill="#B8D8F0" fill-opacity="0.5"/>
<path fill-rule="evenodd" clip-rule="evenodd" d="M413.518 437.094C414.042 437.094 414.567 437.094 415.09 437.094C415.18 438.837 415.703 440.409 416.662 441.81C414.229 441.305 413.18 439.733 413.518 437.094Z" fill="#B8D8F0" fill-opacity="0.5"/>
<path fill-rule="evenodd" clip-rule="evenodd" d="M278.326 437.094C278.461 438.66 277.936 439.969 276.754 441.024C267.52 442.195 258.613 444.292 250.03 447.312C243.764 448.096 237.476 448.359 231.166 448.098C235.882 447.049 240.598 446.003 245.314 444.954C246.363 443.905 247.409 442.859 248.458 441.81C250.03 441.81 251.602 441.81 253.174 441.81C262.045 442.206 270.428 440.634 278.326 437.094Z" fill="#B8D8F0" fill-opacity="0.5"/>
<path fill-rule="evenodd" clip-rule="evenodd" d="M154.138 437.094C162.446 440.141 170.83 443.024 179.29 445.74C199.231 446.853 219.143 446.59 239.026 444.954C241.121 444.954 243.219 444.954 245.314 444.954C240.598 446.003 235.882 447.049 231.166 448.098C213.343 448.361 195.526 448.098 177.718 447.312C171.381 444.151 164.568 442.579 157.282 442.596C154.966 441.48 153.918 439.647 154.138 437.094Z" fill="#B8D8F0" fill-opacity="0.5"/>
<path fill-rule="evenodd" clip-rule="evenodd" d="M426.094 446.526C430.58 449.684 435.296 452.567 440.242 455.172C441.424 456.227 441.949 457.536 441.814 459.102C435.21 456.698 429.971 452.506 426.094 446.526Z" fill="#B8D8F0" fill-opacity="0.5"/>
<path opacity="0.525" fill-rule="evenodd" clip-rule="evenodd" d="M55.1021 443.382C57.198 443.382 59.2941 443.382 61.3901 443.382C63.4354 446.796 65.0074 450.464 66.1061 454.386C71.8701 454.909 75.0141 458.053 75.5381 463.818C67.1541 458.578 60.342 451.765 55.1021 443.382Z" fill="#B8D8F0" fill-opacity="0.5"/>
<path fill-rule="evenodd" clip-rule="evenodd" d="M441.814 460.674C441.814 460.151 441.814 459.626 441.814 459.102C446.304 461.19 451.02 462.762 455.962 463.818C455.962 465.39 455.962 466.962 455.962 468.534C450.955 466.19 446.239 463.57 441.814 460.674Z" fill="#B8D8F0" fill-opacity="0.5"/>
<path fill-rule="evenodd" clip-rule="evenodd" d="M441.814 462.246C441.814 461.723 441.814 461.198 441.814 460.674C446.239 463.57 450.955 466.19 455.962 468.534C455.962 469.058 455.962 469.583 455.962 470.106C453.507 469.74 451.411 468.691 449.674 466.962C446.67 466.058 444.049 464.486 441.814 462.246Z" fill="#B8D8F0" fill-opacity="0.5"/>
<path opacity="0.639" fill-rule="evenodd" clip-rule="evenodd" d="M654.034 462.246C638.479 474.953 620.662 482.813 600.586 485.826C600.319 483.748 600.843 481.913 602.158 480.324C606.351 479.801 610.542 479.276 614.734 478.752C623.163 474.176 632.072 470.769 641.458 468.534C641.458 466.962 641.458 465.39 641.458 463.818C645.652 463.557 649.321 461.985 652.462 459.102C653.717 459.82 654.24 460.869 654.034 462.246Z" fill="#B8D8F0" fill-opacity="0.5"/>
<path opacity="0.506" fill-rule="evenodd" clip-rule="evenodd" d="M119.554 479.538C121.836 480.799 124.456 481.585 127.414 481.896C128.596 482.951 129.121 484.26 128.986 485.826C109.479 484.223 92.1868 477.411 77.1101 465.39C78.1318 464.912 79.1796 464.389 80.2541 463.818C90.5798 468.853 101.06 473.832 111.694 478.752C114.263 479.529 116.883 479.79 119.554 479.538Z" fill="#B8D8F0" fill-opacity="0.5"/>
<path fill-rule="evenodd" clip-rule="evenodd" d="M418.234 468.534C419.282 468.534 420.329 468.534 421.378 468.534C423.091 470.667 425.188 472.239 427.666 473.25C424.522 473.25 421.378 473.25 418.234 473.25C418.234 471.678 418.234 470.106 418.234 468.534Z" fill="#B8D8F0" fill-opacity="0.5"/>
<path fill-rule="evenodd" clip-rule="evenodd" d="M455.962 470.106C460.486 473.717 465.726 475.812 471.682 476.394C471.682 477.966 471.682 479.538 471.682 481.11C469.061 480.061 466.442 479.014 463.822 477.966C461.786 476.413 459.691 474.841 457.534 473.25C457.01 472.201 456.485 471.154 455.962 470.106Z" fill="#B8D8F0" fill-opacity="0.5"/>
<path fill-rule="evenodd" clip-rule="evenodd" d="M455.962 470.106C455.962 469.582 455.962 469.057 455.962 468.534C458.12 468.287 460.217 468.55 462.25 469.32C469.384 473.456 476.72 477.123 484.258 480.324C486.16 481.957 487.732 483.792 488.974 485.826C483.58 482.981 477.816 481.409 471.682 481.11C471.682 479.538 471.682 477.966 471.682 476.394C465.726 475.812 460.486 473.717 455.962 470.106Z" fill="#B8D8F0" fill-opacity="0.5"/>
<path fill-rule="evenodd" clip-rule="evenodd" d="M471.682 481.11C477.816 481.409 483.581 482.981 488.974 485.826C488.974 486.349 488.974 486.875 488.974 487.398C486.157 487.187 483.538 487.711 481.114 488.97C480.74 485.977 479.168 483.88 476.398 482.682C475.35 482.682 474.303 482.682 473.254 482.682C472.206 482.682 471.682 482.159 471.682 481.11Z" fill="#B8D8F0" fill-opacity="0.5"/>
<path opacity="0.616" fill-rule="evenodd" clip-rule="evenodd" d="M119.554 479.538C125.53 478.563 130.77 479.874 135.274 483.468C170.125 483.732 204.709 484.518 239.026 485.826C202.331 487.574 165.651 487.574 128.986 485.826C129.121 484.26 128.596 482.951 127.414 481.896C124.456 481.585 121.836 480.799 119.554 479.538Z" fill="#B8D8F0" fill-opacity="0.5"/>
<path fill-rule="evenodd" clip-rule="evenodd" d="M433.954 477.966C435.526 477.966 437.098 477.966 438.67 477.966C441.368 480.363 444.512 481.935 448.102 482.682C452.879 486.915 458.644 488.487 465.394 487.398C465.918 487.398 466.443 487.398 466.966 487.398C467.056 489.141 467.579 490.713 468.538 492.114C460.6 490.781 452.74 488.948 444.958 486.612C442.605 483.671 439.461 482.099 435.526 481.896C434.344 480.841 433.819 479.532 433.954 477.966Z" fill="#B8D8F0" fill-opacity="0.5"/>
<path fill-rule="evenodd" clip-rule="evenodd" d="M473.254 482.682C474.303 482.682 475.35 482.682 476.398 482.682C476.178 485.235 477.226 487.068 479.542 488.184C476.44 488.962 473.296 489.225 470.11 488.97C469.572 487.653 468.525 487.128 466.966 487.398C466.443 487.398 465.918 487.398 465.394 487.398C465.394 486.875 465.394 486.349 465.394 485.826C468.98 486.491 471.6 485.442 473.254 482.682Z" fill="#B8D8F0" fill-opacity="0.5"/>
<path fill-rule="evenodd" clip-rule="evenodd" d="M476.398 482.682C479.168 483.88 480.74 485.977 481.114 488.97C481.114 489.493 481.114 490.019 481.114 490.542C480.59 490.542 480.065 490.542 479.542 490.542C476.028 491.006 472.884 490.481 470.11 488.97C473.296 489.225 476.44 488.962 479.542 488.184C477.226 487.068 476.178 485.235 476.398 482.682Z" fill="#B8D8F0" fill-opacity="0.5"/>
<path fill-rule="evenodd" clip-rule="evenodd" d="M466.966 487.398C468.525 487.128 469.572 487.653 470.11 488.97C472.885 490.481 476.029 491.006 479.542 490.542C476.23 492.064 472.561 492.589 468.538 492.114C467.579 490.713 467.056 489.141 466.966 487.398Z" fill="#B8D8F0" fill-opacity="0.5"/>
<path opacity="0.78" fill-rule="evenodd" clip-rule="evenodd" d="M479.542 490.542C480.066 490.542 480.591 490.542 481.114 490.542C481.114 523.554 481.114 556.566 481.114 589.578C479.979 588.921 479.193 587.874 478.756 586.434C477.97 555.522 477.708 524.606 477.97 493.686C474.457 494.15 471.313 493.625 468.538 492.114C472.561 492.589 476.23 492.064 479.542 490.542Z" fill="#B8D8F0" fill-opacity="0.5"/>
<path opacity="0.78" fill-rule="evenodd" clip-rule="evenodd" d="M251.602 501.546C252.91 534.814 253.696 568.35 253.96 602.154C255.008 603.203 256.055 604.249 257.104 605.298C258.335 618.374 260.693 630.95 264.178 643.026C265.75 643.026 267.322 643.026 268.894 643.026C268.894 646.17 268.894 649.314 268.894 652.458C270.466 652.458 272.038 652.458 273.61 652.458C273.61 655.602 273.61 658.746 273.61 661.89C261.813 646.709 254.739 629.417 252.388 610.014C251.602 573.861 251.339 537.705 251.602 501.546Z" fill="#B8D8F0" fill-opacity="0.5"/>
<path opacity="0.878" fill-rule="evenodd" clip-rule="evenodd" d="M273.61 661.89C275.705 661.89 277.802 661.89 279.898 661.89C280.217 665.251 281.789 667.871 284.614 669.75C285.911 671.143 287.483 671.666 289.33 671.322C289.33 673.417 289.33 675.515 289.33 677.61C290.902 677.61 292.474 677.61 294.046 677.61C294.046 679.182 294.046 680.754 294.046 682.326C285.662 677.087 278.849 670.273 273.61 661.89Z" fill="#B8D8F0" fill-opacity="0.5"/>
<path opacity="0.812" fill-rule="evenodd" clip-rule="evenodd" d="M294.046 682.326C297.232 682.072 300.376 682.334 303.478 683.112C311.288 688.842 319.673 693.558 328.63 697.26C335.748 698.002 342.559 699.574 349.066 701.976C345.435 702.758 341.767 703.018 338.062 702.762C321.52 699.54 306.847 692.728 294.046 682.326Z" fill="#B8D8F0" fill-opacity="0.5"/>
<path opacity="0.235" fill-rule="evenodd" clip-rule="evenodd" d="M473.254 635.166C457.885 673.061 430.112 696.116 389.938 704.334C389.009 703.311 387.962 702.262 386.794 701.19C387.122 700.269 387.648 699.483 388.366 698.832C401.439 694.922 414.538 690.992 427.666 687.042C427.666 685.47 427.666 683.898 427.666 682.326C432.196 682.156 435.864 680.323 438.67 676.824C449.784 666.01 459.739 654.744 468.538 643.026C467.985 638.981 468.771 635.314 470.896 632.022C471.333 633.462 472.119 634.509 473.254 635.166Z" fill="#B8D8F0" fill-opacity="0.5"/>
</g>
<defs>
<clipPath id="clip0_3041_3116">
<rect width="729" height="750" fill="white"/>
</clipPath>
</defs>
</svg>
