<svg width="699" height="240" viewBox="0 0 699 240" fill="none" xmlns="http://www.w3.org/2000/svg">
<g clip-path="url(#clip0_3296_8322)">
<g clip-path="url(#clip1_3296_8322)">
<path fill-rule="evenodd" clip-rule="evenodd" d="M83.6376 46.4289C82.8915 46.7138 82.0748 46.8888 81.187 46.954C83.0137 47.7067 84.881 47.8818 86.7883 47.4791C86.9049 47.4791 87.0218 47.4791 87.1384 47.4791C86.7666 47.8556 86.7666 48.2057 87.1384 48.5293C87.8067 48.8263 88.5068 48.943 89.2388 48.8794C89.2388 49.2295 89.2388 49.5796 89.2388 49.9297C89.939 49.9297 90.6392 49.9297 91.3393 49.9297C91.3393 50.2797 91.3393 50.6298 91.3393 50.9799C91.9562 50.9299 92.5398 51.0466 93.0897 51.33C93.8273 52.1095 94.6441 52.8097 95.5403 53.4305C95.8505 53.7193 95.967 54.0694 95.8904 54.4807C97.3148 54.9784 98.0735 56.0287 98.1659 57.6314C98.5198 57.9243 98.9284 58.041 99.3912 57.9815C99.2672 59.0295 99.6173 59.3795 100.441 59.0317C100.441 60.1987 100.441 61.3656 100.441 62.5325C100.791 62.5325 101.142 62.5325 101.492 62.5325C101.485 64.1297 101.777 65.6468 102.367 67.0836C102.542 71.0493 102.6 75.0171 102.542 78.9863C102.428 84.4399 102.545 89.8661 102.892 95.265C106.684 95.3235 110.477 95.3816 114.27 95.4401C118.186 95.4397 121.979 95.2062 125.647 94.7399C130.5 94.7571 135.051 95.9239 139.3 98.2407C139.043 98.6636 138.927 99.1303 138.95 99.641C139.781 100.22 140.715 100.687 141.751 101.041C142.452 101.613 142.919 102.313 143.151 103.142C143.662 103.165 144.129 103.049 144.551 102.792C144.497 103.272 144.555 103.739 144.727 104.192C146.094 106.61 147.378 109.061 148.577 111.544C148.926 113.278 149.159 115.028 149.278 116.795C149.511 117.028 149.744 117.262 149.978 117.495C150.045 116.722 150.22 116.022 150.503 115.395C151.7 124.893 148.783 132.828 141.751 139.2C141.797 138.893 141.68 138.66 141.401 138.5C140.701 139.142 139.884 139.492 138.95 139.55C138.95 139.9 138.95 140.25 138.95 140.6C136.86 141.098 134.876 141.857 132.999 142.876C132.065 142.993 131.132 143.109 130.198 143.226C129.905 143.58 129.789 143.988 129.848 144.451C121.537 144.338 113.252 144.455 104.992 144.801C104.992 144.685 104.992 144.568 104.992 144.451C104.716 143.998 104.366 143.59 103.942 143.226C102.264 142.513 100.63 141.697 99.0411 140.775C98.5884 140.604 98.1214 140.545 97.6408 140.6C97.6408 140.25 97.6408 139.9 97.6408 139.55C96.5401 139.315 95.4899 138.965 94.49 138.5C94.5202 138.151 94.4032 137.86 94.14 137.625C93.0386 137.045 91.9884 136.403 90.9892 135.699C90.5068 134.517 89.6901 133.7 88.5387 133.249C88.5387 133.132 88.5387 133.015 88.5387 132.899C88.1729 131.833 87.4727 131.132 86.4382 130.798C86.5824 129.932 86.2324 129.466 85.388 129.398C85.5322 128.532 85.1821 128.065 84.3377 127.998C84.3377 127.881 84.3377 127.764 84.3377 127.647C84.3937 127.053 84.3356 126.469 84.1627 125.897C83.543 125.112 82.7844 124.529 81.8872 124.147C81.8872 124.03 81.8872 123.913 81.8872 123.797C81.8872 123.096 81.8872 122.396 81.8872 121.696C81.5371 121.696 81.187 121.696 80.8369 121.696C80.9812 120.83 80.6311 120.364 79.7867 120.296C79.7867 119.946 79.7867 119.596 79.7867 119.246C79.215 118.311 78.8065 117.261 78.5614 116.095C78.2075 115.802 77.7989 115.685 77.3361 115.745C77.3361 115.161 77.3361 114.578 77.3361 113.994C76.986 113.994 76.636 113.994 76.2859 113.994C76.2859 113.878 76.2859 113.761 76.2859 113.644C76.1378 112.846 76.3713 112.262 76.986 111.894C77.2195 112.127 77.4527 112.361 77.6862 112.594C78.1305 114.79 79.4142 115.607 81.5371 115.045C82.197 114.21 83.0137 113.569 83.9876 113.119C84.2509 112.884 84.3678 112.593 84.3377 112.244C85.1811 111.403 85.8812 110.469 86.4382 109.443C86.6717 108.977 87.0218 108.627 87.4884 108.393C88.2187 107.718 88.9773 107.018 89.764 106.293C90.1102 105.428 90.5184 104.611 90.9892 103.842C91.3393 103.608 91.6894 103.375 92.0395 103.142C93.0239 102.653 93.4909 101.836 93.4398 100.691C93.7899 100.691 94.14 100.691 94.49 100.691C94.8352 99.6435 95.1853 98.5932 95.5403 97.5406C96.0833 96.4487 96.4333 95.2818 96.5905 94.0398C96.9392 94.0699 97.2308 93.9529 97.4657 93.6897C97.6387 93.1176 97.6968 92.5341 97.6408 91.9393C98.9284 90.6118 99.395 88.9779 99.0411 87.0382C99.5421 86.9048 99.8337 86.5547 99.9163 85.9879C100.15 81.5534 100.15 77.1193 99.9163 72.6849C99.6828 72.4514 99.4496 72.2182 99.2161 71.9847C99.3078 70.4997 98.7827 69.3329 97.6408 68.4839C97.8071 67.1131 97.457 65.9461 96.5905 64.9831C96.2786 64.7696 95.9285 64.6529 95.5403 64.633C95.5403 64.3996 95.5403 64.1663 95.5403 63.9329C95.5403 63.5828 95.5403 63.2327 95.5403 62.8826C95.5403 62.5325 95.5403 62.1825 95.5403 61.8324C95.1902 61.8324 94.8401 61.8324 94.49 61.8324C94.6129 60.6731 94.1463 59.8562 93.0897 59.3818C92.3738 58.8837 92.0237 58.1836 92.0395 57.2813C91.6894 57.2813 91.3393 57.2813 90.9892 57.2813C90.6392 56.6979 90.1725 56.2311 89.5889 55.881C89.6491 55.5339 89.5322 55.3005 89.2388 55.1809C88.5901 53.6082 87.4814 52.908 85.9131 53.0804C85.7401 53.6524 85.682 54.2359 85.738 54.8308C85.738 54.9475 85.738 55.0642 85.738 55.1809C85.4027 55.3394 85.1107 55.5728 84.8628 55.881C84.6889 56.6896 84.6307 57.5065 84.6878 58.3316C84.6878 58.6817 84.6878 59.0317 84.6878 59.3818C84.3405 60.0666 83.9904 60.7668 83.6376 61.4823C82.755 62.0181 82.4049 62.8349 82.5873 63.9329C82.2709 64.1811 82.1543 64.5312 82.2372 64.9831C81.8693 65.236 81.6358 65.586 81.5371 66.0333C81.3036 66.0333 81.187 66.15 81.187 66.3834C80.4868 66.3834 80.1368 66.7335 80.1368 67.4337C80.1368 67.7837 80.1368 68.1338 80.1368 68.4839C79.4366 68.4839 79.0865 68.834 79.0865 69.5341C78.9699 69.5341 78.853 69.5341 78.7364 69.5341C78.3864 69.5341 78.0363 69.5341 77.6862 69.5341C77.2308 70.2945 76.8807 71.1113 76.636 71.9847C76.636 72.3348 76.636 72.6849 76.636 73.0349C76.2873 73.0048 75.9957 73.1218 75.7608 73.385C75.4383 74.3779 75.0298 75.3112 74.5355 76.1857C73.4789 76.66 73.0123 77.4768 73.1352 78.6362C73.1352 78.7528 73.1352 78.8697 73.1352 78.9863C72.1998 79.6483 71.8497 80.582 72.0849 81.787C71.4625 82.6023 71.1124 83.536 71.0347 84.5876C70.6909 84.812 70.3408 85.0451 69.9844 85.2878C69.501 89.9655 69.5591 94.6335 70.1595 99.291C70.2936 99.4856 70.4686 99.6022 70.6846 99.641C70.9181 100.341 71.1513 101.041 71.3848 101.742C71.7804 102.377 72.0135 103.077 72.0849 103.842C72.03 104.323 72.0884 104.79 72.26 105.242C72.756 105.445 73.0476 105.795 73.1352 106.293C73.2181 106.745 73.1016 107.095 72.7851 107.343C72.5369 107.026 72.1868 106.91 71.7348 106.993C71.5013 106.293 71.0347 105.826 70.3345 105.592C70.3345 104.892 69.9844 104.542 69.2843 104.542C69.2843 103.842 68.9342 103.492 68.234 103.492C68.2141 103.104 68.0975 102.754 67.884 102.442C67.7128 101.453 67.1292 100.986 66.1336 101.041C65.9001 101.041 65.7835 100.925 65.7835 100.691C65.2787 100.229 65.0455 99.6459 65.0833 98.9409C64.2666 98.9409 63.4495 98.9409 62.6328 98.9409C62.6328 98.5908 62.6328 98.2407 62.6328 97.8906C61.3567 97.2027 60.073 96.5026 58.7819 95.7902C58.1244 95.5423 57.5408 95.1341 57.0315 94.5649C56.5788 94.3933 56.1118 94.3349 55.6312 94.3898C55.3977 94.3898 55.1645 94.3898 54.931 94.3898C54.9611 94.0412 54.8442 93.7495 54.5809 93.5146C54.0089 93.3417 53.4253 93.2836 52.8305 93.3396C52.7721 85.1701 52.8305 77.0017 53.0056 68.834C53.4218 65.925 54.0639 63.1244 54.931 60.4321C55.6623 58.2385 57.0045 56.4881 58.9569 55.1809C59.2156 54.5785 59.5076 53.9951 59.8321 53.4305C61.0367 52.432 62.3205 51.6152 63.683 50.9799C63.683 50.6298 63.683 50.2797 63.683 49.9297C65.2426 49.7049 66.7595 49.3549 68.234 48.8794C68.234 48.4127 68.234 47.9459 68.234 47.4791C73.2699 46.0428 78.4046 45.6927 83.6376 46.4289Z" fill="#B8D8F0" fill-opacity="0.5"/>
<path opacity="0.835" fill-rule="evenodd" clip-rule="evenodd" d="M83.6381 46.4238C84.7345 46.7249 85.7848 47.075 86.7888 47.4741C84.8815 47.8767 83.0142 47.7017 81.1875 46.9489C82.0753 46.8838 82.892 46.7087 83.6381 46.4238Z" fill="#B8D8F0" fill-opacity="0.5"/>
<path opacity="0.71" fill-rule="evenodd" clip-rule="evenodd" d="M68.2346 47.4805C68.2346 47.9472 68.2346 48.414 68.2346 48.8808C66.7601 49.3562 65.2432 49.7063 63.6836 49.931C63.6836 50.2811 63.6836 50.6312 63.6836 50.9813C62.3211 51.6165 61.0373 52.4334 59.8327 53.4318C59.5082 53.9964 59.2162 54.5799 58.9575 55.1822C57.0051 56.4895 55.6629 58.2399 54.9316 60.4334C54.655 60.8215 54.48 61.2883 54.4065 61.8338C54.1369 62.2182 53.8453 62.2182 53.5312 61.8338C56.1218 54.6922 61.023 49.9078 68.2346 47.4805Z" fill="#B8D8F0" fill-opacity="0.5"/>
<path opacity="0.631" fill-rule="evenodd" clip-rule="evenodd" d="M87.1499 47.4805C93.1675 49.5489 97.6019 53.3998 100.453 59.0331C99.6289 59.3809 99.2788 59.0308 99.4027 57.9829C98.9399 58.0424 98.5314 57.9257 98.1775 57.6328C98.085 56.03 97.3264 54.9798 95.9019 54.4821C95.9786 54.0707 95.862 53.7206 95.5519 53.4318C94.6557 52.811 93.8389 52.1109 93.1013 51.3313C92.5513 51.048 91.9677 50.9313 91.3509 50.9813C91.3509 50.6312 91.3509 50.2811 91.3509 49.931C90.6507 49.931 89.9506 49.931 89.2504 49.931C89.2504 49.5809 89.2504 49.2309 89.2504 48.8808C88.5184 48.9444 87.8182 48.8276 87.1499 48.5307C86.7781 48.207 86.7781 47.8569 87.1499 47.4805Z" fill="#B8D8F0" fill-opacity="0.5"/>
<path fill-rule="evenodd" clip-rule="evenodd" d="M85.7355 55.1855C85.8643 56.4263 85.5142 57.4766 84.6853 58.3363C84.6282 57.5112 84.6863 56.6943 84.8603 55.8857C85.1082 55.5775 85.4001 55.3441 85.7355 55.1855Z" fill="#B8D8F0" fill-opacity="0.5"/>
<path fill-rule="evenodd" clip-rule="evenodd" d="M93.0859 59.3828C94.1425 59.8572 94.6091 60.674 94.4863 61.8334C94.8363 61.8334 95.1864 61.8334 95.5365 61.8334C95.5365 62.1835 95.5365 62.5335 95.5365 62.8836C95.0698 62.6502 94.6028 62.4169 94.1362 62.1835C94.1362 62.0668 94.1362 61.9501 94.1362 61.8334C93.9349 61.1643 93.5848 60.5808 93.0859 60.083C93.0859 59.8496 93.0859 59.6162 93.0859 59.3828Z" fill="#B8D8F0" fill-opacity="0.5"/>
<path fill-rule="evenodd" clip-rule="evenodd" d="M83.6283 61.4824C83.496 62.33 83.2625 63.1468 82.9282 63.933C82.8116 63.933 82.6947 63.933 82.5781 63.933C82.3957 62.835 82.7458 62.0182 83.6283 61.4824Z" fill="#B8D8F0" fill-opacity="0.5"/>
<path fill-rule="evenodd" clip-rule="evenodd" d="M91.3336 77.2365C91.3336 77.3531 91.3336 77.47 91.3336 77.5866C90.4671 78.0021 90.1171 78.7023 90.2834 79.6871C90.2834 80.1537 90.2834 80.6207 90.2834 81.0874C89.8279 81.4865 89.4194 81.9531 89.0581 82.4877C88.8935 84.5892 88.1934 86.4562 86.9576 88.089C86.7836 89.0153 86.7251 89.949 86.7826 90.8896C86.1076 91.6882 85.7575 92.6215 85.7323 93.6903C85.3938 94.1475 84.9268 94.381 84.332 94.3904C83.8566 95.865 83.5065 97.3819 83.2818 98.9415C82.5931 99.9605 82.2431 101.127 82.2315 102.442C82.2315 102.559 82.2315 102.676 82.2315 102.792C81.6448 103.031 81.4113 103.498 81.5314 104.193C81.4148 104.426 81.2979 104.659 81.1813 104.893C80.8483 104.396 80.7318 103.813 80.8312 103.142C80.8312 102.209 80.8312 101.275 80.8312 100.342C80.8312 100.225 80.8312 100.108 80.8312 99.9917C81.0587 99.8853 81.2922 99.7687 81.5314 99.6416C81.8744 98.7363 81.991 97.8027 81.8814 96.841C81.8814 96.7244 81.8814 96.6075 81.8814 96.4909C82.645 95.6983 83.112 94.7647 83.2818 93.6903C83.5884 93.7361 83.8219 93.6195 83.9819 93.3402C84.0813 92.1359 84.4899 91.0857 85.2072 90.1895C85.3815 89.1455 85.44 88.0953 85.3822 87.0387C85.3822 86.9222 85.3822 86.8052 85.3822 86.6887C86.1993 86.1019 86.5494 85.2852 86.4325 84.2381C86.4325 84.1215 86.4325 84.0046 86.4325 83.888C87.3679 83.226 87.718 82.2924 87.4827 81.0874C87.4484 80.3687 87.6819 79.7851 88.1829 79.337C88.7556 78.0382 88.9888 76.6379 88.883 75.136C89.4852 74.3805 89.7768 73.4469 89.7582 72.3354C89.8748 68.6011 89.9917 64.867 90.1083 61.1328C90.1612 62.0498 90.4531 62.8667 90.9835 63.5834C91.3332 68.1285 91.4498 72.6795 91.3336 77.2365Z" fill="#B8D8F0" fill-opacity="0.5"/>
<path fill-rule="evenodd" clip-rule="evenodd" d="M89.5926 58.333C89.6801 59.094 90.0302 59.6775 90.6428 60.0834C90.549 60.6432 90.6659 61.1099 90.9929 61.4837C91.4896 62.7142 91.7231 63.9978 91.693 65.3346C91.693 68.6019 91.693 71.8695 91.693 75.1368C91.7963 75.9192 91.6794 76.6194 91.343 77.2373C91.4592 72.6803 91.3426 68.1293 90.9929 63.5842C90.4625 62.8675 90.1705 62.0506 90.1177 61.1336C90.0011 64.8678 89.8842 68.6019 89.7676 72.3362C89.7862 73.4477 89.4945 74.3813 88.8924 75.1368C89.1199 74.4594 89.2365 73.7593 89.2425 73.0363C89.2425 72.5697 89.2425 72.1027 89.2425 71.636C89.6479 68.4303 89.706 65.1628 89.4175 61.8338C89.2194 61.0557 88.9274 60.3555 88.5423 59.7333C88.5423 59.6166 88.5423 59.4999 88.5423 59.3832C88.4425 58.7573 88.5591 58.1738 88.8924 57.6328C89.1312 57.8928 89.3647 58.1262 89.5926 58.333Z" fill="#B8D8F0" fill-opacity="0.5"/>
<path fill-rule="evenodd" clip-rule="evenodd" d="M96.5938 64.9844C97.4602 65.9474 97.8103 67.1143 97.644 68.4852C97.2967 67.8004 96.9466 67.1002 96.5938 66.3847C96.5938 65.9179 96.5938 65.4511 96.5938 64.9844Z" fill="#B8D8F0" fill-opacity="0.5"/>
<path opacity="0.409" fill-rule="evenodd" clip-rule="evenodd" d="M53.1807 62.1875C53.4103 62.5801 53.5269 63.0469 53.5307 63.5878C53.4474 65.0583 53.1558 66.4587 52.6555 67.7888C52.5967 75.3169 52.4217 82.7852 52.1304 90.1939C51.7604 82.1361 51.8185 74.0843 52.3055 66.0384C52.6538 64.7623 52.9454 63.4787 53.1807 62.1875Z" fill="#DFEDF1"/>
<path opacity="0.576" fill-rule="evenodd" clip-rule="evenodd" d="M100.445 59.0352C101.692 61.3143 102.567 63.7649 103.071 66.3868C103.246 70.4695 103.304 74.5539 103.246 78.6396C103.012 78.7562 102.779 78.8731 102.546 78.9897C102.604 75.0205 102.546 71.0527 102.371 67.087C101.781 65.6502 101.489 64.1331 101.496 62.536C101.145 62.536 100.795 62.536 100.445 62.536C100.445 61.369 100.445 60.2021 100.445 59.0352Z" fill="#B8D8F0" fill-opacity="0.5"/>
<path opacity="0.997" fill-rule="evenodd" clip-rule="evenodd" d="M54.9295 60.4395C54.0624 63.1317 53.4204 65.9324 53.0041 68.8414C52.8291 77.0091 52.7706 85.1775 52.8291 93.347C53.4239 93.291 54.0074 93.3491 54.5795 93.522C54.8427 93.7569 54.9597 94.0485 54.9295 94.3972C53.9388 94.3293 53.0055 94.0958 52.1289 93.6971C52.1289 92.5302 52.1289 91.3631 52.1289 90.1963C52.4202 82.7875 52.5952 75.3193 52.654 67.7911C53.1543 66.461 53.4459 65.0607 53.5292 63.5902C53.5254 63.0493 53.4088 62.5825 53.1791 62.1899C53.1791 61.9565 53.2957 61.8398 53.5292 61.8398C53.8432 62.2242 54.1349 62.2242 54.4044 61.8398C54.4779 61.2943 54.653 60.8275 54.9295 60.4395Z" fill="#B8D8F0" fill-opacity="0.5"/>
<path fill-rule="evenodd" clip-rule="evenodd" d="M78.7333 69.5312C78.3804 70.2468 78.0303 70.947 77.6831 71.6317C77.2948 71.6517 76.9447 71.7683 76.6328 71.9818C76.8775 71.1084 77.2276 70.2916 77.6831 69.5312C78.0331 69.5312 78.3832 69.5312 78.7333 69.5312Z" fill="#B8D8F0" fill-opacity="0.5"/>
<path fill-rule="evenodd" clip-rule="evenodd" d="M77.6831 71.6348C77.3288 72.1151 76.9787 72.5817 76.6328 73.0351C76.6328 72.685 76.6328 72.3349 76.6328 71.9848C76.9447 71.7713 77.2948 71.6547 77.6831 71.6348Z" fill="#B8D8F0" fill-opacity="0.5"/>
<path fill-rule="evenodd" clip-rule="evenodd" d="M76.6161 73.032C76.231 73.4188 75.9975 73.8855 75.9159 74.4323C75.9159 74.5489 75.9159 74.6658 75.9159 74.7824C75.5753 75.3562 75.1087 75.8232 74.5156 76.1827C75.0099 75.3082 75.4185 74.3749 75.7409 73.382C75.9758 73.1188 76.2674 73.0019 76.6161 73.032Z" fill="#B8D8F0" fill-opacity="0.5"/>
<path fill-rule="evenodd" clip-rule="evenodd" d="M74.5367 76.1895C74.5367 76.423 74.5367 76.6561 74.5367 76.8896C73.8229 77.2999 73.3562 77.8831 73.1364 78.64C73.0135 77.4805 73.4802 76.6638 74.5367 76.1895Z" fill="#B8D8F0" fill-opacity="0.5"/>
<path fill-rule="evenodd" clip-rule="evenodd" d="M97.6445 68.4902C98.7865 69.3392 99.3116 70.506 99.2199 71.991C99.4534 72.2245 99.6865 72.4577 99.9201 72.6912C100.154 77.1257 100.154 81.5598 99.9201 85.9942C99.8374 86.561 99.5458 86.9111 99.0449 87.0445C99.5969 84.8855 99.8304 82.6681 99.745 80.393C99.6865 78.6426 99.6284 76.8922 99.57 75.1418C99.4888 74.7087 99.3137 74.3586 99.0449 74.0915C98.8866 72.8092 98.7116 71.5254 98.5197 70.2406C98.2719 69.9322 97.9799 69.6991 97.6445 69.5405C97.6445 69.1904 97.6445 68.8403 97.6445 68.4902Z" fill="#B8D8F0" fill-opacity="0.5"/>
<path fill-rule="evenodd" clip-rule="evenodd" d="M73.8198 78.9883C73.9861 79.9731 73.636 80.6732 72.7695 81.0888C73.1224 80.3732 73.4725 79.673 73.8198 78.9883Z" fill="#B8D8F0" fill-opacity="0.5"/>
<path fill-rule="evenodd" clip-rule="evenodd" d="M85.3934 87.0391C85.4512 88.0956 85.3927 89.1458 85.2184 90.1898C84.5011 91.086 84.0926 92.1362 83.9931 93.3405C83.8331 93.6199 83.5996 93.7364 83.293 93.6906C83.6917 92.814 83.9252 91.8807 83.9931 90.8899C84.4759 89.5981 84.9425 88.3148 85.3934 87.0391Z" fill="#B8D8F0" fill-opacity="0.5"/>
<path opacity="0.914" fill-rule="evenodd" clip-rule="evenodd" d="M52.1298 93.6914C53.0064 94.0901 53.9398 94.3237 54.9305 94.3916C55.164 94.3916 55.3971 94.3916 55.6306 94.3916C56.0409 95.1054 56.6242 95.572 57.381 95.7919C56.5556 95.8784 55.8554 95.6452 55.2806 95.0917C54.397 94.6366 53.4633 94.6366 52.4799 95.0917C52.9651 95.8766 53.6653 96.3433 54.5804 96.492C54.8286 96.8085 55.1787 96.9251 55.6306 96.8421C56.0973 97.4257 56.5643 98.0089 57.031 98.5925C56.7975 98.5925 56.5643 98.5925 56.3308 98.5925C55.3905 97.7674 54.3403 97.0672 53.1801 96.492C53.0635 96.492 52.9466 96.492 52.83 96.492C52.3634 95.9085 51.8963 95.3252 51.4297 94.7416C51.6632 94.3916 51.8963 94.0415 52.1298 93.6914Z" fill="#B8D8F0" fill-opacity="0.5"/>
<path fill-rule="evenodd" clip-rule="evenodd" d="M27.6202 94.7397C27.6591 94.9557 27.7757 95.1307 27.9703 95.2648C35.5555 95.3814 43.1403 95.4983 50.7255 95.6149C51.3059 96.197 52.0061 96.4887 52.826 96.4901C52.9426 96.4901 53.0595 96.4901 53.1761 96.4901C53.6819 97.0617 54.1489 97.7034 54.5764 98.4155C55.1484 98.5884 55.732 98.6466 56.3268 98.5905C56.5603 98.5905 56.7934 98.5905 57.0269 98.5905C57.0014 99.1251 57.2349 99.4752 57.7271 99.6408C57.7271 99.9909 57.7271 100.341 57.7271 100.691C58.0772 100.691 58.4273 100.691 58.7774 100.691C58.7007 101.102 58.8173 101.452 59.1274 101.741C60.2928 102.444 61.3431 103.26 62.2782 104.192C63.2507 105.945 64.3009 107.696 65.4289 109.443C65.7177 109.753 66.0678 109.87 66.4791 109.793C67.3589 110.823 68.176 111.873 68.9297 112.944C68.9297 113.41 68.9297 113.877 68.9297 114.344C69.1201 115.072 69.4121 115.772 69.8049 116.445C70.1588 116.738 70.5673 116.854 71.0302 116.795C70.9405 117.597 71.0571 118.356 71.3802 119.07C71.0484 119.239 70.6983 119.297 70.33 119.245C69.7755 118.034 68.9587 116.984 67.8794 116.095C67.3295 115.811 66.7459 115.694 66.129 115.744C66.1591 115.396 66.0422 115.104 65.779 114.869C64.6776 114.289 63.6274 113.647 62.6282 112.944C62.2782 112.71 61.9281 112.477 61.578 112.244C61.5885 111.895 61.4135 111.661 61.0529 111.544C60.1157 111.291 59.2405 110.941 58.4273 110.493C58.1938 110.493 57.9606 110.493 57.7271 110.493C57.3798 110.553 57.1467 110.437 57.0269 110.143C57 109.706 56.7665 109.414 56.3268 109.268C55.7548 109.095 55.1712 109.037 54.5764 109.093C54.5764 108.743 54.5764 108.393 54.5764 108.043C51.0612 107.518 47.5604 107.577 44.074 108.218C43.8107 108.453 43.6938 108.744 43.7239 109.093C42.9019 109.125 42.3187 109.475 41.9735 110.143C41.8569 110.143 41.74 110.143 41.6234 110.143C40.0712 110.512 38.5539 110.978 37.0724 111.544C36.0344 111.944 34.9842 112.353 33.9217 112.769C33.6584 113.004 33.5415 113.295 33.5716 113.644C32.8714 113.644 32.5213 113.994 32.5213 114.694C31.8212 114.694 31.121 114.694 30.4209 114.694C30.4209 115.044 30.4209 115.394 30.4209 115.744C29.6041 115.744 28.787 115.744 27.9703 115.744C27.9703 116.095 27.9703 116.445 27.9703 116.795C27.8506 117.088 27.6174 117.205 27.2701 117.145C26.2013 117.17 25.268 117.52 24.4695 118.195C23.7693 118.195 23.0692 118.195 22.369 118.195C19.8018 118.195 17.2345 118.195 14.6673 118.195C13.1458 118.137 11.6288 118.195 10.1162 118.37C9.53466 119.473 9.88474 119.998 11.1665 119.945C11.1665 120.296 11.1665 120.646 11.1665 120.996C11.6332 120.996 12.1 120.996 12.5668 120.996C12.8002 120.996 13.0335 120.996 13.2669 120.996C13.2669 121.229 13.3836 121.346 13.617 121.346C13.7117 122.021 14.0618 122.488 14.6673 122.746C14.3172 122.746 13.9671 122.746 13.617 122.746C13.5949 124.245 14.295 125.178 15.7175 125.547C16.0676 125.547 16.4177 125.547 16.7677 125.547C16.7677 126.013 16.7677 126.48 16.7677 126.947C17.7711 127.388 18.8213 127.738 19.9185 127.997C19.9185 128.347 19.9185 128.697 19.9185 129.048C20.3852 129.048 20.852 129.048 21.3188 129.048C21.4355 129.048 21.5522 129.048 21.6689 129.048C21.6433 129.582 21.8767 129.932 22.369 130.098C23.0269 131.326 24.0771 131.793 25.5197 131.498C25.6363 131.498 25.7532 131.498 25.8698 131.498C25.9377 132.342 26.4044 132.693 27.2701 132.548C27.2701 132.898 27.2701 133.248 27.2701 133.599C27.8537 133.599 28.437 133.599 29.0205 133.599C29.4872 133.599 29.9542 133.599 30.4209 133.599C30.3719 134.167 30.6054 134.575 31.121 134.824C32.7436 134.82 34.2609 135.17 35.6721 135.874C39.6378 136.049 43.6056 136.108 47.5748 136.049C48.98 136.107 50.3803 136.049 51.7757 135.874C53.6872 135.202 55.6707 134.735 57.7271 134.474C57.9904 134.239 58.1073 133.947 58.0772 133.599C58.4273 133.599 58.7774 133.599 59.1274 133.599C60.352 133.789 61.4023 133.498 62.2782 132.723C64.4101 132.275 66.5106 131.749 68.5796 131.148C69.3487 130.442 70.2824 130.033 71.3802 129.923C71.6435 129.688 71.7604 129.396 71.7303 129.048C72.8443 128.862 73.8945 128.512 74.881 127.997C75.4646 127.997 76.0479 127.997 76.6314 127.997C76.6314 128.347 76.6314 128.697 76.6314 129.048C76.9815 129.048 77.3316 129.048 77.6817 129.048C77.8091 130.203 78.2176 131.253 78.907 132.198C79.2609 132.491 79.6694 132.608 80.1322 132.548C80.1322 132.898 80.1322 133.248 80.1322 133.599C80.4823 133.599 80.8324 133.599 81.1825 133.599C81.6491 134.299 82.2327 134.882 82.9329 135.349C83.0526 135.642 83.2858 135.759 83.633 135.699C83.633 136.049 83.633 136.399 83.633 136.749C84.643 137.058 85.5767 137.525 86.4337 138.15C86.5016 138.994 86.9683 139.344 87.834 139.2C87.7881 139.459 87.8466 139.692 88.009 139.9C88.4648 140.105 88.8734 140.338 89.2343 140.6C89.2343 140.95 89.2343 141.3 89.2343 141.65C89.9345 141.65 90.6346 141.65 91.3348 141.65C91.8151 142.005 92.2818 142.355 92.7351 142.701C92.705 143.049 92.8219 143.341 93.0852 143.576C93.9615 143.621 94.6616 143.971 95.1857 144.626C96.9186 145.146 98.669 145.554 100.437 145.851C101.055 146.188 101.755 146.305 102.537 146.201C102.479 153.087 102.537 159.972 102.712 166.856C102.81 167.177 102.985 167.41 103.238 167.556C103.188 171.032 102.605 174.416 101.487 177.709C101.234 177.562 101.059 177.329 100.962 177.008C100.489 177.742 100.314 178.558 100.437 179.459C98.4775 182.069 96.2604 184.578 93.7854 186.986C93.1605 187.765 92.3437 188.173 91.3348 188.211C91.3348 188.561 91.3348 188.911 91.3348 189.261C88.4113 190.141 85.4941 191.016 82.5828 191.887C82.4228 192.032 82.3059 192.207 82.2327 192.412C82.4928 192.651 82.726 192.884 82.9329 193.112C79.0137 193.627 75.1628 193.511 71.3802 192.762C72.2054 192.819 73.0221 192.761 73.8308 192.587C72.3818 192.052 70.8649 191.702 69.2798 191.537C67.285 190.712 65.4177 189.662 63.6785 188.386C62.9878 188.213 62.2876 188.154 61.578 188.211C61.578 187.861 61.578 187.511 61.578 187.161C61.2279 187.161 60.8778 187.161 60.5278 187.161C60.5278 186.694 60.5278 186.227 60.5278 185.76C60.1164 185.837 59.7663 185.721 59.4775 185.41C58.8484 184.992 58.4983 184.408 58.4273 183.66C57.9606 183.66 57.4936 183.66 57.0269 183.66C57.0269 182.96 57.0269 182.26 57.0269 181.56C56.6769 181.56 56.3268 181.56 55.9767 181.56C55.9767 180.859 55.9767 180.159 55.9767 179.459C55.6266 179.459 55.2765 179.459 54.9265 179.459C54.1503 176.77 53.6252 173.969 53.3511 171.057C53.1176 170.824 52.8845 170.59 52.6509 170.357C52.5921 162.829 52.4171 155.361 52.1258 147.952C52.1836 146.895 52.1251 145.845 51.9508 144.801C51.1172 144.474 50.242 144.357 49.3252 144.451C41.6829 144.16 33.9812 143.985 26.2199 143.926C25.2169 143.126 24.05 142.834 22.7191 143.051C22.1242 143.107 21.5408 143.049 20.9687 142.876C18.6005 141.78 16.2666 140.671 13.9671 139.55C13.7278 139.677 13.4945 139.794 13.2669 139.9C13.0335 139.9 12.9169 139.783 12.9169 139.55C12.8002 138.266 12.1 137.566 10.8164 137.449C10.5717 136.576 10.2216 135.759 9.76614 134.999C9.29937 134.999 8.83258 134.999 8.36582 134.999C8.36582 134.299 8.36582 133.599 8.36582 132.898C8.01574 132.898 7.66566 132.898 7.31558 132.898C7.37232 132.189 7.314 131.489 7.14054 130.798C6.52079 129.774 5.93731 128.723 5.39014 127.647C5.3651 125.932 5.01502 124.298 4.3399 122.746C4.26638 123.291 4.09134 123.758 3.81477 124.146C3.81477 124.03 3.81477 123.913 3.81477 123.796C3.75656 121.46 3.81491 119.126 3.98981 116.795C4.1065 117.028 4.22321 117.261 4.3399 117.495C4.6418 116.939 4.8752 116.356 5.04006 115.744C5.10044 114.214 5.27548 112.697 5.56518 111.193C5.77032 111.12 5.94536 111.003 6.0903 110.843C6.13027 109.198 6.53871 107.681 7.31558 106.292C7.66566 106.292 8.01574 106.292 8.36582 106.292C8.36582 105.592 8.36582 104.892 8.36582 104.192C9.2392 103.947 10.056 103.597 10.8164 103.142C10.8874 102.393 11.2375 101.81 11.8666 101.391C13.0527 100.774 14.2196 100.191 15.3674 99.6408C15.3674 99.2907 15.3674 98.9406 15.3674 98.5905C15.9623 98.6466 16.5458 98.5884 17.1178 98.4155C17.7886 97.7794 18.6054 97.3709 19.5684 97.1902C20.0205 96.8307 20.0205 96.4806 19.5684 96.14C22.1472 95.1345 24.8311 94.6675 27.6202 94.7397Z" fill="#B8D8F0" fill-opacity="0.5"/>
<path fill-rule="evenodd" clip-rule="evenodd" d="M55.6367 94.3891C56.1174 94.3342 56.5844 94.3926 57.037 94.5642C57.5464 95.1334 58.13 95.5416 58.7874 95.7894C58.3208 95.7894 57.8538 95.7894 57.3871 95.7894C56.6302 95.5696 56.047 95.1029 55.6367 94.3891Z" fill="#B8D8F0" fill-opacity="0.5"/>
<path opacity="0.763" fill-rule="evenodd" clip-rule="evenodd" d="M103.234 78.6367C103.121 83.9737 103.237 89.283 103.584 94.5654C110.935 94.7404 118.287 94.7989 125.639 94.7404C121.971 95.2067 118.179 95.4402 114.262 95.4406C110.469 95.3821 106.677 95.324 102.884 95.2655C102.537 89.8666 102.421 84.4403 102.534 78.9868C102.768 78.8702 103.001 78.7533 103.234 78.6367Z" fill="#B8D8F0" fill-opacity="0.5"/>
<path opacity="0.999" fill-rule="evenodd" clip-rule="evenodd" d="M27.6211 94.7441C35.5564 94.7441 43.4913 94.7441 51.4265 94.7441C51.8932 95.3277 52.3602 95.911 52.8269 96.4945C52.007 96.4931 51.3068 96.2015 50.7264 95.6193C43.1412 95.5028 35.5564 95.3858 27.9712 95.2693C27.7765 95.1352 27.66 94.9601 27.6211 94.7441Z" fill="#B8D8F0" fill-opacity="0.5"/>
<path fill-rule="evenodd" clip-rule="evenodd" d="M71.034 84.5938C71.034 84.7103 71.034 84.8273 71.034 84.9438C71.034 85.0604 71.034 85.1773 71.034 85.2939C70.5208 85.5904 70.2288 86.0571 70.1588 86.6942C69.87 90.1397 69.9285 93.5239 70.3339 96.8466C70.24 97.4063 70.357 97.873 70.6839 98.2469C70.6839 98.7135 70.6839 99.1805 70.6839 99.6472C70.4679 99.6083 70.2929 99.4918 70.1588 99.2971C69.5584 94.6396 69.5003 89.9717 69.9838 85.2939C70.3402 85.0513 70.6902 84.8182 71.034 84.5938Z" fill="#B8D8F0" fill-opacity="0.5"/>
<path fill-rule="evenodd" clip-rule="evenodd" d="M57.375 96.145C57.375 96.0284 57.375 95.9115 57.375 95.7949C57.8417 95.7949 58.3087 95.7949 58.7753 95.7949C58.7295 96.0536 58.7879 96.2871 58.9504 96.4951C59.4062 96.6999 59.8147 96.933 60.1756 97.1952C60.0591 97.1952 59.9421 97.1952 59.8256 97.1952C59.4755 97.1952 59.1254 97.1952 58.7753 97.1952C58.5086 96.5784 58.0416 96.2283 57.375 96.145Z" fill="#B8D8F0" fill-opacity="0.5"/>
<path fill-rule="evenodd" clip-rule="evenodd" d="M85.7435 93.6914C85.7435 93.9249 85.7435 94.1581 85.7435 94.3916C85.7435 94.5081 85.7435 94.6251 85.7435 94.7416C85.3945 94.7311 85.161 94.9062 85.0434 95.2668C84.6117 96.533 84.1447 97.7583 83.643 98.9426C83.5265 98.9426 83.4095 98.9426 83.293 98.9426C83.5177 97.383 83.8678 95.8661 84.3432 94.3916C84.938 94.3821 85.405 94.1486 85.7435 93.6914Z" fill="#B8D8F0" fill-opacity="0.5"/>
<path fill-rule="evenodd" clip-rule="evenodd" d="M58.7847 95.7949C60.0758 96.5073 61.3595 97.2075 62.6355 97.8954C62.6355 98.2455 62.6355 98.5956 62.6355 98.9456C62.402 98.8291 62.1689 98.7121 61.9354 98.5956C61.3605 98.1394 60.777 97.6728 60.185 97.1952C59.824 96.933 59.4155 96.6999 58.9597 96.4951C58.7973 96.2871 58.7388 96.0536 58.7847 95.7949Z" fill="#B8D8F0" fill-opacity="0.5"/>
<path opacity="0.976" fill-rule="evenodd" clip-rule="evenodd" d="M19.5776 96.1348C20.0297 96.4754 20.0297 96.8255 19.5776 97.185C18.6146 97.3656 17.7978 97.7742 17.127 98.4103C16.5549 98.5832 15.9715 98.6413 15.3766 98.5853C15.3766 98.9354 15.3766 99.2855 15.3766 99.6356C14.2288 100.186 13.0618 100.769 11.8758 101.386C11.2467 101.804 10.8966 102.388 10.8256 103.136C10.0652 103.592 9.24838 103.942 8.375 104.187C11.2266 100.307 14.9608 97.623 19.5776 96.1348Z" fill="#B8D8F0" fill-opacity="0.5"/>
<path fill-rule="evenodd" clip-rule="evenodd" d="M53.1875 96.4883C54.3477 97.0635 55.3979 97.7636 56.3382 98.5888C55.7434 98.6448 55.1599 98.5867 54.5878 98.4137C54.1604 97.7017 53.6934 97.06 53.1875 96.4883Z" fill="#B8D8F0" fill-opacity="0.5"/>
<path fill-rule="evenodd" clip-rule="evenodd" d="M95.5399 97.5488C95.1849 98.6015 94.8348 99.6518 94.4896 100.7C94.1395 100.7 93.7895 100.7 93.4394 100.7C93.4905 101.845 93.0235 102.662 92.0391 103.15C92.0391 102.683 92.0391 102.216 92.0391 101.75C92.3877 101.78 92.6794 101.663 92.9143 101.4C93.4201 100.493 93.8287 99.5593 94.1395 98.5991C94.6062 98.249 95.0732 97.8989 95.5399 97.5488Z" fill="#B8D8F0" fill-opacity="0.5"/>
<path fill-rule="evenodd" clip-rule="evenodd" d="M57.0292 98.5938C57.4959 98.8273 57.846 99.1773 58.0795 99.644C57.9629 99.644 57.846 99.644 57.7294 99.644C57.2372 99.4784 57.0037 99.1283 57.0292 98.5938Z" fill="#B8D8F0" fill-opacity="0.5"/>
<path fill-rule="evenodd" clip-rule="evenodd" d="M62.6211 98.9336C63.4378 98.9336 64.2549 98.9336 65.0717 98.9336C65.0338 99.6387 65.267 100.222 65.7718 100.684C65.5383 100.684 65.3052 100.684 65.0717 100.684C64.6918 99.9534 64.1086 99.4867 63.3213 99.2837C62.974 99.3439 62.7408 99.227 62.6211 98.9336Z" fill="#B8D8F0" fill-opacity="0.5"/>
<path opacity="0.69" fill-rule="evenodd" clip-rule="evenodd" d="M139.294 98.2402C141.364 99.3752 143.114 100.892 144.546 102.791C144.123 103.048 143.656 103.165 143.145 103.141C142.913 102.313 142.446 101.613 141.745 101.041C140.709 100.686 139.775 100.22 138.944 99.6406C138.921 99.1298 139.037 98.6631 139.294 98.2402Z" fill="#B8D8F0" fill-opacity="0.5"/>
<path fill-rule="evenodd" clip-rule="evenodd" d="M65.082 100.697C65.3155 100.697 65.5487 100.697 65.7822 100.697C65.7822 100.931 65.8988 101.047 66.1323 101.047C66.1323 101.164 66.1323 101.281 66.1323 101.397C65.5977 101.423 65.2476 101.189 65.082 100.697Z" fill="#B8D8F0" fill-opacity="0.5"/>
<path fill-rule="evenodd" clip-rule="evenodd" d="M57.7305 99.6406C57.847 99.6406 57.964 99.6406 58.0805 99.6406C59.4665 100.921 60.8668 102.205 62.2815 103.492C62.2815 103.725 62.2815 103.958 62.2815 104.192C61.3464 103.26 60.2962 102.443 59.1308 101.741C58.8206 101.452 58.704 101.102 58.7807 100.691C58.4306 100.691 58.0805 100.691 57.7305 100.691C57.7305 100.341 57.7305 99.9907 57.7305 99.6406Z" fill="#B8D8F0" fill-opacity="0.5"/>
<path fill-rule="evenodd" clip-rule="evenodd" d="M66.1484 101.384C66.1484 101.267 66.1484 101.15 66.1484 101.034C67.1441 100.979 67.7276 101.445 67.8988 102.434C67.6653 102.434 67.4322 102.434 67.1987 102.434C67.1987 101.734 66.8486 101.384 66.1484 101.384Z" fill="#B8D8F0" fill-opacity="0.5"/>
<path fill-rule="evenodd" clip-rule="evenodd" d="M80.8377 103.145C80.7383 103.815 80.8549 104.398 81.1878 104.895C81.1878 105.245 81.1878 105.595 81.1878 105.945C80.8388 105.935 80.6053 106.11 80.4876 106.47C80.1999 107.322 80.0829 108.198 80.1376 109.096C79.736 107.644 79.6776 106.127 79.9625 104.545C80.1754 103.997 80.4673 103.53 80.8377 103.145Z" fill="#B8D8F0" fill-opacity="0.5"/>
<path fill-rule="evenodd" clip-rule="evenodd" d="M64.037 105.594C64.5293 105.759 64.7628 106.109 64.7372 106.644C64.245 106.478 64.0115 106.128 64.037 105.594Z" fill="#B8D8F0" fill-opacity="0.5"/>
<path fill-rule="evenodd" clip-rule="evenodd" d="M72.0903 103.842C72.3003 104.332 72.6504 104.682 73.1405 104.892C73.4364 105.302 73.6695 105.769 73.8407 106.292C74.2363 106.928 74.4694 107.628 74.5409 108.393C73.9261 107.781 73.4595 107.08 73.1405 106.292C73.053 105.795 72.7614 105.444 72.2653 105.242C72.0938 104.789 72.0353 104.322 72.0903 103.842Z" fill="#B8D8F0" fill-opacity="0.5"/>
<path fill-rule="evenodd" clip-rule="evenodd" d="M64.7344 106.643C64.851 106.643 64.9679 106.643 65.0845 106.643C65.4695 107.029 65.703 107.496 65.7846 108.043C65.7846 108.276 65.7846 108.51 65.7846 108.743C65.2696 108.142 64.9196 107.442 64.7344 106.643Z" fill="#B8D8F0" fill-opacity="0.5"/>
<path fill-rule="evenodd" clip-rule="evenodd" d="M54.5798 109.096C53.861 109.13 53.2775 108.896 52.8294 108.395C50.4415 107.991 47.9909 107.933 45.4777 108.22C44.9109 108.303 44.5608 108.595 44.4274 109.096C44.1939 109.096 43.9608 109.096 43.7273 109.096C43.6972 108.747 43.8141 108.455 44.0774 108.22C47.5638 107.579 51.0646 107.521 54.5798 108.045C54.5798 108.395 54.5798 108.745 54.5798 109.096Z" fill="#B8D8F0" fill-opacity="0.5"/>
<path fill-rule="evenodd" clip-rule="evenodd" d="M73.1196 106.289C73.4385 107.077 73.9052 107.777 74.5199 108.39C74.8319 108.603 75.1819 108.72 75.5702 108.74C75.5702 108.973 75.5702 109.206 75.5702 109.44C75.7732 110.227 76.2399 110.81 76.9705 111.19C76.9705 111.424 76.9705 111.657 76.9705 111.89C76.3558 112.259 76.1222 112.842 76.2703 113.641C75.9245 113.187 75.5744 112.721 75.2201 112.24C75.1735 111.237 74.7069 110.537 73.8198 110.14C73.4798 109.446 73.1298 108.746 72.7695 108.039C72.7695 107.806 72.7695 107.573 72.7695 107.339C73.086 107.091 73.2026 106.741 73.1196 106.289Z" fill="#B8D8F0" fill-opacity="0.5"/>
<path fill-rule="evenodd" clip-rule="evenodd" d="M144.551 102.791C146.113 104.273 147.339 106.023 148.227 108.042C149.149 110.447 149.907 112.897 150.503 115.394C150.219 116.021 150.044 116.721 149.977 117.494C149.744 117.261 149.511 117.028 149.277 116.794C149.159 115.027 148.925 113.277 148.577 111.543C147.377 109.06 146.094 106.609 144.726 104.191C144.555 103.739 144.496 103.272 144.551 102.791Z" fill="#B8D8F0" fill-opacity="0.5"/>
<path fill-rule="evenodd" clip-rule="evenodd" d="M81.1961 105.94C80.8597 106.964 80.6265 108.014 80.4959 109.091C80.3794 109.091 80.2624 109.091 80.1459 109.091C80.0912 108.192 80.2082 107.317 80.4959 106.465C80.6136 106.104 80.8471 105.929 81.1961 105.94Z" fill="#B8D8F0" fill-opacity="0.5"/>
<path opacity="0.831" fill-rule="evenodd" clip-rule="evenodd" d="M8.36688 104.193C8.36688 104.894 8.36688 105.594 8.36688 106.294C8.0168 106.294 7.66672 106.294 7.31664 106.294C6.53977 107.682 6.13133 109.2 6.09136 110.845C5.94642 111.005 5.77138 111.122 5.56624 111.195C5.27654 112.699 5.1015 114.216 5.04111 115.746C4.87626 116.357 4.64286 116.941 4.34095 117.496C4.22427 117.263 4.10756 117.03 3.99087 116.796C3.81597 119.127 3.75762 121.461 3.81583 123.798C2.90335 118.405 3.54515 113.154 5.74128 108.044C6.45141 106.616 7.32661 105.333 8.36688 104.193Z" fill="#B8D8F0" fill-opacity="0.5"/>
<path fill-rule="evenodd" clip-rule="evenodd" d="M52.8394 108.391C52.1393 108.391 51.4391 108.391 50.7389 108.391C49.1009 108.333 47.4674 108.392 45.8378 108.566C45.6432 108.701 45.5266 108.876 45.4877 109.092C45.1377 109.092 44.7876 109.092 44.4375 109.092C44.5709 108.591 44.921 108.299 45.4877 108.216C48.001 107.929 50.4515 107.987 52.8394 108.391Z" fill="#B8D8F0" fill-opacity="0.5"/>
<path fill-rule="evenodd" clip-rule="evenodd" d="M50.72 108.395C50.72 108.511 50.72 108.628 50.72 108.745C48.9478 108.666 47.1974 108.783 45.4688 109.095C45.5076 108.879 45.6242 108.704 45.8188 108.57C47.4485 108.395 49.0819 108.337 50.72 108.395Z" fill="#B8D8F0" fill-opacity="0.5"/>
<path fill-rule="evenodd" clip-rule="evenodd" d="M50.7188 108.747C50.7188 108.63 50.7188 108.513 50.7188 108.396C51.4189 108.396 52.1191 108.396 52.8192 108.396C53.2673 108.897 53.8509 109.131 54.5696 109.097C55.1644 109.041 55.748 109.099 56.32 109.272C56.7597 109.418 56.9932 109.709 57.0202 110.147C56.4541 109.959 55.8705 109.842 55.2698 109.797C54.9197 109.797 54.5696 109.797 54.2196 109.797C53.1676 109.175 52.0007 108.825 50.7188 108.747Z" fill="#B8D8F0" fill-opacity="0.5"/>
<path fill-rule="evenodd" clip-rule="evenodd" d="M50.7267 108.737C52.0087 108.815 53.1755 109.165 54.2275 109.787C53.7608 109.787 53.2938 109.787 52.8272 109.787C50.1389 108.895 47.4548 108.895 44.7753 109.787C44.4252 109.787 44.0752 109.787 43.7251 109.787C43.6085 109.787 43.4916 109.787 43.375 109.787C43.7251 109.554 44.0752 109.32 44.4252 109.087C44.7753 109.087 45.1254 109.087 45.4755 109.087C47.2042 108.775 48.9546 108.658 50.7267 108.737Z" fill="#B8D8F0" fill-opacity="0.5"/>
<path fill-rule="evenodd" clip-rule="evenodd" d="M43.7387 109.096C43.9722 109.096 44.2053 109.096 44.4388 109.096C44.0888 109.329 43.7387 109.562 43.3886 109.796C43.272 109.796 43.1551 109.796 43.0385 109.796C42.6503 109.816 42.3002 109.932 41.9883 110.146C42.3335 109.478 42.9167 109.128 43.7387 109.096Z" fill="#B8D8F0" fill-opacity="0.5"/>
<path fill-rule="evenodd" clip-rule="evenodd" d="M62.2852 104.193C62.8687 104.66 63.452 105.127 64.0356 105.594C64.01 106.128 64.2435 106.478 64.7357 106.644C64.9209 107.444 65.271 108.144 65.786 108.744C66.2782 108.91 66.5117 109.26 66.4861 109.795C66.0748 109.871 65.7247 109.755 65.4359 109.445C64.3079 107.697 63.2577 105.947 62.2852 104.193Z" fill="#B8D8F0" fill-opacity="0.5"/>
<path fill-rule="evenodd" clip-rule="evenodd" d="M65.7891 108.045C65.9056 108.045 66.0226 108.045 66.1391 108.045C66.3726 108.512 66.7227 108.862 67.1894 109.095C67.837 110.333 68.4206 111.616 68.9398 112.946C68.1861 111.875 67.369 110.825 66.4892 109.795C66.5148 109.261 66.2813 108.911 65.7891 108.745C65.7891 108.512 65.7891 108.278 65.7891 108.045Z" fill="#B8D8F0" fill-opacity="0.5"/>
<path fill-rule="evenodd" clip-rule="evenodd" d="M41.6253 110.137C41.3918 110.37 41.1586 110.603 40.9251 110.837C40.8085 110.837 40.6916 110.837 40.575 110.837C39.4065 111.305 38.2396 111.771 37.0742 112.237C37.0742 112.004 37.0742 111.771 37.0742 111.537C38.5558 110.972 40.073 110.505 41.6253 110.137Z" fill="#B8D8F0" fill-opacity="0.5"/>
<path fill-rule="evenodd" clip-rule="evenodd" d="M37.0757 111.545C37.0757 111.778 37.0757 112.012 37.0757 112.245C36.956 112.538 36.7229 112.655 36.3756 112.595C35.3908 112.429 34.6906 112.779 34.2751 113.645C34.0416 113.645 33.8084 113.645 33.5749 113.645C33.5448 113.297 33.6618 113.005 33.925 112.77C34.9875 112.354 36.0378 111.946 37.0757 111.545Z" fill="#B8D8F0" fill-opacity="0.5"/>
<path fill-rule="evenodd" clip-rule="evenodd" d="M36.37 112.599C35.6853 112.946 34.9851 113.296 34.2695 113.649C34.6851 112.783 35.3852 112.432 36.37 112.599Z" fill="#B8D8F0" fill-opacity="0.5"/>
<path fill-rule="evenodd" clip-rule="evenodd" d="M68.9297 112.945C69.2756 113.399 69.6256 113.865 69.9799 114.346C69.9799 114.579 69.9799 114.812 69.9799 115.046C69.7272 114.678 69.3771 114.444 68.9297 114.346C68.9297 113.879 68.9297 113.412 68.9297 112.945Z" fill="#B8D8F0" fill-opacity="0.5"/>
<path fill-rule="evenodd" clip-rule="evenodd" d="M86.4386 109.443C85.8816 110.469 85.1814 111.403 84.3381 112.244C83.2423 112.619 82.309 113.261 81.5374 114.169C80.044 114.694 78.9938 114.286 78.3867 112.944C78.9335 113.026 79.4002 113.259 79.787 113.644C80.9031 114.189 81.7198 113.839 82.2376 112.594C82.3542 112.594 82.4711 112.594 82.5877 112.594C83.9729 111.676 85.2567 110.626 86.4386 109.443Z" fill="#B8D8F0" fill-opacity="0.5"/>
<path fill-rule="evenodd" clip-rule="evenodd" d="M33.5893 113.641C33.8228 113.641 34.056 113.641 34.2895 113.641C33.6873 113.923 33.1037 114.274 32.5391 114.691C32.5391 113.991 32.8891 113.641 33.5893 113.641Z" fill="#B8D8F0" fill-opacity="0.5"/>
<path fill-rule="evenodd" clip-rule="evenodd" d="M76.2852 114.352C76.2852 114.235 76.2852 114.119 76.2852 114.002C76.6352 114.002 76.9853 114.002 77.3354 114.002C77.3354 114.586 77.3354 115.169 77.3354 115.752C77.2188 115.752 77.1019 115.752 76.9853 115.752C76.9853 115.636 76.9853 115.519 76.9853 115.402C77.0109 114.868 76.7774 114.518 76.2852 114.352Z" fill="#B8D8F0" fill-opacity="0.5"/>
<path fill-rule="evenodd" clip-rule="evenodd" d="M32.5341 114.691C31.8493 115.039 31.1492 115.389 30.4336 115.742C30.4336 115.392 30.4336 115.041 30.4336 114.691C31.1338 114.691 31.8339 114.691 32.5341 114.691Z" fill="#B8D8F0" fill-opacity="0.5"/>
<path fill-rule="evenodd" clip-rule="evenodd" d="M84.339 112.25C84.3691 112.599 84.2522 112.89 83.9889 113.125C83.015 113.575 82.1983 114.216 81.5384 115.051C79.4155 115.613 78.1318 114.796 77.6875 112.6C77.921 112.717 78.1542 112.834 78.3877 112.95C78.9947 114.292 80.0449 114.7 81.5384 114.175C82.31 113.267 83.2433 112.625 84.339 112.25Z" fill="#B8D8F0" fill-opacity="0.5"/>
<path fill-rule="evenodd" clip-rule="evenodd" d="M30.4388 115.748C30.4388 115.865 30.4388 115.982 30.4388 116.098C29.5258 116.063 28.7087 116.297 27.9883 116.798C27.9883 116.448 27.9883 116.098 27.9883 115.748C28.805 115.748 29.6221 115.748 30.4388 115.748Z" fill="#B8D8F0" fill-opacity="0.5"/>
<path fill-rule="evenodd" clip-rule="evenodd" d="M27.2811 117.146C26.7294 117.372 26.2624 117.722 25.8808 118.197C25.5069 118.524 25.0402 118.641 24.4805 118.547C24.4805 118.43 24.4805 118.313 24.4805 118.197C25.279 117.522 26.2123 117.172 27.2811 117.146Z" fill="#B8D8F0" fill-opacity="0.5"/>
<path fill-rule="evenodd" clip-rule="evenodd" d="M77.3477 115.748C77.8105 115.688 78.219 115.805 78.5729 116.098C78.818 117.264 79.2265 118.314 79.7982 119.248C79.5406 118.643 79.0736 118.293 78.3979 118.198C78.2078 117.31 77.8577 116.492 77.3477 115.748Z" fill="#B8D8F0" fill-opacity="0.5"/>
<path fill-rule="evenodd" clip-rule="evenodd" d="M22.3759 118.199C23.0761 118.199 23.7763 118.199 24.4764 118.199C24.4764 118.316 24.4764 118.433 24.4764 118.549C24.3597 118.549 24.243 118.549 24.1263 118.549C23.2132 118.514 22.3963 118.748 21.6758 119.249C21.7925 119.016 21.9092 118.783 22.0259 118.549C22.2593 118.549 22.3759 118.433 22.3759 118.199Z" fill="#B8D8F0" fill-opacity="0.5"/>
<path fill-rule="evenodd" clip-rule="evenodd" d="M14.6719 118.199C17.2391 118.199 19.8064 118.199 22.3736 118.199C22.3736 118.433 22.257 118.549 22.0236 118.549C20.8743 118.753 19.7074 118.869 18.5228 118.899C17.1334 118.971 15.8498 118.738 14.6719 118.199Z" fill="#B8D8F0" fill-opacity="0.5"/>
<path fill-rule="evenodd" clip-rule="evenodd" d="M14.6671 118.199C15.8449 118.738 17.1286 118.972 18.5179 118.9C19.7026 118.87 20.8695 118.753 22.0187 118.55C21.9021 118.783 21.7853 119.016 21.6687 119.25C21.552 119.25 21.4353 119.25 21.3186 119.25C19.2181 119.25 17.1176 119.25 15.0171 119.25C14.1953 118.741 13.2617 118.508 12.2165 118.55C11.5621 118.552 10.9786 118.669 10.4661 118.9C10.9033 119.472 11.4868 119.881 12.2165 120.125C12.4799 120.36 12.5966 120.651 12.5666 121C12.0998 121 11.633 121 11.1663 121C11.1663 120.65 11.1663 120.3 11.1663 119.95C9.88454 120.002 9.53446 119.477 10.116 118.375C11.6286 118.2 13.1456 118.141 14.6671 118.199Z" fill="#B8D8F0" fill-opacity="0.5"/>
<path fill-rule="evenodd" clip-rule="evenodd" d="M57.3772 118.899C57.6107 118.899 57.8439 118.899 58.0774 118.899C58.1792 119.301 58.4709 119.534 58.9526 119.599C60.4033 119.831 61.8621 120.006 63.3286 120.124C63.846 120.838 64.5461 121.129 65.429 120.999C65.429 121.116 65.429 121.233 65.429 121.349C65.456 121.787 65.6895 122.079 66.1292 122.224C65.3706 122.283 64.6123 122.341 63.8537 122.4C61.5523 121.658 59.1602 121.308 56.677 121.349C55.5102 121.408 54.3431 121.466 53.1762 121.524C52.3101 121.537 51.61 121.829 51.0758 122.4C50.8423 122.4 50.7257 122.516 50.7257 122.75C48.9683 122.53 47.3345 122.822 45.8246 123.625C45.0159 123.799 44.1991 123.857 43.374 123.8C41.5861 124.411 39.7192 124.819 37.7727 125.025C37.5392 125.259 37.3061 125.492 37.0726 125.725C32.6398 125.9 28.2054 125.959 23.7695 125.9C22.9701 125.863 22.27 125.571 21.669 125.025C20.6252 124.851 19.575 124.792 18.5183 124.85C18.5483 124.501 18.4316 124.21 18.1682 123.975C17.2751 123.974 16.5749 123.682 16.0677 123.1C15.694 122.773 15.2272 122.656 14.6674 122.75C14.062 122.492 13.7119 122.025 13.6172 121.349C14.1278 121.326 14.5946 121.442 15.0175 121.699C15.0563 121.915 15.1729 122.09 15.3676 122.224C16.1762 122.398 16.9931 122.457 17.8181 122.4C18.0515 122.4 18.2849 122.4 18.5183 122.4C18.9317 122.948 19.5151 123.24 20.2687 123.275C24.2973 123.564 28.2649 123.505 32.1714 123.1C34.0874 122.417 36.0713 122.008 38.1228 121.874C39.1205 121.247 40.1708 120.839 41.2735 120.649C41.549 120.088 42.0157 119.854 42.6738 119.949C43.8466 120.007 45.0134 119.948 46.1746 119.774C46.4081 119.54 46.6413 119.307 46.8748 119.074C50.3735 118.899 53.8743 118.841 57.3772 118.899Z" fill="#B8D8F0" fill-opacity="0.5"/>
<path fill-rule="evenodd" clip-rule="evenodd" d="M68.9491 114.334C69.3965 114.433 69.7466 114.666 69.9993 115.034C69.9738 115.569 70.2073 115.919 70.6995 116.084C70.933 116.201 71.1661 116.318 71.3996 116.434C71.4003 117.718 71.867 118.768 72.8 119.585C73.3174 120.906 73.9006 122.19 74.5504 123.436C74.5504 123.903 74.3169 124.136 73.8502 124.136C73.6584 123.425 73.1917 123.075 72.4499 123.086C72.3683 122.539 72.1348 122.073 71.7497 121.686C71.3839 120.62 70.6837 119.92 69.6492 119.585C69.5327 119.235 69.2992 119.002 68.9491 118.885C68.7156 118.535 68.4824 118.185 68.2489 117.835C68.1365 117.293 67.7865 117.059 67.1987 117.135C67.1987 116.785 67.1987 116.434 67.1987 116.084C66.8486 116.084 66.4985 116.084 66.1484 116.084C66.1484 115.968 66.1484 115.851 66.1484 115.734C66.7653 115.684 67.3489 115.801 67.8988 116.084C68.9781 116.974 69.7949 118.024 70.3494 119.235C70.7177 119.287 71.0678 119.229 71.3996 119.06C71.0765 118.346 70.9599 117.587 71.0496 116.785C70.5868 116.844 70.1782 116.727 69.8243 116.434C69.4315 115.762 69.1395 115.062 68.9491 114.334Z" fill="#B8D8F0" fill-opacity="0.5"/>
<path fill-rule="evenodd" clip-rule="evenodd" d="M58.0898 118.896C58.6734 118.896 59.2567 118.896 59.8402 118.896C61.7867 119.288 63.6537 119.872 65.4415 120.647C65.4415 120.763 65.4415 120.88 65.4415 120.997C64.5586 121.127 63.8585 120.836 63.341 120.122C61.8746 120.004 60.4158 119.829 58.965 119.597C58.4833 119.532 58.1917 119.299 58.0898 118.896Z" fill="#B8D8F0" fill-opacity="0.5"/>
<path fill-rule="evenodd" clip-rule="evenodd" d="M65.4297 120.995C65.4297 120.878 65.4297 120.761 65.4297 120.645C65.5463 120.645 65.6632 120.645 65.7798 120.645C66.3634 120.645 66.9466 120.645 67.5302 120.645C67.5302 120.878 67.5302 121.111 67.5302 121.345C66.8528 121.117 66.1526 121.001 65.4297 120.995Z" fill="#B8D8F0" fill-opacity="0.5"/>
<path fill-rule="evenodd" clip-rule="evenodd" d="M67.543 120.645C68.0096 120.645 68.2431 120.878 68.2431 121.345C68.0096 121.345 67.7765 121.345 67.543 121.345C67.543 121.111 67.543 120.878 67.543 120.645Z" fill="#B8D8F0" fill-opacity="0.5"/>
<path fill-rule="evenodd" clip-rule="evenodd" d="M15.0273 121.689C15.7048 121.917 16.405 122.034 17.1278 122.04C17.3612 122.04 17.5946 122.04 17.828 122.04C17.828 122.156 17.828 122.273 17.828 122.39C17.0029 122.447 16.186 122.389 15.3774 122.215C15.1828 122.08 15.0661 121.905 15.0273 121.689Z" fill="#B8D8F0" fill-opacity="0.5"/>
<path fill-rule="evenodd" clip-rule="evenodd" d="M65.4353 121.343C66.5272 121.886 67.694 122.236 68.9361 122.393C68.9361 122.743 68.9361 123.094 68.9361 123.444C69.5309 123.388 70.1145 123.446 70.6865 123.619C69.7602 123.793 68.8265 123.851 67.8859 123.794C66.7677 123.353 65.6009 123.12 64.3851 123.094C63.2911 122.751 62.1243 122.634 60.8843 122.743C59.5169 122.239 58.0581 122.006 56.5083 122.043C54.6987 122.175 52.8902 122.292 51.082 122.393C51.6163 121.823 52.3164 121.531 53.1825 121.518C54.3493 121.46 55.5165 121.402 56.6833 121.343C59.1664 121.302 61.5585 121.652 63.86 122.393C64.6186 122.335 65.3769 122.277 66.1355 122.218C65.6958 122.072 65.4623 121.781 65.4353 121.343Z" fill="#B8D8F0" fill-opacity="0.5"/>
<path fill-rule="evenodd" clip-rule="evenodd" d="M79.7852 120.295C80.6295 120.363 80.9796 120.829 80.8354 121.695C81.1855 121.695 81.5356 121.695 81.8856 121.695C81.8856 122.395 81.8856 123.096 81.8856 123.796C81.6521 123.679 81.419 123.562 81.1855 123.446C81.0689 123.212 80.952 122.979 80.8354 122.745C80.6866 121.829 80.3365 121.012 79.7852 120.295Z" fill="#B8D8F0" fill-opacity="0.5"/>
<path fill-rule="evenodd" clip-rule="evenodd" d="M60.8711 122.753C57.4868 122.753 54.103 122.753 50.7188 122.753C50.7188 122.519 50.8353 122.403 51.0688 122.403C52.877 122.301 54.6855 122.184 56.4951 122.053C58.0449 122.016 59.5037 122.249 60.8711 122.753Z" fill="#B8D8F0" fill-opacity="0.5"/>
<path fill-rule="evenodd" clip-rule="evenodd" d="M18.5312 122.395C22.0806 123.037 25.6981 123.27 29.3837 123.095C30.3174 123.095 31.2507 123.095 32.1844 123.095C28.2778 123.5 24.3102 123.559 20.2817 123.27C19.5281 123.235 18.9446 122.943 18.5312 122.395Z" fill="#B8D8F0" fill-opacity="0.5"/>
<path fill-rule="evenodd" clip-rule="evenodd" d="M61.9375 123.45C61.9375 123.333 61.9375 123.216 61.9375 123.1C62.7542 123.1 63.5713 123.1 64.3881 123.1C65.6039 123.126 66.7707 123.359 67.8889 123.8C67.8889 123.916 67.8889 124.033 67.8889 124.15C67.7723 124.15 67.6554 124.15 67.5388 124.15C66.5862 123.988 65.6525 123.755 64.7381 123.45C64.038 123.45 63.3378 123.45 62.6377 123.45C62.5211 123.45 62.4042 123.45 62.2876 123.45C62.171 123.45 62.0541 123.45 61.9375 123.45Z" fill="#B8D8F0" fill-opacity="0.5"/>
<path fill-rule="evenodd" clip-rule="evenodd" d="M16.0776 123.1C16.5848 123.682 17.2849 123.974 18.1781 123.975C18.4415 124.21 18.5582 124.501 18.5281 124.85C17.7575 124.477 16.9406 124.243 16.0776 124.15C16.0776 124.5 16.0776 124.85 16.0776 125.2C16.5295 125.117 16.8796 125.234 17.1278 125.55C17.0111 125.55 16.8944 125.55 16.7777 125.55C16.4277 125.55 16.0776 125.55 15.7275 125.55C15.4941 124.733 15.2607 123.916 15.0273 123.1C15.3774 123.1 15.7275 123.1 16.0776 123.1Z" fill="#B8D8F0" fill-opacity="0.5"/>
<path fill-rule="evenodd" clip-rule="evenodd" d="M50.7267 122.746C54.1109 122.746 57.4948 122.746 60.879 122.746C62.119 122.637 63.2858 122.754 64.3798 123.097C63.5631 123.097 62.746 123.097 61.9292 123.097C57.9618 123.097 53.994 123.097 50.0265 123.097C48.5233 122.854 47.2395 123.204 46.1756 124.147C45.709 124.147 45.242 124.147 44.7753 124.147C44.3087 124.147 43.8417 124.147 43.375 124.147C43.375 124.03 43.375 123.913 43.375 123.797C44.2001 123.854 45.0169 123.796 45.8256 123.622C47.3355 122.819 48.9693 122.527 50.7267 122.746Z" fill="#B8D8F0" fill-opacity="0.5"/>
<path fill-rule="evenodd" clip-rule="evenodd" d="M50.0423 123.092C48.9269 123.923 47.6432 124.273 46.1914 124.142C47.2553 123.2 48.539 122.849 50.0423 123.092Z" fill="#B8D8F0" fill-opacity="0.5"/>
<path fill-rule="evenodd" clip-rule="evenodd" d="M65.4297 121.35C65.4297 121.234 65.4297 121.117 65.4297 121C66.1526 121.006 66.8528 121.123 67.5302 121.35C67.7637 121.35 67.9968 121.35 68.2303 121.35C68.697 121.7 69.164 122.05 69.6306 122.4C70.2685 122.929 70.9687 123.396 71.7311 123.801C71.9793 124.117 72.3294 124.234 72.7814 124.151C72.7814 124.501 72.7814 124.851 72.7814 125.201C72.3147 125.201 71.8477 125.201 71.381 125.201C70.9291 125.284 70.579 125.167 70.3308 124.851C70.2919 124.635 70.1754 124.46 69.9807 124.326C69.29 124.152 68.5899 124.094 67.8802 124.151C67.8802 124.034 67.8802 123.917 67.8802 123.801C68.8209 123.858 69.7546 123.8 70.6809 123.626C70.1089 123.453 69.5253 123.395 68.9305 123.451C68.9305 123.1 68.9305 122.75 68.9305 122.4C67.6884 122.243 66.5216 121.893 65.4297 121.35Z" fill="#B8D8F0" fill-opacity="0.5"/>
<path fill-rule="evenodd" clip-rule="evenodd" d="M43.374 123.795C43.374 123.911 43.374 124.028 43.374 124.145C43.3352 124.361 43.2186 124.536 43.0239 124.67C41.7588 125.001 40.475 125.234 39.1731 125.37C38.7981 125.669 38.448 125.96 38.1228 126.245C36.1312 126.257 34.1477 126.374 32.1715 126.596C29.3691 126.515 26.5684 126.398 23.7695 126.245C23.7695 126.129 23.7695 126.012 23.7695 125.895C28.2054 125.954 32.6399 125.895 37.0726 125.72C37.3061 125.487 37.5392 125.254 37.7727 125.02C39.7192 124.814 41.5862 124.406 43.374 123.795Z" fill="#B8D8F0" fill-opacity="0.5"/>
<path fill-rule="evenodd" clip-rule="evenodd" d="M67.543 124.502C67.543 124.385 67.543 124.268 67.543 124.152C67.6595 124.152 67.7765 124.152 67.893 124.152C68.6027 124.095 69.3028 124.154 69.9935 124.327C70.1882 124.461 70.3048 124.636 70.3436 124.852C69.7775 124.664 69.1939 124.547 68.5932 124.502C68.2431 124.502 67.893 124.502 67.543 124.502Z" fill="#B8D8F0" fill-opacity="0.5"/>
<path fill-rule="evenodd" clip-rule="evenodd" d="M43.3762 124.145C43.8429 124.145 44.3099 124.145 44.7765 124.145C44.7765 124.378 44.6599 124.495 44.4264 124.495C43.8919 124.469 43.5418 124.703 43.3762 125.195C41.5726 125.327 39.8222 125.678 38.125 126.245C38.4502 125.96 38.8003 125.668 39.1752 125.37C40.4772 125.234 41.7609 125 43.0261 124.67C43.2208 124.536 43.3373 124.361 43.3762 124.145Z" fill="#B8D8F0" fill-opacity="0.5"/>
<path fill-rule="evenodd" clip-rule="evenodd" d="M44.4252 124.496C44.2597 124.988 43.9096 125.222 43.375 125.196C43.5406 124.704 43.8907 124.47 44.4252 124.496Z" fill="#B8D8F0" fill-opacity="0.5"/>
<path fill-rule="evenodd" clip-rule="evenodd" d="M14.6679 122.752C15.2277 122.658 15.6945 122.775 16.0683 123.102C15.7182 123.102 15.3681 123.102 15.018 123.102C15.2514 123.919 15.4848 124.736 15.7182 125.553C14.2957 125.184 13.5955 124.251 13.6177 122.752C13.9678 122.752 14.3179 122.752 14.6679 122.752Z" fill="#B8D8F0" fill-opacity="0.5"/>
<path fill-rule="evenodd" clip-rule="evenodd" d="M18.517 124.845C18.9837 125.078 19.4505 125.311 19.9173 125.545C18.2827 125.366 17.9326 125.833 18.867 126.945C18.4788 126.925 18.1287 126.809 17.8168 126.595C17.8424 126.061 17.609 125.71 17.1166 125.545C16.8684 125.228 16.5184 125.112 16.0664 125.195C16.0664 124.845 16.0664 124.495 16.0664 124.145C16.9295 124.238 17.7463 124.472 18.517 124.845Z" fill="#B8D8F0" fill-opacity="0.5"/>
<path fill-rule="evenodd" clip-rule="evenodd" d="M18.5312 124.842C19.5879 124.784 20.6382 124.843 21.682 125.017C22.2829 125.563 22.9831 125.854 23.7825 125.892C23.7825 126.009 23.7825 126.126 23.7825 126.242C23.3157 126.242 22.8489 126.242 22.3821 126.242C21.8814 125.879 21.2979 125.646 20.6317 125.542C20.3983 125.542 20.165 125.542 19.9316 125.542C19.4648 125.309 18.998 125.075 18.5312 124.842Z" fill="#B8D8F0" fill-opacity="0.5"/>
<path fill-rule="evenodd" clip-rule="evenodd" d="M72.4409 123.1C73.1827 123.089 73.6493 123.439 73.8412 124.15C74.0747 124.734 74.3078 125.317 74.5413 125.901C73.7001 125.919 72.8834 125.802 72.0908 125.55C71.8573 125.55 71.6241 125.55 71.3906 125.55C71.3906 125.434 71.3906 125.317 71.3906 125.2C71.8573 125.2 72.3243 125.2 72.7909 125.2C72.7909 124.85 72.7909 124.5 72.7909 124.15C72.339 124.233 71.9889 124.117 71.7407 123.8C72.2074 123.8 72.4409 123.567 72.4409 123.1Z" fill="#B8D8F0" fill-opacity="0.5"/>
<path fill-rule="evenodd" clip-rule="evenodd" d="M50.0266 123.1C53.9941 123.1 57.9619 123.1 61.9294 123.1C61.9294 123.216 61.9294 123.333 61.9294 123.45C58.0767 123.391 54.2259 123.45 50.3767 123.625C48.7044 124.318 46.954 124.668 45.1255 124.675C44.892 124.908 44.6589 125.142 44.4254 125.375C42.7856 125.464 41.2683 125.931 39.8743 126.775C38.8304 126.95 37.7801 127.008 36.7236 126.95C36.4901 126.95 36.2569 126.95 36.0234 126.95C36.0234 126.834 36.0234 126.717 36.0234 126.6C36.8059 126.704 37.506 126.587 38.1239 126.25C39.8211 125.683 41.5715 125.333 43.3751 125.2C43.9097 125.226 44.2598 124.992 44.4254 124.5C44.6589 124.5 44.7754 124.383 44.7754 124.15C45.2421 124.15 45.7091 124.15 46.1758 124.15C47.6275 124.281 48.9113 123.931 50.0266 123.1Z" fill="#B8D8F0" fill-opacity="0.5"/>
<path fill-rule="evenodd" clip-rule="evenodd" d="M81.8828 124.495C81.8828 124.378 81.8828 124.261 81.8828 124.145C82.7801 124.527 83.5387 125.11 84.1583 125.895C84.3313 126.467 84.3894 127.051 84.3334 127.645C83.4543 126.631 82.6372 125.581 81.8828 124.495Z" fill="#B8D8F0" fill-opacity="0.5"/>
<path fill-rule="evenodd" clip-rule="evenodd" d="M20.625 125.545C21.2912 125.649 21.8747 125.882 22.3754 126.245C21.6059 126.378 21.0225 126.145 20.625 125.545Z" fill="#B8D8F0" fill-opacity="0.5"/>
<path opacity="0.969" fill-rule="evenodd" clip-rule="evenodd" d="M8.36745 134.999C5.97206 131.789 4.45506 128.171 3.81641 124.146C4.09297 123.758 4.26801 123.292 4.34153 122.746C5.01666 124.298 5.36674 125.932 5.39177 127.647C5.93894 128.723 6.52242 129.774 7.14217 130.798C7.31563 131.489 7.37396 132.189 7.31721 132.898C7.66729 132.898 8.01737 132.898 8.36745 132.898C8.36745 133.599 8.36745 134.299 8.36745 134.999Z" fill="#B8D8F0" fill-opacity="0.5"/>
<path fill-rule="evenodd" clip-rule="evenodd" d="M17.1153 125.545C17.6076 125.711 17.841 126.061 17.8155 126.595C17.2735 126.483 17.0401 126.133 17.1153 125.545Z" fill="#B8D8F0" fill-opacity="0.5"/>
<path fill-rule="evenodd" clip-rule="evenodd" d="M81.8828 124.494C82.6372 125.58 83.4543 126.631 84.3334 127.645C84.3334 127.761 84.3334 127.878 84.3334 127.995C84.7185 128.382 84.952 128.848 85.0335 129.395C84.917 129.395 84.8 129.395 84.6835 129.395C84.3334 128.929 83.9833 128.462 83.6332 127.995C82.9176 126.902 82.3341 125.735 81.8828 124.494Z" fill="#B8D8F0" fill-opacity="0.5"/>
<path fill-rule="evenodd" clip-rule="evenodd" d="M19.918 125.545C20.1514 125.545 20.3847 125.545 20.6181 125.545C21.0156 126.145 21.5991 126.378 22.3685 126.245C22.8353 126.245 23.3021 126.245 23.7688 126.245C24.469 126.479 25.1692 126.712 25.8693 126.945C25.2857 126.945 24.7025 126.945 24.1189 126.945C23.8855 126.945 23.6522 126.945 23.4188 126.945C22.5618 126.605 21.6282 126.488 20.6181 126.595C20.3847 126.245 20.1514 125.895 19.918 125.545Z" fill="#B8D8F0" fill-opacity="0.5"/>
<path fill-rule="evenodd" clip-rule="evenodd" d="M23.7695 126.244C26.5684 126.396 29.3691 126.513 32.1715 126.594C30.1375 126.941 28.037 127.057 25.87 126.944C25.1699 126.711 24.4697 126.478 23.7695 126.244Z" fill="#B8D8F0" fill-opacity="0.5"/>
<path fill-rule="evenodd" clip-rule="evenodd" d="M74.5428 123.447C74.8835 124.021 75.3501 124.488 75.9431 124.848C75.8231 125.542 76.0566 126.009 76.6433 126.248C76.6433 126.481 76.6433 126.715 76.6433 126.948C75.8822 127.036 75.2987 127.386 74.8929 127.998C73.9064 128.513 72.8561 128.863 71.7422 129.049C71.7422 128.932 71.7422 128.815 71.7422 128.698C71.8588 128.698 71.9757 128.698 72.0923 128.698C72.9178 128.217 73.7348 127.751 74.5428 127.298C74.958 126.876 74.958 126.409 74.5428 125.898C74.3093 125.314 74.0762 124.731 73.8427 124.147C74.3093 124.147 74.5428 123.914 74.5428 123.447Z" fill="#B8D8F0" fill-opacity="0.5"/>
<path fill-rule="evenodd" clip-rule="evenodd" d="M16.7656 125.545C16.8823 125.545 16.999 125.545 17.1157 125.545C17.0405 126.133 17.2739 126.483 17.8159 126.595C18.1278 126.809 18.4779 126.925 18.8661 126.945C19.0317 127.437 19.3818 127.671 19.9163 127.645C19.9163 127.762 19.9163 127.879 19.9163 127.995C18.8192 127.736 17.769 127.386 16.7656 126.945C16.7656 126.479 16.7656 126.012 16.7656 125.545Z" fill="#B8D8F0" fill-opacity="0.5"/>
<path fill-rule="evenodd" clip-rule="evenodd" d="M38.1239 126.244C37.506 126.581 36.8058 126.697 36.0234 126.594C32.6795 127.219 29.2952 127.452 25.8711 127.294C25.8711 127.178 25.8711 127.061 25.8711 126.944C28.0381 127.057 30.1386 126.941 32.1725 126.594C34.1487 126.372 36.1323 126.255 38.1239 126.244Z" fill="#B8D8F0" fill-opacity="0.5"/>
<path fill-rule="evenodd" clip-rule="evenodd" d="M24.125 126.951C24.7086 126.951 25.2918 126.951 25.8754 126.951C25.8754 127.068 25.8754 127.185 25.8754 127.301C25.8754 127.418 25.8754 127.535 25.8754 127.651C25.0769 127.799 24.4933 127.566 24.125 126.951Z" fill="#B8D8F0" fill-opacity="0.5"/>
<path fill-rule="evenodd" clip-rule="evenodd" d="M36.0234 126.592C36.0234 126.708 36.0234 126.825 36.0234 126.942C32.6819 127.58 29.298 127.813 25.8711 127.642C25.8711 127.525 25.8711 127.409 25.8711 127.292C29.2952 127.449 32.6795 127.216 36.0234 126.592Z" fill="#B8D8F0" fill-opacity="0.5"/>
<path fill-rule="evenodd" clip-rule="evenodd" d="M19.918 127.99C20.3982 128.345 20.8649 128.695 21.3183 129.04C20.8515 129.04 20.3847 129.04 19.918 129.04C19.918 128.69 19.918 128.34 19.918 127.99Z" fill="#B8D8F0" fill-opacity="0.5"/>
<path fill-rule="evenodd" clip-rule="evenodd" d="M76.6371 126.951C77.6397 129.12 79.0401 130.987 80.8381 132.552C80.9547 132.786 81.0716 133.019 81.1882 133.253C81.1882 133.369 81.1882 133.486 81.1882 133.603C80.8381 133.603 80.488 133.603 80.1379 133.603C80.1379 133.253 80.1379 132.903 80.1379 132.552C79.6751 132.612 79.2666 132.495 78.9126 132.202C78.2233 131.258 77.8148 130.207 77.6874 129.052C77.3373 129.052 76.9872 129.052 76.6371 129.052C76.6371 128.702 76.6371 128.351 76.6371 128.001C76.0535 128.001 75.4703 128.001 74.8867 128.001C75.2925 127.389 75.876 127.039 76.6371 126.951Z" fill="#B8D8F0" fill-opacity="0.5"/>
<path fill-rule="evenodd" clip-rule="evenodd" d="M84.3438 127.99C85.1881 128.058 85.5382 128.525 85.394 129.391C85.2774 129.391 85.1605 129.391 85.0439 129.391C84.9623 128.844 84.7288 128.377 84.3438 127.99Z" fill="#B8D8F0" fill-opacity="0.5"/>
<path fill-rule="evenodd" clip-rule="evenodd" d="M71.7274 128.703C71.7274 128.819 71.7274 128.936 71.7274 129.053C70.6355 129.596 69.4686 129.946 68.2266 130.103C68.4601 129.869 68.6932 129.636 68.9267 129.403C69.0433 129.403 69.1602 129.403 69.2768 129.403C69.9973 128.901 70.8144 128.668 71.7274 128.703Z" fill="#B8D8F0" fill-opacity="0.5"/>
<path fill-rule="evenodd" clip-rule="evenodd" d="M85.043 129.4C85.1595 129.4 85.2765 129.4 85.393 129.4C85.7781 129.787 86.0116 130.254 86.0932 130.801C85.4764 130.534 85.1263 130.067 85.043 129.4Z" fill="#B8D8F0" fill-opacity="0.5"/>
<path fill-rule="evenodd" clip-rule="evenodd" d="M85.3945 129.4C86.2389 129.468 86.589 129.935 86.4448 130.801C86.3282 130.801 86.2113 130.801 86.0947 130.801C86.0131 130.254 85.7796 129.787 85.3945 129.4Z" fill="#B8D8F0" fill-opacity="0.5"/>
<path fill-rule="evenodd" clip-rule="evenodd" d="M22.3672 130.096C22.7173 130.096 23.0673 130.096 23.4174 130.096C23.8042 130.481 24.271 130.714 24.8177 130.796C24.9343 130.796 25.0513 130.796 25.1678 130.796C25.2844 131.029 25.4013 131.263 25.5179 131.496C24.0753 131.791 23.025 131.324 22.3672 130.096Z" fill="#B8D8F0" fill-opacity="0.5"/>
<path fill-rule="evenodd" clip-rule="evenodd" d="M67.8802 130.096C67.2935 130.913 66.4768 131.263 65.4297 131.146C65.4297 131.029 65.4297 130.912 65.4297 130.796C65.8816 130.879 66.2317 130.762 66.4799 130.446C66.9466 130.329 67.4136 130.212 67.8802 130.096Z" fill="#B8D8F0" fill-opacity="0.5"/>
<path fill-rule="evenodd" clip-rule="evenodd" d="M86.0781 130.799C86.1947 130.799 86.3116 130.799 86.4282 130.799C87.0118 131.616 87.7119 132.316 88.5287 132.899C88.5287 133.016 88.5287 133.133 88.5287 133.249C88.5287 133.366 88.5287 133.483 88.5287 133.599C88.4121 133.599 88.2952 133.599 88.1786 133.599C88.062 133.599 87.9451 133.599 87.8285 133.599C87.2449 132.666 86.6617 131.732 86.0781 130.799Z" fill="#B8D8F0" fill-opacity="0.5"/>
<path fill-rule="evenodd" clip-rule="evenodd" d="M86.4375 130.799C87.472 131.133 88.1721 131.833 88.538 132.899C87.7212 132.316 87.0211 131.616 86.4375 130.799Z" fill="#B8D8F0" fill-opacity="0.5"/>
<path fill-rule="evenodd" clip-rule="evenodd" d="M71.724 129.053C71.7541 129.401 71.6372 129.693 71.3739 129.928C70.276 130.038 69.3424 130.447 68.5733 131.153C66.5043 131.755 64.4038 132.28 62.2718 132.729C61.3959 133.503 60.3457 133.795 59.1211 133.604C59.1211 133.487 59.1211 133.37 59.1211 133.254C61.3084 132.714 63.4089 132.013 65.4225 131.153C66.4696 131.27 67.2864 130.92 67.8731 130.103C67.9897 130.103 68.1066 130.103 68.2232 130.103C69.4653 129.946 70.6321 129.596 71.724 129.053Z" fill="#B8D8F0" fill-opacity="0.5"/>
<path fill-rule="evenodd" clip-rule="evenodd" d="M25.8711 131.5C25.9877 131.5 26.1046 131.5 26.2212 131.5C26.6185 132.1 27.2021 132.333 27.9716 132.2C28.1981 132.775 28.5482 133.241 29.0218 133.6C28.4382 133.6 27.855 133.6 27.2714 133.6C27.2714 133.25 27.2714 132.9 27.2714 132.55C26.4057 132.694 25.939 132.344 25.8711 131.5Z" fill="#B8D8F0" fill-opacity="0.5"/>
<path fill-rule="evenodd" clip-rule="evenodd" d="M88.5391 133.602C89.3558 134.302 90.1729 135.002 90.9896 135.702C91.8529 137.034 93.0197 137.967 94.4904 138.503C94.4904 138.619 94.4904 138.736 94.4904 138.853C94.4904 138.969 94.4904 139.086 94.4904 139.203C93.8414 138.943 93.2578 138.593 92.74 138.153C91.4563 136.986 90.1729 135.819 88.8891 134.652C88.6756 134.34 88.559 133.99 88.5391 133.602Z" fill="#B8D8F0" fill-opacity="0.5"/>
<path fill-rule="evenodd" clip-rule="evenodd" d="M88.5391 133.606C88.5391 133.489 88.5391 133.372 88.5391 133.256C89.6905 133.707 90.5072 134.524 90.9896 135.706C90.1729 135.006 89.3558 134.306 88.5391 133.606Z" fill="#B8D8F0" fill-opacity="0.5"/>
<path fill-rule="evenodd" clip-rule="evenodd" d="M88.1817 133.602C88.2983 133.602 88.4152 133.602 88.5318 133.602C88.5518 133.99 88.6683 134.34 88.8819 134.652C88.34 134.539 88.1065 134.189 88.1817 133.602Z" fill="#B8D8F0" fill-opacity="0.5"/>
<path fill-rule="evenodd" clip-rule="evenodd" d="M58.0805 133.602C58.1106 133.95 57.9937 134.242 57.7304 134.477C55.6741 134.738 53.6905 135.205 51.7791 135.877C50.3837 136.052 48.9833 136.11 47.5781 136.052C48.6284 135.819 49.6786 135.585 50.7288 135.352C50.9623 135.118 51.1955 134.885 51.429 134.652C51.7791 134.652 52.1292 134.652 52.4792 134.652C54.4547 134.74 56.3217 134.39 58.0805 133.602Z" fill="#B8D8F0" fill-opacity="0.5"/>
<path fill-rule="evenodd" clip-rule="evenodd" d="M30.44 133.602C32.2901 134.28 34.1571 134.922 36.0413 135.527C40.482 135.775 44.9165 135.716 49.3443 135.352C49.8109 135.352 50.278 135.352 50.7446 135.352C49.6944 135.585 48.6441 135.819 47.5939 136.052C43.6247 136.111 39.6569 136.052 35.6912 135.877C34.28 135.173 32.7628 134.823 31.1401 134.827C30.6245 134.578 30.391 134.17 30.44 133.602Z" fill="#B8D8F0" fill-opacity="0.5"/>
<path fill-rule="evenodd" clip-rule="evenodd" d="M90.9883 135.701C91.9874 136.404 93.0377 137.047 94.139 137.627C94.4023 137.862 94.5192 138.153 94.4891 138.502C93.0184 137.967 91.8516 137.033 90.9883 135.701Z" fill="#B8D8F0" fill-opacity="0.5"/>
<path opacity="0.525" fill-rule="evenodd" clip-rule="evenodd" d="M8.375 134.996C8.84176 134.996 9.30856 134.996 9.77532 134.996C10.2308 135.756 10.5809 136.573 10.8256 137.447C12.1092 137.563 12.8094 138.263 12.926 139.547C11.059 138.38 9.54192 136.863 8.375 134.996Z" fill="#B8D8F0" fill-opacity="0.5"/>
<path fill-rule="evenodd" clip-rule="evenodd" d="M94.4805 138.856C94.4805 138.739 94.4805 138.622 94.4805 138.506C95.4803 138.971 96.5305 139.321 97.6312 139.556C97.6312 139.906 97.6312 140.256 97.6312 140.606C96.5162 140.084 95.4659 139.501 94.4805 138.856Z" fill="#B8D8F0" fill-opacity="0.5"/>
<path fill-rule="evenodd" clip-rule="evenodd" d="M94.4805 139.208C94.4805 139.091 94.4805 138.974 94.4805 138.857C95.4659 139.502 96.5162 140.086 97.6312 140.608C97.6312 140.724 97.6312 140.841 97.6312 140.958C97.0844 140.876 96.6177 140.643 96.2309 140.258C95.5619 140.056 94.9783 139.706 94.4805 139.208Z" fill="#B8D8F0" fill-opacity="0.5"/>
<path opacity="0.639" fill-rule="evenodd" clip-rule="evenodd" d="M141.75 139.206C138.286 142.036 134.318 143.786 129.847 144.457C129.788 143.994 129.904 143.586 130.197 143.232C131.131 143.115 132.064 142.998 132.998 142.882C134.875 141.863 136.859 141.104 138.949 140.606C138.949 140.256 138.949 139.906 138.949 139.556C139.883 139.498 140.7 139.148 141.4 138.506C141.679 138.666 141.796 138.899 141.75 139.206Z" fill="#B8D8F0" fill-opacity="0.5"/>
<path opacity="0.506" fill-rule="evenodd" clip-rule="evenodd" d="M22.7256 143.052C23.2338 143.332 23.8173 143.507 24.476 143.577C24.7393 143.812 24.8562 144.103 24.8261 144.452C20.4819 144.095 16.631 142.578 13.2734 139.901C13.501 139.794 13.7343 139.678 13.9736 139.551C16.2731 140.672 18.607 141.781 20.9752 142.877C21.5473 143.049 22.1307 143.108 22.7256 143.052Z" fill="#B8D8F0" fill-opacity="0.5"/>
<path fill-rule="evenodd" clip-rule="evenodd" d="M89.2539 140.604C89.4874 140.604 89.7206 140.604 89.9541 140.604C90.3357 141.079 90.8027 141.429 91.3544 141.654C90.6542 141.654 89.9541 141.654 89.2539 141.654C89.2539 141.304 89.2539 140.954 89.2539 140.604Z" fill="#B8D8F0" fill-opacity="0.5"/>
<path fill-rule="evenodd" clip-rule="evenodd" d="M97.6445 140.945C98.6521 141.749 99.8189 142.216 101.145 142.346C101.145 142.696 101.145 143.046 101.145 143.396C100.562 143.162 99.9785 142.929 99.3949 142.696C98.9416 142.35 98.4749 142 97.9946 141.645C97.878 141.412 97.7611 141.179 97.6445 140.945Z" fill="#B8D8F0" fill-opacity="0.5"/>
<path fill-rule="evenodd" clip-rule="evenodd" d="M97.6445 140.95C97.6445 140.834 97.6445 140.717 97.6445 140.6C98.1252 140.545 98.5922 140.604 99.0449 140.775C100.634 141.696 102.267 142.513 103.946 143.226C104.37 143.589 104.72 143.998 104.996 144.451C103.795 143.817 102.511 143.467 101.145 143.401C101.145 143.051 101.145 142.701 101.145 142.35C99.8189 142.221 98.6521 141.754 97.6445 140.95Z" fill="#B8D8F0" fill-opacity="0.5"/>
<path fill-rule="evenodd" clip-rule="evenodd" d="M101.141 143.4C102.507 143.467 103.79 143.817 104.992 144.451C104.992 144.567 104.992 144.684 104.992 144.801C104.364 144.754 103.781 144.87 103.241 145.151C103.158 144.484 102.808 144.017 102.191 143.75C101.957 143.75 101.724 143.75 101.491 143.75C101.257 143.75 101.141 143.634 101.141 143.4Z" fill="#B8D8F0" fill-opacity="0.5"/>
<path opacity="0.616" fill-rule="evenodd" clip-rule="evenodd" d="M22.7266 143.056C24.0575 142.839 25.2244 143.131 26.2274 143.931C33.9886 143.99 41.6904 144.165 49.3327 144.456C41.1607 144.845 32.9923 144.845 24.827 144.456C24.8572 144.107 24.7402 143.816 24.477 143.581C23.8182 143.512 23.2347 143.337 22.7266 143.056Z" fill="#B8D8F0" fill-opacity="0.5"/>
<path fill-rule="evenodd" clip-rule="evenodd" d="M92.7468 142.705C93.0969 142.705 93.447 142.705 93.7971 142.705C94.3978 143.239 95.0979 143.589 95.8975 143.755C96.9614 144.698 98.2452 145.048 99.7484 144.806C99.865 144.806 99.9819 144.806 100.098 144.806C100.118 145.194 100.235 145.544 100.449 145.856C98.6807 145.559 96.9303 145.151 95.1974 144.631C94.6733 143.976 93.9731 143.625 93.0969 143.58C92.8336 143.345 92.7167 143.054 92.7468 142.705Z" fill="#B8D8F0" fill-opacity="0.5"/>
<path fill-rule="evenodd" clip-rule="evenodd" d="M101.489 143.746C101.722 143.746 101.955 143.746 102.189 143.746C102.14 144.315 102.373 144.723 102.889 144.971C102.198 145.145 101.498 145.203 100.789 145.146C100.669 144.853 100.436 144.736 100.088 144.796C99.9718 144.796 99.8549 144.796 99.7383 144.796C99.7383 144.68 99.7383 144.563 99.7383 144.446C100.537 144.594 101.12 144.361 101.489 143.746Z" fill="#B8D8F0" fill-opacity="0.5"/>
<path fill-rule="evenodd" clip-rule="evenodd" d="M102.193 143.746C102.81 144.013 103.16 144.48 103.244 145.146C103.244 145.263 103.244 145.38 103.244 145.496C103.127 145.496 103.01 145.496 102.893 145.496C102.111 145.6 101.411 145.483 100.793 145.146C101.503 145.203 102.203 145.145 102.893 144.971C102.378 144.723 102.144 144.315 102.193 143.746Z" fill="#B8D8F0" fill-opacity="0.5"/>
<path fill-rule="evenodd" clip-rule="evenodd" d="M100.09 144.802C100.437 144.742 100.67 144.859 100.79 145.153C101.408 145.489 102.108 145.606 102.89 145.503C102.153 145.842 101.336 145.958 100.44 145.853C100.226 145.541 100.11 145.191 100.09 144.802Z" fill="#B8D8F0" fill-opacity="0.5"/>
<path opacity="0.78" fill-rule="evenodd" clip-rule="evenodd" d="M102.896 145.5C103.012 145.5 103.129 145.5 103.246 145.5C103.246 152.852 103.246 160.203 103.246 167.555C102.993 167.409 102.818 167.176 102.721 166.855C102.546 159.971 102.487 153.086 102.546 146.2C101.763 146.303 101.063 146.187 100.445 145.85C101.341 145.956 102.158 145.839 102.896 145.5Z" fill="#B8D8F0" fill-opacity="0.5"/>
<path opacity="0.78" fill-rule="evenodd" clip-rule="evenodd" d="M52.1157 147.949C52.4069 155.358 52.582 162.826 52.6408 170.354C52.8743 170.588 53.1075 170.821 53.341 171.055C53.6151 173.966 54.1402 176.767 54.9163 179.456C55.2664 179.456 55.6165 179.456 55.9666 179.456C55.9666 180.157 55.9666 180.857 55.9666 181.557C56.3166 181.557 56.6667 181.557 57.0168 181.557C57.0168 182.257 57.0168 182.957 57.0168 183.657C54.3898 180.277 52.8144 176.426 52.2907 172.105C52.1157 164.054 52.0572 156.002 52.1157 147.949Z" fill="#B8D8F0" fill-opacity="0.5"/>
<path opacity="0.878" fill-rule="evenodd" clip-rule="evenodd" d="M57.0273 183.662C57.494 183.662 57.961 183.662 58.4277 183.662C58.4987 184.411 58.8488 184.994 59.4779 185.413C59.7667 185.723 60.1168 185.839 60.5281 185.763C60.5281 186.229 60.5281 186.696 60.5281 187.163C60.8782 187.163 61.2283 187.163 61.5784 187.163C61.5784 187.513 61.5784 187.863 61.5784 188.213C59.7114 187.046 58.1942 185.529 57.0273 183.662Z" fill="#B8D8F0" fill-opacity="0.5"/>
<path opacity="0.812" fill-rule="evenodd" clip-rule="evenodd" d="M61.582 188.208C62.2916 188.152 62.9918 188.21 63.6825 188.383C65.4217 189.66 67.289 190.71 69.2838 191.534C70.869 191.699 72.3859 192.05 73.8348 192.584C73.0261 192.758 72.2094 192.817 71.3843 192.759C67.7004 192.042 64.4327 190.525 61.582 188.208Z" fill="#B8D8F0" fill-opacity="0.5"/>
<path opacity="0.235" fill-rule="evenodd" clip-rule="evenodd" d="M101.493 177.716C98.07 186.155 91.8851 191.289 82.9384 193.119C82.7315 192.891 82.4984 192.658 82.2383 192.419C82.3114 192.214 82.4284 192.039 82.5884 191.894C85.4996 191.023 88.4168 190.148 91.3404 189.268C91.3404 188.918 91.3404 188.568 91.3404 188.218C92.3493 188.18 93.166 187.772 93.7909 186.993C96.266 184.585 98.483 182.076 100.442 179.466C100.319 178.565 100.494 177.749 100.968 177.016C101.065 177.336 101.24 177.569 101.493 177.716Z" fill="#B8D8F0" fill-opacity="0.5"/>
</g>
<path d="M183.938 94.1657H193.216V134.952H211.587V143.154H183.938V94.1657ZM219.68 143.154V112.685H229.07V143.154H219.68ZM224.505 104.817C222.946 104.817 221.622 104.273 220.534 103.184C219.47 102.095 218.938 100.796 218.938 99.2872C218.938 97.778 219.482 96.4667 220.571 95.3533C221.659 94.2399 222.971 93.6832 224.505 93.6832C225.519 93.6832 226.447 93.943 227.288 94.4626C228.129 94.9574 228.81 95.6254 229.329 96.4667C229.849 97.3079 230.109 98.2481 230.109 99.2872C230.109 100.796 229.552 102.095 228.439 103.184C227.35 104.273 226.039 104.817 224.505 104.817ZM235.121 112.685H240.613V104.409C240.613 101.39 241.207 98.9161 242.395 96.9862C243.582 95.0316 245.116 93.5842 246.997 92.6441C248.877 91.6791 250.819 91.1967 252.823 91.1967C255.273 91.1967 257.153 91.5307 258.465 92.1987C259.776 92.8667 260.58 93.3492 260.877 93.6461L257.24 100.623C257.116 100.45 256.77 100.178 256.201 99.8068C255.656 99.4109 254.926 99.213 254.011 99.213C253.368 99.213 252.737 99.3738 252.118 99.6954C251.5 100.017 250.993 100.611 250.597 101.477C250.201 102.343 250.003 103.617 250.003 105.299V112.685H257.982V120.516H250.003V143.154H240.613V120.516H235.121V112.685ZM270.101 130.016C270.175 131.402 270.546 132.639 271.214 133.728C271.882 134.816 272.847 135.67 274.109 136.288C275.396 136.907 276.93 137.216 278.711 137.216C280.319 137.216 281.73 137.018 282.942 136.622C284.179 136.227 285.218 135.744 286.059 135.175C286.925 134.581 287.569 134.012 287.989 133.468L291.886 139.257C291.193 140.123 290.266 140.928 289.103 141.67C287.965 142.387 286.505 142.956 284.723 143.377C282.967 143.822 280.765 144.045 278.117 144.045C274.777 144.045 271.845 143.389 269.322 142.078C266.798 140.767 264.831 138.874 263.421 136.4C262.011 133.926 261.305 130.981 261.305 127.567C261.305 124.598 261.936 121.926 263.198 119.551C264.46 117.151 266.291 115.258 268.691 113.872C271.115 112.487 274.023 111.794 277.412 111.794C280.604 111.794 283.363 112.413 285.688 113.65C288.039 114.862 289.857 116.644 291.144 118.994C292.43 121.344 293.074 124.215 293.074 127.604C293.074 127.802 293.061 128.21 293.037 128.829C293.037 129.423 293.012 129.819 292.962 130.016H270.101ZM284.241 124.19C284.216 123.398 283.969 122.544 283.499 121.629C283.053 120.714 282.348 119.934 281.383 119.291C280.418 118.648 279.132 118.326 277.524 118.326C275.915 118.326 274.592 118.635 273.553 119.254C272.538 119.872 271.771 120.639 271.252 121.555C270.732 122.445 270.435 123.324 270.361 124.19H284.241ZM318.871 94.1657H335.163C338.256 94.1657 341.051 94.6976 343.55 95.7615C346.074 96.8254 348.078 98.4584 349.563 100.66C351.047 102.838 351.789 105.621 351.789 109.011C351.789 112.376 351.047 115.209 349.563 117.509C348.078 119.81 346.074 121.555 343.55 122.742C341.051 123.905 338.256 124.487 335.163 124.487H328.112V143.154H318.871V94.1657ZM328.112 117.027H332.602C334.334 117.027 335.893 116.78 337.278 116.285C338.689 115.765 339.814 114.936 340.656 113.798C341.497 112.66 341.917 111.138 341.917 109.233C341.917 107.304 341.497 105.794 340.656 104.706C339.814 103.592 338.689 102.801 337.278 102.33C335.893 101.836 334.334 101.588 332.602 101.588H328.112V117.027ZM365.969 143.154H356.542V112.685H365.969V117.621H365.783C365.956 117.027 366.426 116.272 367.193 115.357C367.985 114.442 369.074 113.625 370.459 112.908C371.845 112.165 373.515 111.794 375.47 111.794C376.88 111.794 378.154 112.004 379.292 112.425C380.455 112.821 381.284 113.217 381.779 113.613L378.067 121.332C377.746 120.936 377.14 120.528 376.249 120.107C375.383 119.687 374.294 119.476 372.983 119.476C371.424 119.476 370.125 119.909 369.086 120.775C368.047 121.617 367.268 122.656 366.748 123.893C366.228 125.105 365.969 126.243 365.969 127.307V143.154ZM391.587 130.016C391.661 131.402 392.032 132.639 392.7 133.728C393.368 134.816 394.333 135.67 395.595 136.288C396.882 136.907 398.416 137.216 400.197 137.216C401.805 137.216 403.215 137.018 404.428 136.622C405.665 136.227 406.704 135.744 407.545 135.175C408.411 134.581 409.055 134.012 409.475 133.468L413.372 139.257C412.679 140.123 411.751 140.928 410.588 141.67C409.45 142.387 407.991 142.956 406.209 143.377C404.453 143.822 402.251 144.045 399.603 144.045C396.263 144.045 393.331 143.389 390.807 142.078C388.284 140.767 386.317 138.874 384.907 136.4C383.496 133.926 382.791 130.981 382.791 127.567C382.791 124.598 383.422 121.926 384.684 119.551C385.946 117.151 387.777 115.258 390.177 113.872C392.601 112.487 395.508 111.794 398.898 111.794C402.09 111.794 404.848 112.413 407.174 113.65C409.525 114.862 411.343 116.644 412.63 118.994C413.916 121.344 414.56 124.215 414.56 127.604C414.56 127.802 414.547 128.21 414.522 128.829C414.522 129.423 414.498 129.819 414.448 130.016H391.587ZM405.727 124.19C405.702 123.398 405.455 122.544 404.984 121.629C404.539 120.714 403.834 119.934 402.869 119.291C401.904 118.648 400.618 118.326 399.009 118.326C397.401 118.326 396.077 118.635 395.038 119.254C394.024 119.872 393.257 120.639 392.737 121.555C392.218 122.445 391.921 123.324 391.847 124.19H405.727ZM433.692 111.794C435.523 111.794 437.217 111.967 438.776 112.314C440.335 112.635 441.646 113.006 442.71 113.427C443.799 113.848 444.516 114.206 444.863 114.503L441.634 120.182C441.139 119.786 440.248 119.316 438.962 118.771C437.7 118.227 436.29 117.955 434.731 117.955C433.321 117.955 432.133 118.202 431.168 118.697C430.203 119.167 429.721 119.885 429.721 120.85C429.721 121.815 430.24 122.582 431.279 123.151C432.318 123.72 433.766 124.215 435.622 124.635C437.18 124.957 438.714 125.452 440.223 126.12C441.733 126.763 442.982 127.703 443.972 128.94C444.962 130.153 445.456 131.773 445.456 133.802C445.456 135.806 445.023 137.476 444.157 138.812C443.316 140.123 442.19 141.163 440.78 141.93C439.37 142.697 437.824 143.241 436.141 143.563C434.459 143.884 432.789 144.045 431.131 144.045C428.978 144.045 427.086 143.835 425.453 143.414C423.82 143.018 422.471 142.56 421.407 142.041C420.368 141.497 419.626 141.039 419.181 140.668L422.409 134.359C423.053 134.928 424.104 135.559 425.564 136.251C427.048 136.919 428.644 137.253 430.352 137.253C432.133 137.253 433.531 136.944 434.545 136.326C435.584 135.707 436.104 134.878 436.104 133.839C436.104 133.072 435.857 132.453 435.362 131.983C434.867 131.489 434.186 131.08 433.321 130.759C432.455 130.437 431.44 130.153 430.277 129.905C429.213 129.682 428.125 129.361 427.011 128.94C425.898 128.495 424.859 127.913 423.894 127.196C422.929 126.478 422.15 125.588 421.556 124.524C420.962 123.435 420.665 122.136 420.665 120.627C420.665 118.697 421.284 117.089 422.521 115.802C423.758 114.491 425.366 113.501 427.345 112.833C429.325 112.141 431.44 111.794 433.692 111.794ZM467.755 136.548C469.363 136.548 470.675 136.276 471.689 135.732C472.704 135.187 473.372 134.779 473.693 134.507L478.073 141.002C477.726 141.274 477.083 141.657 476.143 142.152C475.202 142.647 474.003 143.08 472.543 143.451C471.108 143.847 469.462 144.045 467.607 144.045C464.39 144.045 461.508 143.402 458.96 142.115C456.411 140.804 454.395 138.948 452.91 136.548C451.45 134.124 450.721 131.241 450.721 127.901C450.721 124.536 451.45 121.654 452.91 119.254C454.395 116.854 456.411 115.011 458.96 113.724C461.508 112.437 464.39 111.794 467.607 111.794C469.438 111.794 471.058 111.992 472.469 112.388C473.904 112.784 475.104 113.242 476.068 113.761C477.033 114.256 477.701 114.664 478.073 114.986L473.582 121.518C473.409 121.32 473.075 121.048 472.58 120.701C472.085 120.355 471.429 120.033 470.613 119.736C469.821 119.439 468.869 119.291 467.755 119.291C466.394 119.291 465.095 119.65 463.858 120.367C462.646 121.085 461.656 122.087 460.889 123.373C460.122 124.66 459.739 126.169 459.739 127.901C459.739 129.633 460.122 131.155 460.889 132.466C461.656 133.752 462.646 134.754 463.858 135.472C465.095 136.189 466.394 136.548 467.755 136.548ZM492.166 143.154H482.739V112.685H492.166V117.621H491.98C492.154 117.027 492.624 116.272 493.391 115.357C494.182 114.442 495.271 113.625 496.657 112.908C498.042 112.165 499.712 111.794 501.667 111.794C503.077 111.794 504.351 112.004 505.489 112.425C506.652 112.821 507.481 113.217 507.976 113.613L504.265 121.332C503.943 120.936 503.337 120.528 502.446 120.107C501.58 119.687 500.492 119.476 499.18 119.476C497.622 119.476 496.323 119.909 495.283 120.775C494.244 121.617 493.465 122.656 492.945 123.893C492.426 125.105 492.166 126.243 492.166 127.307V143.154ZM512.014 143.154V112.685H521.404V143.154H512.014ZM516.839 104.817C515.28 104.817 513.957 104.273 512.868 103.184C511.804 102.095 511.272 100.796 511.272 99.2872C511.272 97.778 511.816 96.4667 512.905 95.3533C513.994 94.2399 515.305 93.6832 516.839 93.6832C517.853 93.6832 518.781 93.943 519.622 94.4626C520.464 94.9574 521.144 95.6254 521.664 96.4667C522.183 97.3079 522.443 98.2481 522.443 99.2872C522.443 100.796 521.886 102.095 520.773 103.184C519.684 104.273 518.373 104.817 516.839 104.817ZM529.83 143.154V92.0874H539.257V117.621C539.455 116.903 540.036 116.087 541.001 115.171C541.966 114.256 543.24 113.464 544.824 112.796C546.432 112.128 548.25 111.794 550.279 111.794C553.199 111.794 555.747 112.499 557.924 113.91C560.126 115.32 561.834 117.25 563.046 119.699C564.283 122.124 564.901 124.87 564.901 127.938C564.901 131.006 564.283 133.765 563.046 136.214C561.834 138.639 560.126 140.556 557.924 141.967C555.747 143.352 553.199 144.045 550.279 144.045C548.473 144.045 546.791 143.711 545.232 143.043C543.698 142.375 542.399 141.558 541.335 140.594C540.296 139.629 539.566 138.713 539.145 137.847V143.154H529.83ZM555.623 127.938C555.623 126.231 555.265 124.734 554.547 123.448C553.83 122.136 552.865 121.122 551.652 120.404C550.44 119.662 549.092 119.291 547.607 119.291C546.048 119.291 544.638 119.662 543.376 120.404C542.114 121.147 541.112 122.173 540.37 123.485C539.628 124.771 539.257 126.256 539.257 127.938C539.257 129.621 539.628 131.117 540.37 132.429C541.112 133.715 542.114 134.73 543.376 135.472C544.638 136.189 546.048 136.548 547.607 136.548C549.092 136.548 550.44 136.189 551.652 135.472C552.865 134.754 553.83 133.752 554.547 132.466C555.265 131.155 555.623 129.645 555.623 127.938ZM577.44 130.016C577.514 131.402 577.885 132.639 578.553 133.728C579.221 134.816 580.186 135.67 581.448 136.288C582.734 136.907 584.268 137.216 586.05 137.216C587.658 137.216 589.068 137.018 590.281 136.622C591.518 136.227 592.557 135.744 593.398 135.175C594.264 134.581 594.907 134.012 595.328 133.468L599.225 139.257C598.532 140.123 597.604 140.928 596.441 141.67C595.303 142.387 593.844 142.956 592.062 143.377C590.305 143.822 588.103 144.045 585.456 144.045C582.116 144.045 579.184 143.389 576.66 142.078C574.137 140.767 572.17 138.874 570.759 136.4C569.349 133.926 568.644 130.981 568.644 127.567C568.644 124.598 569.275 121.926 570.537 119.551C571.799 117.151 573.63 115.258 576.029 113.872C578.454 112.487 581.361 111.794 584.751 111.794C587.943 111.794 590.701 112.413 593.027 113.65C595.378 114.862 597.196 116.644 598.483 118.994C599.769 121.344 600.412 124.215 600.412 127.604C600.412 127.802 600.4 128.21 600.375 128.829C600.375 129.423 600.351 129.819 600.301 130.016H577.44ZM591.58 124.19C591.555 123.398 591.307 122.544 590.837 121.629C590.392 120.714 589.687 119.934 588.722 119.291C587.757 118.648 586.47 118.326 584.862 118.326C583.254 118.326 581.93 118.635 580.891 119.254C579.877 119.872 579.11 120.639 578.59 121.555C578.071 122.445 577.774 123.324 577.7 124.19H591.58ZM615.536 143.154H606.11V112.685H615.536V117.621H615.351C615.524 117.027 615.994 116.272 616.761 115.357C617.553 114.442 618.642 113.625 620.027 112.908C621.413 112.165 623.083 111.794 625.037 111.794C626.448 111.794 627.722 112.004 628.86 112.425C630.023 112.821 630.852 113.217 631.346 113.613L627.635 121.332C627.313 120.936 626.707 120.528 625.817 120.107C624.951 119.687 623.862 119.476 622.551 119.476C620.992 119.476 619.693 119.909 618.654 120.775C617.615 121.617 616.835 122.656 616.316 123.893C615.796 125.105 615.536 126.243 615.536 127.307V143.154Z" fill="#7DBCDB"/>
</g>
<defs>
<clipPath id="clip0_3296_8322">
<rect width="699" height="151.173" fill="white" transform="translate(0 44)"/>
</clipPath>
<clipPath id="clip1_3296_8322">
<rect width="153.946" height="154.316" fill="white" transform="translate(0 42.6113)"/>
</clipPath>
</defs>
</svg>
