<svg width="504" height="109" viewBox="0 0 504 109" fill="none" xmlns="http://www.w3.org/2000/svg">
<g clip-path="url(#clip0_3188_4006)">
<g clip-path="url(#clip1_3188_4006)">
<path fill-rule="evenodd" clip-rule="evenodd" d="M60.3028 1.75221C59.7649 1.95763 59.176 2.08384 58.5359 2.13084C59.853 2.67359 61.1994 2.7998 62.5746 2.50947C62.6587 2.50947 62.743 2.50947 62.827 2.50947C62.5589 2.78092 62.5589 3.03333 62.827 3.26672C63.3089 3.48082 63.8137 3.56498 64.3415 3.51914C64.3415 3.77156 64.3415 4.02398 64.3415 4.27639C64.8464 4.27639 65.3512 4.27639 65.856 4.27639C65.856 4.52881 65.856 4.78123 65.856 5.03365C66.3008 4.99763 66.7216 5.08176 67.1181 5.28607C67.65 5.84813 68.2389 6.35296 68.8851 6.80058C69.1087 7.00882 69.1928 7.26124 69.1375 7.55783C70.1646 7.9167 70.7116 8.67395 70.7782 9.8296C71.0334 10.0408 71.328 10.1249 71.6617 10.082C71.5723 10.8376 71.8247 11.09 72.4189 10.8393C72.4189 11.6807 72.4189 12.5221 72.4189 13.3635C72.6713 13.3635 72.9237 13.3635 73.1762 13.3635C73.1714 14.5151 73.3816 15.6089 73.8072 16.6449C73.9334 19.5043 73.9756 22.3652 73.9334 25.2271C73.8516 29.1593 73.9357 33.0718 74.1858 36.9646C76.9203 37.0067 79.655 37.0486 82.3894 37.0908C85.2135 37.0905 87.9479 36.9222 90.593 36.5859C94.092 36.5983 97.3735 37.4396 100.437 39.1101C100.252 39.415 100.168 39.7515 100.185 40.1198C100.784 40.5373 101.457 40.8738 102.204 41.1295C102.71 41.5417 103.046 42.0465 103.214 42.644C103.582 42.6609 103.919 42.5768 104.224 42.3916C104.184 42.7381 104.226 43.0749 104.35 43.4012C105.336 45.1447 106.261 46.9116 107.126 48.702C107.378 49.9522 107.546 51.2143 107.631 52.4883C107.8 52.6567 107.968 52.8248 108.136 52.9931C108.184 52.4358 108.311 51.931 108.515 51.4786C109.378 58.327 107.274 64.0485 102.204 68.6431C102.237 68.4219 102.153 68.2536 101.952 68.1382C101.448 68.6012 100.858 68.8536 100.185 68.8955C100.185 69.1479 100.185 69.4003 100.185 69.6527C98.6777 70.0117 97.2473 70.5587 95.8938 71.2935C95.2206 71.3775 94.5477 71.4618 93.8745 71.5459C93.6632 71.8011 93.5791 72.0956 93.622 72.4293C87.6294 72.3478 81.6554 72.4321 75.7003 72.6818C75.7003 72.5977 75.7003 72.5134 75.7003 72.4293C75.5009 72.1027 75.2485 71.8081 74.9431 71.5459C73.7327 71.0319 72.5547 70.4431 71.4092 69.7789C71.0829 69.6553 70.7461 69.6131 70.3996 69.6527C70.3996 69.4003 70.3996 69.1479 70.3996 68.8955C69.606 68.7259 68.8487 68.4734 68.1278 68.1382C68.1495 67.8868 68.0652 67.6766 67.8754 67.5072C67.0813 67.0889 66.324 66.626 65.6036 66.1189C65.2558 65.2662 64.6669 64.6773 63.8367 64.352C63.8367 64.2679 63.8367 64.1836 63.8367 64.0995C63.5729 63.3309 63.0681 62.8261 62.3222 62.585C62.4262 61.9608 62.1738 61.6243 61.5649 61.5754C61.6689 60.9511 61.4165 60.6146 60.8077 60.5657C60.8077 60.4816 60.8077 60.3973 60.8077 60.3133C60.8481 59.8844 60.8062 59.4636 60.6815 59.0512C60.2347 58.4852 59.6877 58.0647 59.0407 57.7891C59.0407 57.705 59.0407 57.6207 59.0407 57.5367C59.0407 57.0318 59.0407 56.527 59.0407 56.0221C58.7883 56.0221 58.5359 56.0221 58.2835 56.0221C58.3875 55.3979 58.1351 55.0614 57.5262 55.0125C57.5262 54.7601 57.5262 54.5076 57.5262 54.2552C57.114 53.5815 56.8195 52.8243 56.6428 51.9835C56.3876 51.7722 56.093 51.6881 55.7593 51.731C55.7593 51.3103 55.7593 50.8897 55.7593 50.4689C55.5069 50.4689 55.2545 50.4689 55.0021 50.4689C55.0021 50.3849 55.0021 50.3006 55.0021 50.2165C54.8953 49.6408 55.0636 49.22 55.5069 48.9544C55.6752 49.1228 55.8434 49.2909 56.0117 49.4593C56.332 51.0429 57.2577 51.6318 58.7883 51.2262C59.2641 50.6247 59.853 50.162 60.5553 49.8379C60.7451 49.6685 60.8294 49.4583 60.8077 49.2069C61.4157 48.6005 61.9206 47.9273 62.3222 47.1875C62.4905 46.851 62.743 46.5986 63.0794 46.4303C63.606 45.9436 64.153 45.4388 64.7202 44.9157C64.9698 44.2923 65.2641 43.7034 65.6036 43.1488C65.856 42.9805 66.1085 42.8123 66.3609 42.644C67.0707 42.2919 67.4074 41.7027 67.3705 40.877C67.623 40.877 67.8754 40.877 68.1278 40.877C68.3767 40.1216 68.6291 39.3643 68.8851 38.6053C69.2766 37.818 69.529 36.9767 69.6423 36.0811C69.8937 36.1028 70.104 36.0185 70.2734 35.8287C70.398 35.4162 70.4399 34.9954 70.3996 34.5666C71.328 33.6094 71.6644 32.4314 71.4092 31.0327C71.7704 30.9366 71.9807 30.6841 72.0403 30.2755C72.2086 27.0781 72.2086 23.881 72.0403 20.6836C71.8719 20.5152 71.7038 20.3471 71.5354 20.1787C71.6016 19.108 71.2229 18.2667 70.3996 17.6546C70.5195 16.6661 70.267 15.8248 69.6423 15.1304C69.4174 14.9765 69.165 14.8923 68.8851 14.878C68.8851 14.7097 68.8851 14.5414 68.8851 14.3731C68.8851 14.1207 68.8851 13.8683 68.8851 13.6159C68.8851 13.3635 68.8851 13.111 68.8851 12.8586C68.6326 12.8586 68.3802 12.8586 68.1278 12.8586C68.2164 12.0227 67.8799 11.4337 67.1181 11.0917C66.6019 10.7325 66.3495 10.2277 66.3609 9.57718C66.1085 9.57718 65.856 9.57718 65.6036 9.57718C65.3512 9.15647 65.0147 8.81992 64.5939 8.56751C64.6374 8.31721 64.5531 8.14892 64.3415 8.06267C63.8738 6.9287 63.0744 6.42387 61.9436 6.54816C61.8189 6.96064 61.777 7.38134 61.8173 7.81025C61.8173 7.89438 61.8173 7.97854 61.8173 8.06267C61.5755 8.17696 61.365 8.34525 61.1863 8.56751C61.0608 9.15054 61.0189 9.73953 61.0601 10.3344C61.0601 10.5869 61.0601 10.8393 61.0601 11.0917C60.8097 11.5854 60.5573 12.0903 60.3028 12.6062C59.6665 12.9925 59.4141 13.5815 59.5456 14.3731C59.3174 14.5521 59.2333 14.8045 59.2932 15.1304C59.0279 15.3127 58.8595 15.5651 58.7883 15.8876C58.62 15.8876 58.5359 15.9718 58.5359 16.1401C58.0311 16.1401 57.7787 16.3925 57.7787 16.8973C57.7787 17.1497 57.7787 17.4021 57.7787 17.6546C57.2738 17.6546 57.0214 17.907 57.0214 18.4118C56.9373 18.4118 56.853 18.4118 56.769 18.4118C56.5166 18.4118 56.2641 18.4118 56.0117 18.4118C55.6833 18.9601 55.4309 19.549 55.2545 20.1787C55.2545 20.4312 55.2545 20.6836 55.2545 20.936C55.0031 20.9143 54.7928 20.9986 54.6234 21.1884C54.3909 21.9043 54.0964 22.5772 53.74 23.2078C52.9782 23.5498 52.6417 24.1387 52.7303 24.9747C52.7303 25.0588 52.7303 25.1431 52.7303 25.2271C52.0558 25.7044 51.8034 26.3776 51.973 27.2465C51.5242 27.8343 51.2718 28.5075 51.2158 29.2658C50.9679 29.4276 50.7155 29.5957 50.4585 29.7706C50.1099 33.1435 50.1518 36.5092 50.5847 39.8674C50.6814 40.0077 50.8076 40.0918 50.9634 40.1198C51.1317 40.6246 51.2998 41.1295 51.4682 41.6343C51.7534 42.0924 51.9215 42.5973 51.973 43.1488C51.9334 43.4954 51.9756 43.8321 52.0992 44.1585C52.4569 44.3044 52.6672 44.5568 52.7303 44.9157C52.7901 45.2416 52.7061 45.494 52.4779 45.673C52.2989 45.4448 52.0465 45.3608 51.7206 45.4206C51.5523 44.9157 51.2158 44.5793 50.7109 44.4109C50.7109 43.9061 50.4585 43.6537 49.9537 43.6537C49.9537 43.1488 49.7013 42.8964 49.1964 42.8964C49.182 42.6165 49.098 42.364 48.944 42.1391C48.8206 41.4263 48.3998 41.0898 47.6819 41.1295C47.5136 41.1295 47.4295 41.0454 47.4295 40.877C47.0655 40.5439 46.8974 40.1233 46.9247 39.615C46.3358 39.615 45.7466 39.615 45.1577 39.615C45.1577 39.3625 45.1577 39.1101 45.1577 38.8577C44.2377 38.3617 43.3121 37.8569 42.3811 37.3432C41.9071 37.1645 41.4863 36.8702 41.119 36.4597C40.7927 36.336 40.4559 36.2939 40.1094 36.3335C39.941 36.3335 39.7729 36.3335 39.6045 36.3335C39.6262 36.0821 39.5419 35.8718 39.3521 35.7025C38.9397 35.5778 38.5189 35.5359 38.09 35.5763C38.0479 29.6858 38.09 23.7962 38.2162 17.907C38.5164 15.8095 38.9793 13.7902 39.6045 11.8489C40.1318 10.2673 41.0996 9.00522 42.5073 8.06267C42.6939 7.62838 42.9044 7.20768 43.1384 6.80058C44.007 6.08065 44.9326 5.49169 45.915 5.03365C45.915 4.78123 45.915 4.52881 45.915 4.27639C47.0395 4.11437 48.1332 3.86195 49.1964 3.51914C49.1964 3.18259 49.1964 2.84602 49.1964 2.50947C52.8275 1.47384 56.5297 1.22143 60.3028 1.75221Z" fill="#B8D8F0" fill-opacity="0.5"/>
<path opacity="0.835" fill-rule="evenodd" clip-rule="evenodd" d="M60.3021 1.75195C61.0927 1.96903 61.8499 2.22145 62.5738 2.50921C61.1987 2.79954 59.8523 2.67333 58.5352 2.13058C59.1753 2.08358 59.7642 1.95737 60.3021 1.75195Z" fill="#B8D8F0" fill-opacity="0.5"/>
<path opacity="0.71" fill-rule="evenodd" clip-rule="evenodd" d="M49.1992 2.50977C49.1992 2.84631 49.1992 3.18289 49.1992 3.51944C48.136 3.86225 47.0423 4.11467 45.9178 4.27669C45.9178 4.52911 45.9178 4.78153 45.9178 5.03395C44.9354 5.49199 44.0098 6.08095 43.1412 6.80088C42.9072 7.20798 42.6967 7.62868 42.5101 8.06297C41.1024 9.00552 40.1346 10.2676 39.6073 11.8492C39.4079 12.129 39.2817 12.4656 39.2287 12.8589C39.0343 13.1361 38.8241 13.1361 38.5977 12.8589C40.4656 7.70966 43.9994 4.25996 49.1992 2.50977Z" fill="#B8D8F0" fill-opacity="0.5"/>
<path opacity="0.631" fill-rule="evenodd" clip-rule="evenodd" d="M62.828 2.50977C67.1668 4.00115 70.3642 6.77775 72.4199 10.8396C71.8257 11.0903 71.5733 10.8379 71.6626 10.0823C71.3289 10.1252 71.0344 10.0411 70.7792 9.82989C70.7125 8.67425 70.1656 7.91699 69.1385 7.55813C69.1937 7.26154 69.1097 7.00912 68.886 6.80088C68.2399 6.35326 67.651 5.84843 67.1191 5.28637C66.7226 5.08206 66.3018 4.99793 65.857 5.03395C65.857 4.78153 65.857 4.52911 65.857 4.27669C65.3522 4.27669 64.8474 4.27669 64.3425 4.27669C64.3425 4.02428 64.3425 3.77186 64.3425 3.51944C63.8147 3.56528 63.3099 3.48112 62.828 3.26702C62.5599 3.03363 62.5599 2.78122 62.828 2.50977Z" fill="#B8D8F0" fill-opacity="0.5"/>
<path fill-rule="evenodd" clip-rule="evenodd" d="M61.8155 8.06445C61.9084 8.9591 61.656 9.71635 61.0582 10.3362C61.0171 9.74132 61.059 9.15233 61.1845 8.56929C61.3632 8.34704 61.5737 8.17875 61.8155 8.06445Z" fill="#B8D8F0" fill-opacity="0.5"/>
<path fill-rule="evenodd" clip-rule="evenodd" d="M67.1172 11.0918C67.879 11.4338 68.2155 12.0228 68.1269 12.8587C68.3793 12.8587 68.6317 12.8587 68.8841 12.8587C68.8841 13.1111 68.8841 13.3636 68.8841 13.616C68.5476 13.4477 68.2109 13.2794 67.8744 13.1111C67.8744 13.027 67.8744 12.9429 67.8744 12.8587C67.7293 12.3763 67.4769 11.9556 67.1172 11.5966C67.1172 11.4283 67.1172 11.2601 67.1172 11.0918Z" fill="#B8D8F0" fill-opacity="0.5"/>
<path fill-rule="evenodd" clip-rule="evenodd" d="M60.3028 12.6055C60.2073 13.2166 60.039 13.8055 59.7979 14.3724C59.7139 14.3724 59.6296 14.3724 59.5455 14.3724C59.414 13.5807 59.6664 12.9918 60.3028 12.6055Z" fill="#B8D8F0" fill-opacity="0.5"/>
<path fill-rule="evenodd" clip-rule="evenodd" d="M65.8551 23.9667C65.8551 24.0508 65.8551 24.1351 65.8551 24.2191C65.2304 24.5187 64.978 25.0236 65.0978 25.7336C65.0978 26.0701 65.0978 26.4068 65.0978 26.7433C64.7695 27.0311 64.4749 27.3675 64.2144 27.753C64.0957 29.2683 63.5909 30.6144 62.6999 31.7917C62.5744 32.4596 62.5323 33.1328 62.5737 33.811C62.087 34.3868 61.8346 35.0597 61.8164 35.8304C61.5723 36.16 61.2356 36.3284 60.8067 36.3352C60.464 37.3984 60.2115 38.4921 60.0495 39.6166C59.553 40.3514 59.3006 41.1927 59.2922 42.1408C59.2922 42.2249 59.2922 42.3092 59.2922 42.3932C58.8692 42.5656 58.7008 42.9024 58.7874 43.4029C58.7033 43.5713 58.619 43.7394 58.535 43.9078C58.2949 43.5496 58.2109 43.129 58.2826 42.6457C58.2826 41.9725 58.2826 41.2995 58.2826 40.6263C58.2826 40.5423 58.2826 40.458 58.2826 40.3739C58.4466 40.2972 58.615 40.2131 58.7874 40.1215C59.0348 39.4687 59.1188 38.7955 59.0398 38.1021C59.0398 38.0181 59.0398 37.9338 59.0398 37.8497C59.5903 37.2782 59.9271 36.605 60.0495 35.8304C60.2706 35.8634 60.439 35.7794 60.5543 35.578C60.626 34.7096 60.9206 33.9524 61.4378 33.3062C61.5635 32.5535 61.6056 31.7962 61.564 31.0344C61.564 30.9504 61.564 30.8661 61.564 30.782C62.1531 30.359 62.4056 29.7701 62.3212 29.0151C62.3212 28.931 62.3212 28.8467 62.3212 28.7627C62.9957 28.2853 63.2481 27.6121 63.0785 26.7433C63.0538 26.2251 63.2221 25.8043 63.5833 25.4812C63.9963 24.5447 64.1644 23.5351 64.0882 22.4522C64.5223 21.9075 64.7326 21.2343 64.7192 20.4329C64.8033 17.7403 64.8876 15.0479 64.9716 12.3555C65.0098 13.0166 65.2203 13.6056 65.6027 14.1224C65.8549 17.3995 65.9389 20.681 65.8551 23.9667Z" fill="#B8D8F0" fill-opacity="0.5"/>
<path fill-rule="evenodd" clip-rule="evenodd" d="M64.5946 10.3349C64.6577 10.8837 64.9102 11.3044 65.3519 11.597C65.2842 12.0006 65.3685 12.3372 65.6043 12.6067C65.9625 13.4939 66.1309 14.4194 66.1091 15.3833C66.1091 17.7391 66.1091 20.0952 66.1091 22.451C66.1836 23.0151 66.0993 23.52 65.8567 23.9655C65.9405 20.6798 65.8565 17.3983 65.6043 14.1212C65.2219 13.6044 65.0114 13.0154 64.9733 12.3543C64.8892 15.0467 64.8049 17.7391 64.7208 20.4316C64.7342 21.2331 64.524 21.9063 64.0898 22.451C64.2539 21.9626 64.3379 21.4577 64.3422 20.9365C64.3422 20.6 64.3422 20.2633 64.3422 19.9268C64.6345 17.6154 64.6764 15.2594 64.4684 12.8591C64.3256 12.2981 64.115 11.7932 63.8374 11.3446C63.8374 11.2605 63.8374 11.1763 63.8374 11.0922C63.7654 10.6408 63.8495 10.2201 64.0898 9.83008C64.2619 10.0175 64.4303 10.1858 64.5946 10.3349Z" fill="#B8D8F0" fill-opacity="0.5"/>
<path fill-rule="evenodd" clip-rule="evenodd" d="M69.6426 15.1328C70.2673 15.8272 70.5197 16.6686 70.3998 17.657C70.1494 17.1633 69.897 16.6584 69.6426 16.1425C69.6426 15.8059 69.6426 15.4694 69.6426 15.1328Z" fill="#B8D8F0" fill-opacity="0.5"/>
<path opacity="0.409" fill-rule="evenodd" clip-rule="evenodd" d="M38.3442 13.1152C38.5098 13.3983 38.5939 13.7349 38.5966 14.1249C38.5366 15.1852 38.3263 16.1949 37.9656 17.1539C37.9232 22.5819 37.797 27.9668 37.587 33.3087C37.3202 27.4988 37.3621 21.6932 37.7132 15.8918C37.9643 14.9717 38.1746 14.0462 38.3442 13.1152Z" fill="#DFEDF1"/>
<path opacity="0.576" fill-rule="evenodd" clip-rule="evenodd" d="M72.418 10.8398C73.3168 12.4832 73.9479 14.2501 74.3111 16.1406C74.4373 19.0843 74.4795 22.0293 74.4373 24.9753C74.269 25.0593 74.1008 25.1436 73.9325 25.2277C73.9746 22.3658 73.9325 19.5049 73.8063 16.6455C73.3807 15.6095 73.1704 14.5156 73.1752 13.364C72.9228 13.364 72.6704 13.364 72.418 13.364C72.418 12.5226 72.418 11.6812 72.418 10.8398Z" fill="#B8D8F0" fill-opacity="0.5"/>
<path opacity="0.997" fill-rule="evenodd" clip-rule="evenodd" d="M39.6072 11.8516C38.982 13.7928 38.5191 15.8121 38.2189 17.9096C38.0927 23.7988 38.0506 29.6884 38.0927 35.5789C38.5216 35.5385 38.9424 35.5804 39.3548 35.7051C39.5446 35.8745 39.6289 36.0847 39.6072 36.3361C38.8929 36.2872 38.2199 36.1188 37.5879 35.8313C37.5879 34.99 37.5879 34.1484 37.5879 33.3071C37.7979 27.9652 37.9241 22.5803 37.9665 17.1523C38.3272 16.1933 38.5375 15.1836 38.5976 14.1233C38.5948 13.7333 38.5107 13.3968 38.3451 13.1137C38.3451 12.9454 38.4292 12.8612 38.5976 12.8612C38.824 13.1384 39.0342 13.1384 39.2286 12.8612C39.2816 12.4679 39.4078 12.1314 39.6072 11.8516Z" fill="#B8D8F0" fill-opacity="0.5"/>
<path fill-rule="evenodd" clip-rule="evenodd" d="M56.7704 18.4102C56.5159 18.9261 56.2635 19.4309 56.0131 19.9247C55.7332 19.9391 55.4808 20.0231 55.2559 20.1771C55.4323 19.5473 55.6847 18.9584 56.0131 18.4102C56.2655 18.4102 56.518 18.4102 56.7704 18.4102Z" fill="#B8D8F0" fill-opacity="0.5"/>
<path fill-rule="evenodd" clip-rule="evenodd" d="M56.0131 19.9258C55.7577 20.2721 55.5052 20.6086 55.2559 20.9355C55.2559 20.683 55.2559 20.4306 55.2559 20.1782C55.4808 20.0242 55.7332 19.9402 56.0131 19.9258Z" fill="#B8D8F0" fill-opacity="0.5"/>
<path fill-rule="evenodd" clip-rule="evenodd" d="M55.2528 20.935C54.9751 21.2139 54.8068 21.5504 54.748 21.9446C54.748 22.0287 54.748 22.113 54.748 22.1971C54.5024 22.6108 54.1659 22.9475 53.7383 23.2067C54.0947 22.5762 54.3893 21.9033 54.6217 21.1874C54.7911 20.9976 55.0014 20.9133 55.2528 20.935Z" fill="#B8D8F0" fill-opacity="0.5"/>
<path fill-rule="evenodd" clip-rule="evenodd" d="M53.7403 23.2109C53.7403 23.3793 53.7403 23.5474 53.7403 23.7158C53.2256 24.0116 52.8892 24.4321 52.7306 24.9779C52.642 24.1419 52.9785 23.553 53.7403 23.2109Z" fill="#B8D8F0" fill-opacity="0.5"/>
<path fill-rule="evenodd" clip-rule="evenodd" d="M70.4004 17.6543C71.2238 18.2664 71.6024 19.1077 71.5363 20.1785C71.7046 20.3468 71.8727 20.515 72.0411 20.6833C72.2095 23.8807 72.2095 27.0778 72.0411 30.2752C71.9815 30.6839 71.7713 30.9363 71.4101 31.0325C71.8081 29.4758 71.9765 27.877 71.9149 26.2365C71.8727 24.9744 71.8308 23.7123 71.7887 22.4502C71.7301 22.138 71.6039 21.8856 71.4101 21.693C71.296 20.7684 71.1698 19.8428 71.0314 18.9164C70.8527 18.694 70.6422 18.5259 70.4004 18.4116C70.4004 18.1591 70.4004 17.9067 70.4004 17.6543Z" fill="#B8D8F0" fill-opacity="0.5"/>
<path fill-rule="evenodd" clip-rule="evenodd" d="M53.2319 25.2246C53.3518 25.9347 53.0993 26.4395 52.4746 26.7391C52.729 26.2232 52.9815 25.7183 53.2319 25.2246Z" fill="#B8D8F0" fill-opacity="0.5"/>
<path fill-rule="evenodd" clip-rule="evenodd" d="M61.5653 31.0352C61.6069 31.797 61.5648 32.5542 61.4391 33.3069C60.9219 33.9531 60.6273 34.7104 60.5556 35.5787C60.4403 35.7801 60.2719 35.8642 60.0508 35.8311C60.3383 35.199 60.5066 34.5261 60.5556 33.8118C60.9037 32.8803 61.2402 31.955 61.5653 31.0352Z" fill="#B8D8F0" fill-opacity="0.5"/>
<path opacity="0.914" fill-rule="evenodd" clip-rule="evenodd" d="M37.5849 35.8301C38.217 36.1176 38.8899 36.2859 39.6043 36.3349C39.7726 36.3349 39.9407 36.3349 40.1091 36.3349C40.4049 36.8496 40.8255 37.1861 41.3712 37.3446C40.776 37.4069 40.2712 37.2388 39.8567 36.8398C39.2196 36.5116 38.5464 36.5116 37.8373 36.8398C38.1872 37.4057 38.692 37.7421 39.3518 37.8494C39.5308 38.0776 39.7832 38.1617 40.1091 38.1018C40.4456 38.5226 40.7823 38.9432 41.1188 39.3639C40.9504 39.3639 40.7823 39.3639 40.6139 39.3639C39.9359 38.769 39.1787 38.2641 38.3422 37.8494C38.2581 37.8494 38.1738 37.8494 38.0898 37.8494C37.7533 37.4286 37.4166 37.0081 37.0801 36.5873C37.2484 36.3349 37.4166 36.0825 37.5849 35.8301Z" fill="#B8D8F0" fill-opacity="0.5"/>
<path fill-rule="evenodd" clip-rule="evenodd" d="M19.9165 36.5853C19.9445 36.741 20.0286 36.8672 20.1689 36.9639C25.6381 37.048 31.107 37.1323 36.5761 37.2163C36.9946 37.6361 37.4994 37.8464 38.0906 37.8474C38.1747 37.8474 38.259 37.8474 38.343 37.8474C38.7078 38.2596 39.0445 38.7223 39.3527 39.2357C39.7652 39.3604 40.1859 39.4023 40.6148 39.3619C40.7832 39.3619 40.9513 39.3619 41.1196 39.3619C41.1012 39.7473 41.2696 39.9998 41.6245 40.1192C41.6245 40.3716 41.6245 40.624 41.6245 40.8764C41.8769 40.8764 42.1293 40.8764 42.3817 40.8764C42.3264 41.173 42.4105 41.4254 42.6341 41.6337C43.4744 42.14 44.2317 42.7289 44.9059 43.4006C45.6071 44.665 46.3644 45.927 47.1777 47.1869C47.3859 47.4105 47.6383 47.4946 47.9349 47.4393C48.5692 48.1816 49.1584 48.9389 49.7019 49.711C49.7019 50.0475 49.7019 50.3842 49.7019 50.7207C49.8392 51.2457 50.0497 51.7506 50.3329 52.2352C50.5881 52.4465 50.8827 52.5306 51.2164 52.4876C51.1517 53.0662 51.2358 53.6132 51.4688 54.1284C51.2295 54.2503 50.9771 54.2922 50.7115 54.2546C50.3117 53.3815 49.7228 52.6242 48.9446 51.9828C48.548 51.7786 48.1273 51.6943 47.6825 51.7304C47.7042 51.479 47.6199 51.2687 47.4301 51.0993C46.636 50.6811 45.8787 50.2182 45.1583 49.711C44.9059 49.5427 44.6535 49.3746 44.4011 49.2062C44.4086 48.9545 44.2824 48.7862 44.0224 48.7014C43.3467 48.5191 42.7157 48.2667 42.1293 47.9441C41.9609 47.9441 41.7928 47.9441 41.6245 47.9441C41.3741 47.9875 41.206 47.9032 41.1196 47.6917C41.1002 47.3762 40.9318 47.1659 40.6148 47.0607C40.2023 46.936 39.7816 46.8941 39.3527 46.9344C39.3527 46.682 39.3527 46.4296 39.3527 46.1772C36.8182 45.7991 34.294 45.8412 31.7802 46.3034C31.5903 46.4728 31.506 46.683 31.5277 46.9344C30.9351 46.9577 30.5145 47.2101 30.2656 47.6917C30.1816 47.6917 30.0973 47.6917 30.0132 47.6917C28.894 47.9575 27.8 48.294 26.7318 48.7014C25.9834 48.9904 25.2261 49.2847 24.46 49.5848C24.2702 49.7542 24.1859 49.9645 24.2076 50.2159C23.7028 50.2159 23.4503 50.4683 23.4503 50.9731C22.9455 50.9731 22.4407 50.9731 21.9358 50.9731C21.9358 51.2256 21.9358 51.478 21.9358 51.7304C21.3469 51.7304 20.7578 51.7304 20.1689 51.7304C20.1689 51.9828 20.1689 52.2352 20.1689 52.4876C20.0826 52.6992 19.9145 52.7835 19.6641 52.7401C18.8934 52.7582 18.2205 53.0107 17.6447 53.4973C17.1399 53.4973 16.6351 53.4973 16.1302 53.4973C14.2792 53.4973 12.4281 53.4973 10.577 53.4973C9.47998 53.4554 8.38618 53.4976 7.29558 53.6235C6.87626 54.4186 7.12868 54.7973 8.05283 54.7594C8.05283 55.0118 8.05283 55.2642 8.05283 55.5167C8.38938 55.5167 8.72596 55.5167 9.06251 55.5167C9.2308 55.5167 9.39906 55.5167 9.56734 55.5167C9.56734 55.685 9.65148 55.7691 9.81976 55.7691C9.88807 56.2562 10.1405 56.593 10.577 56.7788C10.3246 56.7788 10.0722 56.7788 9.81976 56.7788C9.80378 57.8594 10.3086 58.5326 11.3343 58.7981C11.5867 58.7981 11.8391 58.7981 12.0915 58.7981C12.0915 59.1346 12.0915 59.4713 12.0915 59.8078C12.815 60.1256 13.5722 60.378 14.3633 60.565C14.3633 60.8174 14.3633 61.0699 14.3633 61.3223C14.6998 61.3223 15.0364 61.3223 15.373 61.3223C15.4571 61.3223 15.5413 61.3223 15.6254 61.3223C15.607 61.7077 15.7752 61.9601 16.1302 62.0795C16.6045 62.9653 17.3618 63.3017 18.402 63.0892C18.486 63.0892 18.5703 63.0892 18.6544 63.0892C18.7034 63.698 19.0398 63.9505 19.6641 63.8465C19.6641 64.0989 19.6641 64.3513 19.6641 64.6037C20.0849 64.6037 20.5054 64.6037 20.9262 64.6037C21.2626 64.6037 21.5994 64.6037 21.9358 64.6037C21.9005 65.0136 22.0689 65.308 22.4407 65.4872C23.6106 65.4844 24.7046 65.7368 25.7221 66.2444C28.5815 66.3706 31.4424 66.4128 34.3043 66.3706C35.3175 66.4126 36.3272 66.3704 37.3334 66.2444C38.7116 65.7595 40.1418 65.4228 41.6245 65.2348C41.8143 65.0654 41.8986 64.8551 41.8769 64.6037C42.1293 64.6037 42.3817 64.6037 42.6341 64.6037C43.5171 64.7413 44.2744 64.531 44.9059 63.9727C46.4431 63.6491 47.9576 63.2704 49.4494 62.8368C50.004 62.3274 50.6772 62.0328 51.4688 61.9533C51.6586 61.784 51.7429 61.5737 51.7212 61.3223C52.5244 61.1885 53.2816 60.9361 53.993 60.565C54.4137 60.565 54.8343 60.565 55.2551 60.565C55.2551 60.8174 55.2551 61.0699 55.2551 61.3223C55.5075 61.3223 55.7599 61.3223 56.0123 61.3223C56.1042 62.1555 56.3988 62.9128 56.8958 63.594C57.151 63.8053 57.4455 63.8894 57.7792 63.8465C57.7792 64.0989 57.7792 64.3513 57.7792 64.6037C58.0317 64.6037 58.2841 64.6037 58.5365 64.6037C58.873 65.1086 59.2937 65.5293 59.7986 65.8658C59.8849 66.0773 60.053 66.1616 60.3034 66.1182C60.3034 66.3706 60.3034 66.6231 60.3034 66.8755C61.0316 67.0981 61.7048 67.4348 62.3228 67.8852C62.3717 68.494 62.7082 68.7464 63.3324 68.6424C63.2994 68.8289 63.3415 68.9973 63.4586 69.1472C63.7873 69.2949 64.0819 69.463 64.3421 69.6521C64.3421 69.9045 64.3421 70.1569 64.3421 70.4093C64.8469 70.4093 65.3518 70.4093 65.8566 70.4093C66.2029 70.6648 66.5394 70.9172 66.8663 71.1666C66.8446 71.418 66.9289 71.6283 67.1187 71.7976C67.7505 71.8302 68.2554 72.0826 68.6332 72.5549C69.8827 72.93 71.1448 73.2243 72.4195 73.4384C72.865 73.6809 73.3699 73.7652 73.934 73.6908C73.8919 78.6556 73.934 83.6199 74.0602 88.5835C74.1304 88.8147 74.2566 88.9828 74.4388 89.0883C74.403 91.594 73.9825 94.0342 73.1768 96.4084C72.9945 96.3029 72.8683 96.1348 72.7981 95.9036C72.4569 96.4321 72.3306 97.021 72.4195 97.6705C71.0067 99.552 69.4081 101.361 67.6235 103.098C67.173 103.659 66.5841 103.954 65.8566 103.981C65.8566 104.233 65.8566 104.486 65.8566 104.738C63.7487 105.373 61.6453 106.004 59.5462 106.631C59.4308 106.736 59.3465 106.862 59.2937 107.01C59.4813 107.182 59.6494 107.35 59.7986 107.515C56.9728 107.886 54.1962 107.802 51.4688 107.262C52.0637 107.304 52.6526 107.262 53.2357 107.136C52.1909 106.75 51.0972 106.498 49.9543 106.379C48.516 105.784 47.1696 105.027 45.9156 104.107C45.4176 103.982 44.9127 103.94 44.4011 103.981C44.4011 103.729 44.4011 103.476 44.4011 103.224C44.1486 103.224 43.8962 103.224 43.6438 103.224C43.6438 102.887 43.6438 102.551 43.6438 102.214C43.3472 102.269 43.0948 102.185 42.8866 101.962C42.433 101.66 42.1805 101.239 42.1293 100.7C41.7928 100.7 41.4561 100.7 41.1196 100.7C41.1196 100.195 41.1196 99.6899 41.1196 99.185C40.8672 99.185 40.6148 99.185 40.3624 99.185C40.3624 98.6802 40.3624 98.1753 40.3624 97.6705C40.11 97.6705 39.8575 97.6705 39.6051 97.6705C39.0455 95.7314 38.6669 93.7121 38.4692 91.6125C38.3009 91.4441 38.1328 91.276 37.9644 91.1076C37.922 85.6796 37.7958 80.2948 37.5858 74.9529C37.6274 74.1911 37.5853 73.4338 37.4596 72.6811C36.8586 72.4451 36.2275 72.361 35.5664 72.4287C30.0561 72.2187 24.5029 72.0925 18.9068 72.0501C18.1836 71.473 17.3423 71.2625 16.3826 71.419C15.9537 71.4594 15.533 71.4175 15.1205 71.2928C13.413 70.5027 11.7302 69.7033 10.0722 68.8948C9.89965 68.9865 9.73139 69.0705 9.56734 69.1472C9.39906 69.1472 9.31493 69.0632 9.31493 68.8948C9.2308 67.9692 8.72596 67.4644 7.80042 67.3803C7.624 66.7505 7.37158 66.1616 7.04316 65.6134C6.70661 65.6134 6.37004 65.6134 6.03349 65.6134C6.03349 65.1086 6.03349 64.6037 6.03349 64.0989C5.78107 64.0989 5.52865 64.0989 5.27623 64.0989C5.31715 63.5872 5.2751 63.0824 5.15002 62.5844C4.70317 61.8458 4.28246 61.0885 3.88793 60.3126C3.86989 59.076 3.61747 57.898 3.13068 56.7788C3.07767 57.172 2.95146 57.5085 2.75205 57.7884C2.75205 57.7044 2.75205 57.6201 2.75205 57.536C2.71007 55.8511 2.75215 54.1682 2.87826 52.4876C2.96239 52.656 3.04655 52.8241 3.13068 52.9925C3.34836 52.5919 3.51665 52.1711 3.63552 51.7304C3.67906 50.6271 3.80527 49.5333 4.01414 48.449C4.16206 48.3962 4.28827 48.3119 4.39277 48.1965C4.4216 47.0102 4.71609 45.9162 5.27623 44.9151C5.52865 44.9151 5.78107 44.9151 6.03349 44.9151C6.03349 44.4103 6.03349 43.9054 6.03349 43.4006C6.66322 43.2241 7.25219 42.9717 7.80042 42.6433C7.85166 42.1037 8.10408 41.6829 8.55767 41.3812C9.41284 40.9365 10.2543 40.5157 11.0819 40.1192C11.0819 39.8667 11.0819 39.6143 11.0819 39.3619C11.5108 39.4023 11.9315 39.3604 12.3439 39.2357C12.8276 38.777 13.4166 38.4825 14.1109 38.3522C14.4368 38.093 14.4368 37.8406 14.1109 37.595C15.9703 36.87 17.9055 36.5333 19.9165 36.5853Z" fill="#B8D8F0" fill-opacity="0.5"/>
<path fill-rule="evenodd" clip-rule="evenodd" d="M40.1094 36.3347C40.4559 36.2951 40.7927 36.3372 41.119 36.4609C41.4863 36.8714 41.9071 37.1657 42.3811 37.3444C42.0447 37.3444 41.7079 37.3444 41.3715 37.3444C40.8257 37.1859 40.4052 36.8494 40.1094 36.3347Z" fill="#B8D8F0" fill-opacity="0.5"/>
<path opacity="0.763" fill-rule="evenodd" clip-rule="evenodd" d="M74.4374 24.9766C74.3556 28.8247 74.4397 32.6529 74.6898 36.4616C79.9899 36.5878 85.2907 36.63 90.5922 36.5878C87.9471 36.924 85.2127 37.0924 82.3886 37.0926C79.6542 37.0505 76.9195 37.0086 74.185 36.9664C73.9349 33.0736 73.8508 29.1612 73.9326 25.229C74.101 25.1449 74.2691 25.0606 74.4374 24.9766Z" fill="#B8D8F0" fill-opacity="0.5"/>
<path opacity="0.999" fill-rule="evenodd" clip-rule="evenodd" d="M19.918 36.5859C25.6395 36.5859 31.3608 36.5859 37.0824 36.5859C37.4189 37.0067 37.7556 37.4272 38.0921 37.848C37.5009 37.847 36.9961 37.6368 36.5776 37.217C31.1084 37.1329 25.6395 37.0486 20.1704 36.9646C20.03 36.8679 19.946 36.7417 19.918 36.5859Z" fill="#B8D8F0" fill-opacity="0.5"/>
<path fill-rule="evenodd" clip-rule="evenodd" d="M51.2172 29.2695C51.2172 29.3536 51.2172 29.4379 51.2172 29.5219C51.2172 29.606 51.2172 29.6903 51.2172 29.7744C50.8471 29.9882 50.6366 30.3246 50.5861 30.784C50.3779 33.2683 50.42 35.7085 50.7123 38.1042C50.6447 38.5078 50.729 38.8443 50.9647 39.1138C50.9647 39.4503 50.9647 39.787 50.9647 40.1235C50.809 40.0955 50.6828 40.0114 50.5861 39.8711C50.1532 36.5129 50.1113 33.1472 50.4599 29.7744C50.7169 29.5994 50.9693 29.4313 51.2172 29.2695Z" fill="#B8D8F0" fill-opacity="0.5"/>
<path fill-rule="evenodd" clip-rule="evenodd" d="M41.3672 37.6001C41.3672 37.516 41.3672 37.4317 41.3672 37.3477C41.7037 37.3477 42.0404 37.3477 42.3769 37.3477C42.3438 37.5342 42.3859 37.7026 42.5031 37.8525C42.8317 38.0002 43.1263 38.1683 43.3865 38.3573C43.3025 38.3573 43.2182 38.3573 43.1341 38.3573C42.8817 38.3573 42.6293 38.3573 42.3769 38.3573C42.1845 37.9126 41.8478 37.6602 41.3672 37.6001Z" fill="#B8D8F0" fill-opacity="0.5"/>
<path fill-rule="evenodd" clip-rule="evenodd" d="M61.8177 35.8301C61.8177 35.9984 61.8177 36.1666 61.8177 36.3349C61.8177 36.419 61.8177 36.5033 61.8177 36.5873C61.566 36.5798 61.3977 36.706 61.3129 36.966C61.0016 37.879 60.6649 38.7624 60.3032 39.6164C60.2191 39.6164 60.1348 39.6164 60.0508 39.6164C60.2128 38.4918 60.4653 37.3981 60.808 36.3349C61.2369 36.3281 61.5736 36.1597 61.8177 35.8301Z" fill="#B8D8F0" fill-opacity="0.5"/>
<path fill-rule="evenodd" clip-rule="evenodd" d="M42.38 37.3477C43.311 37.8613 44.2366 38.3662 45.1566 38.8622C45.1566 39.1146 45.1566 39.367 45.1566 39.6194C44.9883 39.5354 44.8202 39.4511 44.6518 39.367C44.2373 39.0381 43.8166 38.7016 43.3897 38.3573C43.1295 38.1683 42.8349 38.0002 42.5063 37.8525C42.3891 37.7026 42.347 37.5342 42.38 37.3477Z" fill="#B8D8F0" fill-opacity="0.5"/>
<path opacity="0.976" fill-rule="evenodd" clip-rule="evenodd" d="M14.1145 37.5918C14.4405 37.8374 14.4405 38.0898 14.1145 38.3491C13.4202 38.4793 12.8312 38.7739 12.3476 39.2325C11.9351 39.3572 11.5144 39.3991 11.0855 39.3587C11.0855 39.6111 11.0855 39.8636 11.0855 40.116C10.2579 40.5125 9.41646 40.9333 8.56129 41.3781C8.1077 41.6797 7.85528 42.1005 7.80404 42.6402C7.25581 42.9686 6.66684 43.221 6.03711 43.3974C8.09323 40.6001 10.7857 38.6648 14.1145 37.5918Z" fill="#B8D8F0" fill-opacity="0.5"/>
<path fill-rule="evenodd" clip-rule="evenodd" d="M38.3457 37.8477C39.1822 38.2624 39.9395 38.7672 40.6175 39.3622C40.1886 39.4026 39.7678 39.3607 39.3554 39.236C39.0472 38.7225 38.7104 38.2599 38.3457 37.8477Z" fill="#B8D8F0" fill-opacity="0.5"/>
<path fill-rule="evenodd" clip-rule="evenodd" d="M68.8836 38.6074C68.6276 39.3664 68.3752 40.1237 68.1263 40.8792C67.8739 40.8792 67.6215 40.8792 67.369 40.8792C67.4059 41.7048 67.0692 42.294 66.3594 42.6461C66.3594 42.3096 66.3594 41.9729 66.3594 41.6364C66.6108 41.6581 66.821 41.5738 66.9904 41.384C67.3552 40.7303 67.6497 40.0571 67.8739 39.3647C68.2104 39.1123 68.5471 38.8598 68.8836 38.6074Z" fill="#B8D8F0" fill-opacity="0.5"/>
<path fill-rule="evenodd" clip-rule="evenodd" d="M41.1225 39.3652C41.4589 39.5336 41.7113 39.786 41.8797 40.1225C41.7957 40.1225 41.7113 40.1225 41.6273 40.1225C41.2724 40.0031 41.104 39.7507 41.1225 39.3652Z" fill="#B8D8F0" fill-opacity="0.5"/>
<path fill-rule="evenodd" clip-rule="evenodd" d="M45.1582 39.6152C45.7471 39.6152 46.3362 39.6152 46.9251 39.6152C46.8979 40.1236 47.066 40.5441 47.43 40.8773C47.2616 40.8773 47.0935 40.8773 46.9251 40.8773C46.6513 40.3505 46.2307 40.0141 45.663 39.8677C45.4126 39.9111 45.2445 39.8268 45.1582 39.6152Z" fill="#B8D8F0" fill-opacity="0.5"/>
<path opacity="0.69" fill-rule="evenodd" clip-rule="evenodd" d="M100.438 39.1094C101.93 39.9277 103.192 41.0214 104.224 42.3908C103.919 42.5761 103.583 42.6601 103.215 42.6432C103.047 42.0458 102.711 41.5409 102.205 41.1287C101.458 40.873 100.785 40.5365 100.186 40.119C100.169 39.7508 100.253 39.4143 100.438 39.1094Z" fill="#B8D8F0" fill-opacity="0.5"/>
<path fill-rule="evenodd" clip-rule="evenodd" d="M46.9258 40.8809C47.0941 40.8809 47.2623 40.8809 47.4306 40.8809C47.4306 41.0492 47.5147 41.1333 47.683 41.1333C47.683 41.2173 47.683 41.3016 47.683 41.3857C47.2976 41.4041 47.0452 41.2358 46.9258 40.8809Z" fill="#B8D8F0" fill-opacity="0.5"/>
<path fill-rule="evenodd" clip-rule="evenodd" d="M41.625 40.1172C41.7091 40.1172 41.7934 40.1172 41.8774 40.1172C42.8767 41.0403 43.8864 41.9659 44.9064 42.8938C44.9064 43.0622 44.9064 43.2303 44.9064 43.3986C44.2322 42.7269 43.475 42.138 42.6347 41.6317C42.411 41.4235 42.327 41.171 42.3823 40.8744C42.1298 40.8744 41.8774 40.8744 41.625 40.8744C41.625 40.622 41.625 40.3696 41.625 40.1172Z" fill="#B8D8F0" fill-opacity="0.5"/>
<path fill-rule="evenodd" clip-rule="evenodd" d="M47.6855 41.3806C47.6855 41.2965 47.6855 41.2122 47.6855 41.1281C48.4034 41.0885 48.8242 41.425 48.9476 42.1378C48.7793 42.1378 48.6112 42.1378 48.4428 42.1378C48.4428 41.633 48.1904 41.3806 47.6855 41.3806Z" fill="#B8D8F0" fill-opacity="0.5"/>
<path fill-rule="evenodd" clip-rule="evenodd" d="M58.2843 42.6445C58.2126 43.1279 58.2967 43.5484 58.5367 43.9066C58.5367 44.159 58.5367 44.4115 58.5367 44.6639C58.2851 44.6563 58.1167 44.7825 58.0319 45.0425C57.8244 45.6569 57.7401 46.2879 57.7795 46.9356C57.49 45.8891 57.4478 44.7951 57.6533 43.6542C57.8067 43.2589 58.0173 42.9222 58.2843 42.6445Z" fill="#B8D8F0" fill-opacity="0.5"/>
<path fill-rule="evenodd" clip-rule="evenodd" d="M46.1693 44.4121C46.5242 44.5315 46.6926 44.7839 46.6742 45.1694C46.3193 45.05 46.1509 44.7976 46.1693 44.4121Z" fill="#B8D8F0" fill-opacity="0.5"/>
<path fill-rule="evenodd" clip-rule="evenodd" d="M51.9773 43.1504C52.1287 43.5038 52.3812 43.7562 52.7346 43.9076C52.9478 44.2032 53.116 44.54 53.2394 44.9173C53.5246 45.3755 53.6927 45.8803 53.7442 46.4318C53.301 45.9903 52.9645 45.4855 52.7346 44.9173C52.6714 44.5584 52.4612 44.306 52.1035 44.1601C51.9798 43.8337 51.9377 43.497 51.9773 43.1504Z" fill="#B8D8F0" fill-opacity="0.5"/>
<path fill-rule="evenodd" clip-rule="evenodd" d="M46.6699 45.1699C46.754 45.1699 46.8383 45.1699 46.9223 45.1699C47.2 45.4488 47.3684 45.7853 47.4272 46.1796C47.4272 46.348 47.4272 46.5161 47.4272 46.6844C47.0559 46.2513 46.8035 45.7464 46.6699 45.1699Z" fill="#B8D8F0" fill-opacity="0.5"/>
<path fill-rule="evenodd" clip-rule="evenodd" d="M39.3556 46.9343C38.8374 46.959 38.4166 46.7907 38.0936 46.4295C36.3718 46.1379 34.6049 46.096 32.7928 46.3033C32.3841 46.3628 32.1317 46.5731 32.0355 46.9343C31.8672 46.9343 31.699 46.9343 31.5307 46.9343C31.509 46.6829 31.5933 46.4726 31.7831 46.3033C34.2969 45.8411 36.8211 45.7989 39.3556 46.177C39.3556 46.4295 39.3556 46.6819 39.3556 46.9343Z" fill="#B8D8F0" fill-opacity="0.5"/>
<path fill-rule="evenodd" clip-rule="evenodd" d="M52.727 44.9141C52.957 45.4823 53.2935 45.9871 53.7367 46.4286C53.9616 46.5825 54.214 46.6666 54.494 46.681C54.494 46.8494 54.494 47.0175 54.494 47.1858C54.6404 47.7535 54.9768 48.174 55.5036 48.4479C55.5036 48.6163 55.5036 48.7844 55.5036 48.9528C55.0604 49.2183 54.892 49.6391 54.9988 50.2148C54.7494 49.888 54.497 49.5515 54.2415 49.2052C54.208 48.4817 53.8715 47.9769 53.2319 47.6907C52.9868 47.1901 52.7343 46.6853 52.4746 46.1762C52.4746 46.0078 52.4746 45.8397 52.4746 45.6713C52.7028 45.4924 52.7869 45.2399 52.727 44.9141Z" fill="#B8D8F0" fill-opacity="0.5"/>
<path fill-rule="evenodd" clip-rule="evenodd" d="M104.223 42.3926C105.35 43.4611 106.233 44.7232 106.874 46.1789C107.538 47.9125 108.085 49.6794 108.515 51.4796C108.31 51.932 108.184 52.4368 108.136 52.9941C107.968 52.8258 107.799 52.6577 107.631 52.4893C107.546 51.2154 107.377 49.9533 107.126 48.703C106.261 46.9126 105.336 45.1457 104.35 43.4023C104.226 43.0759 104.184 42.7391 104.223 42.3926Z" fill="#B8D8F0" fill-opacity="0.5"/>
<path fill-rule="evenodd" clip-rule="evenodd" d="M58.5342 44.6644C58.2917 45.403 58.1236 46.1602 58.0294 46.9361C57.9453 46.9361 57.861 46.9361 57.777 46.9361C57.7376 46.2884 57.8219 45.6574 58.0294 45.043C58.1142 44.783 58.2826 44.6568 58.5342 44.6644Z" fill="#B8D8F0" fill-opacity="0.5"/>
<path opacity="0.831" fill-rule="evenodd" clip-rule="evenodd" d="M6.03206 43.4023C6.03206 43.9072 6.03206 44.412 6.03206 44.9169C5.77965 44.9169 5.52723 44.9169 5.27481 44.9169C4.71467 45.9179 4.42017 47.0119 4.39135 48.1983C4.28684 48.3136 4.16064 48.398 4.01272 48.4507C3.80384 49.5351 3.67763 50.6288 3.63409 51.7321C3.51523 52.1729 3.34694 52.5937 3.12925 52.9942C3.04512 52.8259 2.96097 52.6578 2.87684 52.4894C2.75073 54.17 2.70865 55.8529 2.75063 57.5378C2.0927 53.6493 2.55546 49.863 4.13893 46.1789C4.65096 45.1491 5.282 44.2237 6.03206 43.4023Z" fill="#B8D8F0" fill-opacity="0.5"/>
<path fill-rule="evenodd" clip-rule="evenodd" d="M38.0873 46.4312C37.5825 46.4312 37.0777 46.4312 36.5728 46.4312C35.3918 46.3893 34.214 46.4315 33.039 46.5574C32.8986 46.6541 32.8146 46.7803 32.7866 46.9361C32.5341 46.9361 32.2817 46.9361 32.0293 46.9361C32.1255 46.5749 32.3779 46.3646 32.7866 46.305C34.5987 46.0978 36.3656 46.1397 38.0873 46.4312Z" fill="#B8D8F0" fill-opacity="0.5"/>
<path fill-rule="evenodd" clip-rule="evenodd" d="M36.5753 46.4336C36.5753 46.5177 36.5753 46.602 36.5753 46.6861C35.2976 46.629 34.0355 46.7133 32.7891 46.9385C32.8171 46.7827 32.9011 46.6565 33.0415 46.5598C34.2165 46.4339 35.3943 46.3917 36.5753 46.4336Z" fill="#B8D8F0" fill-opacity="0.5"/>
<path fill-rule="evenodd" clip-rule="evenodd" d="M36.5781 46.6821C36.5781 46.5981 36.5781 46.5137 36.5781 46.4297C37.083 46.4297 37.5878 46.4297 38.0926 46.4297C38.4157 46.7909 38.8365 46.9593 39.3547 46.9345C39.7836 46.8941 40.2044 46.936 40.6168 47.0607C40.9339 47.166 41.1022 47.3763 41.1217 47.6918C40.7135 47.556 40.2927 47.4719 39.8596 47.4394C39.6071 47.4394 39.3547 47.4394 39.1023 47.4394C38.3438 46.9908 37.5025 46.7384 36.5781 46.6821Z" fill="#B8D8F0" fill-opacity="0.5"/>
<path fill-rule="evenodd" clip-rule="evenodd" d="M36.5762 46.6794C37.5005 46.7357 38.3418 46.9881 39.1004 47.4366C38.7639 47.4366 38.4272 47.4366 38.0907 47.4366C36.1524 46.7935 34.2171 46.7935 32.2851 47.4366C32.0326 47.4366 31.7802 47.4366 31.5278 47.4366C31.4438 47.4366 31.3594 47.4366 31.2754 47.4366C31.5278 47.2683 31.7802 47.1002 32.0326 46.9318C32.2851 46.9318 32.5375 46.9318 32.7899 46.9318C34.0363 46.7066 35.2984 46.6223 36.5762 46.6794Z" fill="#B8D8F0" fill-opacity="0.5"/>
<path fill-rule="evenodd" clip-rule="evenodd" d="M31.5297 46.9355C31.698 46.9355 31.8661 46.9355 32.0345 46.9355C31.7821 47.1039 31.5297 47.272 31.2773 47.4404C31.1932 47.4404 31.1089 47.4404 31.0248 47.4404C30.7449 47.4548 30.4925 47.5388 30.2676 47.6928C30.5165 47.2112 30.937 46.9588 31.5297 46.9355Z" fill="#B8D8F0" fill-opacity="0.5"/>
<path fill-rule="evenodd" clip-rule="evenodd" d="M44.9043 43.4023C45.3251 43.7388 45.7456 44.0755 46.1664 44.412C46.148 44.7975 46.3163 45.0499 46.6712 45.1693C46.8048 45.7458 47.0572 46.2506 47.4285 46.6838C47.7834 46.8032 47.9517 47.0556 47.9333 47.441C47.6367 47.4963 47.3843 47.4123 47.1761 47.1886C46.3628 45.9288 45.6055 44.6667 44.9043 43.4023Z" fill="#B8D8F0" fill-opacity="0.5"/>
<path fill-rule="evenodd" clip-rule="evenodd" d="M47.4297 46.1777C47.5137 46.1777 47.5981 46.1777 47.6821 46.1777C47.8505 46.5142 48.1029 46.7666 48.4394 46.935C48.9063 47.8275 49.3271 48.7529 49.7015 49.7116C49.158 48.9394 48.5689 48.1822 47.9345 47.4398C47.953 47.0544 47.7846 46.802 47.4297 46.6826C47.4297 46.5142 47.4297 46.3461 47.4297 46.1777Z" fill="#B8D8F0" fill-opacity="0.5"/>
<path fill-rule="evenodd" clip-rule="evenodd" d="M30.0119 47.6895C29.8435 47.8578 29.6754 48.0259 29.5071 48.1943C29.423 48.1943 29.3387 48.1943 29.2547 48.1943C28.4121 48.5315 27.5708 48.868 26.7305 49.204C26.7305 49.0356 26.7305 48.8675 26.7305 48.6991C27.7987 48.2917 28.8927 47.9552 30.0119 47.6895Z" fill="#B8D8F0" fill-opacity="0.5"/>
<path fill-rule="evenodd" clip-rule="evenodd" d="M26.7345 48.7031C26.7345 48.8715 26.7345 49.0396 26.7345 49.208C26.6482 49.4195 26.4801 49.5038 26.2297 49.4604C25.5197 49.3405 25.0148 49.5929 24.7152 50.2176C24.5468 50.2176 24.3787 50.2176 24.2104 50.2176C24.1887 49.9662 24.273 49.756 24.4628 49.5866C25.2289 49.2865 25.9861 48.9921 26.7345 48.7031Z" fill="#B8D8F0" fill-opacity="0.5"/>
<path fill-rule="evenodd" clip-rule="evenodd" d="M26.2235 49.4586C25.7298 49.709 25.2249 49.9615 24.709 50.2159C25.0086 49.5912 25.5134 49.3387 26.2235 49.4586Z" fill="#B8D8F0" fill-opacity="0.5"/>
<path fill-rule="evenodd" clip-rule="evenodd" d="M49.7031 49.7129C49.9525 50.0398 50.2049 50.3762 50.4604 50.7226C50.4604 50.8909 50.4604 51.059 50.4604 51.2274C50.2781 50.9621 50.0257 50.7937 49.7031 50.7226C49.7031 50.3861 49.7031 50.0494 49.7031 49.7129Z" fill="#B8D8F0" fill-opacity="0.5"/>
<path fill-rule="evenodd" clip-rule="evenodd" d="M62.3232 47.1875C61.9216 47.9273 61.4168 48.6005 60.8087 49.2068C60.0186 49.4774 59.3457 49.9404 58.7893 50.5951C57.7125 50.9733 56.9553 50.6789 56.5176 49.7117C56.9119 49.7705 57.2483 49.9389 57.5273 50.2165C58.332 50.6093 58.9209 50.3569 59.2942 49.4593C59.3782 49.4593 59.4625 49.4593 59.5466 49.4593C60.5454 48.7974 61.471 48.0402 62.3232 47.1875Z" fill="#B8D8F0" fill-opacity="0.5"/>
<path fill-rule="evenodd" clip-rule="evenodd" d="M24.2104 50.2148C24.3787 50.2148 24.5469 50.2148 24.7152 50.2148C24.2811 50.4188 23.8603 50.6712 23.4531 50.9721C23.4531 50.4673 23.7055 50.2148 24.2104 50.2148Z" fill="#B8D8F0" fill-opacity="0.5"/>
<path fill-rule="evenodd" clip-rule="evenodd" d="M55.002 50.7251C55.002 50.641 55.002 50.5567 55.002 50.4727C55.2544 50.4727 55.5068 50.4727 55.7592 50.4727C55.7592 50.8934 55.7592 51.314 55.7592 51.7347C55.6752 51.7347 55.5908 51.7347 55.5068 51.7347C55.5068 51.6507 55.5068 51.5664 55.5068 51.4823C55.5252 51.0969 55.3569 50.8445 55.002 50.7251Z" fill="#B8D8F0" fill-opacity="0.5"/>
<path fill-rule="evenodd" clip-rule="evenodd" d="M23.452 50.9727C22.9583 51.2231 22.4534 51.4755 21.9375 51.7299C21.9375 51.4775 21.9375 51.2251 21.9375 50.9727C22.4423 50.9727 22.9472 50.9727 23.452 50.9727Z" fill="#B8D8F0" fill-opacity="0.5"/>
<path fill-rule="evenodd" clip-rule="evenodd" d="M60.8096 49.207C60.8313 49.4584 60.747 49.6687 60.5572 49.8381C59.855 50.1622 59.2661 50.6249 58.7903 51.2264C57.2596 51.632 56.334 51.0431 56.0137 49.4594C56.182 49.5435 56.3501 49.6278 56.5185 49.7119C56.9562 50.6791 57.7135 50.9735 58.7903 50.5953C59.3466 49.9406 60.0195 49.4776 60.8096 49.207Z" fill="#B8D8F0" fill-opacity="0.5"/>
<path fill-rule="evenodd" clip-rule="evenodd" d="M21.9369 51.7324C21.9369 51.8165 21.9369 51.9008 21.9369 51.9848C21.2785 51.9596 20.6894 52.128 20.1699 52.4897C20.1699 52.2373 20.1699 51.9848 20.1699 51.7324C20.7588 51.7324 21.348 51.7324 21.9369 51.7324Z" fill="#B8D8F0" fill-opacity="0.5"/>
<path fill-rule="evenodd" clip-rule="evenodd" d="M19.6639 52.7422C19.2661 52.9045 18.9293 53.1569 18.6542 53.4994C18.3846 53.7352 18.0481 53.8195 17.6445 53.7519C17.6445 53.6678 17.6445 53.5835 17.6445 53.4994C18.2203 53.0128 18.8932 52.7604 19.6639 52.7422Z" fill="#B8D8F0" fill-opacity="0.5"/>
<path fill-rule="evenodd" clip-rule="evenodd" d="M55.7598 51.7316C56.0935 51.6887 56.388 51.7727 56.6432 51.984C56.8199 52.8248 57.1145 53.5821 57.5267 54.2558C57.3409 53.8193 57.0042 53.5669 56.517 53.4985C56.38 52.8579 56.1275 52.2687 55.7598 51.7316Z" fill="#B8D8F0" fill-opacity="0.5"/>
<path fill-rule="evenodd" clip-rule="evenodd" d="M16.1279 53.5C16.6327 53.5 17.1376 53.5 17.6424 53.5C17.6424 53.5841 17.6424 53.6684 17.6424 53.7524C17.5583 53.7524 17.4741 53.7524 17.39 53.7524C16.7315 53.7272 16.1426 53.8955 15.623 54.2573C15.7072 54.0889 15.7913 53.9208 15.8755 53.7524C16.0438 53.7524 16.1279 53.6684 16.1279 53.5Z" fill="#B8D8F0" fill-opacity="0.5"/>
<path fill-rule="evenodd" clip-rule="evenodd" d="M10.5762 53.5C12.4272 53.5 14.2783 53.5 16.1294 53.5C16.1294 53.6684 16.0452 53.7524 15.877 53.7524C15.0483 53.8991 14.2069 53.9831 13.3528 54.0048C12.351 54.0568 11.4255 53.8885 10.5762 53.5Z" fill="#B8D8F0" fill-opacity="0.5"/>
<path fill-rule="evenodd" clip-rule="evenodd" d="M10.5754 53.5C11.4247 53.8885 12.3502 54.0569 13.352 54.0049C14.2062 53.9832 15.0476 53.8991 15.8762 53.7525C15.7921 53.9208 15.7079 54.0889 15.6238 54.2573C15.5396 54.2573 15.4555 54.2573 15.3714 54.2573C13.8568 54.2573 12.3423 54.2573 10.8278 54.2573C10.2352 53.8908 9.56212 53.7227 8.80848 53.7525C8.33663 53.7542 7.91593 53.8383 7.54639 54.0049C7.86163 54.4178 8.28234 54.7124 8.80848 54.8883C8.9984 55.0577 9.08255 55.268 9.0609 55.5194C8.72435 55.5194 8.38777 55.5194 8.05122 55.5194C8.05122 55.267 8.05122 55.0146 8.05122 54.7621C7.12707 54.8 6.87465 54.4214 7.29397 53.6263C8.38457 53.5003 9.47837 53.4581 10.5754 53.5Z" fill="#B8D8F0" fill-opacity="0.5"/>
<path fill-rule="evenodd" clip-rule="evenodd" d="M41.3687 54.0059C41.5371 54.0059 41.7052 54.0059 41.8735 54.0059C41.947 54.296 42.1572 54.4643 42.5046 54.5108C43.5506 54.6784 44.6024 54.8046 45.6598 54.8894C46.0329 55.4041 46.5377 55.6143 47.1743 55.5204C47.1743 55.6045 47.1743 55.6888 47.1743 55.7729C47.1937 56.0884 47.3621 56.2987 47.6791 56.4039C47.1322 56.4461 46.5854 56.488 46.0384 56.5301C44.379 55.9952 42.6543 55.7428 40.8639 55.7729C40.0225 55.815 39.181 55.8569 38.3397 55.8991C37.7152 55.9084 37.2103 56.1187 36.8252 56.5301C36.6568 56.5301 36.5727 56.6142 36.5727 56.7825C35.3056 56.6243 34.1276 56.8345 33.0389 57.4136C32.4558 57.539 31.8669 57.5809 31.272 57.5398C29.9829 57.9805 28.6367 58.2748 27.2333 58.4233C27.0649 58.5916 26.8968 58.7597 26.7284 58.9281C23.5323 59.0543 20.3349 59.0965 17.1365 59.0543C16.5602 59.027 16.0553 58.8168 15.622 58.4233C14.8694 58.2976 14.1122 58.2554 13.3503 58.2971C13.3719 58.0456 13.2878 57.8354 13.0978 57.666C12.4539 57.6655 11.949 57.455 11.5833 57.035C11.3139 56.7992 10.9773 56.7149 10.5737 56.7825C10.1371 56.5968 9.88471 56.26 9.81641 55.7729C10.1846 55.756 10.5212 55.84 10.8261 56.0253C10.854 56.181 10.9382 56.3072 11.0785 56.4039C11.6615 56.5294 12.2505 56.5713 12.8454 56.5301C13.0137 56.5301 13.182 56.5301 13.3503 56.5301C13.6483 56.9257 14.069 57.1362 14.6124 57.1612C17.5171 57.3697 20.3778 57.3275 23.1946 57.035C24.5761 56.5427 26.0065 56.2482 27.4857 56.1515C28.2051 55.6994 28.9623 55.4048 29.7574 55.268C29.9561 54.8632 30.2926 54.6948 30.7671 54.7632C31.6127 54.8048 32.454 54.7627 33.2913 54.637C33.4597 54.4686 33.6278 54.3005 33.7961 54.1321C36.3188 54.0059 38.843 53.964 41.3687 54.0059Z" fill="#B8D8F0" fill-opacity="0.5"/>
<path fill-rule="evenodd" clip-rule="evenodd" d="M49.7049 50.7207C50.0275 50.7919 50.2799 50.9602 50.4621 51.2255C50.4437 51.611 50.6121 51.8634 50.967 51.9828C51.1353 52.0668 51.3035 52.1512 51.4718 52.2352C51.4723 53.1603 51.8088 53.9176 52.4815 54.507C52.8546 55.4594 53.2751 56.385 53.7436 57.2836C53.7436 57.6201 53.5752 57.7884 53.2387 57.7884C53.1004 57.2755 52.7639 57.0231 52.2291 57.0312C52.1703 56.6369 52.0019 56.3004 51.7242 56.0215C51.4605 55.2529 50.9556 54.748 50.2097 54.507C50.1257 54.2546 49.9573 54.0862 49.7049 54.0021C49.5365 53.7497 49.3684 53.4973 49.2001 53.2449C49.119 52.8541 48.8666 52.6858 48.4428 52.74C48.4428 52.4876 48.4428 52.2352 48.4428 51.9828C48.1904 51.9828 47.938 51.9828 47.6855 51.9828C47.6855 51.8987 47.6855 51.8144 47.6855 51.7304C48.1303 51.6943 48.5511 51.7786 48.9476 51.9828C49.7258 52.6242 50.3147 53.3814 50.7146 54.2546C50.9801 54.2922 51.2325 54.2503 51.4718 54.1284C51.2388 53.6132 51.1548 53.0662 51.2194 52.4876C50.8857 52.5305 50.5911 52.4465 50.3359 52.2352C50.0527 51.7506 49.8422 51.2457 49.7049 50.7207Z" fill="#B8D8F0" fill-opacity="0.5"/>
<path fill-rule="evenodd" clip-rule="evenodd" d="M41.877 54.0059C42.2977 54.0059 42.7183 54.0059 43.139 54.0059C44.5425 54.2883 45.8886 54.7091 47.1777 55.268C47.1777 55.352 47.1777 55.4363 47.1777 55.5204C46.5411 55.6143 46.0363 55.404 45.6632 54.8893C44.6058 54.8045 43.554 54.6783 42.508 54.5107C42.1607 54.4643 41.9504 54.2959 41.877 54.0059Z" fill="#B8D8F0" fill-opacity="0.5"/>
<path fill-rule="evenodd" clip-rule="evenodd" d="M47.1758 55.518C47.1758 55.434 47.1758 55.3497 47.1758 55.2656C47.2598 55.2656 47.3441 55.2656 47.4282 55.2656C47.849 55.2656 48.2695 55.2656 48.6903 55.2656C48.6903 55.434 48.6903 55.6021 48.6903 55.7705C48.2019 55.6064 47.697 55.5223 47.1758 55.518Z" fill="#B8D8F0" fill-opacity="0.5"/>
<path fill-rule="evenodd" clip-rule="evenodd" d="M48.6895 55.2656C49.0259 55.2656 49.1943 55.434 49.1943 55.7705C49.0259 55.7705 48.8578 55.7705 48.6895 55.7705C48.6895 55.6021 48.6895 55.434 48.6895 55.2656Z" fill="#B8D8F0" fill-opacity="0.5"/>
<path fill-rule="evenodd" clip-rule="evenodd" d="M10.8262 56.0195C11.3147 56.1836 11.8195 56.2677 12.3407 56.2719C12.509 56.2719 12.6772 56.2719 12.8455 56.2719C12.8455 56.356 12.8455 56.4403 12.8455 56.5244C12.2506 56.5655 11.6616 56.5236 11.0786 56.3982C10.9382 56.3015 10.8541 56.1753 10.8262 56.0195Z" fill="#B8D8F0" fill-opacity="0.5"/>
<path fill-rule="evenodd" clip-rule="evenodd" d="M47.1792 55.77C47.9665 56.1615 48.8078 56.4139 49.7034 56.5272C49.7034 56.7796 49.7034 57.0321 49.7034 57.2845C50.1323 57.2441 50.5531 57.286 50.9655 57.4107C50.2976 57.5361 49.6244 57.5783 48.9462 57.5369C48.1399 57.2194 47.2986 57.0512 46.422 57.0321C45.6332 56.7849 44.7919 56.7006 43.8978 56.7796C42.9118 56.4162 41.86 56.2481 40.7426 56.2748C39.4378 56.3697 38.1338 56.4538 36.8301 56.5272C37.2153 56.1158 37.7201 55.9055 38.3446 55.8962C39.1859 55.854 40.0275 55.8121 40.8688 55.77C42.6592 55.7399 44.3839 55.9924 46.0433 56.5272C46.5903 56.4851 47.1371 56.4432 47.6841 56.401C47.367 56.2958 47.1987 56.0855 47.1792 55.77Z" fill="#B8D8F0" fill-opacity="0.5"/>
<path fill-rule="evenodd" clip-rule="evenodd" d="M57.5254 55.0137C58.1342 55.0626 58.3866 55.3991 58.2826 56.0233C58.5351 56.0233 58.7875 56.0233 59.0399 56.0233C59.0399 56.5282 59.0399 57.033 59.0399 57.5379C58.8715 57.4538 58.7034 57.3695 58.5351 57.2854C58.451 57.1171 58.3667 56.949 58.2826 56.7806C58.1754 56.1195 57.9229 55.5304 57.5254 55.0137Z" fill="#B8D8F0" fill-opacity="0.5"/>
<path fill-rule="evenodd" clip-rule="evenodd" d="M43.8983 56.781C41.4581 56.781 39.0183 56.781 36.5781 56.781C36.5781 56.6127 36.6622 56.5286 36.8305 56.5286C38.1343 56.4552 39.4383 56.3711 40.743 56.2762C41.8605 56.2494 42.9123 56.4175 43.8983 56.781Z" fill="#B8D8F0" fill-opacity="0.5"/>
<path fill-rule="evenodd" clip-rule="evenodd" d="M13.3516 56.5254C15.9108 56.9886 18.5191 57.1569 21.1765 57.0302C21.8497 57.0302 22.5227 57.0302 23.1959 57.0302C20.3791 57.3228 17.5184 57.3649 14.6137 57.1564C14.0703 57.1314 13.6496 56.9209 13.3516 56.5254Z" fill="#B8D8F0" fill-opacity="0.5"/>
<path fill-rule="evenodd" clip-rule="evenodd" d="M44.6543 57.2856C44.6543 57.2016 44.6543 57.1173 44.6543 57.0332C45.2432 57.0332 45.8323 57.0332 46.4212 57.0332C47.2979 57.0524 48.1392 57.2205 48.9454 57.538C48.9454 57.6221 48.9454 57.7064 48.9454 57.7905C48.8614 57.7905 48.777 57.7905 48.693 57.7905C48.0062 57.6736 47.333 57.5055 46.6736 57.2856C46.1688 57.2856 45.664 57.2856 45.1591 57.2856C45.0751 57.2856 44.9908 57.2856 44.9067 57.2856C44.8227 57.2856 44.7384 57.2856 44.6543 57.2856Z" fill="#B8D8F0" fill-opacity="0.5"/>
<path fill-rule="evenodd" clip-rule="evenodd" d="M11.5834 57.0332C11.9491 57.4532 12.454 57.6637 13.0979 57.6642C13.2879 57.8336 13.372 58.0439 13.3504 58.2953C12.7947 58.0262 12.2057 57.8579 11.5834 57.7905C11.5834 58.0429 11.5834 58.2953 11.5834 58.5477C11.9093 58.4879 12.1617 58.5719 12.3407 58.8001C12.2566 58.8001 12.1724 58.8001 12.0883 58.8001C11.8358 58.8001 11.5834 58.8001 11.331 58.8001C11.1627 58.2112 10.9945 57.6221 10.8262 57.0332C11.0786 57.0332 11.331 57.0332 11.5834 57.0332Z" fill="#B8D8F0" fill-opacity="0.5"/>
<path fill-rule="evenodd" clip-rule="evenodd" d="M36.5762 56.7795C39.0163 56.7795 41.4562 56.7795 43.8963 56.7795C44.7904 56.7005 45.6317 56.7848 46.4205 57.0319C45.8316 57.0319 45.2425 57.0319 44.6536 57.0319C41.7929 57.0319 38.932 57.0319 36.0713 57.0319C34.9875 56.857 34.0618 57.1094 33.2947 57.7892C32.9583 57.7892 32.6215 57.7892 32.2851 57.7892C31.9486 57.7892 31.6119 57.7892 31.2754 57.7892C31.2754 57.7051 31.2754 57.6208 31.2754 57.5367C31.8703 57.5779 32.4592 57.536 33.0423 57.4105C34.131 56.8315 35.309 56.6212 36.5762 56.7795Z" fill="#B8D8F0" fill-opacity="0.5"/>
<path fill-rule="evenodd" clip-rule="evenodd" d="M36.0715 57.0303C35.2673 57.6295 34.3417 57.8819 33.2949 57.7875C34.062 57.1078 34.9876 56.8553 36.0715 57.0303Z" fill="#B8D8F0" fill-opacity="0.5"/>
<path fill-rule="evenodd" clip-rule="evenodd" d="M47.1758 55.77C47.1758 55.6859 47.1758 55.6016 47.1758 55.5176C47.697 55.5219 48.2019 55.6059 48.6903 55.77C48.8587 55.77 49.0268 55.77 49.1951 55.77C49.5316 56.0224 49.8683 56.2748 50.2048 56.5273C50.6647 56.9084 51.1695 57.2449 51.7193 57.5369C51.8983 57.7651 52.1507 57.8492 52.4766 57.7893C52.4766 58.0418 52.4766 58.2942 52.4766 58.5466C52.1401 58.5466 51.8034 58.5466 51.4669 58.5466C51.141 58.6064 50.8886 58.5224 50.7096 58.2942C50.6816 58.1384 50.5976 58.0122 50.4572 57.9156C49.9592 57.7906 49.4544 57.7485 48.9427 57.7893C48.9427 57.7053 48.9427 57.621 48.9427 57.5369C49.621 57.5783 50.2942 57.5362 50.9621 57.4107C50.5496 57.286 50.1288 57.2441 49.7 57.2845C49.7 57.0321 49.7 56.7797 49.7 56.5273C48.8044 56.4139 47.9631 56.1615 47.1758 55.77Z" fill="#B8D8F0" fill-opacity="0.5"/>
<path fill-rule="evenodd" clip-rule="evenodd" d="M31.2721 57.5371C31.2721 57.6212 31.2721 57.7055 31.2721 57.7895C31.2441 57.9453 31.1601 58.0715 31.0197 58.1682C30.1075 58.4067 29.1819 58.5751 28.2431 58.673C27.9728 58.8881 27.7204 59.0983 27.4859 59.304C26.0499 59.3121 24.6197 59.3964 23.1948 59.5565C21.1741 59.4981 19.1548 59.4138 17.1367 59.304C17.1367 59.22 17.1367 59.1357 17.1367 59.0516C20.3351 59.0938 23.5325 59.0516 26.7286 58.9254C26.897 58.757 27.0651 58.5889 27.2335 58.4206C28.6369 58.2722 29.983 57.9778 31.2721 57.5371Z" fill="#B8D8F0" fill-opacity="0.5"/>
<path fill-rule="evenodd" clip-rule="evenodd" d="M48.6895 58.0429C48.6895 57.9589 48.6895 57.8746 48.6895 57.7905C48.7735 57.7905 48.8578 57.7905 48.9419 57.7905C49.4535 57.7496 49.9584 57.7918 50.4564 57.9167C50.5967 58.0134 50.6808 58.1396 50.7088 58.2953C50.3006 58.1595 49.8799 58.0755 49.4467 58.0429C49.1943 58.0429 48.9419 58.0429 48.6895 58.0429Z" fill="#B8D8F0" fill-opacity="0.5"/>
<path fill-rule="evenodd" clip-rule="evenodd" d="M31.2726 57.7871C31.6091 57.7871 31.9458 57.7871 32.2823 57.7871C32.2823 57.9555 32.1982 58.0395 32.0299 58.0395C31.6444 58.0211 31.392 58.1895 31.2726 58.5444C29.9721 58.64 28.7101 58.8924 27.4863 59.3016C27.7208 59.0959 27.9732 58.8856 28.2436 58.6706C29.1823 58.5726 30.1079 58.4043 31.0202 58.1657C31.1605 58.0691 31.2446 57.9429 31.2726 57.7871Z" fill="#B8D8F0" fill-opacity="0.5"/>
<path fill-rule="evenodd" clip-rule="evenodd" d="M32.0326 58.0404C31.9133 58.3953 31.6608 58.5637 31.2754 58.5453C31.3948 58.1904 31.6472 58.022 32.0326 58.0404Z" fill="#B8D8F0" fill-opacity="0.5"/>
<path fill-rule="evenodd" clip-rule="evenodd" d="M10.574 56.7804C10.9776 56.7128 11.3142 56.7971 11.5837 57.0328C11.3313 57.0328 11.0789 57.0328 10.8264 57.0328C10.9947 57.6217 11.163 58.2109 11.3313 58.7998C10.3056 58.5342 9.8008 57.861 9.81677 56.7804C10.0692 56.7804 10.3216 56.7804 10.574 56.7804Z" fill="#B8D8F0" fill-opacity="0.5"/>
<path fill-rule="evenodd" clip-rule="evenodd" d="M13.3509 58.2919C13.6875 58.4603 14.024 58.6284 14.3606 58.7968C13.182 58.668 12.9296 59.0045 13.6033 59.8065C13.3234 59.7921 13.071 59.708 12.8461 59.554C12.8645 59.1686 12.6962 58.9162 12.3412 58.7968C12.1623 58.5686 11.9099 58.4845 11.584 58.5444C11.584 58.2919 11.584 58.0395 11.584 57.7871C12.2063 57.8545 12.7952 58.0229 13.3509 58.2919Z" fill="#B8D8F0" fill-opacity="0.5"/>
<path fill-rule="evenodd" clip-rule="evenodd" d="M13.3516 58.2929C14.1135 58.2512 14.8707 58.2934 15.6233 58.4191C16.0566 58.8126 16.5615 59.0229 17.1378 59.0501C17.1378 59.1342 17.1378 59.2185 17.1378 59.3025C16.8013 59.3025 16.4647 59.3025 16.1282 59.3025C15.7671 59.0408 15.3464 58.8724 14.8661 58.7977C14.6978 58.7977 14.5295 58.7977 14.3612 58.7977C14.0247 58.6293 13.6881 58.4612 13.3516 58.2929Z" fill="#B8D8F0" fill-opacity="0.5"/>
<path fill-rule="evenodd" clip-rule="evenodd" d="M52.228 57.0334C52.7628 57.0253 53.0993 57.2777 53.2376 57.7906C53.406 58.2114 53.5741 58.632 53.7425 59.0527C53.1359 59.0659 52.547 58.9818 51.9755 58.8003C51.8072 58.8003 51.6391 58.8003 51.4707 58.8003C51.4707 58.7163 51.4707 58.632 51.4707 58.5479C51.8072 58.5479 52.1439 58.5479 52.4804 58.5479C52.4804 58.2955 52.4804 58.0431 52.4804 57.7906C52.1545 57.8505 51.9021 57.7664 51.7231 57.5382C52.0596 57.5382 52.228 57.3699 52.228 57.0334Z" fill="#B8D8F0" fill-opacity="0.5"/>
<path fill-rule="evenodd" clip-rule="evenodd" d="M36.0713 57.0332C38.932 57.0332 41.7929 57.0332 44.6536 57.0332C44.6536 57.1173 44.6536 57.2016 44.6536 57.2856C41.8757 57.2435 39.0991 57.2856 36.3238 57.4118C35.118 57.9116 33.8559 58.164 32.5375 58.1691C32.3691 58.3374 32.201 58.5056 32.0326 58.6739C30.8503 58.7378 29.7563 59.0745 28.7512 59.6836C27.9985 59.8093 27.2412 59.8515 26.4794 59.8098C26.3111 59.8098 26.143 59.8098 25.9746 59.8098C25.9746 59.7257 25.9746 59.6414 25.9746 59.5574C26.5388 59.6318 27.0436 59.5475 27.4891 59.305C28.7128 58.8958 29.9749 58.6434 31.2754 58.5477C31.6608 58.5661 31.9133 58.3978 32.0326 58.0429C32.201 58.0429 32.2851 57.9588 32.2851 57.7905C32.6215 57.7905 32.9583 57.7905 33.2947 57.7905C34.3415 57.8849 35.2671 57.6324 36.0713 57.0332Z" fill="#B8D8F0" fill-opacity="0.5"/>
<path fill-rule="evenodd" clip-rule="evenodd" d="M59.0391 58.0395C59.0391 57.9555 59.0391 57.8712 59.0391 57.7871C59.686 58.0628 60.233 58.4833 60.6798 59.0492C60.8045 59.4617 60.8464 59.8824 60.806 60.3113C60.1722 59.58 59.583 58.8228 59.0391 58.0395Z" fill="#B8D8F0" fill-opacity="0.5"/>
<path fill-rule="evenodd" clip-rule="evenodd" d="M14.8691 58.7969C15.3495 58.8716 15.7702 59.04 16.1312 59.3017C15.5764 59.3976 15.1557 59.2293 14.8691 58.7969Z" fill="#B8D8F0" fill-opacity="0.5"/>
<path opacity="0.969" fill-rule="evenodd" clip-rule="evenodd" d="M6.03144 65.612C4.30429 63.2973 3.21049 60.6891 2.75 57.787C2.94941 57.5071 3.07562 57.1706 3.12863 56.7773C3.61542 57.8966 3.86783 59.0746 3.88588 60.3112C4.28041 61.0871 4.70112 61.8444 5.14797 62.583C5.27305 63.081 5.3151 63.5858 5.27418 64.0975C5.5266 64.0975 5.77902 64.0975 6.03144 64.0975C6.03144 64.6023 6.03144 65.1071 6.03144 65.612Z" fill="#B8D8F0" fill-opacity="0.5"/>
<path fill-rule="evenodd" clip-rule="evenodd" d="M12.3419 58.7969C12.6969 58.9163 12.8652 59.1687 12.8468 59.5541C12.456 59.4731 12.2877 59.2207 12.3419 58.7969Z" fill="#B8D8F0" fill-opacity="0.5"/>
<path fill-rule="evenodd" clip-rule="evenodd" d="M59.0391 58.0391C59.583 58.8223 60.1722 59.5796 60.806 60.3108C60.806 60.3949 60.806 60.4792 60.806 60.5632C61.0837 60.8422 61.252 61.1786 61.3108 61.5729C61.2268 61.5729 61.1425 61.5729 61.0584 61.5729C60.806 61.2364 60.5536 60.8997 60.3012 60.5632C59.7852 59.7749 59.3644 58.9336 59.0391 58.0391Z" fill="#B8D8F0" fill-opacity="0.5"/>
<path fill-rule="evenodd" clip-rule="evenodd" d="M14.3652 58.7969C14.5335 58.7969 14.7018 58.7969 14.8701 58.7969C15.1567 59.2293 15.5773 59.3976 16.1322 59.3017C16.4687 59.3017 16.8053 59.3017 17.1418 59.3017C17.6467 59.4701 18.1515 59.6382 18.6563 59.8065C18.2356 59.8065 17.815 59.8065 17.3943 59.8065C17.226 59.8065 17.0577 59.8065 16.8894 59.8065C16.2715 59.5609 15.5984 59.4769 14.8701 59.5541C14.7018 59.3017 14.5335 59.0493 14.3652 58.7969Z" fill="#B8D8F0" fill-opacity="0.5"/>
<path fill-rule="evenodd" clip-rule="evenodd" d="M17.1367 59.3047C19.1548 59.4145 21.1741 59.4988 23.1948 59.5571C21.7282 59.807 20.2137 59.8911 18.6512 59.8095C18.1464 59.6412 17.6416 59.4731 17.1367 59.3047Z" fill="#B8D8F0" fill-opacity="0.5"/>
<path fill-rule="evenodd" clip-rule="evenodd" d="M53.742 57.2832C53.9876 57.6969 54.3241 58.0336 54.7517 58.2929C54.6651 58.7934 54.8335 59.1301 55.2565 59.3025C55.2565 59.4709 55.2565 59.639 55.2565 59.8074C54.7078 59.8705 54.287 60.1229 53.9944 60.5646C53.2831 60.9357 52.5259 61.1881 51.7227 61.3219C51.7227 61.2378 51.7227 61.1535 51.7227 61.0695C51.8067 61.0695 51.891 61.0695 51.9751 61.0695C52.5703 60.7227 53.1594 60.3862 53.742 60.0598C54.0414 59.7556 54.0414 59.4189 53.742 59.0501C53.5736 58.6293 53.4055 58.2088 53.2372 57.788C53.5736 57.788 53.742 57.6197 53.742 57.2832Z" fill="#B8D8F0" fill-opacity="0.5"/>
<path fill-rule="evenodd" clip-rule="evenodd" d="M12.0898 58.7969C12.174 58.7969 12.2581 58.7969 12.3423 58.7969C12.288 59.2207 12.4563 59.4731 12.8471 59.5541C13.072 59.7081 13.3244 59.7922 13.6044 59.8065C13.7238 60.1614 13.9762 60.3298 14.3616 60.3114C14.3616 60.3954 14.3616 60.4797 14.3616 60.5638C13.5705 60.3768 12.8133 60.1243 12.0898 59.8065C12.0898 59.4701 12.0898 59.1333 12.0898 58.7969Z" fill="#B8D8F0" fill-opacity="0.5"/>
<path fill-rule="evenodd" clip-rule="evenodd" d="M27.487 59.3047C27.0415 59.5473 26.5366 59.6316 25.9725 59.5571C23.5614 60.0074 21.1212 60.1755 18.6523 60.0619C18.6523 59.9779 18.6523 59.8936 18.6523 59.8095C20.2148 59.8911 21.7293 59.807 23.1959 59.5571C24.6208 59.3971 26.051 59.3128 27.487 59.3047Z" fill="#B8D8F0" fill-opacity="0.5"/>
<path fill-rule="evenodd" clip-rule="evenodd" d="M17.3945 59.8105C17.8153 59.8105 18.2358 59.8105 18.6566 59.8105C18.6566 59.8946 18.6566 59.9789 18.6566 60.063C18.6566 60.147 18.6566 60.2313 18.6566 60.3154C18.0809 60.4222 17.6601 60.2538 17.3945 59.8105Z" fill="#B8D8F0" fill-opacity="0.5"/>
<path fill-rule="evenodd" clip-rule="evenodd" d="M25.9725 59.5527C25.9725 59.6368 25.9725 59.7211 25.9725 59.8052C23.5631 60.2651 21.1233 60.4334 18.6523 60.31C18.6523 60.2259 18.6523 60.1416 18.6523 60.0576C21.1212 60.1712 23.5614 60.003 25.9725 59.5527Z" fill="#B8D8F0" fill-opacity="0.5"/>
<path fill-rule="evenodd" clip-rule="evenodd" d="M14.3652 60.5645C14.7115 60.8199 15.048 61.0723 15.3749 61.3217C15.0384 61.3217 14.7018 61.3217 14.3652 61.3217C14.3652 61.0693 14.3652 60.8169 14.3652 60.5645Z" fill="#B8D8F0" fill-opacity="0.5"/>
<path fill-rule="evenodd" clip-rule="evenodd" d="M55.2543 59.8105C55.9772 61.3745 56.9869 62.7207 58.2833 63.8492C58.3674 64.0176 58.4517 64.1857 58.5357 64.3541C58.5357 64.4381 58.5357 64.5224 58.5357 64.6065C58.2833 64.6065 58.0309 64.6065 57.7785 64.6065C57.7785 64.3541 57.7785 64.1017 57.7785 63.8492C57.4448 63.8922 57.1502 63.8081 56.895 63.5968C56.398 62.9155 56.1034 62.1583 56.0115 61.3251C55.7591 61.3251 55.5067 61.3251 55.2543 61.3251C55.2543 61.0726 55.2543 60.8202 55.2543 60.5678C54.8335 60.5678 54.413 60.5678 53.9922 60.5678C54.2847 60.1261 54.7055 59.8737 55.2543 59.8105Z" fill="#B8D8F0" fill-opacity="0.5"/>
<path fill-rule="evenodd" clip-rule="evenodd" d="M60.8105 60.5645C61.4194 60.6134 61.6718 60.9499 61.5678 61.5741C61.4837 61.5741 61.3994 61.5741 61.3154 61.5741C61.2566 61.1798 61.0882 60.8434 60.8105 60.5645Z" fill="#B8D8F0" fill-opacity="0.5"/>
<path fill-rule="evenodd" clip-rule="evenodd" d="M51.7214 61.0728C51.7214 61.1568 51.7214 61.2411 51.7214 61.3252C50.9342 61.7167 50.0928 61.9691 49.1973 62.0825C49.3656 61.9141 49.5337 61.746 49.7021 61.5776C49.7862 61.5776 49.8705 61.5776 49.9545 61.5776C50.474 61.2159 51.0631 61.0475 51.7214 61.0728Z" fill="#B8D8F0" fill-opacity="0.5"/>
<path fill-rule="evenodd" clip-rule="evenodd" d="M61.3125 61.5781C61.3966 61.5781 61.4809 61.5781 61.5649 61.5781C61.8426 61.857 62.0109 62.1935 62.0698 62.5878C61.625 62.3955 61.3726 62.0587 61.3125 61.5781Z" fill="#B8D8F0" fill-opacity="0.5"/>
<path fill-rule="evenodd" clip-rule="evenodd" d="M61.5645 61.5781C62.1733 61.6271 62.4257 61.9636 62.3217 62.5878C62.2377 62.5878 62.1533 62.5878 62.0693 62.5878C62.0105 62.1935 61.8421 61.857 61.5645 61.5781Z" fill="#B8D8F0" fill-opacity="0.5"/>
<path fill-rule="evenodd" clip-rule="evenodd" d="M16.1328 62.0801C16.3852 62.0801 16.6376 62.0801 16.8901 62.0801C17.169 62.3577 17.5055 62.5261 17.8997 62.5849C17.9838 62.5849 18.0681 62.5849 18.1522 62.5849C18.2362 62.7533 18.3205 62.9214 18.4046 63.0898C17.3644 63.3023 16.6071 62.9658 16.1328 62.0801Z" fill="#B8D8F0" fill-opacity="0.5"/>
<path fill-rule="evenodd" clip-rule="evenodd" d="M48.9427 62.0801C48.5197 62.6692 47.9308 62.9216 47.1758 62.8373C47.1758 62.7533 47.1758 62.669 47.1758 62.5849C47.5017 62.6447 47.7541 62.5607 47.933 62.3325C48.2695 62.2484 48.6062 62.1641 48.9427 62.0801Z" fill="#B8D8F0" fill-opacity="0.5"/>
<path fill-rule="evenodd" clip-rule="evenodd" d="M62.0703 62.582C62.1544 62.582 62.2387 62.582 62.3227 62.582C62.7435 63.1709 63.2483 63.6758 63.8372 64.0965C63.8372 64.1806 63.8372 64.2649 63.8372 64.349C63.8372 64.433 63.8372 64.5173 63.8372 64.6014C63.7532 64.6014 63.6689 64.6014 63.5848 64.6014C63.5008 64.6014 63.4165 64.6014 63.3324 64.6014C62.9116 63.9282 62.4911 63.2552 62.0703 62.582Z" fill="#B8D8F0" fill-opacity="0.5"/>
<path fill-rule="evenodd" clip-rule="evenodd" d="M62.3242 62.582C63.0701 62.8231 63.575 63.3279 63.8387 64.0965C63.2498 63.6758 62.745 63.1709 62.3242 62.582Z" fill="#B8D8F0" fill-opacity="0.5"/>
<path fill-rule="evenodd" clip-rule="evenodd" d="M51.7218 61.3242C51.7435 61.5756 51.6592 61.7859 51.4694 61.9553C50.6778 62.0348 50.0046 62.3293 49.4501 62.8387C47.9583 63.2724 46.4438 63.651 44.9065 63.9746C44.275 64.533 43.5177 64.7432 42.6348 64.6057C42.6348 64.5216 42.6348 64.4373 42.6348 64.3532C44.2119 63.9638 45.7264 63.4589 47.1783 62.8387C47.9333 62.923 48.5222 62.6706 48.9452 62.0815C49.0293 62.0815 49.1136 62.0815 49.1976 62.0815C50.0932 61.9681 50.9345 61.7157 51.7218 61.3242Z" fill="#B8D8F0" fill-opacity="0.5"/>
<path fill-rule="evenodd" clip-rule="evenodd" d="M18.6523 63.0918C18.7364 63.0918 18.8207 63.0918 18.9048 63.0918C19.1913 63.5242 19.612 63.6926 20.1669 63.5966C20.3302 64.0109 20.5826 64.3473 20.9241 64.6063C20.5033 64.6063 20.0828 64.6063 19.662 64.6063C19.662 64.3539 19.662 64.1015 19.662 63.8491C19.0378 63.953 18.7013 63.7006 18.6523 63.0918Z" fill="#B8D8F0" fill-opacity="0.5"/>
<path fill-rule="evenodd" clip-rule="evenodd" d="M63.8379 64.6035C64.4268 65.1084 65.0159 65.6132 65.6048 66.118C66.2273 67.0782 67.0686 67.7514 68.129 68.1374C68.129 68.2214 68.129 68.3057 68.129 68.3898C68.129 68.4738 68.129 68.5582 68.129 68.6422C67.661 68.4552 67.2402 68.2027 66.8669 67.885C65.9413 67.0436 65.0159 66.2021 64.0903 65.3608C63.9363 65.1359 63.8523 64.8834 63.8379 64.6035Z" fill="#B8D8F0" fill-opacity="0.5"/>
<path fill-rule="evenodd" clip-rule="evenodd" d="M63.8379 64.6079C63.8379 64.5238 63.8379 64.4395 63.8379 64.3555C64.6681 64.6808 65.257 65.2697 65.6048 66.1224C65.0159 65.6176 64.4268 65.1127 63.8379 64.6079Z" fill="#B8D8F0" fill-opacity="0.5"/>
<path fill-rule="evenodd" clip-rule="evenodd" d="M63.5822 64.6035C63.6662 64.6035 63.7506 64.6035 63.8346 64.6035C63.849 64.8834 63.933 65.1359 64.087 65.3608C63.6963 65.2797 63.5279 65.0273 63.5822 64.6035Z" fill="#B8D8F0" fill-opacity="0.5"/>
<path fill-rule="evenodd" clip-rule="evenodd" d="M41.8753 64.6035C41.897 64.8549 41.8127 65.0652 41.6229 65.2346C40.1402 65.4226 38.71 65.7593 37.3318 66.2442C36.3256 66.3702 35.3159 66.4123 34.3027 66.3704C35.06 66.2021 35.8172 66.034 36.5745 65.8656C36.7429 65.6972 36.911 65.5291 37.0793 65.3608C37.3318 65.3608 37.5842 65.3608 37.8366 65.3608C39.261 65.4244 40.6071 65.172 41.8753 64.6035Z" fill="#B8D8F0" fill-opacity="0.5"/>
<path fill-rule="evenodd" clip-rule="evenodd" d="M21.9401 64.6035C23.2742 65.0927 24.6203 65.5556 25.9788 65.9918C29.1808 66.1705 32.3781 66.1284 35.5707 65.8656C35.9072 65.8656 36.2439 65.8656 36.5804 65.8656C35.8231 66.034 35.0659 66.2021 34.3086 66.3704C31.4467 66.4126 28.5858 66.3704 25.7264 66.2442C24.7089 65.7366 23.6149 65.4842 22.445 65.487C22.0732 65.3078 21.9048 65.0134 21.9401 64.6035Z" fill="#B8D8F0" fill-opacity="0.5"/>
<path fill-rule="evenodd" clip-rule="evenodd" d="M65.6035 66.1172C66.3239 66.6243 67.0812 67.0872 67.8753 67.5055C68.0651 67.6749 68.1494 67.8851 68.1277 68.1365C67.0673 67.7506 66.226 67.0774 65.6035 66.1172Z" fill="#B8D8F0" fill-opacity="0.5"/>
<path opacity="0.525" fill-rule="evenodd" clip-rule="evenodd" d="M6.03711 65.6133C6.37366 65.6133 6.71023 65.6133 7.04678 65.6133C7.3752 66.1615 7.62762 66.7504 7.80404 67.3802C8.72958 67.4643 9.23442 67.9691 9.31855 68.8947C7.97232 68.0534 6.8785 66.9594 6.03711 65.6133Z" fill="#B8D8F0" fill-opacity="0.5"/>
<path fill-rule="evenodd" clip-rule="evenodd" d="M68.127 68.3911C68.127 68.307 68.127 68.2227 68.127 68.1387C68.8479 68.4739 69.6051 68.7263 70.3987 68.8959C70.3987 69.1483 70.3987 69.4008 70.3987 69.6532C69.5948 69.2768 68.8375 68.856 68.127 68.3911Z" fill="#B8D8F0" fill-opacity="0.5"/>
<path fill-rule="evenodd" clip-rule="evenodd" d="M68.127 68.643C68.127 68.559 68.127 68.4747 68.127 68.3906C68.8375 68.8556 69.5948 69.2764 70.3987 69.6527C70.3987 69.7368 70.3987 69.8211 70.3987 69.9051C70.0044 69.8463 69.668 69.678 69.389 69.4003C68.9067 69.2552 68.4859 69.0027 68.127 68.643Z" fill="#B8D8F0" fill-opacity="0.5"/>
<path opacity="0.639" fill-rule="evenodd" clip-rule="evenodd" d="M102.202 68.6435C99.7048 70.6838 96.8439 71.9459 93.6203 72.4298C93.5773 72.0961 93.6614 71.8015 93.8727 71.5463C94.5459 71.4623 95.2188 71.378 95.892 71.2939C97.2455 70.5591 98.6759 70.0121 100.183 69.6532C100.183 69.4008 100.183 69.1483 100.183 68.8959C100.857 68.854 101.446 68.6016 101.95 68.1387C102.151 68.254 102.236 68.4224 102.202 68.6435Z" fill="#B8D8F0" fill-opacity="0.5"/>
<path opacity="0.506" fill-rule="evenodd" clip-rule="evenodd" d="M16.3856 71.4226C16.752 71.6251 17.1727 71.7513 17.6477 71.8012C17.8375 71.9706 17.9218 72.1809 17.9001 72.4323C14.7678 72.1748 11.9912 71.0811 9.57031 69.1509C9.73436 69.0741 9.90262 68.9901 10.0751 68.8984C11.7332 69.7069 13.416 70.5063 15.1235 71.2964C15.536 71.4211 15.9567 71.463 16.3856 71.4226Z" fill="#B8D8F0" fill-opacity="0.5"/>
<path fill-rule="evenodd" clip-rule="evenodd" d="M64.3418 69.6562C64.5102 69.6562 64.6783 69.6562 64.8466 69.6562C65.1218 69.9988 65.4585 70.2512 65.8563 70.4135C65.3515 70.4135 64.8466 70.4135 64.3418 70.4135C64.3418 70.1611 64.3418 69.9087 64.3418 69.6562Z" fill="#B8D8F0" fill-opacity="0.5"/>
<path fill-rule="evenodd" clip-rule="evenodd" d="M70.4004 69.9023C71.1269 70.4821 71.9682 70.8186 72.9246 70.912C72.9246 71.1644 72.9246 71.4169 72.9246 71.6693C72.5038 71.5009 72.0833 71.3328 71.6625 71.1644C71.3356 70.915 70.9991 70.6626 70.6528 70.4072C70.5688 70.2388 70.4844 70.0707 70.4004 69.9023Z" fill="#B8D8F0" fill-opacity="0.5"/>
<path fill-rule="evenodd" clip-rule="evenodd" d="M70.4004 69.9035C70.4004 69.8195 70.4004 69.7352 70.4004 69.6511C70.747 69.6115 71.0837 69.6536 71.4101 69.7773C72.5555 70.4414 73.7336 71.0303 74.9439 71.5443C75.2493 71.8065 75.5018 72.1011 75.7012 72.4277C74.8351 71.9708 73.9095 71.7184 72.9246 71.6705C72.9246 71.4181 72.9246 71.1656 72.9246 70.9132C71.9682 70.8198 71.1269 70.4833 70.4004 69.9035Z" fill="#B8D8F0" fill-opacity="0.5"/>
<path fill-rule="evenodd" clip-rule="evenodd" d="M72.9199 71.6738C73.9049 71.7218 74.8305 71.9742 75.6965 72.4311C75.6965 72.5151 75.6965 72.5994 75.6965 72.6835C75.2442 72.6497 74.8237 72.7337 74.4344 72.9359C74.3744 72.4553 74.1219 72.1186 73.6772 71.9262C73.5088 71.9262 73.3407 71.9262 73.1723 71.9262C73.004 71.9262 72.9199 71.8422 72.9199 71.6738Z" fill="#B8D8F0" fill-opacity="0.5"/>
<path opacity="0.616" fill-rule="evenodd" clip-rule="evenodd" d="M16.3828 71.4192C17.3424 71.2627 18.1838 71.4732 18.907 72.0502C24.5031 72.0926 30.0563 72.2189 35.5666 72.4289C29.6744 72.7096 23.7847 72.7096 17.8973 72.4289C17.919 72.1775 17.8347 71.9672 17.6449 71.7978C17.1699 71.7478 16.7492 71.6216 16.3828 71.4192Z" fill="#B8D8F0" fill-opacity="0.5"/>
<path fill-rule="evenodd" clip-rule="evenodd" d="M66.8627 71.168C67.1151 71.168 67.3675 71.168 67.62 71.168C68.0531 71.5529 68.558 71.8053 69.1345 71.9252C69.9016 72.605 70.8272 72.8574 71.9111 72.6825C71.9951 72.6825 72.0794 72.6825 72.1635 72.6825C72.1779 72.9624 72.2619 73.2148 72.4159 73.4397C71.1412 73.2257 69.8791 72.9314 68.6296 72.5563C68.2518 72.084 67.7469 71.8316 67.1151 71.799C66.9253 71.6296 66.841 71.4194 66.8627 71.168Z" fill="#B8D8F0" fill-opacity="0.5"/>
<path fill-rule="evenodd" clip-rule="evenodd" d="M73.1801 71.9238C73.3484 71.9238 73.5165 71.9238 73.6849 71.9238C73.6496 72.3338 73.8179 72.6281 74.1897 72.8073C73.6917 72.9322 73.1869 72.9744 72.6752 72.9335C72.5889 72.722 72.4208 72.6377 72.1704 72.6811C72.0863 72.6811 72.002 72.6811 71.918 72.6811C71.918 72.597 71.918 72.5127 71.918 72.4287C72.4937 72.5354 72.9145 72.3671 73.1801 71.9238Z" fill="#B8D8F0" fill-opacity="0.5"/>
<path fill-rule="evenodd" clip-rule="evenodd" d="M73.6855 71.9238C74.1302 72.1162 74.3826 72.4529 74.4427 72.9335C74.4427 73.0176 74.4427 73.1019 74.4427 73.1859C74.3587 73.1859 74.2743 73.1859 74.1903 73.1859C73.6261 73.2604 73.1213 73.1761 72.6758 72.9335C73.1874 72.9744 73.6923 72.9322 74.1903 72.8073C73.8185 72.6281 73.6501 72.3338 73.6855 71.9238Z" fill="#B8D8F0" fill-opacity="0.5"/>
<path fill-rule="evenodd" clip-rule="evenodd" d="M72.166 72.681C72.4164 72.6376 72.5845 72.7219 72.6709 72.9334C73.1164 73.176 73.6212 73.2603 74.1854 73.1858C73.6535 73.4302 73.0644 73.5145 72.4184 73.4382C72.2645 73.2133 72.1804 72.9609 72.166 72.681Z" fill="#B8D8F0" fill-opacity="0.5"/>
<path opacity="0.78" fill-rule="evenodd" clip-rule="evenodd" d="M74.1849 73.1875C74.269 73.1875 74.3533 73.1875 74.4373 73.1875C74.4373 78.4883 74.4373 83.7891 74.4373 89.0899C74.2551 88.9843 74.1289 88.8162 74.0587 88.585C73.9325 83.6215 73.8903 78.6572 73.9325 73.6923C73.3683 73.7668 72.8635 73.6825 72.418 73.4399C73.0639 73.5161 73.6531 73.4318 74.1849 73.1875Z" fill="#B8D8F0" fill-opacity="0.5"/>
<path opacity="0.78" fill-rule="evenodd" clip-rule="evenodd" d="M37.5822 74.9531C37.7922 80.2951 37.9184 85.6799 37.9608 91.1079C38.1292 91.2763 38.2973 91.4444 38.4657 91.6127C38.6633 93.7123 39.042 95.7317 39.6016 97.6708C39.854 97.6708 40.1064 97.6708 40.3588 97.6708C40.3588 98.1756 40.3588 98.6804 40.3588 99.1853C40.6112 99.1853 40.8637 99.1853 41.1161 99.1853C41.1161 99.6901 41.1161 100.195 41.1161 100.7C39.2219 98.2622 38.086 95.4856 37.7084 92.37C37.5822 86.5649 37.5401 80.7592 37.5822 74.9531Z" fill="#B8D8F0" fill-opacity="0.5"/>
<path opacity="0.878" fill-rule="evenodd" clip-rule="evenodd" d="M41.1211 100.697C41.4576 100.697 41.7943 100.697 42.1308 100.697C42.182 101.237 42.4344 101.658 42.888 101.959C43.0963 102.183 43.3487 102.267 43.6453 102.212C43.6453 102.548 43.6453 102.885 43.6453 103.221C43.8977 103.221 44.1501 103.221 44.4025 103.221C44.4025 103.474 44.4025 103.726 44.4025 103.979C43.0564 103.137 41.9624 102.043 41.1211 100.697Z" fill="#B8D8F0" fill-opacity="0.5"/>
<path opacity="0.812" fill-rule="evenodd" clip-rule="evenodd" d="M44.4004 103.98C44.912 103.939 45.4169 103.981 45.9149 104.106C47.1689 105.026 48.5153 105.783 49.9536 106.378C51.0965 106.497 52.1903 106.749 53.235 107.135C52.6519 107.261 52.0631 107.303 51.4681 107.261C48.8119 106.744 46.4558 105.65 44.4004 103.98Z" fill="#B8D8F0" fill-opacity="0.5"/>
<path opacity="0.235" fill-rule="evenodd" clip-rule="evenodd" d="M73.1779 96.413C70.71 102.498 66.2506 106.2 59.7998 107.519C59.6506 107.355 59.4825 107.187 59.2949 107.015C59.3477 106.867 59.432 106.74 59.5473 106.636C61.6465 106.008 63.7499 105.377 65.8578 104.743C65.8578 104.49 65.8578 104.238 65.8578 103.986C66.5853 103.958 67.1742 103.664 67.6247 103.102C69.4093 101.366 71.0079 99.5567 72.4207 97.6751C72.3318 97.0257 72.458 96.4368 72.7993 95.9082C72.8695 96.1394 72.9957 96.3075 73.1779 96.413Z" fill="#B8D8F0" fill-opacity="0.5"/>
</g>
<path d="M132.622 35.6777H139.312V65.0862H152.558V71H132.622V35.6777ZM158.394 71V49.0306H165.164V71H158.394ZM161.872 43.3576C160.749 43.3576 159.794 42.9652 159.009 42.1802C158.242 41.3953 157.859 40.4587 157.859 39.3705C157.859 38.2823 158.251 37.3368 159.036 36.534C159.821 35.7312 160.766 35.3299 161.872 35.3299C162.604 35.3299 163.273 35.5172 163.879 35.8918C164.486 36.2486 164.976 36.7303 165.351 37.3368C165.726 37.9433 165.913 38.6213 165.913 39.3705C165.913 40.4587 165.512 41.3953 164.709 42.1802C163.924 42.9652 162.978 43.3576 161.872 43.3576ZM169.527 49.0306H173.487V43.0633C173.487 40.8869 173.915 39.1029 174.772 37.7114C175.628 36.3021 176.734 35.2585 178.09 34.5806C179.446 33.8849 180.846 33.537 182.291 33.537C184.057 33.537 185.413 33.7778 186.358 34.2595C187.304 34.7412 187.884 35.089 188.098 35.3031L185.475 40.3338C185.386 40.209 185.136 40.0127 184.726 39.7451C184.334 39.4597 183.807 39.317 183.147 39.317C182.683 39.317 182.229 39.433 181.783 39.6649C181.337 39.8968 180.971 40.3249 180.685 40.9493C180.4 41.5737 180.257 42.4924 180.257 43.7055V49.0306H186.011V54.6768H180.257V71H173.487V54.6768H169.527V49.0306ZM194.749 61.5272C194.802 62.5262 195.07 63.4182 195.551 64.2031C196.033 64.9881 196.729 65.6035 197.639 66.0495C198.566 66.4955 199.672 66.7185 200.957 66.7185C202.116 66.7185 203.133 66.5758 204.007 66.2904C204.899 66.0049 205.649 65.6571 206.255 65.2468C206.88 64.8186 207.343 64.4083 207.647 64.0158L210.456 68.1903C209.957 68.8147 209.288 69.3944 208.449 69.9296C207.629 70.447 206.576 70.8573 205.292 71.1606C204.025 71.4817 202.438 71.6422 200.529 71.6422C198.12 71.6422 196.006 71.1695 194.187 70.224C192.367 69.2785 190.949 67.9138 189.932 66.1298C188.915 64.3459 188.407 62.223 188.407 59.7611C188.407 57.6204 188.862 55.6937 189.771 53.9811C190.681 52.2507 192.001 50.8859 193.732 49.8869C195.48 48.8879 197.576 48.3884 200.02 48.3884C202.322 48.3884 204.311 48.8344 205.988 49.7264C207.682 50.6005 208.994 51.8849 209.921 53.5797C210.849 55.2745 211.313 57.3438 211.313 59.7879C211.313 59.9306 211.304 60.2249 211.286 60.6709C211.286 61.0991 211.268 61.3845 211.232 61.5272H194.749ZM204.944 57.326C204.926 56.7551 204.748 56.1397 204.409 55.4796C204.088 54.8195 203.579 54.2576 202.884 53.7938C202.188 53.3299 201.26 53.098 200.101 53.098C198.941 53.098 197.987 53.321 197.237 53.767C196.506 54.213 195.953 54.766 195.578 55.4261C195.204 56.0683 194.99 56.7016 194.936 57.326H204.944ZM229.913 35.6777H241.66C243.89 35.6777 245.906 36.0613 247.708 36.8284C249.527 37.5955 250.972 38.7729 252.043 40.3606C253.113 41.9305 253.648 43.9374 253.648 46.3814C253.648 48.8076 253.113 50.8503 252.043 52.5093C250.972 54.1684 249.527 55.4261 247.708 56.2824C245.906 57.1208 243.89 57.5401 241.66 57.5401H236.576V71H229.913V35.6777ZM236.576 52.1615H239.814C241.063 52.1615 242.187 51.9831 243.186 51.6263C244.202 51.2516 245.014 50.654 245.621 49.8334C246.227 49.0128 246.53 47.9156 246.53 46.542C246.53 45.1505 246.227 44.0623 245.621 43.2774C245.014 42.4746 244.202 41.9037 243.186 41.5648C242.187 41.208 241.063 41.0296 239.814 41.0296H236.576V52.1615ZM263.872 71H257.075V49.0306H263.872V52.5896H263.738C263.863 52.1615 264.202 51.6174 264.755 50.9573C265.326 50.2972 266.111 49.7085 267.11 49.1912C268.109 48.656 269.313 48.3884 270.723 48.3884C271.739 48.3884 272.658 48.54 273.479 48.8433C274.317 49.1287 274.915 49.4142 275.272 49.6996L272.596 55.2655C272.364 54.9801 271.927 54.6857 271.284 54.3825C270.66 54.0792 269.875 53.9276 268.93 53.9276C267.806 53.9276 266.869 54.2398 266.12 54.8641C265.371 55.4707 264.809 56.2199 264.434 57.1119C264.059 57.9861 263.872 58.8067 263.872 59.5738V71ZM282.344 61.5272C282.397 62.5262 282.665 63.4182 283.146 64.2031C283.628 64.9881 284.324 65.6035 285.234 66.0495C286.161 66.4955 287.267 66.7185 288.552 66.7185C289.711 66.7185 290.728 66.5758 291.602 66.2904C292.494 66.0049 293.244 65.6571 293.85 65.2468C294.474 64.8186 294.938 64.4083 295.242 64.0158L298.051 68.1903C297.552 68.8147 296.883 69.3944 296.044 69.9296C295.224 70.447 294.171 70.8573 292.887 71.1606C291.62 71.4817 290.032 71.6422 288.124 71.6422C285.715 71.6422 283.601 71.1695 281.782 70.224C279.962 69.2785 278.544 67.9138 277.527 66.1298C276.51 64.3459 276.002 62.223 276.002 59.7611C276.002 57.6204 276.457 55.6937 277.366 53.9811C278.276 52.2507 279.596 50.8859 281.327 49.8869C283.075 48.8879 285.171 48.3884 287.615 48.3884C289.916 48.3884 291.906 48.8344 293.583 49.7264C295.277 50.6005 296.588 51.8849 297.516 53.5797C298.444 55.2745 298.908 57.3438 298.908 59.7879C298.908 59.9306 298.899 60.2249 298.881 60.6709C298.881 61.0991 298.863 61.3845 298.827 61.5272H282.344ZM292.539 57.326C292.521 56.7551 292.343 56.1397 292.004 55.4796C291.683 54.8195 291.174 54.2576 290.478 53.7938C289.783 53.3299 288.855 53.098 287.695 53.098C286.536 53.098 285.581 53.321 284.832 53.767C284.101 54.213 283.548 54.766 283.173 55.4261C282.799 56.0683 282.584 56.7016 282.531 57.326H292.539ZM312.702 48.3884C314.023 48.3884 315.245 48.5133 316.368 48.763C317.492 48.9949 318.438 49.2625 319.205 49.5658C319.99 49.8691 320.507 50.1277 320.757 50.3418L318.429 54.436C318.072 54.1506 317.43 53.8116 316.502 53.4191C315.592 53.0267 314.576 52.8304 313.452 52.8304C312.435 52.8304 311.579 53.0088 310.883 53.3656C310.187 53.7046 309.839 54.2219 309.839 54.9177C309.839 55.6134 310.214 56.1664 310.963 56.5767C311.712 56.987 312.756 57.3438 314.094 57.6471C315.218 57.879 316.324 58.2358 317.412 58.7175C318.5 59.1813 319.401 59.8592 320.115 60.7512C320.828 61.6253 321.185 62.7938 321.185 64.2567C321.185 65.7017 320.873 66.9058 320.249 67.8692C319.642 68.8147 318.83 69.5639 317.813 70.1169C316.797 70.67 315.682 71.0624 314.469 71.2944C313.255 71.5263 312.051 71.6422 310.856 71.6422C309.304 71.6422 307.939 71.4906 306.762 71.1873C305.584 70.9019 304.612 70.5719 303.845 70.1972C303.096 69.8048 302.561 69.4747 302.24 69.2071L304.568 64.658C305.031 65.0684 305.79 65.5233 306.842 66.0228C307.913 66.5044 309.063 66.7453 310.294 66.7453C311.579 66.7453 312.586 66.5223 313.318 66.0763C314.067 65.6303 314.442 65.0327 314.442 64.2834C314.442 63.7304 314.263 63.2844 313.907 62.9455C313.55 62.5887 313.059 62.2943 312.435 62.0624C311.81 61.8305 311.079 61.6253 310.241 61.4469C309.473 61.2864 308.689 61.0545 307.886 60.7512C307.083 60.4301 306.334 60.0108 305.638 59.4935C304.942 58.9762 304.38 58.3339 303.952 57.5668C303.524 56.7819 303.31 55.8453 303.31 54.7571C303.31 53.3656 303.756 52.2061 304.648 51.2784C305.54 50.3329 306.699 49.6193 308.127 49.1377C309.554 48.6381 311.079 48.3884 312.702 48.3884ZM337.263 66.2368C338.423 66.2368 339.368 66.0406 340.1 65.6481C340.831 65.2557 341.313 64.9613 341.545 64.7651L344.702 69.448C344.453 69.6442 343.989 69.9207 343.311 70.2775C342.633 70.6343 341.768 70.9465 340.715 71.2141C339.681 71.4995 338.494 71.6422 337.156 71.6422C334.837 71.6422 332.759 71.1784 330.921 70.2507C329.084 69.3052 327.63 67.9673 326.56 66.2368C325.507 64.4886 324.981 62.4103 324.981 60.0019C324.981 57.5758 325.507 55.4974 326.56 53.767C327.63 52.0366 329.084 50.7075 330.921 49.7799C332.759 48.8522 334.837 48.3884 337.156 48.3884C338.476 48.3884 339.645 48.5311 340.662 48.8165C341.696 49.102 342.562 49.432 343.257 49.8066C343.953 50.1634 344.435 50.4578 344.702 50.6897L341.464 55.3993C341.34 55.2566 341.099 55.0604 340.742 54.8106C340.385 54.5609 339.912 54.329 339.324 54.1149C338.753 53.9008 338.066 53.7938 337.263 53.7938C336.282 53.7938 335.346 54.0524 334.454 54.5698C333.579 55.0871 332.866 55.8096 332.313 56.7373C331.76 57.665 331.483 58.7532 331.483 60.0019C331.483 61.2507 331.76 62.3478 332.313 63.2933C332.866 64.221 333.579 64.9435 334.454 65.4608C335.346 65.9782 336.282 66.2368 337.263 66.2368ZM354.864 71H348.067V49.0306H354.864V52.5896H354.73C354.855 52.1615 355.194 51.6174 355.747 50.9573C356.318 50.2972 357.103 49.7085 358.102 49.1912C359.101 48.656 360.305 48.3884 361.715 48.3884C362.731 48.3884 363.65 48.54 364.471 48.8433C365.309 49.1287 365.907 49.4142 366.264 49.6996L363.588 55.2655C363.356 54.9801 362.919 54.6857 362.277 54.3825C361.652 54.0792 360.867 53.9276 359.922 53.9276C358.798 53.9276 357.861 54.2398 357.112 54.8641C356.363 55.4707 355.801 56.2199 355.426 57.1119C355.052 57.9861 354.864 58.8067 354.864 59.5738V71ZM369.175 71V49.0306H375.946V71H369.175ZM372.654 43.3576C371.53 43.3576 370.576 42.9652 369.791 42.1802C369.024 41.3953 368.64 40.4587 368.64 39.3705C368.64 38.2823 369.033 37.3368 369.818 36.534C370.603 35.7312 371.548 35.3299 372.654 35.3299C373.386 35.3299 374.055 35.5172 374.661 35.8918C375.268 36.2486 375.758 36.7303 376.133 37.3368C376.507 37.9433 376.695 38.6213 376.695 39.3705C376.695 40.4587 376.293 41.3953 375.491 42.1802C374.706 42.9652 373.76 43.3576 372.654 43.3576ZM382.021 71V34.1792H388.818V52.5896C388.961 52.0723 389.38 51.4836 390.076 50.8235C390.771 50.1634 391.69 49.5926 392.832 49.1109C393.991 48.6292 395.303 48.3884 396.765 48.3884C398.871 48.3884 400.708 48.8968 402.278 49.9137C403.866 50.9305 405.097 52.322 405.971 54.0881C406.863 55.8364 407.309 57.8166 407.309 60.0287C407.309 62.2408 406.863 64.2299 405.971 65.996C405.097 67.7443 403.866 69.1268 402.278 70.1437C400.708 71.1427 398.871 71.6422 396.765 71.6422C395.463 71.6422 394.25 71.4014 393.126 70.9197C392.02 70.4381 391.084 69.8494 390.317 69.1536C389.567 68.4579 389.041 67.7978 388.738 67.1734V71H382.021ZM400.619 60.0287C400.619 58.7978 400.36 57.7185 399.843 56.7908C399.325 55.8453 398.63 55.1139 397.756 54.5966C396.881 54.0614 395.909 53.7938 394.839 53.7938C393.715 53.7938 392.698 54.0614 391.788 54.5966C390.878 55.1317 390.156 55.8721 389.621 56.8176C389.086 57.7452 388.818 58.8156 388.818 60.0287C388.818 61.2418 389.086 62.3211 389.621 63.2666C390.156 64.1942 390.878 64.9256 391.788 65.4608C392.698 65.9782 393.715 66.2368 394.839 66.2368C395.909 66.2368 396.881 65.9782 397.756 65.4608C398.63 64.9435 399.325 64.221 399.843 63.2933C400.36 62.3478 400.619 61.2596 400.619 60.0287ZM416.349 61.5272C416.403 62.5262 416.67 63.4182 417.152 64.2031C417.634 64.9881 418.329 65.6035 419.239 66.0495C420.167 66.4955 421.273 66.7185 422.557 66.7185C423.717 66.7185 424.734 66.5758 425.608 66.2904C426.5 66.0049 427.249 65.6571 427.856 65.2468C428.48 64.8186 428.944 64.4083 429.247 64.0158L432.057 68.1903C431.557 68.8147 430.888 69.3944 430.05 69.9296C429.229 70.447 428.177 70.8573 426.892 71.1606C425.626 71.4817 424.038 71.6422 422.129 71.6422C419.721 71.6422 417.607 71.1695 415.787 70.224C413.968 69.2785 412.549 67.9138 411.532 66.1298C410.516 64.3459 410.007 62.223 410.007 59.7611C410.007 57.6204 410.462 55.6937 411.372 53.9811C412.282 52.2507 413.602 50.8859 415.332 49.8869C417.081 48.8879 419.177 48.3884 421.621 48.3884C423.922 48.3884 425.911 48.8344 427.588 49.7264C429.283 50.6005 430.594 51.8849 431.522 53.5797C432.449 55.2745 432.913 57.3438 432.913 59.7879C432.913 59.9306 432.904 60.2249 432.886 60.6709C432.886 61.0991 432.869 61.3845 432.833 61.5272H416.349ZM426.544 57.326C426.527 56.7551 426.348 56.1397 426.009 55.4796C425.688 54.8195 425.18 54.2576 424.484 53.7938C423.788 53.3299 422.861 53.098 421.701 53.098C420.541 53.098 419.587 53.321 418.838 53.767C418.106 54.213 417.553 54.766 417.179 55.4261C416.804 56.0683 416.59 56.7016 416.536 57.326H426.544ZM443.818 71H437.021V49.0306H443.818V52.5896H443.684C443.809 52.1615 444.148 51.6174 444.701 50.9573C445.272 50.2972 446.057 49.7085 447.056 49.1912C448.055 48.656 449.259 48.3884 450.668 48.3884C451.685 48.3884 452.604 48.54 453.425 48.8433C454.263 49.1287 454.861 49.4142 455.217 49.6996L452.541 55.2655C452.31 54.9801 451.873 54.6857 451.23 54.3825C450.606 54.0792 449.821 53.9276 448.875 53.9276C447.752 53.9276 446.815 54.2398 446.066 54.8641C445.316 55.4707 444.755 56.2199 444.38 57.1119C444.005 57.9861 443.818 58.8067 443.818 59.5738V71Z" fill="#7DBCDB"/>
</g>
<defs>
<clipPath id="clip0_3188_4006">
<rect width="504" height="109" fill="white"/>
</clipPath>
<clipPath id="clip1_3188_4006">
<rect width="111" height="111.267" fill="white" transform="translate(0 -1)"/>
</clipPath>
</defs>
</svg>
