<svg width="22" height="22" viewBox="0 0 22 22" fill="none" xmlns="http://www.w3.org/2000/svg">
<path d="M13.9333 2.75C14.4169 2.75689 14.8782 2.95457 15.2167 3.3L18.7 6.78333C19.0454 7.12182 19.2431 7.58309 19.25 8.06667V17.4167C19.25 17.9029 19.0568 18.3692 18.713 18.713C18.3692 19.0568 17.9029 19.25 17.4167 19.25H4.58333C4.0971 19.25 3.63079 19.0568 3.28697 18.713C2.94315 18.3692 2.75 17.9029 2.75 17.4167V4.58333C2.75 4.0971 2.94315 3.63079 3.28697 3.28697C3.63079 2.94315 4.0971 2.75 4.58333 2.75H13.9333Z" stroke="#619155" stroke-width="2" stroke-linecap="round" stroke-linejoin="round"/>
<path d="M15.5837 19.25V12.8333C15.5837 12.5902 15.4871 12.3571 15.3152 12.1852C15.1433 12.0132 14.9101 11.9167 14.667 11.9167H7.33366C7.09054 11.9167 6.85739 12.0132 6.68548 12.1852C6.51357 12.3571 6.41699 12.5902 6.41699 12.8333V19.25M6.41699 2.75V6.41667C6.41699 6.65978 6.51357 6.89294 6.68548 7.06485C6.85739 7.23676 7.09054 7.33333 7.33366 7.33333H13.7503" stroke="#619155" stroke-width="2" stroke-linecap="round" stroke-linejoin="round"/>
</svg>
