<svg width="22" height="22" viewBox="0 0 22 22" fill="none" xmlns="http://www.w3.org/2000/svg">
<path d="M0.916992 18.3327V15.766C0.916992 15.2466 1.05083 14.7693 1.31849 14.3342C1.58616 13.8991 1.94121 13.5667 2.38366 13.3369C3.33088 12.8633 4.29338 12.5082 5.27116 12.2717C6.24894 12.0352 7.24199 11.9166 8.25033 11.916C9.25866 11.9154 10.2517 12.034 11.2295 12.2717C12.2073 12.5094 13.1698 12.8645 14.117 13.3369C14.56 13.566 14.9154 13.8985 15.1831 14.3342C15.4507 14.7699 15.5843 15.2472 15.5837 15.766V18.3327H0.916992ZM17.417 18.3327V15.5827C17.417 14.9105 17.23 14.2648 16.856 13.6458C16.482 13.0267 15.9509 12.496 15.2628 12.0535C16.042 12.1452 16.7753 12.302 17.4628 12.5238C18.1503 12.7456 18.792 13.0167 19.3878 13.3369C19.9378 13.6424 20.358 13.9822 20.6482 14.3562C20.9385 14.7302 21.0837 15.139 21.0837 15.5827V18.3327H17.417ZM8.25033 10.9994C7.24199 10.9994 6.3788 10.6403 5.66074 9.92229C4.94269 9.20423 4.58366 8.34104 4.58366 7.33271C4.58366 6.32437 4.94269 5.46118 5.66074 4.74312C6.3788 4.02507 7.24199 3.66604 8.25033 3.66604C9.25866 3.66604 10.1219 4.02507 10.8399 4.74312C11.558 5.46118 11.917 6.32437 11.917 7.33271C11.917 8.34104 11.558 9.20423 10.8399 9.92229C10.1219 10.6403 9.25866 10.9994 8.25033 10.9994ZM17.417 7.33271C17.417 8.34104 17.058 9.20423 16.3399 9.92229C15.6219 10.6403 14.7587 10.9994 13.7503 10.9994C13.5823 10.9994 13.3684 10.9804 13.1087 10.9425C12.8489 10.9046 12.635 10.8625 12.467 10.816C12.8795 10.3272 13.1967 9.78479 13.4185 9.18896C13.6403 8.59312 13.7509 7.97437 13.7503 7.33271C13.7497 6.69104 13.6391 6.07229 13.4185 5.47646C13.1979 4.88062 12.8807 4.33826 12.467 3.84937C12.6809 3.77298 12.8948 3.72318 13.1087 3.69996C13.3225 3.67673 13.5364 3.66543 13.7503 3.66604C14.7587 3.66604 15.6219 4.02507 16.3399 4.74312C17.058 5.46118 17.417 6.32437 17.417 7.33271ZM2.75033 16.4994H13.7503V15.766C13.7503 15.598 13.7085 15.4452 13.6247 15.3077C13.541 15.1702 13.4301 15.0633 13.292 14.9869C12.467 14.5744 11.6344 14.2652 10.7941 14.0592C9.9538 13.8533 9.10588 13.75 8.25033 13.7494C7.39477 13.7488 6.54685 13.852 5.70658 14.0592C4.8663 14.2664 4.03366 14.5756 3.20866 14.9869C3.07116 15.0633 2.96024 15.1702 2.87591 15.3077C2.79158 15.4452 2.74971 15.598 2.75033 15.766V16.4994ZM8.25033 9.16604C8.75449 9.16604 9.18624 8.98668 9.54558 8.62796C9.90491 8.26923 10.0843 7.83748 10.0837 7.33271C10.083 6.82793 9.90369 6.39648 9.54558 6.03837C9.18746 5.68026 8.75571 5.50059 8.25033 5.49937C7.74494 5.49815 7.31349 5.67782 6.95599 6.03837C6.59849 6.39893 6.41883 6.83037 6.41699 7.33271C6.41516 7.83504 6.59483 8.26679 6.95599 8.62796C7.31716 8.98912 7.7486 9.16848 8.25033 9.16604Z" fill="#619155"/>
</svg>
