<svg width="44" height="44" viewBox="0 0 44 44" fill="none" xmlns="http://www.w3.org/2000/svg">
<path d="M27.5965 23.9312C25.8275 23.9312 24.3238 23.312 23.0855 22.0737C21.8472 20.8354 21.2281 19.3318 21.2281 17.5628C21.2281 15.7938 21.8472 14.2901 23.0855 13.0518C24.3238 11.8135 25.8275 11.1944 27.5965 11.1944C29.3655 11.1944 30.8692 11.8135 32.1075 13.0518C33.3458 14.2901 33.9649 15.7938 33.9649 17.5628C33.9649 19.3318 33.3458 20.8354 32.1075 22.0737C30.8692 23.312 29.3655 23.9312 27.5965 23.9312ZM14.8596 36.668V32.6347C14.8596 31.8917 15.0365 31.1841 15.3904 30.5119C15.7442 29.8397 16.2395 29.309 16.8763 28.9198C18.4684 27.9645 20.1582 27.2484 21.9456 26.7715C23.733 26.2946 25.6166 26.0554 27.5965 26.054C29.5764 26.0526 31.4607 26.2918 33.2495 26.7715C35.0383 27.2513 36.7274 27.9674 38.3167 28.9198C38.9535 29.309 39.4488 29.8397 39.8026 30.5119C40.1564 31.1841 40.3333 31.8917 40.3333 32.6347V36.668H14.8596ZM0 23.9312V19.6856H16.9825V23.9312H0ZM0 6.94874V2.70312H25.4737V6.94874H0ZM17.1947 15.44H0V11.1944H19.1053C18.6099 11.7958 18.2123 12.4503 17.9122 13.158C17.6122 13.8656 17.3731 14.6262 17.1947 15.44Z" fill="#38424B"/>
</svg>
