<svg width="22" height="22" viewBox="0 0 22 22" fill="none" xmlns="http://www.w3.org/2000/svg">
<path d="M11.458 10.0827H13.2913V8.24935H15.1247V6.41602H13.2913V4.58268H11.458V6.41602H9.62467V8.24935H11.458V10.0827ZM9.62467 13.7493H15.1247V11.916H9.62467V13.7493ZM7.33301 17.416C6.82884 17.416 6.3974 17.2367 6.03867 16.8779C5.67995 16.5192 5.50029 16.0875 5.49967 15.5827V2.74935C5.49967 2.24518 5.67934 1.81374 6.03867 1.45502C6.39801 1.09629 6.82945 0.916627 7.33301 0.916016H13.7497L19.2497 6.41602V15.5827C19.2497 16.0868 19.0703 16.5186 18.7116 16.8779C18.3529 17.2373 17.9211 17.4166 17.4163 17.416H7.33301ZM7.33301 15.5827H17.4163V7.33268L12.833 2.74935H7.33301V15.5827ZM3.66634 21.0827C3.16217 21.0827 2.73073 20.9033 2.37201 20.5446C2.01329 20.1859 1.83362 19.7541 1.83301 19.2493V6.41602H3.66634V19.2493H13.7497V21.0827H3.66634Z" fill="#619155"/>
</svg>
