<svg width="230" height="70" viewBox="0 0 230 70" fill="none" xmlns="http://www.w3.org/2000/svg">
<g clip-path="url(#clip0_486_2297)">
<path d="M72.2081 46.3902V19.165H76.4834L86.5597 42.0036L96.6043 19.165H100.88V46.3902H98.0029L98.0823 22.1848L87.5292 46.3902H85.5743L74.9736 22.1848L75.053 46.3902H72.2081Z" fill="#67717D"/>
<path d="M106.283 37.2675C106.426 42.2262 110.67 44.6261 114.007 44.5943C117.059 44.5943 119.522 43.0844 120.81 40.5097H123.639C122.717 42.6394 121.318 44.2605 119.634 45.3254C117.981 46.3902 116.026 46.9465 114.007 46.9465C107.126 46.9465 103.565 41.4633 103.565 36.5364C103.565 30.7195 108.047 26.0469 113.976 26.0469C116.773 26.0469 119.347 27.0481 121.223 28.8441C123.512 31.0532 124.608 34.1047 124.306 37.2675H106.283ZM121.636 35.106C121.445 31.6413 118.108 28.2719 114.023 28.3832C109.748 28.3832 106.585 31.5141 106.331 35.106H121.636Z" fill="#67717D"/>
<path d="M147.669 46.3902H145.063V42.3056C143.664 44.9121 141.01 46.9464 136.894 46.9464C130.568 46.9464 126.658 42.0195 126.658 36.4569C126.658 30.5764 130.934 26.0468 136.846 26.0468C141.185 26.0468 144.061 28.5421 144.936 30.6082V26.4124V19.165H147.653V46.3902H147.669ZM129.344 36.5046C129.376 40.4779 132.141 44.4194 137.291 44.4194C139.5 44.4194 141.519 43.5294 142.917 42.099C144.348 40.6209 145.206 38.6025 145.126 36.3933C145.126 34.1524 144.284 32.2293 142.854 30.8466C141.455 29.4162 139.468 28.5738 137.259 28.5738C132.698 28.5738 129.344 32.0227 129.344 36.4887V36.5046Z" fill="#67717D"/>
<path d="M152.056 19.165H154.774V22.9635H152.056V19.165ZM152.056 26.6031H154.774V46.3902H152.056V26.6031Z" fill="#67717D"/>
<path d="M168.632 31.5618C168.632 29.4639 167.234 28.2878 165.247 28.2878C163.07 28.2878 161.75 29.7659 161.83 31.4824C161.909 33.3578 163.34 34.1365 165.724 34.8358C168.553 35.6146 171.716 36.4093 171.874 40.6528C172.017 44.2923 169.077 46.9465 165.326 46.9465C162.132 46.9465 158.588 44.928 158.556 40.764H161.242C161.353 43.4818 163.372 44.7055 165.358 44.7055C167.647 44.7055 169.22 43.0209 169.188 40.9865C169.109 38.7456 167.647 37.8238 164.23 36.8225C161.401 35.9802 159.192 34.8358 159.112 31.7049C159.112 28.1448 161.941 26.0469 165.295 26.0469C168.06 26.0469 171.143 27.5567 171.334 31.5618H168.632Z" fill="#67717D"/>
<path d="M195.285 46.39H192.568V42.3054C191.026 45.2774 188.006 46.9462 184.478 46.9462C178.041 46.9462 174.211 41.9398 174.211 36.5044C174.211 30.6874 178.439 26.0625 184.478 26.0625C188.706 26.0625 191.614 28.526 192.568 30.7669V26.6029H195.285V46.39ZM176.881 36.5361C176.913 40.1121 179.376 44.4033 184.828 44.4033C188.324 44.4033 190.899 42.3849 191.964 39.5876C192.409 38.6341 192.631 37.5215 192.631 36.4567C192.663 35.36 192.44 34.2475 192.011 33.2939C190.915 30.5762 188.261 28.5577 184.764 28.5577C180.203 28.5577 176.897 32.086 176.897 36.5044V36.5361H176.881Z" fill="#67717D"/>
<path d="M200.324 28.7648H197.415V26.6033H200.324V24.9822C200.324 18.8792 205.139 18.6885 207.269 18.6885V20.8659C205.902 20.9453 202.994 20.9453 202.994 25.2365V26.6033H207.269V28.7807H202.994V46.4063H200.308V28.7648H200.324Z" fill="#67717D"/>
<path d="M209.637 37.2675C209.78 42.2262 214.008 44.6261 217.361 44.5943C220.413 44.5943 222.876 43.0844 224.163 40.5097H226.992C226.071 42.6394 224.672 44.2605 222.987 45.3254C221.334 46.3902 219.38 46.9465 217.361 46.9465C210.479 46.9465 206.919 41.4633 206.919 36.5364C206.919 30.7195 211.401 26.0469 217.329 26.0469C220.127 26.0469 222.701 27.0481 224.577 28.8441C226.865 31.0532 227.962 34.1047 227.66 37.2675H209.637ZM224.974 35.106C224.783 31.6413 221.446 28.2719 217.361 28.3832C213.086 28.3832 209.923 31.5141 209.669 35.106H224.974Z" fill="#67717D"/>
<path d="M15.6282 46.3586C8.19012 46.3586 1.95997 40.7324 1.45139 33.5328C1.16531 29.5118 2.62749 25.5861 5.47238 22.7413C8.09476 20.1348 11.5754 18.6885 15.2626 18.6885H35.5742L29.0103 39.2702C27.6593 43.4978 23.7655 46.3427 19.3313 46.3427H15.6282V46.3586ZM15.2467 21.5016C12.3065 21.5016 9.52515 22.6459 7.42725 24.7438C5.17041 27.0006 3.99431 30.1475 4.23271 33.3579C4.63004 39.0954 9.63641 43.5773 15.6123 43.5773H19.2995C22.5258 43.5773 25.3389 41.5112 26.3243 38.4438L31.728 21.5016H15.2467Z" fill="#2EA6AA"/>
<path d="M29.6778 46.3586L36.8138 24.0127C37.831 20.8341 40.7554 18.6885 44.0929 18.6885H49.6238C57.0618 18.6885 63.292 24.3147 63.8005 31.5143C64.0866 35.5353 62.6244 39.4609 59.7796 42.3058C57.1572 44.9123 53.6766 46.3586 49.9893 46.3586H29.6778ZM44.0929 21.5016C41.9791 21.5016 40.1196 22.8525 39.4839 24.8709L33.508 43.5614H49.9893C52.9296 43.5614 55.7109 42.4171 57.8088 40.3192C60.0656 38.0623 61.2417 34.9155 61.0033 31.705C60.606 25.9676 55.5996 21.4857 49.6238 21.4857H44.0929V21.5016Z" fill="#156EAF"/>
</g>
<defs>
<clipPath id="clip0_486_2297">
<rect width="230" height="70" fill="white"/>
</clipPath>
</defs>
</svg>
