<svg width="230" height="70" viewBox="0 0 230 70" fill="none" xmlns="http://www.w3.org/2000/svg">
<mask id="mask0_487_2310" style="mask-type:luminance" maskUnits="userSpaceOnUse" x="1" y="15" width="228" height="40">
<path d="M1 15H229V54.348H1V15Z" fill="white"/>
</mask>
<g mask="url(#mask0_487_2310)">
<path fill-rule="evenodd" clip-rule="evenodd" d="M28.3797 17.4593C31.6587 20.7383 31.6587 25.8754 28.3797 29.0451L15.0451 42.3797C11.7661 45.6587 6.62896 45.5494 3.45925 42.3797C0.180249 39.1007 0.180249 33.9636 3.45925 30.7939L16.7939 17.4593C20.0729 14.1802 25.1007 14.1802 28.3797 17.4593ZM11.9847 26.094L19.745 33.745L20.5101 32.9799L26.303 27.0777C28.489 25.1103 28.489 21.6127 26.303 19.536C24.117 17.4593 20.838 17.35 18.652 19.536L12.094 26.094H11.9847Z" fill="#ED0334"/>
<path d="M41.1678 16.6943H46.3049L46.5235 16.8036L54.6117 37.1335C54.6117 37.3521 55.0489 37.3521 55.0489 37.1335L63.0278 16.8036L63.2464 16.6943H68.2742L68.4928 16.9129V43.145C68.4928 43.3636 68.4928 43.4729 68.2742 43.4729H64.6673C64.5964 43.4769 64.526 43.4577 64.4669 43.4183C64.4077 43.3789 64.363 43.3213 64.3394 43.2543V25.2197C64.3394 24.8918 64.0115 24.7825 63.9022 25.1104L56.5791 43.3636L56.3605 43.4729H53.0815L52.8629 43.3636L45.5398 25.1104C45.5398 24.7825 45.1026 24.8918 45.1026 25.1104V43.2543L44.7747 43.4729H41.1678C41.1162 43.4572 41.0693 43.4291 41.0311 43.3909C40.993 43.3528 40.9649 43.3059 40.9492 43.2543V17.0222C40.9492 16.8036 40.9492 16.6943 41.1678 16.6943ZM71.0067 23.7988H74.8322L75.0508 24.0174L80.0786 38.0079C80.0786 38.3358 80.5158 38.3358 80.6252 38.0079L85.4343 24.0174L85.7623 23.9081H89.4785C89.5878 23.9081 89.8064 24.0174 89.6971 24.236L81.1717 46.5333C79.9693 49.8123 79.0949 51.1239 76.3624 51.1239H72.3183C72.2474 51.1279 72.177 51.1087 72.1179 51.0693C72.0587 51.0299 72.014 50.9723 71.9904 50.9053V47.8449C71.9904 47.6263 72.0997 47.517 72.3183 47.517H74.8322C76.3624 47.517 76.7996 47.1891 77.3461 45.5496L78.1112 43.6915V43.4729L70.7881 24.236C70.7881 24.0174 70.7881 23.9081 71.116 23.9081L71.0067 23.7988ZM90.6808 16.6943H110.464C110.683 16.6943 110.792 16.6943 110.792 16.9129V20.3012C110.792 20.4105 110.683 20.6291 110.464 20.6291H103.032C102.813 20.6291 102.704 20.6291 102.704 20.8477V43.2543L102.485 43.4729H98.8783C98.8073 43.4769 98.7369 43.4577 98.6778 43.4183C98.6187 43.3789 98.5739 43.3213 98.5504 43.2543V20.8477L98.3318 20.6291H90.6808C90.6137 20.6056 90.5561 20.5608 90.5167 20.5017C90.4773 20.4426 90.4581 20.3722 90.4622 20.3012V17.0222C90.4622 16.8036 90.5715 16.6943 90.7901 16.6943H90.6808ZM210.364 23.7988H214.081L214.299 24.0174L219.327 38.0079C219.436 38.3358 219.764 38.3358 219.873 38.0079L224.792 24.0174L225.011 23.9081H228.727C228.945 23.9081 229.055 24.0174 228.945 24.236L220.42 46.5333C219.327 49.8123 218.453 51.1239 215.611 51.1239H211.567C211.531 51.1449 211.491 51.1554 211.449 51.1543C211.408 51.1532 211.368 51.1405 211.334 51.1177C211.3 51.0948 211.273 51.0628 211.256 51.0252C211.239 50.9876 211.233 50.946 211.239 50.9053V47.8449C211.239 47.6263 211.457 47.517 211.567 47.517H214.081C215.72 47.517 216.048 47.1891 216.704 45.5496L217.36 43.6915V43.4729L210.146 24.236C210.146 24.0174 210.146 23.9081 210.364 23.9081V23.7988ZM159.321 24.1267C159.321 23.9081 159.212 23.9081 158.993 23.9081H155.824C155.714 23.9081 155.605 23.9081 155.605 24.236V43.145C155.605 43.3636 155.605 43.4729 155.824 43.4729H159.43C159.54 43.4729 159.758 43.4729 159.758 43.145V33.6358C159.758 30.2475 161.179 27.7336 164.568 27.7336H166.098C166.316 27.7336 166.426 27.7336 166.426 27.4057V24.1267C166.426 24.0174 166.316 23.9081 166.098 23.9081H165.551C162.819 23.9081 161.179 24.6732 160.086 26.2034C159.868 26.5313 159.649 26.422 159.54 26.2034L159.321 24.1267ZM171.344 37.7892C171.344 36.5869 172.109 35.6032 173.967 35.2753L180.416 33.8544C180.525 33.8544 180.744 33.8544 180.744 34.1823V35.494C180.744 38.5544 178.558 40.5218 175.06 40.5218C172.547 40.5218 171.344 39.3195 171.344 37.7892ZM172 30.1382C172.437 28.1708 174.186 26.9685 176.372 26.9685C178.995 26.9685 180.744 28.2801 180.744 30.3568C180.744 30.5754 180.525 30.6847 180.307 30.6847L172.437 32.3242C169.049 33.0893 167.3 34.9474 167.3 37.7892C167.3 41.0683 169.814 43.6915 174.186 43.6915C177.137 43.6915 178.886 42.8171 180.525 41.0683C180.853 40.7404 181.072 40.8497 181.181 41.2869C181.509 42.7078 182.493 43.4729 184.679 43.4729H186.646C186.756 43.4729 186.865 43.4729 186.865 43.145V40.1939C186.865 39.9753 186.865 39.866 186.646 39.866H186.1C185.225 39.866 184.788 39.4288 184.788 38.5544V30.794C184.788 26.0941 181.837 23.6895 176.591 23.6895C171.781 23.6895 168.393 26.2034 167.847 30.1382C167.847 30.3568 167.956 30.4661 168.175 30.4661H171.672C171.891 30.4661 172 30.3568 172 30.1382ZM193.532 33.6358C193.532 29.8103 195.827 27.0778 199.325 27.0778C202.713 27.0778 205.009 29.8103 205.009 33.6358C205.009 37.5707 202.823 40.1939 199.325 40.1939C195.827 40.1939 193.532 37.5707 193.532 33.6358ZM194.188 41.5055C195.718 43.0357 197.686 43.6915 199.981 43.6915C205.446 43.6915 209.271 39.6474 209.271 33.6358C209.271 27.7336 205.446 23.6895 199.981 23.6895C197.795 23.6895 195.609 24.3453 193.969 26.3127C193.751 26.5313 193.532 26.5313 193.423 26.2034L193.095 24.1267C193.095 23.9081 193.095 23.9081 192.767 23.9081H189.816C189.597 23.9081 189.488 23.9081 189.488 24.1267V50.3588C189.488 50.5774 189.488 50.6867 189.816 50.6867H193.314C193.532 50.6867 193.641 50.6867 193.641 50.3588V41.6148C193.641 41.1776 193.86 41.1776 194.079 41.3962L194.188 41.5055ZM143.801 27.0778C146.424 27.0778 148.173 28.608 148.5 30.0289C148.5 30.4661 148.501 30.5754 148.173 30.6847L138.554 32.8707C138.226 32.8707 138.117 32.8707 138.117 32.5428C138.117 30.5754 139.538 27.0778 143.801 27.0778ZM149.156 36.9149C148.828 36.9149 148.828 37.0242 148.61 37.3521C147.954 39.3195 146.096 40.3032 143.691 40.3032C142.528 40.3534 141.382 40.0156 140.432 39.3428C139.482 38.6701 138.783 37.7006 138.445 36.587C138.445 36.3684 138.336 36.1498 138.663 36.0405L152.545 32.7614C152.873 32.7614 153.091 32.6521 152.982 32.1056C152.654 27.7336 149.703 23.6895 143.801 23.6895C138.008 23.6895 133.964 28.0615 133.964 33.7451C133.964 39.2102 137.243 43.6915 143.691 43.6915C149.156 43.6915 152.435 40.1939 152.872 36.4776C152.872 36.1497 152.872 36.0404 152.435 36.1497L149.156 36.9149ZM131.122 32.5428V43.2543C131.122 43.3636 131.122 43.4729 130.903 43.4729H127.406C127.335 43.4769 127.264 43.4577 127.205 43.4183C127.146 43.3789 127.101 43.3213 127.078 43.2543V32.8707C127.078 29.1545 125.875 27.2964 122.815 27.1871C120.082 27.1871 117.35 29.5917 117.35 33.5265L117.459 43.2543L117.241 43.4729H113.634C113.598 43.4939 113.558 43.5044 113.517 43.5033C113.475 43.5022 113.435 43.4895 113.401 43.4667C113.367 43.4438 113.34 43.4118 113.323 43.3742C113.306 43.3366 113.3 43.295 113.306 43.2543V17.0222C113.306 16.8036 113.415 16.6943 113.634 16.6943H117.241C117.35 16.6943 117.459 16.6943 117.459 16.9129V25.9848C117.459 26.2034 117.787 26.3127 118.006 26.2034C118.734 25.43 119.616 24.8167 120.594 24.4027C121.573 23.9887 122.627 23.783 123.689 23.7988C127.952 23.7988 131.122 26.0941 131.122 32.6521V32.5428Z" fill="#ED0334"/>
</g>
</svg>
