<svg width="44" height="44" viewBox="0 0 44 44" fill="none" xmlns="http://www.w3.org/2000/svg">
<path d="M37.125 6.875H6.875C6.14565 6.875 5.44618 7.16473 4.93046 7.68046C4.41473 8.19618 4.125 8.89565 4.125 9.625V34.375C4.125 35.1043 4.41473 35.8038 4.93046 36.3195C5.44618 36.8353 6.14565 37.125 6.875 37.125H37.125C37.8543 37.125 38.5538 36.8353 39.0695 36.3195C39.5853 35.8038 39.875 35.1043 39.875 34.375V9.625C39.875 8.89565 39.5853 8.19618 39.0695 7.68046C38.5538 7.16473 37.8543 6.875 37.125 6.875ZM15.95 25.025C16.2417 25.2438 16.4346 25.5695 16.4862 25.9305C16.5378 26.2916 16.4438 26.6583 16.225 26.95C16.0062 27.2417 15.6805 27.4346 15.3195 27.4862C14.9584 27.5378 14.5917 27.4438 14.3 27.225L8.8 23.1C8.62923 22.9719 8.49063 22.8058 8.39516 22.6149C8.2997 22.424 8.25 22.2135 8.25 22C8.25 21.7865 8.2997 21.576 8.39516 21.3851C8.49063 21.1942 8.62923 21.0281 8.8 20.9L14.3 16.775C14.5917 16.5562 14.9584 16.4622 15.3195 16.5138C15.6805 16.5654 16.0062 16.7583 16.225 17.05C16.4438 17.3417 16.5378 17.7084 16.4862 18.0695C16.4346 18.4305 16.2417 18.7562 15.95 18.975L11.9161 22L15.95 25.025ZM26.0717 12.7531L20.5717 32.0031C20.5248 32.1798 20.4432 32.3454 20.3316 32.4902C20.22 32.6349 20.0806 32.756 19.9216 32.8462C19.7627 32.9365 19.5873 32.9942 19.4058 33.0158C19.2243 33.0375 19.0402 33.0228 18.8645 32.9725C18.6887 32.9222 18.5248 32.8374 18.3822 32.723C18.2396 32.6086 18.1213 32.4669 18.0341 32.3062C17.9469 32.1456 17.8927 31.9691 17.8745 31.7872C17.8563 31.6053 17.8746 31.4216 17.9283 31.2469L23.4283 11.9969C23.534 11.6527 23.7705 11.3637 24.087 11.192C24.4035 11.0203 24.7747 10.9795 25.1209 11.0786C25.4671 11.1776 25.7606 11.4085 25.9384 11.7216C26.1162 12.0347 26.164 12.4051 26.0717 12.7531ZM35.2 23.1L29.7 27.225C29.4083 27.4438 29.0416 27.5378 28.6805 27.4862C28.3195 27.4346 27.9938 27.2417 27.775 26.95C27.5562 26.6583 27.4622 26.2916 27.5138 25.9305C27.5654 25.5695 27.7583 25.2438 28.05 25.025L32.0839 22L28.05 18.975C27.9055 18.8667 27.7838 18.7309 27.6918 18.5756C27.5999 18.4202 27.5394 18.2482 27.5138 18.0695C27.4883 17.8907 27.4982 17.7087 27.543 17.5338C27.5878 17.3588 27.6667 17.1945 27.775 17.05C27.8833 16.9055 28.0191 16.7838 28.1744 16.6918C28.3298 16.5998 28.5018 16.5394 28.6805 16.5138C28.8593 16.4883 29.0413 16.4982 29.2162 16.543C29.3912 16.5878 29.5555 16.6667 29.7 16.775L35.2 20.9C35.3708 21.0281 35.5094 21.1942 35.6048 21.3851C35.7003 21.576 35.75 21.7865 35.75 22C35.75 22.2135 35.7003 22.424 35.6048 22.6149C35.5094 22.8058 35.3708 22.9719 35.2 23.1Z" fill="#9BA3A3"/>
</svg>
