<svg width="22" height="22" viewBox="0 0 22 22" fill="none" xmlns="http://www.w3.org/2000/svg">
<g clip-path="url(#clip0_3772_7897)">
<path fill-rule="evenodd" clip-rule="evenodd" d="M9.62515 3.43702C9.62531 4.22947 9.35167 4.99764 8.85055 5.61151C8.34942 6.22539 7.65159 6.64728 6.87515 6.80577V12.7458C7.08048 12.6266 7.3014 12.5349 7.5379 12.4708C7.8899 12.3759 8.29552 12.3773 8.84277 12.3773H13.064C13.7474 12.3773 13.955 12.3718 14.1076 12.3305C14.3407 12.268 14.5533 12.1453 14.7239 11.9747C14.8946 11.804 15.0173 11.5915 15.0798 11.3584C15.1106 11.2185 15.1244 11.0754 15.121 10.9321C14.2864 10.7618 13.5447 10.2876 13.0398 9.60143C12.5349 8.9153 12.3028 8.06615 12.3884 7.2186C12.4741 6.37104 12.8713 5.58547 13.5032 5.01419C14.1351 4.4429 14.9567 4.1266 15.8085 4.1266C16.6604 4.1266 17.4819 4.4429 18.1138 5.01419C18.7457 5.58547 19.143 6.37104 19.2286 7.2186C19.3142 8.06615 19.0821 8.9153 18.5772 9.60143C18.0723 10.2876 17.3307 10.7618 16.496 10.9321C16.4891 11.2305 16.4685 11.4821 16.4066 11.7118C16.2826 12.1769 16.038 12.6011 15.6976 12.9415C15.3572 13.2819 14.933 13.5265 14.4679 13.6505C14.1159 13.744 13.7116 13.744 13.163 13.744H8.94177C8.2584 13.744 8.05077 13.7495 7.89815 13.7908C7.66505 13.8532 7.45251 13.976 7.28187 14.1466C7.11123 14.3173 6.9885 14.5298 6.92602 14.7629C6.89524 14.9028 6.88139 15.0459 6.88477 15.1891C7.71943 15.3595 8.46109 15.8337 8.96597 16.5199C9.47085 17.206 9.70299 18.0551 9.61737 18.9027C9.53175 19.7502 9.13447 20.5358 8.50257 21.1071C7.87066 21.6784 7.04914 21.9947 6.19727 21.9947C5.34541 21.9947 4.52389 21.6784 3.89198 21.1071C3.26007 20.5358 2.8628 19.7502 2.77718 18.9027C2.69156 18.0551 2.92369 17.206 3.42858 16.5199C3.93346 15.8337 4.67512 15.3595 5.50977 15.1891V6.80164C4.87252 6.67156 4.28524 6.36337 3.81615 5.91284C3.34706 5.46232 3.01541 4.88796 2.85972 4.25648C2.70402 3.62499 2.73068 2.9623 2.93658 2.34535C3.14248 1.72841 3.51918 1.18254 4.02294 0.771142C4.52669 0.359744 5.13682 0.0997012 5.78246 0.021216C6.4281 -0.0572693 7.08276 0.0490237 7.67041 0.32775C8.25805 0.606476 8.75457 1.0462 9.10228 1.59584C9.44999 2.14549 9.63464 2.7825 9.63477 3.43289L9.62515 3.43702ZM6.18765 5.49952C6.73484 5.49934 7.25955 5.28179 7.64634 4.89474C8.03313 4.50769 8.25033 3.98284 8.25015 3.43564C8.24997 2.88845 8.03242 2.36375 7.64537 1.97695C7.25832 1.59016 6.73346 1.37296 6.18627 1.37314C5.63908 1.37333 5.11437 1.59087 4.72758 1.97792C4.34079 2.36498 4.12359 2.88983 4.12377 3.43702C4.12396 3.98421 4.3415 4.50892 4.72855 4.89571C5.11561 5.28251 5.64046 5.4997 6.18765 5.49952ZM15.8126 9.62452C16.0836 9.62443 16.3519 9.57097 16.6021 9.46721C16.8524 9.36344 17.0798 9.21139 17.2713 9.01974C17.4629 8.82809 17.6148 8.6006 17.7184 8.35024C17.822 8.09989 17.8752 7.83159 17.8751 7.56064C17.8751 7.2897 17.8216 7.02143 17.7178 6.77115C17.6141 6.52087 17.462 6.29347 17.2704 6.10195C17.0787 5.91043 16.8512 5.75853 16.6009 5.65493C16.3505 5.55133 16.0822 5.49805 15.8113 5.49814C15.2641 5.49833 14.7394 5.71587 14.3526 6.10292C13.9658 6.48998 13.7486 7.01483 13.7488 7.56202C13.749 8.10921 13.9665 8.63392 14.3536 9.02071C14.7406 9.40751 15.2655 9.6247 15.8126 9.62452ZM8.25015 18.562C8.25006 18.833 8.1966 19.1012 8.09283 19.3515C7.98907 19.6018 7.83702 19.8292 7.64537 20.0207C7.45372 20.2122 7.22623 20.3641 6.97587 20.4677C6.72552 20.5713 6.45722 20.6246 6.18627 20.6245C5.91533 20.6244 5.64706 20.571 5.39678 20.4672C5.1465 20.3634 4.9191 20.2114 4.72758 20.0197C4.53606 19.8281 4.38416 19.6006 4.28056 19.3502C4.17696 19.0999 4.12368 18.8316 4.12377 18.5606C4.12396 18.0135 4.3415 17.4887 4.72855 17.102C5.11561 16.7152 5.64046 16.498 6.18765 16.4981C6.73484 16.4983 7.25955 16.7159 7.64634 17.1029C8.03313 17.49 8.25033 18.0148 8.25015 18.562Z" fill="#619155"/>
</g>
<defs>
<clipPath id="clip0_3772_7897">
<rect width="22" height="22" fill="white"/>
</clipPath>
</defs>
</svg>
