<svg width="117" height="60" viewBox="0 0 117 60" fill="none" xmlns="http://www.w3.org/2000/svg">
<g clip-path="url(#clip0_3200_4869)">
<g opacity="0.5">
<path d="M59 0C49.0589 0 41 8.05887 41 18C41 27.9411 49.0589 36 59 36C68.9411 36 77 27.9411 77 18C77 8.05887 68.9411 0 59 0Z" fill="#9B9B9B"/>
<g style="mix-blend-mode:soft-light">
<path d="M59 0C49.0589 0 41 8.05887 41 18C41 27.9411 49.0589 36 59 36C68.9411 36 77 27.9411 77 18C77 8.05887 68.9411 0 59 0Z" fill="#9B9B9B"/>
</g>
<path d="M66.0607 18.4393L60.0607 12.4393C59.4749 11.8536 58.5251 11.8536 57.9393 12.4393L51.9393 18.4393C51.3536 19.0251 51.3536 19.9749 51.9393 20.5607C52.5251 21.1464 53.4749 21.1464 54.0607 20.5607L60.0607 14.5607H57.9393L63.9393 20.5607C64.5251 21.1464 65.4749 21.1464 66.0607 20.5607C66.6464 19.9749 66.6464 19.0251 66.0607 18.4393Z" fill="white"/>
<path fill-rule="evenodd" clip-rule="evenodd" d="M8.01562 55.9609C8.01562 56.9662 7.65105 57.75 6.92188 58.3125C6.1927 58.875 5.20313 59.1562 3.95312 59.1562C2.59895 59.1562 1.5573 58.9818 0.828125 58.6328V57.3516C1.29688 57.5495 1.80729 57.7057 2.35938 57.8203C2.91146 57.9349 3.45833 57.9922 4 57.9922C4.88542 57.9922 5.55208 57.8242 6 57.4883C6.44792 57.1523 6.67188 56.6849 6.67188 56.0859C6.67188 55.6901 6.59245 55.3659 6.43359 55.1133C6.27474 54.8607 6.00912 54.6276 5.63672 54.4141C5.26432 54.2005 4.69792 53.9583 3.9375 53.6875C2.87499 53.3073 2.11589 52.8568 1.66016 52.3359C1.20442 51.8151 0.976562 51.1354 0.976562 50.2969C0.976562 49.4167 1.30729 48.7161 1.96875 48.1953C2.63021 47.6745 3.5052 47.4141 4.59375 47.4141C5.72917 47.4141 6.77343 47.6224 7.72656 48.0391L7.3125 49.1953C6.36979 48.7995 5.45313 48.6016 4.5625 48.6016C3.85937 48.6016 3.3099 48.7526 2.91406 49.0547C2.51823 49.3568 2.32031 49.776 2.32031 50.3125C2.32031 50.7083 2.39323 51.0326 2.53906 51.2852C2.6849 51.5378 2.93099 51.7695 3.27734 51.9805C3.6237 52.1914 4.15364 52.4245 4.86719 52.6797C6.06511 53.1068 6.88932 53.5651 7.33984 54.0547C7.79037 54.5443 8.01562 55.1797 8.01562 55.9609ZM15.2422 48.6016C13.987 48.6016 12.9961 49.0195 12.2695 49.8555C11.543 50.6914 11.1797 51.8359 11.1797 53.2891C11.1797 54.7839 11.5299 55.9388 12.2305 56.7539C12.931 57.569 13.9297 57.9766 15.2266 57.9766C16.0234 57.9766 16.9323 57.8333 17.9531 57.5469V58.7109C17.1615 59.0078 16.1849 59.1562 15.0234 59.1562C13.3411 59.1562 12.043 58.6458 11.1289 57.625C10.2148 56.6042 9.75781 55.1537 9.75781 53.2734C9.75781 52.0963 9.97786 51.0651 10.418 50.1797C10.8581 49.2943 11.4935 48.612 12.3242 48.1328C13.155 47.6536 14.1328 47.4141 15.2578 47.4141C16.4557 47.4141 17.5026 47.6328 18.3984 48.0703L17.8359 49.2109C16.9713 48.8047 16.1068 48.6016 15.2422 48.6016ZM21.7734 54.25V59H20.4453V47.5781H23.5781C24.9792 47.5781 26.0143 47.8464 26.6836 48.3828C27.3529 48.9193 27.6875 49.7266 27.6875 50.8047C27.6875 52.3151 26.9219 53.3359 25.3906 53.8672L28.4922 59H26.9219L24.1562 54.25H21.7734ZM21.7734 53.1094H23.5938C24.5313 53.1094 25.2187 52.9232 25.6562 52.5508C26.0938 52.1784 26.3125 51.6198 26.3125 50.875C26.3125 50.1198 26.0898 49.5755 25.6445 49.2422C25.1992 48.9089 24.4844 48.7422 23.5 48.7422H21.7734V53.1094ZM40.25 53.2734C40.25 55.1016 39.7878 56.5391 38.8633 57.5859C37.9388 58.6328 36.6537 59.1562 35.0078 59.1562C33.3255 59.1562 32.0273 58.6419 31.1133 57.6133C30.1992 56.5846 29.7422 55.1328 29.7422 53.2578C29.7422 51.3984 30.2005 49.957 31.1172 48.9336C32.0339 47.9102 33.3359 47.3984 35.0234 47.3984C36.6641 47.3984 37.9453 47.9193 38.8672 48.9609C39.7891 50.0026 40.25 51.4401 40.25 53.2734ZM31.1484 53.2734C31.1484 54.8203 31.4779 55.9935 32.1367 56.793C32.7956 57.5925 33.7526 57.9922 35.0078 57.9922C36.2734 57.9922 37.2292 57.5938 37.875 56.7969C38.5208 56 38.8438 54.8255 38.8438 53.2734C38.8438 51.737 38.5221 50.5716 37.8789 49.7773C37.2357 48.9831 36.2839 48.5859 35.0234 48.5859C33.7578 48.5859 32.7956 48.9857 32.1367 49.7852C31.4779 50.5846 31.1484 51.7474 31.1484 53.2734ZM42.7969 59V47.5781H44.125V57.7969H49.1641V59H42.7969ZM51.1016 59V47.5781H52.4297V57.7969H57.4688V59H51.1016ZM67.0781 59H65.75V48.7578H62.1328V47.5781H70.6953V48.7578H67.0781V59ZM82.0078 53.2734C82.0078 55.1016 81.5456 56.5391 80.6211 57.5859C79.6966 58.6328 78.4115 59.1562 76.7656 59.1562C75.0833 59.1562 73.7852 58.6419 72.8711 57.6133C71.957 56.5846 71.5 55.1328 71.5 53.2578C71.5 51.3984 71.9583 49.957 72.875 48.9336C73.7917 47.9102 75.0937 47.3984 76.7812 47.3984C78.4219 47.3984 79.7031 47.9193 80.625 48.9609C81.5469 50.0026 82.0078 51.4401 82.0078 53.2734ZM72.9062 53.2734C72.9062 54.8203 73.2357 55.9935 73.8945 56.793C74.5534 57.5925 75.5104 57.9922 76.7656 57.9922C78.0313 57.9922 78.987 57.5938 79.6328 56.7969C80.2786 56 80.6016 54.8255 80.6016 53.2734C80.6016 51.737 80.28 50.5716 79.6367 49.7773C78.9935 48.9831 78.0417 48.5859 76.7812 48.5859C75.5156 48.5859 74.5534 48.9857 73.8945 49.7852C73.2357 50.5846 72.9062 51.7474 72.9062 53.2734ZM92.2266 59H90.8984V48.7578H87.2812V47.5781H95.8438V48.7578H92.2266V59ZM107.156 53.2734C107.156 55.1016 106.694 56.5391 105.77 57.5859C104.845 58.6328 103.56 59.1562 101.914 59.1562C100.232 59.1562 98.9336 58.6419 98.0195 57.6133C97.1055 56.5846 96.6484 55.1328 96.6484 53.2578C96.6484 51.3984 97.1068 49.957 98.0234 48.9336C98.9401 47.9102 100.242 47.3984 101.93 47.3984C103.57 47.3984 104.852 47.9193 105.773 48.9609C106.695 50.0026 107.156 51.4401 107.156 53.2734ZM98.0547 53.2734C98.0547 54.8203 98.3841 55.9935 99.043 56.793C99.7018 57.5925 100.659 57.9922 101.914 57.9922C103.18 57.9922 104.135 57.5938 104.781 56.7969C105.427 56 105.75 54.8255 105.75 53.2734C105.75 51.737 105.428 50.5716 104.785 49.7773C104.142 48.9831 103.19 48.5859 101.93 48.5859C100.664 48.5859 99.7018 48.9857 99.043 49.7852C98.3841 50.5846 98.0547 51.7474 98.0547 53.2734ZM116.945 50.9062C116.945 52.0625 116.551 52.9518 115.762 53.5742C114.973 54.1966 113.844 54.5078 112.375 54.5078H111.031V59H109.703V47.5781H112.664C115.518 47.5781 116.945 48.6875 116.945 50.9062ZM111.031 53.3672H112.227C113.404 53.3672 114.255 53.1771 114.781 52.7969C115.307 52.4167 115.57 51.8073 115.57 50.9688C115.57 50.2135 115.323 49.651 114.828 49.2812C114.333 48.9115 113.563 48.7266 112.516 48.7266H111.031V53.3672Z" fill="#9B9B9B"/>
</g>
</g>
<defs>
<clipPath id="clip0_3200_4869">
<rect width="117" height="60" fill="white"/>
</clipPath>
</defs>
</svg>
