<svg width="416" height="417" viewBox="0 0 416 417" fill="none" xmlns="http://www.w3.org/2000/svg">
<g clip-path="url(#clip0_3069_3119)">
<path fill-rule="evenodd" clip-rule="evenodd" d="M226.001 10.3129C223.985 11.0827 221.778 11.5557 219.379 11.7319C224.315 13.7659 229.361 14.2389 234.515 13.1509C234.83 13.1509 235.146 13.1509 235.461 13.1509C234.456 14.1682 234.456 15.1142 235.461 15.9889C237.267 16.7913 239.159 17.1067 241.137 16.9349C241.137 17.8809 241.137 18.8269 241.137 19.7729C243.029 19.7729 244.921 19.7729 246.813 19.7729C246.813 20.7189 246.813 21.6649 246.813 22.6109C248.48 22.4759 250.057 22.7912 251.543 23.5569C253.536 25.6633 255.743 27.5553 258.165 29.2329C259.003 30.0133 259.318 30.9593 259.111 32.0709C262.96 33.4158 265.01 36.2538 265.26 40.5849C266.216 41.3763 267.32 41.6917 268.571 41.5309C268.236 44.3627 269.182 45.3087 271.409 44.3689C271.409 47.5222 271.409 50.6756 271.409 53.8289C272.355 53.8289 273.301 53.8289 274.247 53.8289C274.229 58.1448 275.017 62.2442 276.612 66.1269C277.085 76.8432 277.243 87.5651 277.085 98.2909C276.778 113.028 277.093 127.691 278.031 142.28C288.279 142.438 298.528 142.595 308.776 142.753C319.36 142.752 329.608 142.121 339.521 140.861C352.634 140.907 364.932 144.06 376.415 150.321C375.72 151.464 375.405 152.725 375.469 154.105C377.714 155.67 380.237 156.931 383.037 157.889C384.932 159.434 386.193 161.326 386.821 163.565C388.201 163.628 389.462 163.313 390.605 162.619C390.456 163.918 390.614 165.18 391.078 166.403C394.773 172.937 398.242 179.559 401.484 186.269C402.425 190.954 403.056 195.684 403.376 200.459C404.007 201.09 404.637 201.72 405.268 202.351C405.449 200.262 405.922 198.37 406.687 196.675C409.922 222.341 402.038 243.784 383.037 261.003C383.161 260.174 382.846 259.543 382.091 259.111C380.201 260.846 377.993 261.792 375.469 261.949C375.469 262.895 375.469 263.841 375.469 264.787C369.82 266.132 364.459 268.182 359.387 270.936C356.864 271.251 354.342 271.567 351.819 271.882C351.027 272.838 350.712 273.942 350.873 275.193C328.414 274.887 306.025 275.203 283.707 276.139C283.707 275.824 283.707 275.508 283.707 275.193C282.96 273.969 282.014 272.865 280.869 271.882C276.333 269.956 271.918 267.749 267.625 265.26C266.402 264.796 265.14 264.638 263.841 264.787C263.841 263.841 263.841 262.895 263.841 261.949C260.867 261.313 258.029 260.367 255.327 259.111C255.408 258.169 255.092 257.381 254.381 256.746C251.405 255.178 248.567 253.443 245.867 251.543C244.563 248.347 242.356 246.14 239.245 244.921C239.245 244.606 239.245 244.29 239.245 243.975C238.256 241.094 236.364 239.202 233.569 238.299C233.959 235.959 233.013 234.698 230.731 234.515C231.121 232.175 230.175 230.914 227.893 230.731C227.893 230.416 227.893 230.1 227.893 229.785C228.044 228.178 227.887 226.601 227.42 225.055C225.745 222.934 223.695 221.358 221.271 220.325C221.271 220.01 221.271 219.694 221.271 219.379C221.271 217.487 221.271 215.595 221.271 213.703C220.325 213.703 219.379 213.703 218.433 213.703C218.823 211.363 217.877 210.102 215.595 209.919C215.595 208.973 215.595 208.027 215.595 207.081C214.05 204.556 212.946 201.718 212.284 198.567C211.327 197.775 210.223 197.46 208.973 197.621C208.973 196.044 208.973 194.468 208.973 192.891C208.027 192.891 207.081 192.891 206.135 192.891C206.135 192.576 206.135 192.26 206.135 191.945C205.735 189.787 206.366 188.21 208.027 187.215C208.658 187.846 209.288 188.476 209.919 189.107C211.119 195.042 214.588 197.249 220.325 195.729C222.108 193.475 224.315 191.741 226.947 190.526C227.658 189.891 227.974 189.103 227.893 188.161C230.172 185.889 232.064 183.366 233.569 180.593C234.2 179.332 235.146 178.386 236.407 177.755C238.38 175.931 240.43 174.039 242.556 172.079C243.491 169.742 244.594 167.535 245.867 165.457C246.813 164.826 247.759 164.196 248.705 163.565C251.365 162.245 252.627 160.037 252.489 156.943C253.435 156.943 254.381 156.943 255.327 156.943C256.26 154.111 257.206 151.273 258.165 148.429C259.632 145.478 260.578 142.325 261.003 138.969C261.945 139.05 262.733 138.734 263.368 138.023C263.835 136.477 263.992 134.9 263.841 133.293C267.32 129.706 268.581 125.291 267.625 120.049C268.979 119.688 269.767 118.742 269.99 117.211C270.621 105.228 270.621 93.2458 269.99 81.2629C269.359 80.6319 268.729 80.0018 268.098 79.3709C268.346 75.3579 266.927 72.2049 263.841 69.9109C264.29 66.2065 263.344 63.0532 261.003 60.4509C260.16 59.874 259.214 59.5587 258.165 59.5049C258.165 58.8742 258.165 58.2436 258.165 57.6129C258.165 56.6669 258.165 55.7209 258.165 54.7749C258.165 53.8289 258.165 52.8829 258.165 51.9369C257.219 51.9369 256.273 51.9369 255.327 51.9369C255.659 48.8041 254.398 46.5967 251.543 45.3149C249.608 43.9689 248.662 42.0769 248.705 39.6389C247.759 39.6389 246.813 39.6389 245.867 39.6389C244.921 38.0622 243.66 36.8009 242.083 35.8549C242.246 34.9168 241.93 34.2861 241.137 33.9629C239.384 29.7131 236.388 27.8211 232.15 28.2869C231.683 29.8327 231.525 31.4094 231.677 33.0169C231.677 33.3322 231.677 33.6476 231.677 33.9629C230.771 34.3912 229.982 35.0219 229.312 35.8549C228.842 38.0399 228.685 40.2473 228.839 42.4769C228.839 43.4229 228.839 44.3689 228.839 45.3149C227.9 47.1653 226.954 49.0573 226.001 50.9909C223.616 52.4386 222.67 54.6459 223.163 57.6129C222.308 58.2836 221.993 59.2296 222.217 60.4509C221.223 61.1342 220.592 62.0802 220.325 63.2889C219.694 63.2889 219.379 63.6042 219.379 64.2349C217.487 64.2349 216.541 65.1809 216.541 67.0729C216.541 68.0189 216.541 68.9649 216.541 69.9109C214.649 69.9109 213.703 70.8569 213.703 72.7489C213.388 72.7489 213.072 72.7489 212.757 72.7489C211.811 72.7489 210.865 72.7489 209.919 72.7489C208.688 74.8036 207.742 77.0106 207.081 79.3709C207.081 80.3169 207.081 81.2629 207.081 82.2089C206.139 82.1275 205.351 82.4435 204.716 83.1549C203.845 85.8377 202.741 88.3598 201.405 90.7229C198.55 92.0047 197.289 94.2117 197.621 97.3449C197.621 97.6599 197.621 97.9759 197.621 98.2909C195.093 100.08 194.147 102.603 194.783 105.859C193.101 108.062 192.155 110.585 191.945 113.427C191.016 114.033 190.07 114.663 189.107 115.319C187.8 127.959 187.957 140.573 189.58 153.159C189.942 153.685 190.415 154 190.999 154.105C191.63 155.997 192.26 157.889 192.891 159.781C193.96 161.498 194.59 163.39 194.783 165.457C194.634 166.756 194.792 168.018 195.256 169.241C196.596 169.788 197.384 170.734 197.621 172.079C197.845 173.3 197.53 174.246 196.675 174.917C196.004 174.062 195.058 173.747 193.837 173.971C193.206 172.079 191.945 170.818 190.053 170.187C190.053 168.295 189.107 167.349 187.215 167.349C187.215 165.457 186.269 164.511 184.377 164.511C184.323 163.462 184.008 162.516 183.431 161.673C182.968 159.001 181.391 157.74 178.701 157.889C178.07 157.889 177.755 157.574 177.755 156.943C176.391 155.694 175.761 154.118 175.863 152.213C173.656 152.213 171.448 152.213 169.241 152.213C169.241 151.267 169.241 150.321 169.241 149.375C165.793 147.516 162.324 145.624 158.835 143.699C157.058 143.029 155.481 141.926 154.105 140.388C152.882 139.924 151.62 139.766 150.321 139.915C149.69 139.915 149.06 139.915 148.429 139.915C148.51 138.973 148.194 138.185 147.483 137.55C145.937 137.083 144.36 136.926 142.753 137.077C142.595 115.001 142.753 92.928 143.226 70.8569C144.351 62.9961 146.086 55.4281 148.429 48.1529C150.405 42.2253 154.032 37.4953 159.308 33.9629C160.007 32.3353 160.796 30.7586 161.673 29.2329C164.928 26.5348 168.397 24.3275 172.079 22.6109C172.079 21.6649 172.079 20.7189 172.079 19.7729C176.293 19.1656 180.392 18.2196 184.377 16.9349C184.377 15.6736 184.377 14.4122 184.377 13.1509C197.985 9.26961 211.86 8.32361 226.001 10.3129Z" fill="#B8D8F0" fill-opacity="0.5"/>
<path opacity="0.835" fill-rule="evenodd" clip-rule="evenodd" d="M226.001 10.3135C228.964 11.127 231.802 12.073 234.515 13.1515C229.361 14.2396 224.315 13.7666 219.379 11.7325C221.778 11.5563 223.985 11.0833 226.001 10.3135Z" fill="#B8D8F0" fill-opacity="0.5"/>
<path opacity="0.71" fill-rule="evenodd" clip-rule="evenodd" d="M184.377 13.1509C184.377 14.4122 184.377 15.6736 184.377 16.9349C180.392 18.2196 176.293 19.1656 172.079 19.7729C172.079 20.7189 172.079 21.6649 172.079 22.6109C168.397 24.3275 164.928 26.5348 161.673 29.2329C160.796 30.7586 160.007 32.3353 159.308 33.9629C154.032 37.4953 150.405 42.2253 148.429 48.1529C147.682 49.2015 147.209 50.4629 147.01 51.9369C146.282 52.9757 145.494 52.9757 144.645 51.9369C151.645 32.6388 164.889 19.7102 184.377 13.1509Z" fill="#B8D8F0" fill-opacity="0.5"/>
<path opacity="0.631" fill-rule="evenodd" clip-rule="evenodd" d="M235.461 13.1509C251.722 18.7402 263.705 29.1462 271.409 44.3689C269.182 45.3087 268.236 44.3627 268.571 41.5309C267.32 41.6917 266.216 41.3763 265.26 40.5849C265.01 36.2538 262.96 33.4158 259.111 32.0709C259.318 30.9593 259.003 30.0133 258.165 29.2329C255.743 27.5553 253.536 25.6633 251.543 23.5569C250.057 22.7912 248.48 22.4759 246.813 22.6109C246.813 21.6649 246.813 20.7189 246.813 19.7729C244.921 19.7729 243.029 19.7729 241.137 19.7729C241.137 18.8269 241.137 17.8809 241.137 16.9349C239.159 17.1067 237.267 16.7913 235.461 15.9889C234.456 15.1142 234.456 14.1682 235.461 13.1509Z" fill="#B8D8F0" fill-opacity="0.5"/>
<path fill-rule="evenodd" clip-rule="evenodd" d="M231.677 33.9634C232.025 37.3163 231.079 40.1543 228.839 42.4774C228.685 40.2478 228.842 38.0404 229.312 35.8554C229.982 35.0224 230.771 34.3917 231.677 33.9634Z" fill="#B8D8F0" fill-opacity="0.5"/>
<path fill-rule="evenodd" clip-rule="evenodd" d="M251.543 45.3154C254.398 46.5973 255.659 48.8047 255.327 51.9374C256.273 51.9374 257.219 51.9374 258.165 51.9374C258.165 52.8834 258.165 53.8294 258.165 54.7754C256.904 54.1447 255.642 53.5141 254.381 52.8834C254.381 52.5681 254.381 52.2527 254.381 51.9374C253.837 50.1293 252.891 48.5526 251.543 47.2074C251.543 46.5767 251.543 45.9461 251.543 45.3154Z" fill="#B8D8F0" fill-opacity="0.5"/>
<path fill-rule="evenodd" clip-rule="evenodd" d="M226.001 50.9912C225.643 53.2815 225.012 55.4888 224.109 57.6132C223.794 57.6132 223.478 57.6132 223.163 57.6132C222.67 54.6463 223.616 52.439 226.001 50.9912Z" fill="#B8D8F0" fill-opacity="0.5"/>
<path fill-rule="evenodd" clip-rule="evenodd" d="M246.813 93.5609C246.813 93.8759 246.813 94.1919 246.813 94.5069C244.472 95.6298 243.526 97.5218 243.975 100.183C243.975 101.444 243.975 102.706 243.975 103.967C242.744 105.045 241.64 106.306 240.664 107.751C240.219 113.43 238.327 118.475 234.988 122.887C234.518 125.39 234.36 127.913 234.515 130.455C232.691 132.613 231.745 135.135 231.677 138.023C230.762 139.258 229.5 139.889 227.893 139.915C226.608 143.899 225.662 147.998 225.055 152.213C223.194 154.967 222.248 158.12 222.217 161.673C222.217 161.988 222.217 162.304 222.217 162.619C220.632 163.265 220.001 164.527 220.325 166.403C220.01 167.034 219.694 167.664 219.379 168.295C218.479 166.953 218.164 165.377 218.433 163.565C218.433 161.042 218.433 158.52 218.433 155.997C218.433 155.682 218.433 155.366 218.433 155.051C219.048 154.763 219.679 154.448 220.325 154.105C221.252 151.659 221.567 149.136 221.271 146.537C221.271 146.222 221.271 145.906 221.271 145.591C223.334 143.449 224.596 140.926 225.055 138.023C225.884 138.147 226.515 137.832 226.947 137.077C227.216 133.823 228.32 130.985 230.258 128.563C230.729 125.742 230.887 122.904 230.731 120.049C230.731 119.734 230.731 119.418 230.731 119.103C232.939 117.517 233.885 115.31 233.569 112.481C233.569 112.166 233.569 111.85 233.569 111.535C236.097 109.746 237.043 107.223 236.407 103.967C236.314 102.025 236.945 100.448 238.299 99.2369C239.847 95.7273 240.477 91.9433 240.191 87.8849C241.818 85.8435 242.606 83.3205 242.556 80.3169C242.871 70.2259 243.187 60.1356 243.502 50.0449C243.645 52.5228 244.434 54.7302 245.867 56.6669C246.812 68.9488 247.127 81.2468 246.813 93.5609Z" fill="#B8D8F0" fill-opacity="0.5"/>
<path fill-rule="evenodd" clip-rule="evenodd" d="M242.083 42.4765C242.32 44.5331 243.266 46.1097 244.921 47.2065C244.668 48.7191 244.984 49.9805 245.867 50.9905C247.21 54.3155 247.841 57.7841 247.759 61.3965C247.759 70.2255 247.759 79.0555 247.759 87.8845C248.038 89.9988 247.722 91.8908 246.813 93.5605C247.127 81.2464 246.812 68.9484 245.867 56.6665C244.434 54.7297 243.645 52.5223 243.502 50.0445C243.187 60.1352 242.871 70.2255 242.556 80.3165C242.606 83.32 241.818 85.843 240.191 87.8845C240.806 86.054 241.121 84.162 241.137 82.2085C241.137 80.9475 241.137 79.6855 241.137 78.4245C242.233 69.762 242.39 60.9322 241.61 51.9365C241.075 49.8339 240.286 47.9419 239.245 46.2605C239.245 45.9452 239.245 45.6298 239.245 45.3145C238.976 43.623 239.291 42.0463 240.191 40.5845C240.837 41.2871 241.467 41.9178 242.083 42.4765Z" fill="#B8D8F0" fill-opacity="0.5"/>
<path fill-rule="evenodd" clip-rule="evenodd" d="M261.003 60.4507C263.344 63.053 264.29 66.2063 263.841 69.9107C262.902 68.0603 261.956 66.1682 261.003 64.2347C261.003 62.9734 261.003 61.712 261.003 60.4507Z" fill="#B8D8F0" fill-opacity="0.5"/>
<path opacity="0.409" fill-rule="evenodd" clip-rule="evenodd" d="M143.699 52.8833C144.319 53.9443 144.634 55.2056 144.645 56.6673C144.42 60.641 143.632 64.425 142.28 68.0193C142.121 88.3621 141.648 108.543 140.861 128.563C139.861 106.789 140.018 85.0312 141.334 63.2893C142.275 59.841 143.063 56.3724 143.699 52.8833Z" fill="#DFEDF1"/>
<path opacity="0.576" fill-rule="evenodd" clip-rule="evenodd" d="M271.409 44.3687C274.778 50.5275 277.143 57.1495 278.504 64.2346C278.977 75.2669 279.135 86.3039 278.977 97.3446C278.346 97.6597 277.716 97.9756 277.085 98.2906C277.243 87.5649 277.085 76.8429 276.612 66.1266C275.017 62.244 274.229 58.1446 274.247 53.8287C273.301 53.8287 272.355 53.8287 271.409 53.8287C271.409 50.6753 271.409 47.522 271.409 44.3687Z" fill="#B8D8F0" fill-opacity="0.5"/>
<path opacity="0.997" fill-rule="evenodd" clip-rule="evenodd" d="M148.429 48.1528C146.086 55.428 144.351 62.996 143.226 70.8568C142.753 92.928 142.595 115.001 142.753 137.077C144.36 136.925 145.937 137.083 147.483 137.55C148.194 138.185 148.51 138.973 148.429 139.915C145.752 139.731 143.23 139.1 140.861 138.023C140.861 134.87 140.861 131.716 140.861 128.563C141.648 108.543 142.121 88.3616 142.28 68.0188C143.632 64.4245 144.42 60.6405 144.645 56.6668C144.634 55.2052 144.319 53.9439 143.699 52.8828C143.699 52.2521 144.014 51.9368 144.645 51.9368C145.493 52.9756 146.281 52.9756 147.01 51.9368C147.209 50.4629 147.682 49.2015 148.429 48.1528Z" fill="#B8D8F0" fill-opacity="0.5"/>
<path fill-rule="evenodd" clip-rule="evenodd" d="M212.757 72.749C211.803 74.6826 210.857 76.5746 209.919 78.425C208.87 78.4789 207.924 78.794 207.081 79.371C207.742 77.0108 208.688 74.8037 209.919 72.749C210.865 72.749 211.811 72.749 212.757 72.749Z" fill="#B8D8F0" fill-opacity="0.5"/>
<path fill-rule="evenodd" clip-rule="evenodd" d="M209.919 78.4248C208.961 79.7227 208.015 80.9837 207.081 82.2088C207.081 81.2628 207.081 80.3168 207.081 79.3708C207.924 78.7937 208.87 78.4787 209.919 78.4248Z" fill="#B8D8F0" fill-opacity="0.5"/>
<path fill-rule="evenodd" clip-rule="evenodd" d="M207.081 82.2093C206.04 83.2546 205.409 84.5156 205.189 85.9933C205.189 86.3083 205.189 86.6243 205.189 86.9393C204.268 88.4898 203.007 89.7517 201.405 90.7233C202.741 88.3602 203.845 85.8381 204.716 83.1553C205.351 82.4439 206.139 82.1279 207.081 82.2093Z" fill="#B8D8F0" fill-opacity="0.5"/>
<path fill-rule="evenodd" clip-rule="evenodd" d="M201.405 90.7236C201.405 91.3546 201.405 91.9847 201.405 92.6156C199.476 93.7243 198.215 95.3004 197.621 97.3456C197.289 94.2125 198.55 92.0055 201.405 90.7236Z" fill="#B8D8F0" fill-opacity="0.5"/>
<path fill-rule="evenodd" clip-rule="evenodd" d="M263.841 69.9111C266.927 72.2052 268.346 75.3582 268.098 79.3711C268.729 80.0021 269.359 80.6321 269.99 81.2631C270.621 93.2461 270.621 105.228 269.99 117.211C269.767 118.743 268.979 119.689 267.625 120.049C269.117 114.215 269.748 108.223 269.517 102.075C269.359 97.3451 269.202 92.6151 269.044 87.8851C268.825 86.7149 268.352 85.7689 267.625 85.0471C267.197 81.5819 266.724 78.113 266.206 74.6411C265.536 73.8077 264.747 73.1777 263.841 72.7491C263.841 71.8031 263.841 70.8571 263.841 69.9111Z" fill="#B8D8F0" fill-opacity="0.5"/>
<path fill-rule="evenodd" clip-rule="evenodd" d="M199.513 98.2915C199.962 100.953 199.016 102.845 196.675 103.968C197.629 102.034 198.575 100.142 199.513 98.2915Z" fill="#B8D8F0" fill-opacity="0.5"/>
<path fill-rule="evenodd" clip-rule="evenodd" d="M230.731 120.049C230.887 122.904 230.729 125.742 230.258 128.563C228.32 130.985 227.216 133.823 226.947 137.077C226.515 137.832 225.884 138.147 225.055 138.023C226.133 135.655 226.764 133.132 226.947 130.455C228.252 126.965 229.513 123.497 230.731 120.049Z" fill="#B8D8F0" fill-opacity="0.5"/>
<path opacity="0.914" fill-rule="evenodd" clip-rule="evenodd" d="M140.861 138.023C143.23 139.1 145.752 139.731 148.429 139.915C149.06 139.915 149.69 139.915 150.321 139.915C151.43 141.844 153.006 143.105 155.051 143.699C152.821 143.933 150.929 143.303 149.375 141.807C146.988 140.577 144.465 140.577 141.807 141.807C143.118 143.928 145.01 145.189 147.483 145.591C148.154 146.446 149.1 146.761 150.321 146.537C151.582 148.114 152.844 149.69 154.105 151.267C153.474 151.267 152.844 151.267 152.213 151.267C149.672 149.037 146.834 147.145 143.699 145.591C143.384 145.591 143.068 145.591 142.753 145.591C141.492 144.014 140.23 142.438 138.969 140.861C139.6 139.915 140.23 138.969 140.861 138.023Z" fill="#B8D8F0" fill-opacity="0.5"/>
<path fill-rule="evenodd" clip-rule="evenodd" d="M74.6408 140.861C74.7458 141.445 75.0609 141.918 75.5868 142.28C96.0838 142.595 116.58 142.911 137.077 143.226C138.645 144.8 140.537 145.588 142.753 145.591C143.068 145.591 143.384 145.591 143.699 145.591C145.066 147.136 146.328 148.87 147.483 150.794C149.029 151.262 150.606 151.419 152.213 151.267C152.844 151.267 153.474 151.267 154.105 151.267C154.036 152.712 154.667 153.658 155.997 154.105C155.997 155.051 155.997 155.997 155.997 156.943C156.943 156.943 157.889 156.943 158.835 156.943C158.628 158.055 158.943 159.001 159.781 159.781C162.93 161.679 165.768 163.886 168.295 166.403C170.923 171.142 173.761 175.872 176.809 180.593C177.589 181.432 178.535 181.747 179.647 181.539C182.024 184.322 184.232 187.16 186.269 190.053C186.269 191.314 186.269 192.576 186.269 193.837C186.783 195.805 187.572 197.697 188.634 199.513C189.59 200.305 190.694 200.62 191.945 200.459C191.703 202.628 192.018 204.678 192.891 206.608C191.994 207.065 191.048 207.222 190.053 207.081C188.554 203.809 186.347 200.971 183.431 198.567C181.945 197.802 180.368 197.486 178.701 197.621C178.782 196.679 178.466 195.891 177.755 195.256C174.779 193.689 171.941 191.954 169.241 190.053C168.295 189.422 167.349 188.792 166.403 188.161C166.431 187.218 165.958 186.587 164.984 186.269C162.451 185.586 160.086 184.64 157.889 183.431C157.258 183.431 156.628 183.431 155.997 183.431C155.058 183.594 154.428 183.278 154.105 182.485C154.032 181.303 153.401 180.515 152.213 180.12C150.667 179.653 149.09 179.496 147.483 179.647C147.483 178.701 147.483 177.755 147.483 176.809C137.984 175.392 128.524 175.55 119.103 177.282C118.391 177.917 118.075 178.705 118.157 179.647C115.936 179.734 114.36 180.68 113.427 182.485C113.112 182.485 112.796 182.485 112.481 182.485C108.286 183.481 104.186 184.743 100.183 186.269C97.3779 187.353 94.5399 188.456 91.6688 189.58C90.9574 190.215 90.6415 191.003 90.7228 191.945C88.8308 191.945 87.8848 192.891 87.8848 194.783C85.9928 194.783 84.1008 194.783 82.2088 194.783C82.2088 195.729 82.2088 196.675 82.2088 197.621C80.0018 197.621 77.7938 197.621 75.5868 197.621C75.5868 198.567 75.5868 199.513 75.5868 200.459C75.2633 201.252 74.6333 201.568 73.6948 201.405C70.8067 201.473 68.2847 202.419 66.1268 204.243C64.2348 204.243 62.3428 204.243 60.4508 204.243C53.5135 204.243 46.5761 204.243 39.6388 204.243C35.5274 204.086 31.4281 204.244 27.3408 204.716C25.7693 207.696 26.7153 209.115 30.1788 208.973C30.1788 209.919 30.1788 210.865 30.1788 211.811C31.4401 211.811 32.7015 211.811 33.9628 211.811C34.5935 211.811 35.2241 211.811 35.8548 211.811C35.8548 212.442 36.1701 212.757 36.8008 212.757C37.0568 214.583 38.0028 215.845 39.6388 216.541C38.6928 216.541 37.7468 216.541 36.8008 216.541C36.741 220.591 38.633 223.114 42.4768 224.109C43.4228 224.109 44.3688 224.109 45.3148 224.109C45.3148 225.37 45.3148 226.632 45.3148 227.893C48.0261 229.084 50.8641 230.03 53.8288 230.731C53.8288 231.677 53.8288 232.623 53.8288 233.569C55.0901 233.569 56.3515 233.569 57.6128 233.569C57.9281 233.569 58.2435 233.569 58.5588 233.569C58.4898 235.014 59.1205 235.96 60.4508 236.407C62.2285 239.727 65.0665 240.988 68.9648 240.191C69.2799 240.191 69.5958 240.191 69.9108 240.191C70.0944 242.473 71.3554 243.419 73.6948 243.029C73.6948 243.975 73.6948 244.921 73.6948 245.867C75.2718 245.867 76.8478 245.867 78.4248 245.867C79.6859 245.867 80.9478 245.867 82.2088 245.867C82.0764 247.404 82.7074 248.507 84.1008 249.178C88.4855 249.168 92.5855 250.114 96.3988 252.016C107.115 252.489 117.837 252.647 128.563 252.489C132.36 252.646 136.144 252.488 139.915 252.016C145.08 250.199 150.44 248.937 155.997 248.232C156.708 247.598 157.024 246.81 156.943 245.867C157.889 245.867 158.835 245.867 159.781 245.867C163.09 246.383 165.928 245.595 168.295 243.502C174.056 242.29 179.732 240.871 185.323 239.245C187.401 237.336 189.924 236.232 192.891 235.934C193.602 235.3 193.918 234.512 193.837 233.569C196.847 233.068 199.685 232.122 202.351 230.731C203.928 230.731 205.504 230.731 207.081 230.731C207.081 231.677 207.081 232.623 207.081 233.569C208.027 233.569 208.973 233.569 209.919 233.569C210.263 236.692 211.367 239.53 213.23 242.083C214.186 242.875 215.29 243.19 216.541 243.029C216.541 243.975 216.541 244.921 216.541 245.867C217.487 245.867 218.433 245.867 219.379 245.867C220.64 247.759 222.217 249.336 224.109 250.597C224.432 251.39 225.062 251.706 226.001 251.543C226.001 252.489 226.001 253.435 226.001 254.381C228.73 255.216 231.253 256.478 233.569 258.165C233.752 260.447 235.013 261.393 237.353 261.003C237.229 261.702 237.387 262.333 237.826 262.895C239.058 263.449 240.162 264.079 241.137 264.787C241.137 265.733 241.137 266.679 241.137 267.625C243.029 267.625 244.921 267.625 246.813 267.625C248.111 268.583 249.372 269.529 250.597 270.463C250.515 271.406 250.831 272.194 251.543 272.828C253.911 272.95 255.803 273.896 257.219 275.666C261.902 277.072 266.632 278.175 271.409 278.977C273.079 279.886 274.971 280.202 277.085 279.923C276.927 298.53 277.085 317.135 277.558 335.737C277.821 336.604 278.294 337.234 278.977 337.629C278.843 347.02 277.266 356.165 274.247 365.063C273.564 364.668 273.091 364.038 272.828 363.171C271.549 365.152 271.076 367.359 271.409 369.793C266.114 376.845 260.123 383.625 253.435 390.132C251.746 392.238 249.539 393.341 246.813 393.443C246.813 394.389 246.813 395.335 246.813 396.281C238.913 398.659 231.03 401.024 223.163 403.376C222.731 403.768 222.415 404.241 222.217 404.795C222.92 405.441 223.55 406.071 224.109 406.687C213.518 408.079 203.112 407.764 192.891 405.741C195.121 405.896 197.328 405.738 199.513 405.268C195.597 403.823 191.498 402.877 187.215 402.43C181.825 400.203 176.779 397.365 172.079 393.916C170.212 393.448 168.32 393.29 166.403 393.443C166.403 392.497 166.403 391.551 166.403 390.605C165.457 390.605 164.511 390.605 163.565 390.605C163.565 389.344 163.565 388.082 163.565 386.821C162.453 387.029 161.507 386.713 160.727 385.875C159.027 384.745 158.081 383.168 157.889 381.145C156.628 381.145 155.366 381.145 154.105 381.145C154.105 379.253 154.105 377.361 154.105 375.469C153.159 375.469 152.213 375.469 151.267 375.469C151.267 373.577 151.267 371.685 151.267 369.793C150.321 369.793 149.375 369.793 148.429 369.793C146.332 362.526 144.913 354.958 144.172 347.089C143.541 346.458 142.911 345.828 142.28 345.197C142.121 324.855 141.648 304.674 140.861 284.653C141.017 281.798 140.859 278.96 140.388 276.139C138.135 275.255 135.77 274.94 133.293 275.193C112.642 274.406 91.8297 273.933 70.8568 273.774C68.1465 271.612 64.9932 270.823 61.3968 271.409C59.7894 271.561 58.2127 271.404 56.6668 270.936C50.2673 267.975 43.9606 264.979 37.7468 261.949C37.1002 262.293 36.4696 262.608 35.8548 262.895C35.2241 262.895 34.9088 262.58 34.9088 261.949C34.5935 258.48 32.7015 256.588 29.2328 256.273C28.5717 253.913 27.6257 251.706 26.3948 249.651C25.1335 249.651 23.8721 249.651 22.6108 249.651C22.6108 247.759 22.6108 245.867 22.6108 243.975C21.6648 243.975 20.7188 243.975 19.7728 243.975C19.9262 242.058 19.7686 240.166 19.2998 238.299C17.6251 235.531 16.0484 232.693 14.5698 229.785C14.5022 225.151 13.5562 220.736 11.7318 216.541C11.5332 218.015 11.0602 219.276 10.3128 220.325C10.3128 220.01 10.3128 219.694 10.3128 219.379C10.1555 213.065 10.3132 206.758 10.7858 200.459C11.1011 201.09 11.4165 201.72 11.7318 202.351C12.5477 200.85 13.1784 199.273 13.6238 197.621C13.787 193.486 14.26 189.387 15.0428 185.323C15.5972 185.126 16.0702 184.81 16.4618 184.377C16.5699 179.931 17.6736 175.831 19.7728 172.079C20.7188 172.079 21.6648 172.079 22.6108 172.079C22.6108 170.187 22.6108 168.295 22.6108 166.403C24.9709 165.742 27.1782 164.796 29.2328 163.565C29.4249 161.543 30.3709 159.966 32.0708 158.835C35.2758 157.168 38.4292 155.592 41.5308 154.105C41.5308 153.159 41.5308 152.213 41.5308 151.267C43.1383 151.419 44.715 151.262 46.2608 150.794C48.0735 149.075 50.2808 147.971 52.8828 147.483C54.1045 146.512 54.1045 145.566 52.8828 144.645C59.8514 141.928 67.104 140.666 74.6408 140.861Z" fill="#B8D8F0" fill-opacity="0.5"/>
<path fill-rule="evenodd" clip-rule="evenodd" d="M150.322 139.914C151.62 139.766 152.882 139.924 154.106 140.387C155.482 141.926 157.059 143.029 158.836 143.698C157.575 143.698 156.313 143.698 155.052 143.698C153.006 143.104 151.43 141.843 150.322 139.914Z" fill="#B8D8F0" fill-opacity="0.5"/>
<path opacity="0.763" fill-rule="evenodd" clip-rule="evenodd" d="M278.977 97.3442C278.67 111.766 278.985 126.113 279.923 140.387C299.786 140.86 319.652 141.018 339.521 140.86C329.608 142.12 319.36 142.751 308.776 142.752C298.528 142.594 288.279 142.437 278.031 142.279C277.093 127.69 276.778 113.027 277.085 98.2902C277.716 97.9752 278.346 97.6593 278.977 97.3442Z" fill="#B8D8F0" fill-opacity="0.5"/>
<path opacity="0.999" fill-rule="evenodd" clip-rule="evenodd" d="M74.6411 140.862C96.0841 140.862 117.526 140.862 138.969 140.862C140.23 142.439 141.492 144.015 142.753 145.592C140.538 145.588 138.646 144.8 137.077 143.227C116.58 142.912 96.0841 142.596 75.5871 142.281C75.0611 141.918 74.7461 141.445 74.6411 140.862Z" fill="#B8D8F0" fill-opacity="0.5"/>
<path fill-rule="evenodd" clip-rule="evenodd" d="M191.945 113.428C191.945 113.743 191.945 114.059 191.945 114.374C191.945 114.689 191.945 115.005 191.945 115.32C190.558 116.121 189.769 117.382 189.58 119.104C188.799 128.414 188.957 137.559 190.053 146.538C189.799 148.05 190.115 149.311 190.999 150.322C190.999 151.583 190.999 152.845 190.999 154.106C190.415 154.001 189.942 153.686 189.58 153.16C187.958 140.574 187.801 127.96 189.107 115.32C190.07 114.664 191.016 114.034 191.945 113.428Z" fill="#B8D8F0" fill-opacity="0.5"/>
<path fill-rule="evenodd" clip-rule="evenodd" d="M155.051 144.644C155.051 144.329 155.051 144.013 155.051 143.698C156.312 143.698 157.574 143.698 158.835 143.698C158.711 144.397 158.869 145.028 159.308 145.59C160.54 146.143 161.644 146.773 162.619 147.482C162.304 147.482 161.988 147.482 161.673 147.482C160.727 147.482 159.781 147.482 158.835 147.482C158.114 145.815 156.852 144.869 155.051 144.644Z" fill="#B8D8F0" fill-opacity="0.5"/>
<path fill-rule="evenodd" clip-rule="evenodd" d="M231.677 138.023C231.677 138.654 231.677 139.284 231.677 139.915C231.677 140.23 231.677 140.546 231.677 140.861C230.734 140.833 230.103 141.306 229.785 142.28C228.619 145.702 227.357 149.013 226.001 152.213C225.686 152.213 225.37 152.213 225.055 152.213C225.662 147.999 226.608 143.9 227.893 139.915C229.5 139.889 230.762 139.258 231.677 138.023Z" fill="#B8D8F0" fill-opacity="0.5"/>
<path fill-rule="evenodd" clip-rule="evenodd" d="M158.835 143.698C162.323 145.623 165.792 147.515 169.241 149.374C169.241 150.32 169.241 151.266 169.241 152.212C168.61 151.897 167.98 151.581 167.349 151.266C165.795 150.033 164.218 148.772 162.619 147.482C161.643 146.773 160.539 146.143 159.308 145.59C158.869 145.028 158.711 144.397 158.835 143.698Z" fill="#B8D8F0" fill-opacity="0.5"/>
<path opacity="0.976" fill-rule="evenodd" clip-rule="evenodd" d="M52.8831 144.645C54.1047 145.565 54.1047 146.511 52.8831 147.483C50.281 147.971 48.0737 149.075 46.2611 150.794C44.7152 151.261 43.1385 151.418 41.5311 151.267C41.5311 152.213 41.5311 153.159 41.5311 154.105C38.4294 155.591 35.276 157.168 32.0711 158.835C30.3711 159.965 29.4251 161.542 29.2331 163.565C27.1785 164.796 24.9712 165.742 22.6111 166.403C30.3169 155.919 40.4076 148.666 52.8831 144.645Z" fill="#B8D8F0" fill-opacity="0.5"/>
<path fill-rule="evenodd" clip-rule="evenodd" d="M143.699 145.591C146.834 147.145 149.672 149.037 152.213 151.267C150.606 151.418 149.029 151.261 147.483 150.794C146.328 148.87 145.066 147.136 143.699 145.591Z" fill="#B8D8F0" fill-opacity="0.5"/>
<path fill-rule="evenodd" clip-rule="evenodd" d="M258.165 148.43C257.206 151.274 256.26 154.112 255.327 156.944C254.381 156.944 253.435 156.944 252.489 156.944C252.627 160.038 251.365 162.246 248.705 163.566C248.705 162.305 248.705 161.043 248.705 159.782C249.647 159.863 250.435 159.547 251.07 158.836C252.437 156.386 253.541 153.863 254.381 151.268C255.642 150.322 256.904 149.376 258.165 148.43Z" fill="#B8D8F0" fill-opacity="0.5"/>
<path fill-rule="evenodd" clip-rule="evenodd" d="M154.105 151.266C155.366 151.897 156.312 152.843 156.943 154.104C156.628 154.104 156.312 154.104 155.997 154.104C154.667 153.657 154.036 152.711 154.105 151.266Z" fill="#B8D8F0" fill-opacity="0.5"/>
<path fill-rule="evenodd" clip-rule="evenodd" d="M169.241 152.213C171.448 152.213 173.656 152.213 175.863 152.213C175.761 154.119 176.391 155.695 177.755 156.943C177.124 156.943 176.494 156.943 175.863 156.943C174.836 154.969 173.26 153.708 171.133 153.159C170.194 153.322 169.564 153.006 169.241 152.213Z" fill="#B8D8F0" fill-opacity="0.5"/>
<path opacity="0.69" fill-rule="evenodd" clip-rule="evenodd" d="M376.415 150.32C382.007 153.387 386.737 157.486 390.605 162.618C389.462 163.313 388.201 163.628 386.821 163.564C386.193 161.325 384.932 159.433 383.037 157.888C380.237 156.93 377.714 155.669 375.469 154.104C375.406 152.724 375.721 151.463 376.415 150.32Z" fill="#B8D8F0" fill-opacity="0.5"/>
<path fill-rule="evenodd" clip-rule="evenodd" d="M175.863 156.943C176.494 156.943 177.124 156.943 177.755 156.943C177.755 157.574 178.07 157.889 178.701 157.889C178.701 158.204 178.701 158.52 178.701 158.835C177.257 158.904 176.311 158.273 175.863 156.943Z" fill="#B8D8F0" fill-opacity="0.5"/>
<path fill-rule="evenodd" clip-rule="evenodd" d="M155.997 154.105C156.312 154.105 156.628 154.105 156.943 154.105C160.688 157.565 164.472 161.033 168.295 164.511C168.295 165.142 168.295 165.772 168.295 166.403C165.768 163.886 162.93 161.679 159.781 159.781C158.943 159.001 158.628 158.055 158.835 156.943C157.889 156.943 156.943 156.943 155.997 156.943C155.997 155.997 155.997 155.051 155.997 154.105Z" fill="#B8D8F0" fill-opacity="0.5"/>
<path fill-rule="evenodd" clip-rule="evenodd" d="M178.701 158.835C178.701 158.52 178.701 158.204 178.701 157.889C181.391 157.741 182.968 159.002 183.431 161.673C182.8 161.673 182.17 161.673 181.539 161.673C181.539 159.781 180.593 158.835 178.701 158.835Z" fill="#B8D8F0" fill-opacity="0.5"/>
<path fill-rule="evenodd" clip-rule="evenodd" d="M218.433 163.565C218.164 165.377 218.479 166.953 219.379 168.295C219.379 169.241 219.379 170.187 219.379 171.133C218.436 171.105 217.805 171.578 217.487 172.552C216.709 174.855 216.393 177.22 216.541 179.647C215.456 175.725 215.298 171.625 216.068 167.349C216.643 165.868 217.432 164.606 218.433 163.565Z" fill="#B8D8F0" fill-opacity="0.5"/>
<path fill-rule="evenodd" clip-rule="evenodd" d="M173.025 170.187C174.355 170.634 174.986 171.58 174.917 173.025C173.587 172.577 172.956 171.631 173.025 170.187Z" fill="#B8D8F0" fill-opacity="0.5"/>
<path fill-rule="evenodd" clip-rule="evenodd" d="M194.783 165.457C195.351 166.781 196.297 167.727 197.621 168.295C198.42 169.402 199.05 170.664 199.513 172.079C200.582 173.796 201.212 175.688 201.405 177.755C199.744 176.1 198.483 174.208 197.621 172.079C197.384 170.733 196.596 169.787 195.256 169.241C194.792 168.017 194.634 166.755 194.783 165.457Z" fill="#B8D8F0" fill-opacity="0.5"/>
<path fill-rule="evenodd" clip-rule="evenodd" d="M174.917 173.025C175.232 173.025 175.548 173.025 175.863 173.025C176.904 174.07 177.535 175.331 177.755 176.809C177.755 177.44 177.755 178.07 177.755 178.701C176.363 177.078 175.417 175.186 174.917 173.025Z" fill="#B8D8F0" fill-opacity="0.5"/>
<path fill-rule="evenodd" clip-rule="evenodd" d="M147.483 179.647C145.541 179.74 143.964 179.109 142.753 177.755C136.3 176.662 129.678 176.505 122.887 177.282C121.355 177.505 120.409 178.293 120.049 179.647C119.418 179.647 118.788 179.647 118.157 179.647C118.076 178.705 118.392 177.917 119.103 177.282C128.524 175.55 137.984 175.392 147.483 176.809C147.483 177.755 147.483 178.701 147.483 179.647Z" fill="#B8D8F0" fill-opacity="0.5"/>
<path fill-rule="evenodd" clip-rule="evenodd" d="M197.621 172.079C198.483 174.208 199.744 176.1 201.405 177.755C202.248 178.332 203.194 178.647 204.243 178.701C204.243 179.332 204.243 179.962 204.243 180.593C204.792 182.72 206.053 184.296 208.027 185.323C208.027 185.954 208.027 186.584 208.027 187.215C206.366 188.21 205.735 189.787 206.135 191.945C205.2 190.72 204.254 189.459 203.297 188.161C203.171 185.449 201.91 183.557 199.513 182.485C198.594 180.609 197.648 178.717 196.675 176.809C196.675 176.178 196.675 175.548 196.675 174.917C197.53 174.246 197.845 173.3 197.621 172.079Z" fill="#B8D8F0" fill-opacity="0.5"/>
<path fill-rule="evenodd" clip-rule="evenodd" d="M390.605 162.619C394.826 166.623 398.137 171.353 400.538 176.809C403.029 183.306 405.079 189.928 406.687 196.675C405.922 198.37 405.449 200.262 405.268 202.351C404.637 201.72 404.007 201.09 403.376 200.459C403.056 195.684 402.425 190.954 401.484 186.269C398.242 179.559 394.773 172.937 391.078 166.403C390.614 165.179 390.456 163.918 390.605 162.619Z" fill="#B8D8F0" fill-opacity="0.5"/>
<path fill-rule="evenodd" clip-rule="evenodd" d="M219.379 171.134C218.47 173.902 217.839 176.74 217.487 179.648C217.172 179.648 216.856 179.648 216.541 179.648C216.393 177.22 216.709 174.855 217.487 172.553C217.804 171.578 218.435 171.105 219.379 171.134Z" fill="#B8D8F0" fill-opacity="0.5"/>
<path opacity="0.831" fill-rule="evenodd" clip-rule="evenodd" d="M22.6112 166.403C22.6112 168.295 22.6112 170.187 22.6112 172.079C21.6652 172.079 20.7192 172.079 19.7732 172.079C17.674 175.831 16.5703 179.931 16.4622 184.377C16.0706 184.809 15.5976 185.125 15.0432 185.323C14.2604 189.387 13.7874 193.486 13.6242 197.621C13.1788 199.273 12.5481 200.85 11.7322 202.351C11.4169 201.72 11.1015 201.09 10.7862 200.459C10.3136 206.757 10.1559 213.064 10.3132 219.379C7.84747 204.806 9.58178 190.616 15.5162 176.809C17.4352 172.949 19.8002 169.481 22.6112 166.403Z" fill="#B8D8F0" fill-opacity="0.5"/>
<path fill-rule="evenodd" clip-rule="evenodd" d="M142.753 177.756C140.861 177.756 138.969 177.756 137.077 177.756C132.651 177.599 128.237 177.757 123.833 178.229C123.307 178.591 122.992 179.064 122.887 179.648C121.941 179.648 120.995 179.648 120.049 179.648C120.41 178.294 121.356 177.506 122.887 177.283C129.679 176.506 136.301 176.663 142.753 177.756Z" fill="#B8D8F0" fill-opacity="0.5"/>
<path fill-rule="evenodd" clip-rule="evenodd" d="M137.077 177.755C137.077 178.07 137.077 178.386 137.077 178.701C132.288 178.487 127.558 178.803 122.887 179.647C122.992 179.063 123.307 178.59 123.833 178.228C128.236 177.756 132.65 177.598 137.077 177.755Z" fill="#B8D8F0" fill-opacity="0.5"/>
<path fill-rule="evenodd" clip-rule="evenodd" d="M137.077 178.701C137.077 178.386 137.077 178.07 137.077 177.755C138.969 177.755 140.861 177.755 142.753 177.755C143.964 179.109 145.541 179.74 147.483 179.647C149.09 179.496 150.667 179.653 152.213 180.12C153.401 180.514 154.032 181.302 154.105 182.485C152.575 181.976 150.998 181.661 149.375 181.539C148.429 181.539 147.483 181.539 146.537 181.539C143.694 179.858 140.541 178.912 137.077 178.701Z" fill="#B8D8F0" fill-opacity="0.5"/>
<path fill-rule="evenodd" clip-rule="evenodd" d="M137.077 178.701C140.541 178.912 143.694 179.858 146.537 181.539C145.276 181.539 144.014 181.539 142.753 181.539C135.489 179.129 128.236 179.129 120.995 181.539C120.049 181.539 119.103 181.539 118.157 181.539C117.842 181.539 117.526 181.539 117.211 181.539C118.157 180.908 119.103 180.278 120.049 179.647C120.995 179.647 121.941 179.647 122.887 179.647C127.558 178.803 132.288 178.487 137.077 178.701Z" fill="#B8D8F0" fill-opacity="0.5"/>
<path fill-rule="evenodd" clip-rule="evenodd" d="M118.157 179.646C118.788 179.646 119.418 179.646 120.049 179.646C119.103 180.277 118.157 180.908 117.211 181.538C116.896 181.538 116.58 181.538 116.265 181.538C115.216 181.592 114.27 181.907 113.427 182.484C114.36 180.68 115.936 179.734 118.157 179.646Z" fill="#B8D8F0" fill-opacity="0.5"/>
<path fill-rule="evenodd" clip-rule="evenodd" d="M168.295 166.403C169.872 167.664 171.448 168.926 173.025 170.187C172.956 171.631 173.587 172.577 174.917 173.025C175.417 175.185 176.363 177.077 177.755 178.701C179.085 179.148 179.716 180.094 179.647 181.539C178.535 181.746 177.589 181.431 176.809 180.593C173.761 175.871 170.923 171.141 168.295 166.403Z" fill="#B8D8F0" fill-opacity="0.5"/>
<path fill-rule="evenodd" clip-rule="evenodd" d="M177.755 176.809C178.07 176.809 178.386 176.809 178.701 176.809C179.332 178.07 180.278 179.016 181.539 179.647C183.289 182.992 184.866 186.46 186.269 190.053C184.232 187.159 182.024 184.321 179.647 181.539C179.716 180.095 179.085 179.149 177.755 178.701C177.755 178.07 177.755 177.44 177.755 176.809Z" fill="#B8D8F0" fill-opacity="0.5"/>
<path fill-rule="evenodd" clip-rule="evenodd" d="M112.481 182.485C111.85 183.116 111.22 183.746 110.589 184.377C110.274 184.377 109.958 184.377 109.643 184.377C106.485 185.641 103.332 186.902 100.183 188.161C100.183 187.53 100.183 186.9 100.183 186.269C104.187 184.743 108.287 183.481 112.481 182.485Z" fill="#B8D8F0" fill-opacity="0.5"/>
<path fill-rule="evenodd" clip-rule="evenodd" d="M100.183 186.269C100.183 186.9 100.183 187.53 100.183 188.161C99.8597 188.954 99.2296 189.27 98.2912 189.107C95.6301 188.658 93.7381 189.604 92.6152 191.945C91.9842 191.945 91.3542 191.945 90.7232 191.945C90.6418 191.003 90.9578 190.215 91.6692 189.58C94.5403 188.455 97.3783 187.352 100.183 186.269Z" fill="#B8D8F0" fill-opacity="0.5"/>
<path fill-rule="evenodd" clip-rule="evenodd" d="M98.2907 189.107C96.4404 190.045 94.5484 190.991 92.6147 191.945C93.7376 189.603 95.6296 188.657 98.2907 189.107Z" fill="#B8D8F0" fill-opacity="0.5"/>
<path fill-rule="evenodd" clip-rule="evenodd" d="M186.269 190.054C187.204 191.279 188.15 192.54 189.107 193.838C189.107 194.469 189.107 195.099 189.107 195.73C188.424 194.735 187.478 194.104 186.269 193.838C186.269 192.577 186.269 191.315 186.269 190.054Z" fill="#B8D8F0" fill-opacity="0.5"/>
<path fill-rule="evenodd" clip-rule="evenodd" d="M233.569 180.593C232.064 183.365 230.172 185.888 227.893 188.161C224.932 189.175 222.41 190.91 220.325 193.364C216.289 194.781 213.451 193.678 211.811 190.053C213.289 190.273 214.55 190.904 215.595 191.945C218.611 193.417 220.818 192.471 222.217 189.107C222.532 189.107 222.848 189.107 223.163 189.107C226.906 186.626 230.375 183.788 233.569 180.593Z" fill="#B8D8F0" fill-opacity="0.5"/>
<path fill-rule="evenodd" clip-rule="evenodd" d="M90.7233 191.945C91.3542 191.945 91.9843 191.945 92.6153 191.945C90.9881 192.709 89.4112 193.655 87.8853 194.783C87.8853 192.891 88.8313 191.945 90.7233 191.945Z" fill="#B8D8F0" fill-opacity="0.5"/>
<path fill-rule="evenodd" clip-rule="evenodd" d="M206.135 193.836C206.135 193.521 206.135 193.205 206.135 192.89C207.081 192.89 208.027 192.89 208.973 192.89C208.973 194.467 208.973 196.043 208.973 197.62C208.658 197.62 208.342 197.62 208.027 197.62C208.027 197.305 208.027 196.989 208.027 196.674C208.096 195.23 207.465 194.284 206.135 193.836Z" fill="#B8D8F0" fill-opacity="0.5"/>
<path fill-rule="evenodd" clip-rule="evenodd" d="M87.8847 194.783C86.0344 195.722 84.1424 196.668 82.2087 197.621C82.2087 196.675 82.2087 195.729 82.2087 194.783C84.1007 194.783 85.9927 194.783 87.8847 194.783Z" fill="#B8D8F0" fill-opacity="0.5"/>
<path fill-rule="evenodd" clip-rule="evenodd" d="M227.893 188.161C227.975 189.103 227.659 189.891 226.947 190.526C224.315 191.741 222.108 193.475 220.325 195.729C214.589 197.249 211.12 195.042 209.919 189.107C210.55 189.422 211.18 189.738 211.811 190.053C213.452 193.678 216.29 194.781 220.325 193.364C222.41 190.91 224.932 189.175 227.893 188.161Z" fill="#B8D8F0" fill-opacity="0.5"/>
<path fill-rule="evenodd" clip-rule="evenodd" d="M82.2087 197.621C82.2087 197.936 82.2087 198.252 82.2087 198.567C79.7415 198.472 77.5335 199.103 75.5867 200.459C75.5867 199.513 75.5867 198.567 75.5867 197.621C77.7937 197.621 80.0017 197.621 82.2087 197.621Z" fill="#B8D8F0" fill-opacity="0.5"/>
<path fill-rule="evenodd" clip-rule="evenodd" d="M73.695 201.406C72.2041 202.014 70.9421 202.96 69.911 204.244C68.9006 205.127 67.6396 205.443 66.127 205.19C66.127 204.875 66.127 204.559 66.127 204.244C68.2848 202.42 70.8068 201.474 73.695 201.406Z" fill="#B8D8F0" fill-opacity="0.5"/>
<path fill-rule="evenodd" clip-rule="evenodd" d="M208.973 197.62C210.224 197.46 211.327 197.775 212.284 198.566C212.946 201.717 214.05 204.555 215.595 207.08C214.899 205.445 213.637 204.499 211.811 204.242C211.297 201.841 210.351 199.633 208.973 197.62Z" fill="#B8D8F0" fill-opacity="0.5"/>
<path fill-rule="evenodd" clip-rule="evenodd" d="M60.4506 204.242C62.3426 204.242 64.2346 204.242 66.1266 204.242C66.1266 204.557 66.1266 204.873 66.1266 205.188C65.8113 205.188 65.4959 205.188 65.1806 205.188C62.713 205.094 60.5057 205.725 58.5586 207.08C58.8739 206.449 59.1893 205.819 59.5046 205.188C60.1353 205.188 60.4506 204.873 60.4506 204.242Z" fill="#B8D8F0" fill-opacity="0.5"/>
<path fill-rule="evenodd" clip-rule="evenodd" d="M39.6389 204.242C46.5762 204.242 53.5136 204.242 60.4509 204.242C60.4509 204.873 60.1356 205.188 59.5049 205.188C56.3994 205.738 53.2461 206.053 50.0449 206.134C46.2905 206.329 42.8218 205.698 39.6389 204.242Z" fill="#B8D8F0" fill-opacity="0.5"/>
<path fill-rule="evenodd" clip-rule="evenodd" d="M39.6387 204.243C42.8216 205.699 46.2903 206.33 50.0447 206.135C53.2459 206.054 56.3992 205.739 59.5047 205.189C59.1894 205.82 58.874 206.45 58.5587 207.081C58.2434 207.081 57.928 207.081 57.6127 207.081C51.9367 207.081 46.2607 207.081 40.5847 207.081C38.3639 205.708 35.8412 205.078 33.0167 205.189C31.2484 205.196 29.6717 205.511 28.2867 206.135C29.4682 207.683 31.0449 208.787 33.0167 209.446C33.7285 210.081 34.0439 210.869 33.9627 211.811C32.7014 211.811 31.44 211.811 30.1787 211.811C30.1787 210.865 30.1787 209.919 30.1787 208.973C26.7152 209.115 25.7692 207.696 27.3407 204.716C31.428 204.244 35.5273 204.086 39.6387 204.243Z" fill="#B8D8F0" fill-opacity="0.5"/>
<path fill-rule="evenodd" clip-rule="evenodd" d="M155.051 206.135C155.682 206.135 156.312 206.135 156.943 206.135C157.218 207.222 158.006 207.853 159.308 208.027C163.228 208.655 167.17 209.128 171.133 209.446C172.531 211.375 174.423 212.163 176.809 211.811C176.809 212.126 176.809 212.442 176.809 212.757C176.882 213.94 177.513 214.728 178.701 215.122C176.651 215.28 174.602 215.437 172.552 215.595C166.333 213.59 159.869 212.644 153.159 212.757C150.006 212.915 146.852 213.072 143.699 213.23C141.359 213.265 139.467 214.053 138.023 215.595C137.392 215.595 137.077 215.91 137.077 216.541C132.328 215.948 127.913 216.736 123.833 218.906C121.648 219.376 119.441 219.533 117.211 219.379C112.38 221.031 107.335 222.134 102.075 222.69C101.444 223.321 100.814 223.951 100.183 224.582C88.2048 225.055 76.2218 225.213 64.235 225.055C62.0749 224.953 60.1829 224.165 58.559 222.69C55.7384 222.219 52.9004 222.061 50.045 222.217C50.1262 221.275 49.8108 220.487 49.099 219.852C46.6856 219.85 44.7936 219.061 43.423 217.487C42.4131 216.603 41.1517 216.288 39.639 216.541C38.003 215.845 37.057 214.583 36.801 212.757C38.181 212.694 39.4424 213.009 40.585 213.703C40.6897 214.287 41.005 214.76 41.531 215.122C43.7161 215.592 45.9235 215.749 48.153 215.595C48.7837 215.595 49.4143 215.595 50.045 215.595C51.1621 217.077 52.7387 217.866 54.775 217.96C65.6612 218.741 76.3826 218.583 86.939 217.487C92.1165 215.642 97.4775 214.538 103.021 214.176C105.717 212.482 108.555 211.378 111.535 210.865C112.28 209.348 113.541 208.717 115.319 208.973C118.488 209.129 121.641 208.971 124.779 208.5C125.41 207.869 126.04 207.239 126.671 206.608C136.125 206.135 145.585 205.978 155.051 206.135Z" fill="#B8D8F0" fill-opacity="0.5"/>
<path fill-rule="evenodd" clip-rule="evenodd" d="M186.269 193.837C187.478 194.104 188.424 194.735 189.107 195.729C189.038 197.173 189.669 198.119 190.999 198.567C191.63 198.882 192.26 199.198 192.891 199.513C192.893 202.98 194.154 205.818 196.675 208.027C198.073 211.596 199.649 215.065 201.405 218.433C201.405 219.694 200.774 220.325 199.513 220.325C198.994 218.403 197.733 217.457 195.729 217.487C195.508 216.009 194.877 214.748 193.837 213.703C192.848 210.822 190.956 208.93 188.161 208.027C187.846 207.081 187.215 206.45 186.269 206.135C185.638 205.189 185.008 204.243 184.377 203.297C184.073 201.833 183.127 201.202 181.539 201.405C181.539 200.459 181.539 199.513 181.539 198.567C180.593 198.567 179.647 198.567 178.701 198.567C178.701 198.252 178.701 197.936 178.701 197.621C180.368 197.486 181.945 197.802 183.431 198.567C186.347 200.971 188.554 203.809 190.053 207.081C191.048 207.222 191.994 207.065 192.891 206.608C192.018 204.677 191.703 202.627 191.945 200.459C190.694 200.62 189.59 200.305 188.634 199.513C187.572 197.697 186.783 195.805 186.269 193.837Z" fill="#B8D8F0" fill-opacity="0.5"/>
<path fill-rule="evenodd" clip-rule="evenodd" d="M156.943 206.135C158.52 206.135 160.096 206.135 161.673 206.135C166.933 207.193 171.978 208.77 176.809 210.865C176.809 211.18 176.809 211.496 176.809 211.811C174.423 212.163 172.531 211.375 171.133 209.446C167.17 209.128 163.228 208.655 159.308 208.027C158.006 207.853 157.218 207.222 156.943 206.135Z" fill="#B8D8F0" fill-opacity="0.5"/>
<path fill-rule="evenodd" clip-rule="evenodd" d="M176.809 211.811C176.809 211.496 176.809 211.18 176.809 210.865C177.124 210.865 177.44 210.865 177.755 210.865C179.332 210.865 180.908 210.865 182.485 210.865C182.485 211.496 182.485 212.126 182.485 212.757C180.654 212.142 178.762 211.827 176.809 211.811Z" fill="#B8D8F0" fill-opacity="0.5"/>
<path fill-rule="evenodd" clip-rule="evenodd" d="M182.485 210.865C183.746 210.865 184.377 211.496 184.377 212.757C183.746 212.757 183.116 212.757 182.485 212.757C182.485 212.126 182.485 211.496 182.485 210.865Z" fill="#B8D8F0" fill-opacity="0.5"/>
<path fill-rule="evenodd" clip-rule="evenodd" d="M40.585 213.703C42.4157 214.318 44.3077 214.633 46.261 214.649C46.8917 214.649 47.5223 214.649 48.153 214.649C48.153 214.964 48.153 215.28 48.153 215.595C45.9234 215.749 43.716 215.592 41.531 215.122C41.005 214.76 40.6897 214.287 40.585 213.703Z" fill="#B8D8F0" fill-opacity="0.5"/>
<path fill-rule="evenodd" clip-rule="evenodd" d="M176.809 212.757C179.76 214.224 182.913 215.17 186.269 215.595C186.269 216.541 186.269 217.487 186.269 218.433C187.876 218.282 189.453 218.439 190.999 218.906C188.496 219.376 185.973 219.534 183.431 219.379C180.41 218.189 177.257 217.559 173.971 217.487C171.015 216.561 167.862 216.245 164.511 216.541C160.816 215.179 156.874 214.549 152.686 214.649C147.796 215.005 142.909 215.32 138.023 215.595C139.467 214.053 141.359 213.265 143.699 213.23C146.852 213.072 150.006 212.915 153.159 212.757C159.869 212.644 166.333 213.59 172.552 215.595C174.602 215.437 176.651 215.28 178.701 215.122C177.513 214.728 176.882 213.94 176.809 212.757Z" fill="#B8D8F0" fill-opacity="0.5"/>
<path fill-rule="evenodd" clip-rule="evenodd" d="M215.595 209.919C217.877 210.103 218.823 211.364 218.433 213.703C219.379 213.703 220.325 213.703 221.271 213.703C221.271 215.595 221.271 217.487 221.271 219.379C220.64 219.064 220.01 218.748 219.379 218.433C219.064 217.802 218.748 217.172 218.433 216.541C218.031 214.064 217.085 211.856 215.595 209.919Z" fill="#B8D8F0" fill-opacity="0.5"/>
<path fill-rule="evenodd" clip-rule="evenodd" d="M164.511 216.541C155.366 216.541 146.222 216.541 137.077 216.541C137.077 215.911 137.392 215.595 138.023 215.595C142.909 215.32 147.796 215.005 152.686 214.649C156.874 214.549 160.816 215.179 164.511 216.541Z" fill="#B8D8F0" fill-opacity="0.5"/>
<path fill-rule="evenodd" clip-rule="evenodd" d="M50.0452 215.594C59.6365 217.33 69.4117 217.961 79.3712 217.486C81.8941 217.486 84.4162 217.486 86.9392 217.486C76.3828 218.583 65.6614 218.741 54.7752 217.959C52.7388 217.866 51.1622 217.077 50.0452 215.594Z" fill="#B8D8F0" fill-opacity="0.5"/>
<path fill-rule="evenodd" clip-rule="evenodd" d="M167.349 218.433C167.349 218.118 167.349 217.802 167.349 217.487C169.556 217.487 171.764 217.487 173.971 217.487C177.256 217.559 180.409 218.189 183.431 219.379C183.431 219.694 183.431 220.01 183.431 220.325C183.116 220.325 182.8 220.325 182.485 220.325C179.911 219.887 177.388 219.257 174.917 218.433C173.025 218.433 171.133 218.433 169.241 218.433C168.926 218.433 168.61 218.433 168.295 218.433C167.98 218.433 167.664 218.433 167.349 218.433Z" fill="#B8D8F0" fill-opacity="0.5"/>
<path fill-rule="evenodd" clip-rule="evenodd" d="M43.423 217.487C44.7935 219.061 46.6855 219.85 49.099 219.852C49.8107 220.487 50.1261 221.275 50.045 222.217C47.9624 221.209 45.7551 220.578 43.423 220.325C43.423 221.271 43.423 222.217 43.423 223.163C44.6442 222.939 45.5902 223.254 46.261 224.109C45.9457 224.109 45.6303 224.109 45.315 224.109C44.369 224.109 43.423 224.109 42.477 224.109C41.8463 221.902 41.2157 219.694 40.585 217.487C41.531 217.487 42.477 217.487 43.423 217.487Z" fill="#B8D8F0" fill-opacity="0.5"/>
<path fill-rule="evenodd" clip-rule="evenodd" d="M137.077 216.541C146.222 216.541 155.366 216.541 164.511 216.541C167.862 216.245 171.015 216.561 173.971 217.487C171.764 217.487 169.556 217.487 167.349 217.487C156.628 217.487 145.906 217.487 135.185 217.487C131.123 216.832 127.654 217.778 124.779 220.325C123.518 220.325 122.256 220.325 120.995 220.325C119.734 220.325 118.472 220.325 117.211 220.325C117.211 220.01 117.211 219.694 117.211 219.379C119.441 219.533 121.648 219.376 123.833 218.906C127.913 216.736 132.328 215.948 137.077 216.541Z" fill="#B8D8F0" fill-opacity="0.5"/>
<path fill-rule="evenodd" clip-rule="evenodd" d="M135.185 217.487C132.171 219.733 128.702 220.679 124.779 220.325C127.654 217.778 131.123 216.832 135.185 217.487Z" fill="#B8D8F0" fill-opacity="0.5"/>
<path fill-rule="evenodd" clip-rule="evenodd" d="M176.809 212.757C176.809 212.442 176.809 212.126 176.809 211.811C178.762 211.827 180.654 212.142 182.485 212.757C183.116 212.757 183.746 212.757 184.377 212.757C185.638 213.703 186.9 214.649 188.161 215.595C189.884 217.023 191.776 218.284 193.837 219.379C194.507 220.234 195.453 220.549 196.675 220.325C196.675 221.271 196.675 222.217 196.675 223.163C195.414 223.163 194.152 223.163 192.891 223.163C191.669 223.387 190.723 223.072 190.053 222.217C189.948 221.633 189.633 221.16 189.107 220.798C187.24 220.329 185.348 220.171 183.431 220.325C183.431 220.01 183.431 219.694 183.431 219.379C185.972 219.534 188.495 219.376 190.999 218.906C189.453 218.438 187.876 218.281 186.269 218.433C186.269 217.487 186.269 216.541 186.269 215.595C182.912 215.17 179.759 214.224 176.809 212.757Z" fill="#B8D8F0" fill-opacity="0.5"/>
<path fill-rule="evenodd" clip-rule="evenodd" d="M117.211 219.379C117.211 219.694 117.211 220.01 117.211 220.325C117.106 220.909 116.791 221.382 116.265 221.744C112.846 222.638 109.377 223.269 105.859 223.636C104.845 224.442 103.899 225.23 103.021 226.001C97.6388 226.031 92.2788 226.347 86.9386 226.947C79.3659 226.728 71.7979 226.412 64.2346 226.001C64.2346 225.686 64.2346 225.37 64.2346 225.055C76.2214 225.213 88.2044 225.055 100.183 224.582C100.814 223.951 101.444 223.321 102.075 222.69C107.334 222.134 112.379 221.031 117.211 219.379Z" fill="#B8D8F0" fill-opacity="0.5"/>
<path fill-rule="evenodd" clip-rule="evenodd" d="M182.485 221.27C182.485 220.955 182.485 220.639 182.485 220.324C182.8 220.324 183.116 220.324 183.431 220.324C185.348 220.171 187.24 220.329 189.107 220.797C189.633 221.16 189.948 221.633 190.053 222.216C188.523 221.707 186.946 221.392 185.323 221.27C184.377 221.27 183.431 221.27 182.485 221.27Z" fill="#B8D8F0" fill-opacity="0.5"/>
<path fill-rule="evenodd" clip-rule="evenodd" d="M117.211 220.325C118.472 220.325 119.734 220.325 120.995 220.325C120.995 220.956 120.68 221.271 120.049 221.271C118.604 221.202 117.658 221.833 117.211 223.163C112.337 223.522 107.607 224.468 103.021 226.001C103.9 225.23 104.846 224.442 105.859 223.636C109.377 223.269 112.846 222.638 116.265 221.744C116.791 221.382 117.106 220.909 117.211 220.325Z" fill="#B8D8F0" fill-opacity="0.5"/>
<path fill-rule="evenodd" clip-rule="evenodd" d="M120.049 221.271C119.601 222.601 118.655 223.232 117.211 223.163C117.658 221.833 118.604 221.202 120.049 221.271Z" fill="#B8D8F0" fill-opacity="0.5"/>
<path fill-rule="evenodd" clip-rule="evenodd" d="M39.6392 216.541C41.1518 216.288 42.4132 216.604 43.4232 217.487C42.4772 217.487 41.5312 217.487 40.5852 217.487C41.2159 219.694 41.8465 221.902 42.4772 224.109C38.6333 223.114 36.7413 220.591 36.8012 216.541C37.7472 216.541 38.6932 216.541 39.6392 216.541Z" fill="#B8D8F0" fill-opacity="0.5"/>
<path fill-rule="evenodd" clip-rule="evenodd" d="M50.0449 222.217C51.3062 222.848 52.5676 223.478 53.8289 224.109C49.4118 223.627 48.4658 224.888 50.9909 227.893C49.9417 227.839 48.9957 227.524 48.1529 226.947C48.2219 225.503 47.5912 224.557 46.2609 224.109C45.5901 223.254 44.6441 222.939 43.4229 223.163C43.4229 222.217 43.4229 221.271 43.4229 220.325C45.755 220.578 47.9623 221.209 50.0449 222.217Z" fill="#B8D8F0" fill-opacity="0.5"/>
<path fill-rule="evenodd" clip-rule="evenodd" d="M50.0452 222.217C52.9006 222.061 55.7386 222.219 58.5592 222.69C60.1831 224.165 62.0751 224.953 64.2352 225.055C64.2352 225.37 64.2352 225.686 64.2352 226.001C62.9739 226.001 61.7125 226.001 60.4512 226.001C59.0981 225.02 57.5214 224.389 55.7212 224.109C55.0905 224.109 54.4599 224.109 53.8292 224.109C52.5679 223.478 51.3065 222.848 50.0452 222.217Z" fill="#B8D8F0" fill-opacity="0.5"/>
<path fill-rule="evenodd" clip-rule="evenodd" d="M195.729 217.487C197.734 217.457 198.995 218.403 199.513 220.325C200.144 221.902 200.774 223.478 201.405 225.055C199.132 225.104 196.925 224.789 194.783 224.109C194.152 224.109 193.522 224.109 192.891 224.109C192.891 223.794 192.891 223.478 192.891 223.163C194.152 223.163 195.414 223.163 196.675 223.163C196.675 222.217 196.675 221.271 196.675 220.325C195.454 220.549 194.508 220.234 193.837 219.379C195.098 219.379 195.729 218.748 195.729 217.487Z" fill="#B8D8F0" fill-opacity="0.5"/>
<path fill-rule="evenodd" clip-rule="evenodd" d="M135.185 217.487C145.906 217.487 156.628 217.487 167.349 217.487C167.349 217.802 167.349 218.118 167.349 218.433C156.938 218.275 146.532 218.433 136.131 218.906C131.612 220.779 126.882 221.725 121.941 221.744C121.31 222.375 120.68 223.005 120.049 223.636C115.618 223.876 111.518 225.138 107.751 227.42C104.93 227.891 102.092 228.049 99.2372 227.893C98.6062 227.893 97.9762 227.893 97.3452 227.893C97.3452 227.578 97.3452 227.262 97.3452 226.947C99.4595 227.226 101.352 226.91 103.021 226.001C107.607 224.468 112.337 223.522 117.211 223.163C118.656 223.232 119.602 222.601 120.049 221.271C120.68 221.271 120.995 220.956 120.995 220.325C122.256 220.325 123.518 220.325 124.779 220.325C128.702 220.679 132.171 219.733 135.185 217.487Z" fill="#B8D8F0" fill-opacity="0.5"/>
<path fill-rule="evenodd" clip-rule="evenodd" d="M221.271 221.271C221.271 220.956 221.271 220.64 221.271 220.325C223.696 221.358 225.746 222.934 227.42 225.055C227.888 226.601 228.045 228.178 227.893 229.785C225.518 227.045 223.31 224.207 221.271 221.271Z" fill="#B8D8F0" fill-opacity="0.5"/>
<path fill-rule="evenodd" clip-rule="evenodd" d="M55.7212 224.11C57.5214 224.39 59.0981 225.021 60.4512 226.002C58.3719 226.361 56.7953 225.73 55.7212 224.11Z" fill="#B8D8F0" fill-opacity="0.5"/>
<path opacity="0.969" fill-rule="evenodd" clip-rule="evenodd" d="M22.611 249.652C16.1381 240.977 12.0388 231.202 10.313 220.326C11.0603 219.276 11.5333 218.015 11.732 216.542C13.5563 220.736 14.5023 225.151 14.57 229.786C16.0486 232.694 17.6253 235.532 19.3 238.3C19.7687 240.166 19.9263 242.058 19.773 243.976C20.719 243.976 21.665 243.976 22.611 243.976C22.611 245.868 22.611 247.76 22.611 249.652Z" fill="#B8D8F0" fill-opacity="0.5"/>
<path fill-rule="evenodd" clip-rule="evenodd" d="M46.2613 224.11C47.5916 224.557 48.2223 225.503 48.1533 226.948C46.6888 226.644 46.0581 225.698 46.2613 224.11Z" fill="#B8D8F0" fill-opacity="0.5"/>
<path fill-rule="evenodd" clip-rule="evenodd" d="M221.271 221.271C223.31 224.206 225.518 227.044 227.893 229.785C227.893 230.1 227.893 230.416 227.893 230.731C228.934 231.776 229.565 233.037 229.785 234.515C229.47 234.515 229.154 234.515 228.839 234.515C227.893 233.254 226.947 231.992 226.001 230.731C224.068 227.777 222.491 224.624 221.271 221.271Z" fill="#B8D8F0" fill-opacity="0.5"/>
<path fill-rule="evenodd" clip-rule="evenodd" d="M53.8291 224.11C54.4598 224.11 55.0904 224.11 55.7211 224.11C56.7952 225.73 58.3718 226.361 60.4511 226.002C61.7124 226.002 62.9738 226.002 64.2351 226.002C66.1271 226.633 68.0191 227.263 69.9111 227.894C68.3341 227.894 66.7581 227.894 65.1811 227.894C64.5504 227.894 63.9198 227.894 63.2891 227.894C60.9734 226.973 58.4507 226.658 55.7211 226.948C55.0904 226.002 54.4598 225.056 53.8291 224.11Z" fill="#B8D8F0" fill-opacity="0.5"/>
<path fill-rule="evenodd" clip-rule="evenodd" d="M64.2346 226.001C71.7979 226.412 79.3659 226.728 86.9386 226.947C81.4424 227.884 75.7664 228.199 69.9106 227.893C68.0186 227.262 66.1266 226.632 64.2346 226.001Z" fill="#B8D8F0" fill-opacity="0.5"/>
<path fill-rule="evenodd" clip-rule="evenodd" d="M201.405 218.433C202.325 219.983 203.586 221.245 205.189 222.217C204.864 224.093 205.495 225.354 207.081 226.001C207.081 226.632 207.081 227.262 207.081 227.893C205.024 228.129 203.447 229.075 202.351 230.731C199.685 232.121 196.847 233.067 193.837 233.569C193.837 233.254 193.837 232.938 193.837 232.623C194.152 232.623 194.468 232.623 194.783 232.623C197.013 231.323 199.221 230.062 201.405 228.839C202.527 227.699 202.527 226.437 201.405 225.055C200.774 223.478 200.144 221.902 199.513 220.325C200.774 220.325 201.405 219.694 201.405 218.433Z" fill="#B8D8F0" fill-opacity="0.5"/>
<path fill-rule="evenodd" clip-rule="evenodd" d="M45.3149 224.11C45.6302 224.11 45.9456 224.11 46.2609 224.11C46.0577 225.698 46.6884 226.644 48.1529 226.948C48.9958 227.525 49.9418 227.84 50.9909 227.894C51.4385 229.224 52.3845 229.855 53.8289 229.786C53.8289 230.101 53.8289 230.417 53.8289 230.732C50.8642 230.031 48.0262 229.085 45.3149 227.894C45.3149 226.633 45.3149 225.371 45.3149 224.11Z" fill="#B8D8F0" fill-opacity="0.5"/>
<path fill-rule="evenodd" clip-rule="evenodd" d="M103.021 226.001C101.351 226.91 99.4592 227.226 97.3449 226.947C88.3087 228.635 79.1637 229.265 69.9109 228.839C69.9109 228.524 69.9109 228.208 69.9109 227.893C75.7666 228.199 81.4426 227.884 86.9389 226.947C92.2791 226.347 97.6391 226.031 103.021 226.001Z" fill="#B8D8F0" fill-opacity="0.5"/>
<path fill-rule="evenodd" clip-rule="evenodd" d="M65.1812 227.893C66.7581 227.893 68.3342 227.893 69.9112 227.893C69.9112 228.208 69.9112 228.524 69.9112 228.839C69.9112 229.154 69.9112 229.47 69.9112 229.785C67.7533 230.185 66.1764 229.554 65.1812 227.893Z" fill="#B8D8F0" fill-opacity="0.5"/>
<path fill-rule="evenodd" clip-rule="evenodd" d="M97.3446 226.946C97.3446 227.261 97.3446 227.577 97.3446 227.892C88.3151 229.616 79.171 230.247 69.9106 229.784C69.9106 229.469 69.9106 229.153 69.9106 228.838C79.1635 229.264 88.3085 228.634 97.3446 226.946Z" fill="#B8D8F0" fill-opacity="0.5"/>
<path fill-rule="evenodd" clip-rule="evenodd" d="M53.8291 230.731C55.1267 231.688 56.388 232.634 57.6131 233.569C56.3518 233.569 55.0904 233.569 53.8291 233.569C53.8291 232.623 53.8291 231.677 53.8291 230.731Z" fill="#B8D8F0" fill-opacity="0.5"/>
<path fill-rule="evenodd" clip-rule="evenodd" d="M207.081 227.893C209.79 233.754 213.574 238.799 218.433 243.029C218.748 243.66 219.064 244.29 219.379 244.921C219.379 245.236 219.379 245.552 219.379 245.867C218.433 245.867 217.487 245.867 216.541 245.867C216.541 244.921 216.541 243.975 216.541 243.029C215.29 243.19 214.186 242.875 213.23 242.083C211.367 239.53 210.263 236.692 209.919 233.569C208.973 233.569 208.027 233.569 207.081 233.569C207.081 232.623 207.081 231.677 207.081 230.731C205.504 230.731 203.928 230.731 202.351 230.731C203.447 229.076 205.024 228.13 207.081 227.893Z" fill="#B8D8F0" fill-opacity="0.5"/>
<path fill-rule="evenodd" clip-rule="evenodd" d="M227.893 230.731C230.175 230.914 231.121 232.175 230.731 234.515C230.416 234.515 230.1 234.515 229.785 234.515C229.565 233.037 228.934 231.776 227.893 230.731Z" fill="#B8D8F0" fill-opacity="0.5"/>
<path fill-rule="evenodd" clip-rule="evenodd" d="M193.837 232.623C193.837 232.938 193.837 233.254 193.837 233.569C190.886 235.036 187.733 235.982 184.377 236.407C185.008 235.776 185.638 235.146 186.269 234.515C186.584 234.515 186.9 234.515 187.215 234.515C189.162 233.159 191.37 232.528 193.837 232.623Z" fill="#B8D8F0" fill-opacity="0.5"/>
<path fill-rule="evenodd" clip-rule="evenodd" d="M229.785 234.515C230.1 234.515 230.416 234.515 230.731 234.515C231.772 235.56 232.402 236.821 232.623 238.299C230.956 237.578 230.01 236.316 229.785 234.515Z" fill="#B8D8F0" fill-opacity="0.5"/>
<path fill-rule="evenodd" clip-rule="evenodd" d="M230.731 234.515C233.013 234.698 233.959 235.959 233.569 238.299C233.254 238.299 232.938 238.299 232.623 238.299C232.403 236.821 231.772 235.56 230.731 234.515Z" fill="#B8D8F0" fill-opacity="0.5"/>
<path fill-rule="evenodd" clip-rule="evenodd" d="M60.4507 236.407C61.3967 236.407 62.3427 236.407 63.2887 236.407C64.3339 237.448 65.5952 238.079 67.0727 238.299C67.3877 238.299 67.7037 238.299 68.0187 238.299C68.3337 238.93 68.6497 239.56 68.9647 240.191C65.0663 240.988 62.2283 239.727 60.4507 236.407Z" fill="#B8D8F0" fill-opacity="0.5"/>
<path fill-rule="evenodd" clip-rule="evenodd" d="M183.431 236.407C181.845 238.615 179.638 239.561 176.809 239.245C176.809 238.93 176.809 238.614 176.809 238.299C178.03 238.523 178.976 238.208 179.647 237.353C180.908 237.038 182.17 236.722 183.431 236.407Z" fill="#B8D8F0" fill-opacity="0.5"/>
<path fill-rule="evenodd" clip-rule="evenodd" d="M232.623 238.299C232.938 238.299 233.254 238.299 233.569 238.299C235.146 240.506 237.038 242.398 239.245 243.975C239.245 244.29 239.245 244.606 239.245 244.921C239.245 245.236 239.245 245.552 239.245 245.867C238.93 245.867 238.614 245.867 238.299 245.867C237.984 245.867 237.668 245.867 237.353 245.867C235.776 243.344 234.2 240.822 232.623 238.299Z" fill="#B8D8F0" fill-opacity="0.5"/>
<path fill-rule="evenodd" clip-rule="evenodd" d="M233.569 238.299C236.364 239.203 238.256 241.095 239.245 243.975C237.038 242.398 235.146 240.506 233.569 238.299Z" fill="#B8D8F0" fill-opacity="0.5"/>
<path fill-rule="evenodd" clip-rule="evenodd" d="M193.837 233.569C193.918 234.512 193.602 235.3 192.891 235.934C189.924 236.232 187.401 237.336 185.323 239.245C179.732 240.871 174.056 242.29 168.295 243.502C165.928 245.595 163.09 246.383 159.781 245.867C159.781 245.552 159.781 245.236 159.781 244.921C165.691 243.462 171.367 241.57 176.809 239.245C179.638 239.561 181.845 238.615 183.431 236.407C183.746 236.407 184.062 236.407 184.377 236.407C187.733 235.983 190.886 235.037 193.837 233.569Z" fill="#B8D8F0" fill-opacity="0.5"/>
<path fill-rule="evenodd" clip-rule="evenodd" d="M69.9109 240.191C70.2259 240.191 70.5419 240.191 70.8569 240.191C71.9306 241.811 73.5076 242.442 75.5869 242.083C76.199 243.635 77.145 244.896 78.4249 245.867C76.8479 245.867 75.2719 245.867 73.6949 245.867C73.6949 244.921 73.6949 243.975 73.6949 243.029C71.3554 243.419 70.0944 242.473 69.9109 240.191Z" fill="#B8D8F0" fill-opacity="0.5"/>
<path fill-rule="evenodd" clip-rule="evenodd" d="M239.245 245.867C241.452 247.759 243.66 249.651 245.867 251.543C248.2 255.141 251.353 257.664 255.327 259.111C255.327 259.426 255.327 259.742 255.327 260.057C255.327 260.372 255.327 260.688 255.327 261.003C253.573 260.302 251.996 259.356 250.597 258.165C247.128 255.012 243.66 251.858 240.191 248.705C239.614 247.862 239.299 246.916 239.245 245.867Z" fill="#B8D8F0" fill-opacity="0.5"/>
<path fill-rule="evenodd" clip-rule="evenodd" d="M239.245 245.867C239.245 245.552 239.245 245.236 239.245 244.921C242.357 246.141 244.564 248.348 245.867 251.543C243.66 249.651 241.452 247.759 239.245 245.867Z" fill="#B8D8F0" fill-opacity="0.5"/>
<path fill-rule="evenodd" clip-rule="evenodd" d="M238.299 245.867C238.614 245.867 238.93 245.867 239.245 245.867C239.299 246.916 239.614 247.862 240.191 248.705C238.726 248.401 238.096 247.455 238.299 245.867Z" fill="#B8D8F0" fill-opacity="0.5"/>
<path fill-rule="evenodd" clip-rule="evenodd" d="M156.943 245.867C157.024 246.809 156.708 247.597 155.997 248.232C150.44 248.936 145.08 250.198 139.915 252.016C136.144 252.488 132.36 252.646 128.563 252.489C131.401 251.858 134.239 251.228 137.077 250.597C137.708 249.966 138.338 249.336 138.969 248.705C139.915 248.705 140.861 248.705 141.807 248.705C147.145 248.943 152.19 247.997 156.943 245.867Z" fill="#B8D8F0" fill-opacity="0.5"/>
<path fill-rule="evenodd" clip-rule="evenodd" d="M82.2089 245.867C87.2085 247.7 92.2535 249.435 97.3449 251.07C109.345 251.739 121.328 251.581 133.293 250.597C134.554 250.597 135.816 250.597 137.077 250.597C134.239 251.228 131.401 251.858 128.563 252.489C117.837 252.647 107.115 252.489 96.3989 252.016C92.5856 250.113 88.4856 249.167 84.1009 249.178C82.7074 248.506 82.0764 247.403 82.2089 245.867Z" fill="#B8D8F0" fill-opacity="0.5"/>
<path fill-rule="evenodd" clip-rule="evenodd" d="M245.867 251.543C248.567 253.444 251.405 255.179 254.381 256.746C255.093 257.381 255.409 258.169 255.327 259.111C251.353 257.665 248.2 255.142 245.867 251.543Z" fill="#B8D8F0" fill-opacity="0.5"/>
<path opacity="0.525" fill-rule="evenodd" clip-rule="evenodd" d="M22.6113 249.651C23.8726 249.651 25.134 249.651 26.3953 249.651C27.6262 251.706 28.5722 253.913 29.2333 256.273C32.702 256.588 34.594 258.48 34.9093 261.949C29.864 258.796 25.7646 254.696 22.6113 249.651Z" fill="#B8D8F0" fill-opacity="0.5"/>
<path fill-rule="evenodd" clip-rule="evenodd" d="M255.327 260.058C255.327 259.743 255.327 259.427 255.327 259.112C258.029 260.368 260.867 261.314 263.841 261.95C263.841 262.896 263.841 263.842 263.841 264.788C260.828 263.377 257.99 261.8 255.327 260.058Z" fill="#B8D8F0" fill-opacity="0.5"/>
<path fill-rule="evenodd" clip-rule="evenodd" d="M255.327 261.003C255.327 260.688 255.327 260.372 255.327 260.057C257.99 261.8 260.828 263.377 263.841 264.787C263.841 265.102 263.841 265.418 263.841 265.733C262.363 265.513 261.102 264.882 260.057 263.841C258.249 263.297 256.672 262.351 255.327 261.003Z" fill="#B8D8F0" fill-opacity="0.5"/>
<path opacity="0.639" fill-rule="evenodd" clip-rule="evenodd" d="M383.037 261.004C373.676 268.65 362.954 273.38 350.873 275.194C350.712 273.943 351.027 272.839 351.819 271.883C354.342 271.568 356.864 271.252 359.387 270.937C364.459 268.183 369.82 266.133 375.469 264.788C375.469 263.842 375.469 262.896 375.469 261.95C377.993 261.793 380.201 260.847 382.091 259.112C382.846 259.544 383.161 260.175 383.037 261.004Z" fill="#B8D8F0" fill-opacity="0.5"/>
<path opacity="0.506" fill-rule="evenodd" clip-rule="evenodd" d="M61.3967 271.408C62.77 272.166 64.3466 272.639 66.1267 272.827C66.8381 273.462 67.1541 274.25 67.0727 275.192C55.3336 274.227 44.9276 270.128 35.8547 262.894C36.4695 262.606 37.1001 262.291 37.7467 261.948C43.9605 264.978 50.2672 267.974 56.6667 270.935C58.2126 271.402 59.7893 271.559 61.3967 271.408Z" fill="#B8D8F0" fill-opacity="0.5"/>
<path fill-rule="evenodd" clip-rule="evenodd" d="M241.137 264.787C241.768 264.787 242.398 264.787 243.029 264.787C244.06 266.07 245.322 267.016 246.813 267.625C244.921 267.625 243.029 267.625 241.137 267.625C241.137 266.679 241.137 265.733 241.137 264.787Z" fill="#B8D8F0" fill-opacity="0.5"/>
<path fill-rule="evenodd" clip-rule="evenodd" d="M263.841 265.734C266.564 267.907 269.717 269.168 273.301 269.518C273.301 270.464 273.301 271.41 273.301 272.356C271.724 271.725 270.148 271.095 268.571 270.464C267.346 269.529 266.085 268.583 264.787 267.626C264.472 266.995 264.156 266.365 263.841 265.734Z" fill="#B8D8F0" fill-opacity="0.5"/>
<path fill-rule="evenodd" clip-rule="evenodd" d="M263.841 265.733C263.841 265.418 263.841 265.102 263.841 264.787C265.14 264.638 266.402 264.796 267.625 265.26C271.918 267.749 276.333 269.956 280.869 271.882C282.014 272.865 282.96 273.969 283.707 275.193C280.461 273.481 276.992 272.535 273.301 272.355C273.301 271.409 273.301 270.463 273.301 269.517C269.717 269.167 266.564 267.906 263.841 265.733Z" fill="#B8D8F0" fill-opacity="0.5"/>
<path fill-rule="evenodd" clip-rule="evenodd" d="M273.301 272.355C276.992 272.535 280.461 273.481 283.707 275.193C283.707 275.508 283.707 275.824 283.707 276.139C282.012 276.012 280.436 276.327 278.977 277.085C278.752 275.284 277.806 274.022 276.139 273.301C275.508 273.301 274.878 273.301 274.247 273.301C273.616 273.301 273.301 272.986 273.301 272.355Z" fill="#B8D8F0" fill-opacity="0.5"/>
<path opacity="0.616" fill-rule="evenodd" clip-rule="evenodd" d="M61.397 271.408C64.9934 270.822 68.1467 271.611 70.857 273.773C91.8298 273.932 112.642 274.405 133.293 275.192C111.21 276.244 89.1375 276.244 67.073 275.192C67.1543 274.25 66.8384 273.462 66.127 272.827C64.3469 272.64 62.7702 272.167 61.397 271.408Z" fill="#B8D8F0" fill-opacity="0.5"/>
<path fill-rule="evenodd" clip-rule="evenodd" d="M250.597 270.463C251.543 270.463 252.489 270.463 253.435 270.463C255.059 271.906 256.951 272.852 259.111 273.301C261.986 275.849 265.455 276.795 269.517 276.139C269.832 276.139 270.148 276.139 270.463 276.139C270.517 277.188 270.832 278.134 271.409 278.977C266.632 278.175 261.902 277.072 257.219 275.666C255.803 273.896 253.911 272.95 251.543 272.828C250.832 272.194 250.516 271.406 250.597 270.463Z" fill="#B8D8F0" fill-opacity="0.5"/>
<path fill-rule="evenodd" clip-rule="evenodd" d="M274.247 273.302C274.878 273.302 275.508 273.302 276.139 273.302C276.007 274.839 276.638 275.942 278.031 276.613C276.165 277.082 274.273 277.239 272.355 277.086C272.032 276.293 271.402 275.978 270.463 276.14C270.148 276.14 269.832 276.14 269.517 276.14C269.517 275.825 269.517 275.509 269.517 275.194C271.675 275.594 273.252 274.963 274.247 273.302Z" fill="#B8D8F0" fill-opacity="0.5"/>
<path fill-rule="evenodd" clip-rule="evenodd" d="M276.139 273.302C277.806 274.023 278.752 275.285 278.977 277.086C278.977 277.401 278.977 277.717 278.977 278.032C278.662 278.032 278.346 278.032 278.031 278.032C275.917 278.311 274.025 277.995 272.355 277.086C274.273 277.239 276.165 277.082 278.031 276.613C276.638 275.942 276.007 274.839 276.139 273.302Z" fill="#B8D8F0" fill-opacity="0.5"/>
<path fill-rule="evenodd" clip-rule="evenodd" d="M270.463 276.139C271.402 275.976 272.032 276.292 272.355 277.085C274.025 277.994 275.917 278.31 278.031 278.031C276.038 278.947 273.83 279.263 271.409 278.977C270.832 278.134 270.517 277.188 270.463 276.139Z" fill="#B8D8F0" fill-opacity="0.5"/>
<path opacity="0.78" fill-rule="evenodd" clip-rule="evenodd" d="M278.031 278.031C278.346 278.031 278.662 278.031 278.977 278.031C278.977 297.897 278.977 317.763 278.977 337.629C278.294 337.234 277.821 336.604 277.558 335.737C277.085 317.135 276.927 298.53 277.085 279.923C274.971 280.202 273.079 279.886 271.409 278.977C273.83 279.263 276.038 278.947 278.031 278.031Z" fill="#B8D8F0" fill-opacity="0.5"/>
<path opacity="0.78" fill-rule="evenodd" clip-rule="evenodd" d="M140.861 284.653C141.648 304.673 142.121 324.854 142.28 345.197C142.911 345.828 143.541 346.458 144.172 347.089C144.912 354.958 146.331 362.526 148.429 369.793C149.375 369.793 150.321 369.793 151.267 369.793C151.267 371.685 151.267 373.577 151.267 375.469C152.213 375.469 153.159 375.469 154.105 375.469C154.105 377.361 154.105 379.253 154.105 381.145C147.006 372.009 142.749 361.603 141.334 349.927C140.861 328.171 140.703 306.413 140.861 284.653Z" fill="#B8D8F0" fill-opacity="0.5"/>
<path opacity="0.878" fill-rule="evenodd" clip-rule="evenodd" d="M154.105 381.145C155.366 381.145 156.628 381.145 157.889 381.145C158.081 383.168 159.027 384.745 160.727 385.875C161.507 386.713 162.453 387.028 163.565 386.821C163.565 388.082 163.565 389.344 163.565 390.605C164.511 390.605 165.457 390.605 166.403 390.605C166.403 391.551 166.403 392.497 166.403 393.443C161.358 390.29 157.258 386.19 154.105 381.145Z" fill="#B8D8F0" fill-opacity="0.5"/>
<path opacity="0.812" fill-rule="evenodd" clip-rule="evenodd" d="M166.403 393.443C168.321 393.29 170.213 393.448 172.079 393.916C176.779 397.364 181.825 400.202 187.215 402.43C191.499 402.876 195.598 403.822 199.513 405.268C197.328 405.738 195.121 405.895 192.891 405.741C182.936 403.802 174.106 399.703 166.403 393.443Z" fill="#B8D8F0" fill-opacity="0.5"/>
<path opacity="0.235" fill-rule="evenodd" clip-rule="evenodd" d="M274.247 365.063C264.998 387.868 248.285 401.742 224.109 406.687C223.55 406.072 222.92 405.441 222.217 404.795C222.415 404.241 222.731 403.768 223.163 403.376C231.03 401.024 238.913 398.659 246.813 396.281C246.813 395.335 246.813 394.389 246.813 393.443C249.539 393.341 251.746 392.238 253.435 390.132C260.123 383.625 266.114 376.845 271.409 369.793C271.076 367.359 271.549 365.152 272.828 363.171C273.091 364.038 273.564 364.668 274.247 365.063Z" fill="#B8D8F0" fill-opacity="0.5"/>
</g>
<defs>
<clipPath id="clip0_3069_3119">
<rect width="416" height="417" fill="white"/>
</clipPath>
</defs>
</svg>
