<svg width="44" height="44" viewBox="0 0 44 44" fill="none" xmlns="http://www.w3.org/2000/svg">
<path d="M37.377 11.0212L22.5042 6.06361C22.2498 5.9788 21.9747 5.9788 21.7203 6.06361L6.84744 11.0212C6.60065 11.1035 6.38601 11.2613 6.23391 11.4724C6.08182 11.6834 5.99998 11.937 6 12.1971V24.5911C6 24.9198 6.13058 25.2351 6.36301 25.4675C6.59545 25.6999 6.91069 25.8305 7.2394 25.8305C7.56811 25.8305 7.88336 25.6999 8.11579 25.4675C8.34822 25.2351 8.4788 24.9198 8.4788 24.5911V13.9168L13.6827 15.6504C12.3001 17.8841 11.8605 20.5752 12.4603 23.1328C13.0601 25.6904 14.6504 27.9055 16.882 29.2916C14.0933 30.3853 11.6827 32.3637 9.91961 35.0687C9.82792 35.205 9.76423 35.3581 9.73224 35.5193C9.70026 35.6804 9.70062 35.8462 9.7333 36.0072C9.76598 36.1682 9.83033 36.321 9.92261 36.4569C10.0149 36.5928 10.1333 36.709 10.2708 36.7987C10.4084 36.8884 10.5624 36.9499 10.724 36.9796C10.8855 37.0093 11.0514 37.0065 11.2119 36.9716C11.3724 36.9366 11.5243 36.8701 11.6588 36.7758C11.7934 36.6816 11.9079 36.5616 11.9956 36.4228C14.3303 32.8409 18.0176 30.7881 22.1122 30.7881C26.2069 30.7881 29.8941 32.8409 32.2289 36.4228C32.4106 36.6929 32.6914 36.8807 33.0106 36.9455C33.3297 37.0103 33.6615 36.9469 33.9343 36.769C34.207 36.5911 34.3988 36.313 34.4681 35.9948C34.5375 35.6767 34.4788 35.344 34.3048 35.0687C32.5418 32.3637 30.1219 30.3853 27.3425 29.2916C29.5719 27.9055 31.1607 25.6919 31.7604 23.1362C32.3602 20.5805 31.9219 17.8912 30.5417 15.6581L37.377 13.3807C37.6239 13.2985 37.8386 13.1407 37.9907 12.9296C38.1429 12.7186 38.2247 12.465 38.2247 12.2048C38.2247 11.9447 38.1429 11.6911 37.9907 11.4801C37.8386 11.269 37.6239 11.1112 37.377 11.029V11.0212ZM29.5486 20.8729C29.549 22.0486 29.2706 23.2076 28.7362 24.2548C28.2019 25.302 27.4269 26.2076 26.4748 26.8973C25.5227 27.587 24.4207 28.0412 23.2591 28.2225C22.0975 28.4038 20.9094 28.3071 19.7925 27.9404C18.6755 27.5736 17.6613 26.9473 16.8333 26.1127C16.0052 25.2781 15.3869 24.2591 15.0289 23.1393C14.6709 22.0194 14.5836 20.8307 14.774 19.6705C14.9644 18.5104 15.4272 17.4119 16.1244 16.4653L21.7203 18.3244C21.9747 18.4092 22.2498 18.4092 22.5042 18.3244L28.1001 16.4653C29.0416 17.7419 29.5493 19.2867 29.5486 20.8729Z" fill="#373634"/>
</svg>
