<svg width="22" height="22" viewBox="0 0 22 22" fill="none" xmlns="http://www.w3.org/2000/svg">
<path d="M6.41699 6.41602H5.50033C5.0141 6.41602 4.54778 6.60917 4.20396 6.95299C3.86015 7.2968 3.66699 7.76312 3.66699 8.24935V16.4993C3.66699 16.9856 3.86015 17.4519 4.20396 17.7957C4.54778 18.1395 5.0141 18.3327 5.50033 18.3327H13.7503C14.2366 18.3327 14.7029 18.1395 15.0467 17.7957C15.3905 17.4519 15.5837 16.9856 15.5837 16.4993V15.5827" stroke="#619155" stroke-width="2" stroke-linecap="round" stroke-linejoin="round"/>
<path d="M14.6667 4.58343L17.4167 7.33343M18.6863 6.03635C19.0473 5.67532 19.2501 5.18567 19.2501 4.6751C19.2501 4.16453 19.0473 3.67487 18.6863 3.31385C18.3252 2.95282 17.8356 2.75 17.325 2.75C16.8144 2.75 16.3248 2.95282 15.9638 3.31385L8.25 11.0001V13.7501H11L18.6863 6.03635Z" stroke="#619155" stroke-width="2" stroke-linecap="round" stroke-linejoin="round"/>
</svg>
