<svg width="44" height="44" viewBox="0 0 44 44" fill="none" xmlns="http://www.w3.org/2000/svg">
<path d="M35.4615 8H7.53846C6.86522 8 6.21955 8.26744 5.7435 8.7435C5.26744 9.21955 5 9.86522 5 10.5385V33.3846C5 34.0579 5.26744 34.7035 5.7435 35.1796C6.21955 35.6556 6.86522 35.9231 7.53846 35.9231H9.66284C9.90305 35.9232 10.1384 35.8551 10.3414 35.7267C10.5445 35.5984 10.7069 35.415 10.8099 35.198C11.4271 33.895 12.4015 32.7939 13.6199 32.0229C14.8383 31.2518 16.2505 30.8425 17.6923 30.8425C19.1341 30.8425 20.5464 31.2518 21.7647 32.0229C22.9831 32.7939 23.9575 33.895 24.5747 35.198C24.6777 35.415 24.8402 35.5984 25.0432 35.7267C25.2463 35.8551 25.4816 35.9232 25.7218 35.9231H35.4615C36.1348 35.9231 36.7804 35.6556 37.2565 35.1796C37.7326 34.7035 38 34.0579 38 33.3846V10.5385C38 9.86522 37.7326 9.21955 37.2565 8.7435C36.7804 8.26744 36.1348 8 35.4615 8ZM17.6923 28.3077C16.6882 28.3077 15.7066 28.0099 14.8717 27.4521C14.0368 26.8942 13.3861 26.1013 13.0018 25.1736C12.6176 24.2459 12.517 23.2251 12.7129 22.2403C12.9088 21.2555 13.3924 20.3509 14.1024 19.6408C14.8124 18.9308 15.717 18.4473 16.7018 18.2514C17.6867 18.0555 18.7075 18.156 19.6352 18.5403C20.5628 18.9246 21.3558 19.5753 21.9136 20.4102C22.4715 21.2451 22.7692 22.2266 22.7692 23.2308C22.7692 24.5773 22.2343 25.8686 21.2822 26.8207C20.3301 27.7728 19.0388 28.3077 17.6923 28.3077ZM35.4615 33.3846H26.4865C25.933 32.4307 25.2278 31.5733 24.3986 30.8462H31.6538C31.9905 30.8462 32.3133 30.7124 32.5513 30.4744C32.7894 30.2364 32.9231 29.9135 32.9231 29.5769V14.3462C32.9231 14.0095 32.7894 13.6867 32.5513 13.4487C32.3133 13.2106 31.9905 13.0769 31.6538 13.0769H11.3462C11.0095 13.0769 10.6867 13.2106 10.4487 13.4487C10.2106 13.6867 10.0769 14.0095 10.0769 14.3462V29.5769C10.0768 29.8584 10.1702 30.132 10.3425 30.3546C10.5149 30.5771 10.7563 30.7361 11.0288 30.8065C10.1803 31.5416 9.46024 32.4129 8.89812 33.3846H7.53846V10.5385H35.4615V33.3846Z" fill="#373634"/>
</svg>
