<svg width="1519" height="375" viewBox="0 0 1519 375" fill="none" xmlns="http://www.w3.org/2000/svg">
<g clip-path="url(#clip0_3324_155657)">
<mask id="mask0_3324_155657" style="mask-type:luminance" maskUnits="userSpaceOnUse" x="0" y="0" width="1519" height="375">
<path d="M1519 0H0V375H1519V0Z" fill="white"/>
</mask>
<g mask="url(#mask0_3324_155657)">
<path d="M1519 0H0V375H1519V0Z" fill="#F4F4F4"/>
<path d="M1519 0H0V375H1519V0Z" fill="#0D81BC"/>
<mask id="mask1_3324_155657" style="mask-type:alpha" maskUnits="userSpaceOnUse" x="0" y="0" width="1519" height="375">
<path d="M1519 0H0V375H1519V0Z" fill="url(#paint0_radial_3324_155657)"/>
</mask>
<g mask="url(#mask1_3324_155657)">
<path d="M23.8658 390.4L-18.8633 369.062L23.8658 347.725H109.003L151.731 369.062L109.003 390.4H23.8658Z" stroke="#F4F4F4" stroke-width="0.258333"/>
<path d="M23.8658 326.338L-18.8633 305L23.8658 283.662H109.003L151.731 305L109.003 326.338H23.8658Z" stroke="#F4F4F4" stroke-width="0.258333"/>
<path d="M23.8658 262.276L-18.8633 240.938L23.8658 219.6H109.003L151.731 240.938L109.003 262.276H23.8658Z" stroke="#F4F4F4" stroke-width="0.258333"/>
<path d="M23.8658 198.213L-18.8633 176.875L23.8658 155.537H109.003L151.731 176.875L109.003 198.213H23.8658Z" stroke="#F4F4F4" stroke-width="0.258333"/>
<path d="M23.8658 134.151L-18.8633 112.813L23.8658 91.4746H109.003L151.731 112.813L109.003 134.151H23.8658Z" stroke="#F4F4F4" stroke-width="0.258333"/>
<path d="M23.8658 70.0884L-18.8633 48.7502L23.8658 27.4121H109.003L151.731 48.7502L109.003 70.0884H23.8658Z" stroke="#F4F4F4" stroke-width="0.258333"/>
<path d="M23.8658 347.588L-18.8633 326.25L23.8658 304.912H109.003L151.731 326.25L109.003 347.588H23.8658Z" stroke="#F4F4F4" stroke-width="0.258333"/>
<path d="M23.8658 283.526L-18.8633 262.188L23.8658 240.85H109.003L151.731 262.188L109.003 283.526H23.8658Z" stroke="#F4F4F4" stroke-width="0.258333"/>
<path d="M23.8658 219.463L-18.8633 198.125L23.8658 176.787H109.003L151.731 198.125L109.003 219.463H23.8658Z" stroke="#F4F4F4" stroke-width="0.258333"/>
<path d="M23.8658 155.401L-18.8633 134.063L23.8658 112.725H109.003L151.731 134.063L109.003 155.401H23.8658Z" stroke="#F4F4F4" stroke-width="0.258333"/>
<path d="M23.8658 91.3384L-18.8633 70.0002L23.8658 48.6621H109.003L151.731 70.0002L109.003 91.3384H23.8658Z" stroke="#F4F4F4" stroke-width="0.258333"/>
<path d="M23.8658 27.2759L-18.8633 5.93773L23.8658 -15.4004H109.003L151.731 5.93773L109.003 27.2759H23.8658Z" stroke="#F4F4F4" stroke-width="0.258333"/>
<path d="M23.8658 369.15L-18.8633 347.812L23.8658 326.475H109.003L151.731 347.812L109.003 369.15H23.8658Z" stroke="#F4F4F4" stroke-width="0.258333"/>
<path d="M23.8658 305.088L-18.8633 283.75L23.8658 262.412H109.003L151.731 283.75L109.003 305.088H23.8658Z" stroke="#F4F4F4" stroke-width="0.258333"/>
<path d="M23.8658 241.026L-18.8633 219.688L23.8658 198.35H109.003L151.731 219.688L109.003 241.026H23.8658Z" stroke="#F4F4F4" stroke-width="0.258333"/>
<path d="M23.8658 176.963L-18.8633 155.625L23.8658 134.287H109.003L151.731 155.625L109.003 176.963H23.8658Z" stroke="#F4F4F4" stroke-width="0.258333"/>
<path d="M23.8658 112.901L-18.8633 91.5627L23.8658 70.2246H109.003L151.731 91.5627L109.003 112.901H23.8658Z" stroke="#F4F4F4" stroke-width="0.258333"/>
<path d="M23.8658 48.8384L-18.8633 27.5002L23.8658 6.16211H109.003L151.731 27.5002L109.003 48.8384H23.8658Z" stroke="#F4F4F4" stroke-width="0.258333"/>
<path d="M197.283 390.4L154.555 369.062L197.283 347.725H282.42L325.149 369.062L282.42 390.4H197.283Z" stroke="#F4F4F4" stroke-width="0.258333"/>
<path d="M197.283 326.338L154.555 305L197.283 283.662H282.42L325.149 305L282.42 326.338H197.283Z" stroke="#F4F4F4" stroke-width="0.258333"/>
<path d="M197.283 262.276L154.555 240.938L197.283 219.6H282.42L325.149 240.938L282.42 262.276H197.283Z" stroke="#F4F4F4" stroke-width="0.258333"/>
<path d="M197.283 198.213L154.555 176.875L197.283 155.537H282.42L325.149 176.875L282.42 198.213H197.283Z" stroke="#F4F4F4" stroke-width="0.258333"/>
<path d="M197.283 134.151L154.555 112.813L197.283 91.4746H282.42L325.149 112.813L282.42 134.151H197.283Z" stroke="#F4F4F4" stroke-width="0.258333"/>
<path d="M197.283 70.0884L154.555 48.7502L197.283 27.4121H282.42L325.149 48.7502L282.42 70.0884H197.283Z" stroke="#F4F4F4" stroke-width="0.258333"/>
<path d="M197.283 347.588L154.555 326.25L197.283 304.912H282.42L325.149 326.25L282.42 347.588H197.283Z" stroke="#F4F4F4" stroke-width="0.258333"/>
<path d="M197.283 283.526L154.555 262.188L197.283 240.85H282.42L325.149 262.188L282.42 283.526H197.283Z" stroke="#F4F4F4" stroke-width="0.258333"/>
<path d="M197.283 219.463L154.555 198.125L197.283 176.787H282.42L325.149 198.125L282.42 219.463H197.283Z" stroke="#F4F4F4" stroke-width="0.258333"/>
<path d="M197.283 155.401L154.555 134.063L197.283 112.725H282.42L325.149 134.063L282.42 155.401H197.283Z" stroke="#F4F4F4" stroke-width="0.258333"/>
<path d="M197.283 91.3384L154.555 70.0002L197.283 48.6621H282.42L325.149 70.0002L282.42 91.3384H197.283Z" stroke="#F4F4F4" stroke-width="0.258333"/>
<path d="M197.283 27.2759L154.555 5.93773L197.283 -15.4004H282.42L325.149 5.93773L282.42 27.2759H197.283Z" stroke="#F4F4F4" stroke-width="0.258333"/>
<path d="M197.283 369.15L154.555 347.812L197.283 326.475H282.42L325.149 347.812L282.42 369.15H197.283Z" stroke="#F4F4F4" stroke-width="0.258333"/>
<path d="M197.283 305.088L154.555 283.75L197.283 262.412H282.42L325.149 283.75L282.42 305.088H197.283Z" stroke="#F4F4F4" stroke-width="0.258333"/>
<path d="M197.283 241.026L154.555 219.688L197.283 198.35H282.42L325.149 219.688L282.42 241.026H197.283Z" stroke="#F4F4F4" stroke-width="0.258333"/>
<path d="M197.283 176.963L154.555 155.625L197.283 134.287H282.42L325.149 155.625L282.42 176.963H197.283Z" stroke="#F4F4F4" stroke-width="0.258333"/>
<path d="M197.283 112.901L154.555 91.5627L197.283 70.2246H282.42L325.149 91.5627L282.42 112.901H197.283Z" stroke="#F4F4F4" stroke-width="0.258333"/>
<path d="M197.283 48.8384L154.555 27.5002L197.283 6.16211H282.42L325.149 27.5002L282.42 48.8384H197.283Z" stroke="#F4F4F4" stroke-width="0.258333"/>
<path d="M370.705 390.4L327.977 369.062L370.705 347.725H455.842L498.57 369.062L455.842 390.4H370.705Z" stroke="#F4F4F4" stroke-width="0.258333"/>
<path d="M370.705 326.338L327.977 305L370.705 283.662H455.842L498.57 305L455.842 326.338H370.705Z" stroke="#F4F4F4" stroke-width="0.258333"/>
<path d="M370.705 262.276L327.977 240.938L370.705 219.6H455.842L498.57 240.938L455.842 262.276H370.705Z" stroke="#F4F4F4" stroke-width="0.258333"/>
<path d="M370.705 198.213L327.977 176.875L370.705 155.537H455.842L498.57 176.875L455.842 198.213H370.705Z" stroke="#F4F4F4" stroke-width="0.258333"/>
<path d="M370.705 134.151L327.977 112.813L370.705 91.4746H455.842L498.57 112.813L455.842 134.151H370.705Z" stroke="#F4F4F4" stroke-width="0.258333"/>
<path d="M370.705 70.0884L327.977 48.7502L370.705 27.4121H455.842L498.57 48.7502L455.842 70.0884H370.705Z" stroke="#F4F4F4" stroke-width="0.258333"/>
<path d="M370.705 347.588L327.977 326.25L370.705 304.912H455.842L498.57 326.25L455.842 347.588H370.705Z" stroke="#F4F4F4" stroke-width="0.258333"/>
<path d="M370.705 283.526L327.977 262.188L370.705 240.85H455.842L498.57 262.188L455.842 283.526H370.705Z" stroke="#F4F4F4" stroke-width="0.258333"/>
<path d="M370.705 219.463L327.977 198.125L370.705 176.787H455.842L498.57 198.125L455.842 219.463H370.705Z" stroke="#F4F4F4" stroke-width="0.258333"/>
<path d="M370.705 155.401L327.977 134.063L370.705 112.725H455.842L498.57 134.063L455.842 155.401H370.705Z" stroke="#F4F4F4" stroke-width="0.258333"/>
<path d="M370.705 91.3384L327.977 70.0002L370.705 48.6621H455.842L498.57 70.0002L455.842 91.3384H370.705Z" stroke="#F4F4F4" stroke-width="0.258333"/>
<path d="M370.705 27.2759L327.977 5.93773L370.705 -15.4004H455.842L498.57 5.93773L455.842 27.2759H370.705Z" stroke="#F4F4F4" stroke-width="0.258333"/>
<path d="M370.705 369.15L327.977 347.812L370.705 326.475H455.842L498.57 347.812L455.842 369.15H370.705Z" stroke="#F4F4F4" stroke-width="0.258333"/>
<path d="M370.705 305.088L327.977 283.75L370.705 262.412H455.842L498.57 283.75L455.842 305.088H370.705Z" stroke="#F4F4F4" stroke-width="0.258333"/>
<path d="M370.705 241.026L327.977 219.688L370.705 198.35H455.842L498.57 219.688L455.842 241.026H370.705Z" stroke="#F4F4F4" stroke-width="0.258333"/>
<path d="M370.705 176.963L327.977 155.625L370.705 134.287H455.842L498.57 155.625L455.842 176.963H370.705Z" stroke="#F4F4F4" stroke-width="0.258333"/>
<path d="M370.705 112.901L327.977 91.5627L370.705 70.2246H455.842L498.57 91.5627L455.842 112.901H370.705Z" stroke="#F4F4F4" stroke-width="0.258333"/>
<path d="M370.705 48.8384L327.977 27.5002L370.705 6.16211H455.842L498.57 27.5002L455.842 48.8384H370.705Z" stroke="#F4F4F4" stroke-width="0.258333"/>
<path d="M544.123 390.4L501.395 369.062L544.123 347.725H629.26L671.988 369.062L629.26 390.4H544.123Z" stroke="#F4F4F4" stroke-width="0.258333"/>
<path d="M544.123 326.338L501.395 305L544.123 283.662H629.26L671.988 305L629.26 326.338H544.123Z" stroke="#F4F4F4" stroke-width="0.258333"/>
<path d="M544.123 262.276L501.395 240.938L544.123 219.6H629.26L671.988 240.938L629.26 262.276H544.123Z" stroke="#F4F4F4" stroke-width="0.258333"/>
<path d="M544.123 198.213L501.395 176.875L544.123 155.537H629.26L671.988 176.875L629.26 198.213H544.123Z" stroke="#F4F4F4" stroke-width="0.258333"/>
<path d="M544.123 134.151L501.395 112.813L544.123 91.4746H629.26L671.988 112.813L629.26 134.151H544.123Z" stroke="#F4F4F4" stroke-width="0.258333"/>
<path d="M544.123 70.0884L501.395 48.7502L544.123 27.4121H629.26L671.988 48.7502L629.26 70.0884H544.123Z" stroke="#F4F4F4" stroke-width="0.258333"/>
<path d="M544.123 347.588L501.395 326.25L544.123 304.912H629.26L671.988 326.25L629.26 347.588H544.123Z" stroke="#F4F4F4" stroke-width="0.258333"/>
<path d="M544.123 283.526L501.395 262.188L544.123 240.85H629.26L671.988 262.188L629.26 283.526H544.123Z" stroke="#F4F4F4" stroke-width="0.258333"/>
<path d="M544.123 219.463L501.395 198.125L544.123 176.787H629.26L671.988 198.125L629.26 219.463H544.123Z" stroke="#F4F4F4" stroke-width="0.258333"/>
<path d="M544.123 155.401L501.395 134.063L544.123 112.725H629.26L671.988 134.063L629.26 155.401H544.123Z" stroke="#F4F4F4" stroke-width="0.258333"/>
<path d="M544.123 91.3384L501.395 70.0002L544.123 48.6621H629.26L671.988 70.0002L629.26 91.3384H544.123Z" stroke="#F4F4F4" stroke-width="0.258333"/>
<path d="M544.123 27.2759L501.395 5.93773L544.123 -15.4004H629.26L671.988 5.93773L629.26 27.2759H544.123Z" stroke="#F4F4F4" stroke-width="0.258333"/>
<path d="M544.123 369.15L501.395 347.812L544.123 326.475H629.26L671.988 347.812L629.26 369.15H544.123Z" stroke="#F4F4F4" stroke-width="0.258333"/>
<path d="M544.123 305.088L501.395 283.75L544.123 262.412H629.26L671.988 283.75L629.26 305.088H544.123Z" stroke="#F4F4F4" stroke-width="0.258333"/>
<path d="M544.123 241.026L501.395 219.688L544.123 198.35H629.26L671.988 219.688L629.26 241.026H544.123Z" stroke="#F4F4F4" stroke-width="0.258333"/>
<path d="M544.123 176.963L501.395 155.625L544.123 134.287H629.26L671.988 155.625L629.26 176.963H544.123Z" stroke="#F4F4F4" stroke-width="0.258333"/>
<path d="M544.123 112.901L501.395 91.5627L544.123 70.2246H629.26L671.988 91.5627L629.26 112.901H544.123Z" stroke="#F4F4F4" stroke-width="0.258333"/>
<path d="M544.123 48.8384L501.395 27.5002L544.123 6.16211H629.26L671.988 27.5002L629.26 48.8384H544.123Z" stroke="#F4F4F4" stroke-width="0.258333"/>
<path d="M717.541 390.4L674.812 369.062L717.541 347.725H802.678L845.406 369.062L802.678 390.4H717.541Z" stroke="#F4F4F4" stroke-width="0.258333"/>
<path d="M717.541 326.338L674.812 305L717.541 283.662H802.678L845.406 305L802.678 326.338H717.541Z" stroke="#F4F4F4" stroke-width="0.258333"/>
<path d="M717.541 262.276L674.812 240.938L717.541 219.6H802.678L845.406 240.938L802.678 262.276H717.541Z" stroke="#F4F4F4" stroke-width="0.258333"/>
<path d="M717.541 198.213L674.812 176.875L717.541 155.537H802.678L845.406 176.875L802.678 198.213H717.541Z" stroke="#F4F4F4" stroke-width="0.258333"/>
<path d="M717.541 134.151L674.812 112.813L717.541 91.4746H802.678L845.406 112.813L802.678 134.151H717.541Z" stroke="#F4F4F4" stroke-width="0.258333"/>
<path d="M717.541 70.0884L674.812 48.7502L717.541 27.4121H802.678L845.406 48.7502L802.678 70.0884H717.541Z" stroke="#F4F4F4" stroke-width="0.258333"/>
<path d="M717.541 347.588L674.812 326.25L717.541 304.912H802.678L845.406 326.25L802.678 347.588H717.541Z" stroke="#F4F4F4" stroke-width="0.258333"/>
<path d="M717.541 283.526L674.812 262.188L717.541 240.85H802.678L845.406 262.188L802.678 283.526H717.541Z" stroke="#F4F4F4" stroke-width="0.258333"/>
<path d="M717.541 219.463L674.812 198.125L717.541 176.787H802.678L845.406 198.125L802.678 219.463H717.541Z" stroke="#F4F4F4" stroke-width="0.258333"/>
<path d="M717.541 155.401L674.812 134.063L717.541 112.725H802.678L845.406 134.063L802.678 155.401H717.541Z" stroke="#F4F4F4" stroke-width="0.258333"/>
<path d="M717.541 91.3384L674.812 70.0002L717.541 48.6621H802.678L845.406 70.0002L802.678 91.3384H717.541Z" stroke="#F4F4F4" stroke-width="0.258333"/>
<path d="M717.541 27.2759L674.812 5.93773L717.541 -15.4004H802.678L845.406 5.93773L802.678 27.2759H717.541Z" stroke="#F4F4F4" stroke-width="0.258333"/>
<path d="M717.541 369.15L674.812 347.812L717.541 326.475H802.678L845.406 347.812L802.678 369.15H717.541Z" stroke="#F4F4F4" stroke-width="0.258333"/>
<path d="M717.541 305.088L674.812 283.75L717.541 262.412H802.678L845.406 283.75L802.678 305.088H717.541Z" stroke="#F4F4F4" stroke-width="0.258333"/>
<path d="M717.541 241.026L674.812 219.688L717.541 198.35H802.678L845.406 219.688L802.678 241.026H717.541Z" stroke="#F4F4F4" stroke-width="0.258333"/>
<path d="M717.541 176.963L674.812 155.625L717.541 134.287H802.678L845.406 155.625L802.678 176.963H717.541Z" stroke="#F4F4F4" stroke-width="0.258333"/>
<path d="M717.541 112.901L674.812 91.5627L717.541 70.2246H802.678L845.406 91.5627L802.678 112.901H717.541Z" stroke="#F4F4F4" stroke-width="0.258333"/>
<path d="M717.541 48.8384L674.812 27.5002L717.541 6.16211H802.678L845.406 27.5002L802.678 48.8384H717.541Z" stroke="#F4F4F4" stroke-width="0.258333"/>
<path d="M890.963 390.4L848.234 369.062L890.963 347.725H976.1L1018.83 369.062L976.1 390.4H890.963Z" stroke="#F4F4F4" stroke-width="0.258333"/>
<path d="M890.963 326.338L848.234 305L890.963 283.662H976.1L1018.83 305L976.1 326.338H890.963Z" stroke="#F4F4F4" stroke-width="0.258333"/>
<path d="M890.963 262.276L848.234 240.938L890.963 219.6H976.1L1018.83 240.938L976.1 262.276H890.963Z" stroke="#F4F4F4" stroke-width="0.258333"/>
<path d="M890.963 198.213L848.234 176.875L890.963 155.537H976.1L1018.83 176.875L976.1 198.213H890.963Z" stroke="#F4F4F4" stroke-width="0.258333"/>
<path d="M890.963 134.151L848.234 112.813L890.963 91.4746H976.1L1018.83 112.813L976.1 134.151H890.963Z" stroke="#F4F4F4" stroke-width="0.258333"/>
<path d="M890.963 70.0884L848.234 48.7502L890.963 27.4121H976.1L1018.83 48.7502L976.1 70.0884H890.963Z" stroke="#F4F4F4" stroke-width="0.258333"/>
<path d="M890.963 347.588L848.234 326.25L890.963 304.912H976.1L1018.83 326.25L976.1 347.588H890.963Z" stroke="#F4F4F4" stroke-width="0.258333"/>
<path d="M890.963 283.526L848.234 262.188L890.963 240.85H976.1L1018.83 262.188L976.1 283.526H890.963Z" stroke="#F4F4F4" stroke-width="0.258333"/>
<path d="M890.963 219.463L848.234 198.125L890.963 176.787H976.1L1018.83 198.125L976.1 219.463H890.963Z" stroke="#F4F4F4" stroke-width="0.258333"/>
<path d="M890.963 155.401L848.234 134.063L890.963 112.725H976.1L1018.83 134.063L976.1 155.401H890.963Z" stroke="#F4F4F4" stroke-width="0.258333"/>
<path d="M890.963 91.3384L848.234 70.0002L890.963 48.6621H976.1L1018.83 70.0002L976.1 91.3384H890.963Z" stroke="#F4F4F4" stroke-width="0.258333"/>
<path d="M890.963 27.2759L848.234 5.93773L890.963 -15.4004H976.1L1018.83 5.93773L976.1 27.2759H890.963Z" stroke="#F4F4F4" stroke-width="0.258333"/>
<path d="M890.963 369.15L848.234 347.812L890.963 326.475H976.1L1018.83 347.812L976.1 369.15H890.963Z" stroke="#F4F4F4" stroke-width="0.258333"/>
<path d="M890.963 305.088L848.234 283.75L890.963 262.412H976.1L1018.83 283.75L976.1 305.088H890.963Z" stroke="#F4F4F4" stroke-width="0.258333"/>
<path d="M890.963 241.026L848.234 219.688L890.963 198.35H976.1L1018.83 219.688L976.1 241.026H890.963Z" stroke="#F4F4F4" stroke-width="0.258333"/>
<path d="M890.963 176.963L848.234 155.625L890.963 134.287H976.1L1018.83 155.625L976.1 176.963H890.963Z" stroke="#F4F4F4" stroke-width="0.258333"/>
<path d="M890.963 112.901L848.234 91.5627L890.963 70.2246H976.1L1018.83 91.5627L976.1 112.901H890.963Z" stroke="#F4F4F4" stroke-width="0.258333"/>
<path d="M890.963 48.8384L848.234 27.5002L890.963 6.16211H976.1L1018.83 27.5002L976.1 48.8384H890.963Z" stroke="#F4F4F4" stroke-width="0.258333"/>
<path d="M1064.38 390.4L1021.65 369.062L1064.38 347.725H1149.52L1192.25 369.062L1149.52 390.4H1064.38Z" stroke="#F4F4F4" stroke-width="0.258333"/>
<path d="M1064.38 326.338L1021.65 305L1064.38 283.662H1149.52L1192.25 305L1149.52 326.338H1064.38Z" stroke="#F4F4F4" stroke-width="0.258333"/>
<path d="M1064.38 262.276L1021.65 240.938L1064.38 219.6H1149.52L1192.25 240.938L1149.52 262.276H1064.38Z" stroke="#F4F4F4" stroke-width="0.258333"/>
<path d="M1064.38 198.213L1021.65 176.875L1064.38 155.537H1149.52L1192.25 176.875L1149.52 198.213H1064.38Z" stroke="#F4F4F4" stroke-width="0.258333"/>
<path d="M1064.38 134.151L1021.65 112.813L1064.38 91.4746H1149.52L1192.25 112.813L1149.52 134.151H1064.38Z" stroke="#F4F4F4" stroke-width="0.258333"/>
<path d="M1064.38 70.0884L1021.65 48.7502L1064.38 27.4121H1149.52L1192.25 48.7502L1149.52 70.0884H1064.38Z" stroke="#F4F4F4" stroke-width="0.258333"/>
<path d="M1064.38 347.588L1021.65 326.25L1064.38 304.912H1149.52L1192.25 326.25L1149.52 347.588H1064.38Z" stroke="#F4F4F4" stroke-width="0.258333"/>
<path d="M1064.38 283.526L1021.65 262.188L1064.38 240.85H1149.52L1192.25 262.188L1149.52 283.526H1064.38Z" stroke="#F4F4F4" stroke-width="0.258333"/>
<path d="M1064.38 219.463L1021.65 198.125L1064.38 176.787H1149.52L1192.25 198.125L1149.52 219.463H1064.38Z" stroke="#F4F4F4" stroke-width="0.258333"/>
<path d="M1064.38 155.401L1021.65 134.063L1064.38 112.725H1149.52L1192.25 134.063L1149.52 155.401H1064.38Z" stroke="#F4F4F4" stroke-width="0.258333"/>
<path d="M1064.38 91.3384L1021.65 70.0002L1064.38 48.6621H1149.52L1192.25 70.0002L1149.52 91.3384H1064.38Z" stroke="#F4F4F4" stroke-width="0.258333"/>
<path d="M1064.38 27.2759L1021.65 5.93773L1064.38 -15.4004H1149.52L1192.25 5.93773L1149.52 27.2759H1064.38Z" stroke="#F4F4F4" stroke-width="0.258333"/>
<path d="M1064.38 369.15L1021.65 347.812L1064.38 326.475H1149.52L1192.25 347.812L1149.52 369.15H1064.38Z" stroke="#F4F4F4" stroke-width="0.258333"/>
<path d="M1064.38 305.088L1021.65 283.75L1064.38 262.412H1149.52L1192.25 283.75L1149.52 305.088H1064.38Z" stroke="#F4F4F4" stroke-width="0.258333"/>
<path d="M1064.38 241.026L1021.65 219.688L1064.38 198.35H1149.52L1192.25 219.688L1149.52 241.026H1064.38Z" stroke="#F4F4F4" stroke-width="0.258333"/>
<path d="M1064.38 176.963L1021.65 155.625L1064.38 134.287H1149.52L1192.25 155.625L1149.52 176.963H1064.38Z" stroke="#F4F4F4" stroke-width="0.258333"/>
<path d="M1064.38 112.901L1021.65 91.5627L1064.38 70.2246H1149.52L1192.25 91.5627L1149.52 112.901H1064.38Z" stroke="#F4F4F4" stroke-width="0.258333"/>
<path d="M1064.38 48.8384L1021.65 27.5002L1064.38 6.16211H1149.52L1192.25 27.5002L1149.52 48.8384H1064.38Z" stroke="#F4F4F4" stroke-width="0.258333"/>
<path d="M1237.8 390.4L1195.07 369.062L1237.8 347.725H1322.94L1365.66 369.062L1322.94 390.4H1237.8Z" stroke="#F4F4F4" stroke-width="0.258333"/>
<path d="M1237.8 326.338L1195.07 305L1237.8 283.662H1322.94L1365.66 305L1322.94 326.338H1237.8Z" stroke="#F4F4F4" stroke-width="0.258333"/>
<path d="M1237.8 262.276L1195.07 240.938L1237.8 219.6H1322.94L1365.66 240.938L1322.94 262.276H1237.8Z" stroke="#F4F4F4" stroke-width="0.258333"/>
<path d="M1237.8 198.213L1195.07 176.875L1237.8 155.537H1322.94L1365.66 176.875L1322.94 198.213H1237.8Z" stroke="#F4F4F4" stroke-width="0.258333"/>
<path d="M1237.8 134.151L1195.07 112.813L1237.8 91.4746H1322.94L1365.66 112.813L1322.94 134.151H1237.8Z" stroke="#F4F4F4" stroke-width="0.258333"/>
<path d="M1237.8 70.0884L1195.07 48.7502L1237.8 27.4121H1322.94L1365.66 48.7502L1322.94 70.0884H1237.8Z" stroke="#F4F4F4" stroke-width="0.258333"/>
<path d="M1237.8 347.588L1195.07 326.25L1237.8 304.912H1322.94L1365.66 326.25L1322.94 347.588H1237.8Z" stroke="#F4F4F4" stroke-width="0.258333"/>
<path d="M1237.8 283.526L1195.07 262.188L1237.8 240.85H1322.94L1365.66 262.188L1322.94 283.526H1237.8Z" stroke="#F4F4F4" stroke-width="0.258333"/>
<path d="M1237.8 219.463L1195.07 198.125L1237.8 176.787H1322.94L1365.66 198.125L1322.94 219.463H1237.8Z" stroke="#F4F4F4" stroke-width="0.258333"/>
<path d="M1237.8 155.401L1195.07 134.063L1237.8 112.725H1322.94L1365.66 134.063L1322.94 155.401H1237.8Z" stroke="#F4F4F4" stroke-width="0.258333"/>
<path d="M1237.8 91.3384L1195.07 70.0002L1237.8 48.6621H1322.94L1365.66 70.0002L1322.94 91.3384H1237.8Z" stroke="#F4F4F4" stroke-width="0.258333"/>
<path d="M1237.8 27.2759L1195.07 5.93773L1237.8 -15.4004H1322.94L1365.66 5.93773L1322.94 27.2759H1237.8Z" stroke="#F4F4F4" stroke-width="0.258333"/>
<path d="M1237.8 369.15L1195.07 347.812L1237.8 326.475H1322.94L1365.66 347.812L1322.94 369.15H1237.8Z" stroke="#F4F4F4" stroke-width="0.258333"/>
<path d="M1237.8 305.088L1195.07 283.75L1237.8 262.412H1322.94L1365.66 283.75L1322.94 305.088H1237.8Z" stroke="#F4F4F4" stroke-width="0.258333"/>
<path d="M1237.8 241.026L1195.07 219.688L1237.8 198.35H1322.94L1365.66 219.688L1322.94 241.026H1237.8Z" stroke="#F4F4F4" stroke-width="0.258333"/>
<path d="M1237.8 176.963L1195.07 155.625L1237.8 134.287H1322.94L1365.66 155.625L1322.94 176.963H1237.8Z" stroke="#F4F4F4" stroke-width="0.258333"/>
<path d="M1237.8 112.901L1195.07 91.5627L1237.8 70.2246H1322.94L1365.66 91.5627L1322.94 112.901H1237.8Z" stroke="#F4F4F4" stroke-width="0.258333"/>
<path d="M1237.8 48.8384L1195.07 27.5002L1237.8 6.16211H1322.94L1365.66 27.5002L1322.94 48.8384H1237.8Z" stroke="#F4F4F4" stroke-width="0.258333"/>
<path d="M1411.21 390.4L1368.49 369.062L1411.21 347.725H1496.35L1539.07 369.062L1496.35 390.4H1411.21Z" stroke="#F4F4F4" stroke-width="0.258333"/>
<path d="M1411.21 326.338L1368.49 305L1411.21 283.662H1496.35L1539.07 305L1496.35 326.338H1411.21Z" stroke="#F4F4F4" stroke-width="0.258333"/>
<path d="M1411.21 262.276L1368.49 240.938L1411.21 219.6H1496.35L1539.07 240.938L1496.35 262.276H1411.21Z" stroke="#F4F4F4" stroke-width="0.258333"/>
<path d="M1411.21 198.213L1368.49 176.875L1411.21 155.537H1496.35L1539.07 176.875L1496.35 198.213H1411.21Z" stroke="#F4F4F4" stroke-width="0.258333"/>
<path d="M1411.21 134.151L1368.49 112.813L1411.21 91.4746H1496.35L1539.07 112.813L1496.35 134.151H1411.21Z" stroke="#F4F4F4" stroke-width="0.258333"/>
<path d="M1411.21 70.0884L1368.49 48.7502L1411.21 27.4121H1496.35L1539.07 48.7502L1496.35 70.0884H1411.21Z" stroke="#F4F4F4" stroke-width="0.258333"/>
<path d="M1411.21 347.588L1368.49 326.25L1411.21 304.912H1496.35L1539.07 326.25L1496.35 347.588H1411.21Z" stroke="#F4F4F4" stroke-width="0.258333"/>
<path d="M1411.21 283.526L1368.49 262.188L1411.21 240.85H1496.35L1539.07 262.188L1496.35 283.526H1411.21Z" stroke="#F4F4F4" stroke-width="0.258333"/>
<path d="M1411.21 219.463L1368.49 198.125L1411.21 176.787H1496.35L1539.07 198.125L1496.35 219.463H1411.21Z" stroke="#F4F4F4" stroke-width="0.258333"/>
<path d="M1411.21 155.401L1368.49 134.063L1411.21 112.725H1496.35L1539.07 134.063L1496.35 155.401H1411.21Z" stroke="#F4F4F4" stroke-width="0.258333"/>
<path d="M1411.21 91.3384L1368.49 70.0002L1411.21 48.6621H1496.35L1539.07 70.0002L1496.35 91.3384H1411.21Z" stroke="#F4F4F4" stroke-width="0.258333"/>
<path d="M1411.21 27.2759L1368.49 5.93773L1411.21 -15.4004H1496.35L1539.07 5.93773L1496.35 27.2759H1411.21Z" stroke="#F4F4F4" stroke-width="0.258333"/>
<path d="M1411.21 369.15L1368.49 347.812L1411.21 326.475H1496.35L1539.07 347.812L1496.35 369.15H1411.21Z" stroke="#F4F4F4" stroke-width="0.258333"/>
<path d="M1411.21 305.088L1368.49 283.75L1411.21 262.412H1496.35L1539.07 283.75L1496.35 305.088H1411.21Z" stroke="#F4F4F4" stroke-width="0.258333"/>
<path d="M1411.21 241.026L1368.49 219.688L1411.21 198.35H1496.35L1539.07 219.688L1496.35 241.026H1411.21Z" stroke="#F4F4F4" stroke-width="0.258333"/>
<path d="M1411.21 176.963L1368.49 155.625L1411.21 134.287H1496.35L1539.07 155.625L1496.35 176.963H1411.21Z" stroke="#F4F4F4" stroke-width="0.258333"/>
<path d="M1411.21 112.901L1368.49 91.5627L1411.21 70.2246H1496.35L1539.07 91.5627L1496.35 112.901H1411.21Z" stroke="#F4F4F4" stroke-width="0.258333"/>
<path d="M1411.21 48.8384L1368.49 27.5002L1411.21 6.16211H1496.35L1539.07 27.5002L1496.35 48.8384H1411.21Z" stroke="#F4F4F4" stroke-width="0.258333"/>
</g>
</g>
</g>
<defs>
<radialGradient id="paint0_radial_3324_155657" cx="0" cy="0" r="1" gradientUnits="userSpaceOnUse" gradientTransform="translate(759.5 187.5) rotate(32.6371) scale(311.158 421.074)">
<stop/>
<stop offset="1" stop-opacity="0"/>
</radialGradient>
<clipPath id="clip0_3324_155657">
<rect width="1519" height="375" fill="white"/>
</clipPath>
</defs>
</svg>
