<svg width="230" height="70" viewBox="0 0 230 70" fill="none" xmlns="http://www.w3.org/2000/svg">
<g clip-path="url(#clip0_3699_5812)">
<path fill-rule="evenodd" clip-rule="evenodd" d="M44.5407 13H11.1855C8.31244 13 6 15.2902 6 18.1356V51.1009C6 52.489 6.56059 53.8076 7.54163 54.7792C8.52266 55.7508 9.85407 56.306 11.2555 56.306H44.5407C45.9421 56.306 47.2735 55.7508 48.2546 54.7792C49.2356 53.8076 49.7962 52.489 49.7962 51.1009V18.1356C49.7261 15.2902 47.4137 13 44.5407 13ZM24.8499 44.1609C24.8499 44.6467 24.6397 45.0631 24.3594 45.4101C24.009 45.7571 23.5886 45.8959 23.098 45.8959H15.8104C14.8293 45.8959 14.0585 45.1325 14.0585 44.1609V22.7161C14.0585 21.7445 14.8293 20.9811 15.8104 20.9811H23.098C24.0791 20.9811 24.8499 21.7445 24.8499 22.7161V44.1609ZM41.6676 34.306C41.6676 34.7918 41.4574 35.2082 41.1771 35.5552C40.8968 35.9022 40.4063 36.041 39.9158 36.041H32.6281C31.6471 36.041 30.8762 35.2776 30.8762 34.306V22.7161C30.8762 21.7445 31.6471 20.9811 32.6281 20.9811H39.9158C40.8968 20.9811 41.6676 21.7445 41.6676 22.7161V34.306Z" fill="url(#paint0_linear_3699_5812)"/>
<path d="M96.6047 16.1924V24.5899H86.6542V56.3059H76.984V24.5205H66.9634V16.1924H96.6047Z" fill="#293856"/>
<path d="M108.939 56.3056H99.9692V25.0754H108.869V31.0438C110.55 26.8104 113.283 24.3119 118.118 24.6589V33.8892C111.812 33.4034 108.869 34.9302 108.869 39.9271V56.3056H108.939Z" fill="#293856"/>
<path d="M166.96 56.5142C161.074 56.5142 157.43 53.7382 157.43 47.1451V13H166.399V45.9653C166.399 47.8391 167.66 48.5331 169.202 48.5331C169.623 48.5331 170.113 48.5331 170.534 48.4637V56.1672C169.342 56.4448 168.151 56.5836 166.96 56.5142Z" fill="#293856"/>
<path d="M185.669 56.5142C179.783 56.5142 176.139 53.7382 176.139 47.1451V13H185.108V45.9653C185.108 47.8391 186.369 48.5331 187.981 48.5331C188.402 48.5331 188.892 48.5331 189.313 48.4637V56.1672C188.121 56.4448 186.93 56.5836 185.669 56.5142Z" fill="#293856"/>
<path d="M193.588 40.6899C193.588 31.0433 199.194 24.4502 208.864 24.4502C218.534 24.4502 224 31.0433 224 40.6899C224 50.3366 218.464 57.0685 208.864 57.0685C199.264 57.0685 193.588 50.2672 193.588 40.6899ZM202.347 40.6899C202.347 45.4092 204.309 49.0874 208.864 49.0874C213.419 49.0874 215.241 45.3398 215.241 40.6899C215.241 36.0401 213.279 32.3619 208.864 32.3619C204.449 32.3619 202.347 35.9707 202.347 40.6899Z" fill="#293856"/>
<path d="M130.241 43.4671C132.764 43.7447 135.286 43.8835 137.739 43.8835C144.606 43.8835 150.352 42.0791 150.352 35.486C150.352 29.1011 144.396 24.3125 137.249 24.3125C127.648 24.3125 121.482 31.1832 121.482 40.8993C121.482 50.8929 126.808 56.8614 138.79 56.8614C142.364 56.8614 145.868 56.2368 149.231 54.9876V47.5617C146.148 48.5333 142.714 49.5049 139.141 49.5049C134.376 49.5743 131.012 47.9781 130.241 43.4671ZM137.108 31.1832C139.631 31.1832 141.663 32.9182 141.663 35.2084C141.663 38.1926 138.44 39.1642 134.796 39.1642C133.254 39.1642 131.643 39.0254 130.101 38.8172C130.241 37.3598 130.662 35.9718 131.362 34.6532C132.484 32.5712 134.726 31.2526 137.108 31.1832Z" fill="#293856"/>
</g>
<defs>
<linearGradient id="paint0_linear_3699_5812" x1="27.8699" y1="56.2847" x2="27.8699" y2="12.9932" gradientUnits="userSpaceOnUse">
<stop stop-color="#0052CC"/>
<stop offset="1" stop-color="#2684FF"/>
</linearGradient>
<clipPath id="clip0_3699_5812">
<rect width="218" height="44" fill="white" transform="translate(6 13)"/>
</clipPath>
</defs>
</svg>
