<svg width="485" height="240" viewBox="0 0 485 240" fill="none" xmlns="http://www.w3.org/2000/svg">
<g clip-path="url(#clip0_3296_7465)">
<g clip-path="url(#clip1_3296_7465)">
<path fill-rule="evenodd" clip-rule="evenodd" d="M7.35406 99.6199L30.4934 86.1948V123.867C30.4478 137.84 40.2604 150.352 53.7697 153.64L54.089 153.732L53.9066 153.96C53.5872 154.371 53.3134 154.736 52.9482 155.101C51.716 156.334 50.3924 157.43 48.9318 158.389C47.4713 159.348 45.9652 160.17 44.3678 160.855C42.7248 161.54 41.0363 162.042 39.302 162.408C37.4762 162.773 35.9247 162.955 34.2358 162.955H34.0534C32.2277 162.955 30.4021 162.773 28.6222 162.408C26.8879 162.042 25.1992 161.54 23.5562 160.809C21.9588 160.124 20.407 159.303 18.9922 158.343C17.5774 157.384 16.2082 156.289 15.0216 155.056C13.7893 153.823 12.6939 152.499 11.7355 151.083C10.777 149.622 9.95553 148.115 9.27093 146.517C8.58636 144.918 8.08433 143.229 7.71918 141.494C7.35406 139.621 7.30843 137.703 7.30843 136.06V99.7569L7.35406 99.6199ZM65.5446 147.11C66.8682 143.366 67.5528 139.667 67.5983 136.196V96.3778L85.124 86.3317V124.004C85.124 125.694 84.9416 127.338 84.6678 128.799C84.3484 130.306 83.8918 131.813 83.2531 133.274C82.6596 134.69 81.8836 136.06 81.0166 137.292C80.1496 138.571 79.1453 139.758 78.0955 140.809C77.0002 141.905 75.8135 142.863 74.5358 143.731C73.2577 144.599 71.8885 145.329 70.4739 145.923C69.0133 146.562 67.6897 146.973 66.0012 147.293C65.9554 147.293 65.8643 147.293 65.8185 147.338L65.4991 147.384L65.5446 147.11ZM0.371197 95.9668V135.923C0.325558 154.416 15.3867 169.531 34.0075 169.577H34.0989C39.9866 169.577 45.8283 168.024 50.8945 165.102L75.4942 151.037C85.6717 145.786 92.0614 135.42 92.0614 124.004V82.2677C92.0614 82.1307 92.0156 82.0394 91.8787 81.9937L85.8544 78.4776C85.7631 78.4319 85.6261 78.4319 85.5348 78.4776L60.8437 92.3594C60.7526 92.405 60.6612 92.542 60.6612 92.6333V136.105C60.6612 137.932 60.4788 139.758 60.1136 141.539C59.7484 143.274 59.2007 144.964 58.5162 146.562C58.3792 146.882 58.2423 147.156 58.1054 147.476L58.0599 147.613H57.923C57.5122 147.567 57.2384 147.521 56.508 147.384L56.3255 147.338C54.7736 147.019 51.6246 146.151 47.882 143.731C46.6043 142.863 45.4176 141.905 44.3223 140.809C43.227 139.713 42.2686 138.525 41.4012 137.247C40.5342 135.968 39.8038 134.598 39.2106 133.183C38.6174 131.767 38.1608 130.26 37.8415 128.708C37.5676 127.338 37.4307 125.922 37.4762 123.959V82.2677C37.4762 82.1307 37.4307 82.0394 37.2938 81.9937L31.2693 78.3406C31.2236 78.2949 31.1324 78.2949 31.0867 78.2949C31.0411 78.2949 30.9498 78.2949 30.9042 78.3406L0.508118 95.6928C0.416837 95.7385 0.371197 95.8755 0.371197 95.9668Z" fill="#2015FF"/>
<path fill-rule="evenodd" clip-rule="evenodd" d="M168.502 128.936C168.502 135.968 162.478 141.448 154.81 141.448C147.142 141.448 141.301 136.059 141.301 128.936V100.716H134.363V129.027C134.363 139.941 142.944 147.84 154.81 147.84C166.676 147.84 175.439 139.941 175.439 129.027V100.67H168.502V128.936Z" fill="#0B0B0B"/>
<path fill-rule="evenodd" clip-rule="evenodd" d="M228.109 123.958C228.109 134.598 221.811 140.945 211.268 140.945L203.144 140.9V107.017H211.268C221.811 107.017 228.109 113.319 228.109 123.958ZM211.679 100.716L196.298 100.67H196.207V147.247H211.633C225.827 147.247 235.046 138.114 235.046 123.958C234.955 109.848 225.827 100.716 211.679 100.716Z" fill="#0B0B0B"/>
<path fill-rule="evenodd" clip-rule="evenodd" d="M477.528 100.67L463.971 120.214L450.324 100.716L450.28 100.67H442.477L460.501 127.383V147.247H467.441V127.429L485.149 100.853L485.24 100.67H477.528Z" fill="#0B0B0B"/>
<path fill-rule="evenodd" clip-rule="evenodd" d="M392 107.017H407.927V147.247H414.867V107.017H430.795V100.67H392V107.017Z" fill="#0B0B0B"/>
<path fill-rule="evenodd" clip-rule="evenodd" d="M366.668 147.247H373.605V100.67H366.668V147.247Z" fill="#0B0B0B"/>
<path fill-rule="evenodd" clip-rule="evenodd" d="M341.025 135.969C340.978 136.015 335.821 141.449 327.606 141.449C318.067 141.449 310.856 133.777 310.856 123.595C310.856 113.411 318.022 106.425 327.469 106.425C335.137 106.425 340.02 110.9 340.067 110.946L341.069 111.859L344.768 106.79L344.083 106.06C343.854 105.831 338.286 99.9863 327.378 99.9863C314.005 100.123 303.965 110.261 303.965 123.686C303.965 137.111 314.097 147.842 327.561 147.842C338.833 147.842 345.041 140.901 345.314 140.627L345.999 139.896L341.982 135.01L341.025 135.969Z" fill="#0B0B0B"/>
<path fill-rule="evenodd" clip-rule="evenodd" d="M275.625 126.517L261.842 129.302L269.281 111.037L275.625 126.517ZM272.476 100.717H266.132L247.191 147.248H254.494L258.693 136.974L278.226 133.001L284.023 147.203L284.068 147.294H291.371L272.476 100.762V100.717Z" fill="#0B0B0B"/>
</g>
</g>
<defs>
<clipPath id="clip0_3296_7465">
<rect width="485" height="240" fill="white"/>
</clipPath>
<clipPath id="clip1_3296_7465">
<rect width="485.171" height="102.256" fill="white" transform="translate(0 73)"/>
</clipPath>
</defs>
</svg>
