<svg width="230" height="69" viewBox="0 0 230 69" fill="none" xmlns="http://www.w3.org/2000/svg">
<g clip-path="url(#clip0_3685_5643)">
<path d="M27.5863 8.02886C13.1568 8.10276 1.47187 19.9548 1.53997 34.448C1.56217 39.0809 2.79123 43.5969 5.10255 47.5711L1.4582 61.2136L15.3181 57.487C19.1531 59.5618 23.4636 60.643 27.8449 60.6221L27.8556 60.622C42.2836 60.5482 53.9685 48.6946 53.9004 34.2014C53.8675 27.1776 51.1127 20.5872 46.1443 15.6447C41.1759 10.7006 34.5891 7.99608 27.5863 8.02886ZM27.8329 56.1828L27.8237 56.1829C23.9198 56.2029 20.084 55.1668 16.7331 53.194L15.9364 52.7248L7.71282 54.9367L9.86909 46.8629L9.3476 46.0388C7.15212 42.5711 5.98072 38.5558 5.96111 34.4284C5.90401 22.3815 15.6158 12.5311 27.6182 12.4696C33.4304 12.4414 38.9053 14.6891 43.0339 18.7984C47.164 22.9062 49.4524 28.3849 49.4808 34.2225C49.5379 46.2694 39.8261 56.1214 27.8329 56.1828ZM39.6841 39.7584C39.029 39.433 35.8041 37.8606 35.2031 37.6439C34.6021 37.4273 34.1654 37.3204 33.7326 37.9803C33.2998 38.6402 32.0541 40.1264 31.6752 40.5662C31.2964 41.0077 30.9141 41.0634 30.259 40.7379C29.6039 40.4124 27.4915 39.7287 24.9825 37.5042C23.0286 35.7732 21.7045 33.6287 21.3201 32.973C20.9357 32.3172 21.2736 31.9605 21.601 31.6316C21.8933 31.3366 22.2505 30.8615 22.576 30.4756C22.9015 30.0898 23.0088 29.8157 23.2238 29.3752C23.4389 28.9361 23.3283 28.5525 23.1629 28.2245C22.9974 27.8965 21.6724 24.6702 21.1209 23.3577C20.5833 22.0804 20.0455 22.2553 19.6429 22.2374C19.2618 22.2193 18.8256 22.2185 18.3895 22.2207C17.9533 22.223 17.2456 22.391 16.6491 23.0517C16.0526 23.7125 14.3713 25.31 14.3878 28.543C14.4044 31.776 16.7648 34.8879 17.093 35.3241C17.4228 35.7604 21.7417 42.3735 28.3183 45.1841C29.8827 45.8522 31.1029 46.2501 32.0548 46.548C33.6244 47.0393 35.0503 46.9614 36.1758 46.7866C37.4312 46.5911 40.0379 45.1779 40.5748 43.64C41.1117 42.1037 41.105 40.7884 40.9398 40.5142C40.7747 40.2415 40.3377 40.0793 39.6826 39.7538L39.6841 39.7584ZM85.996 39.1202L85.9256 39.1206L81.4956 21.561L76.2649 21.5878L71.9419 38.9771L71.8715 38.9774L67.7624 21.6314L62.1767 21.66L69.0316 47.1408L74.6892 47.1118L78.8332 29.7219L78.9051 29.7216L83.2989 47.0677L88.8494 47.0393L95.5501 21.4891L90.0715 21.5171L85.9976 39.1202L85.996 39.1202ZM112.635 30.0313C112.134 29.3793 111.449 28.8711 110.582 28.5052C109.714 28.1424 108.604 27.9637 107.252 27.9706C106.304 27.9755 105.333 28.2232 104.338 28.7185C103.344 29.2107 102.531 29.9955 101.895 31.0713L101.788 31.0719L101.739 21.4574L96.6872 21.4832L96.8178 46.9969L101.869 46.9711L101.82 37.2874C101.81 35.4051 102.111 34.0528 102.725 33.226C103.337 32.4023 104.332 31.9854 105.707 31.9784C106.916 31.9722 107.76 32.3428 108.24 33.0918C108.718 33.8392 108.961 34.9751 108.969 36.4994L109.022 46.9344L114.075 46.9085L114.017 35.5454C114.011 34.4022 113.903 33.3609 113.698 32.42C113.491 31.4821 113.138 30.6849 112.636 30.0313L112.635 30.0313ZM133.514 42.7L133.465 33.0886C133.459 31.9669 133.207 31.0692 132.703 30.3942C132.202 29.7175 131.559 29.1907 130.775 28.8136C129.99 28.4365 129.123 28.1844 128.173 28.0586C127.224 27.9329 126.287 27.8716 125.362 27.8763C124.343 27.8815 123.329 27.9866 122.323 28.1961C121.314 28.4041 120.41 28.7484 119.606 29.2288C118.802 29.7093 118.139 30.3443 117.625 31.1321C117.105 31.9215 116.813 32.9111 116.749 34.1039L121.801 34.078C121.891 33.0772 122.22 32.3594 122.788 31.9278C123.355 31.4962 124.136 31.2786 125.132 31.2735C125.582 31.2712 126.003 31.2982 126.395 31.3561C126.785 31.4141 127.13 31.5291 127.428 31.7073C127.726 31.8841 127.964 32.1333 128.144 32.4551C128.323 32.7753 128.414 33.2113 128.416 33.7568C128.442 34.2822 128.29 34.6794 127.96 34.9561C127.628 35.2329 127.179 35.4442 126.611 35.5885C126.042 35.7358 125.391 35.8467 124.655 35.9196C123.919 35.9972 123.173 36.0978 122.416 36.2185C121.656 36.3422 120.904 36.5059 120.16 36.7125C119.414 36.9176 118.749 37.2268 118.171 37.6324C117.591 38.0426 117.12 38.5859 116.754 39.2669C116.39 39.948 116.211 40.814 116.217 41.8605C116.221 42.8132 116.386 43.6344 116.71 44.3227C117.033 45.0141 117.481 45.5819 118.053 46.0323C118.625 46.4826 119.29 46.8127 120.051 47.0239C120.809 47.2336 121.63 47.337 122.507 47.3325C123.645 47.3267 124.76 47.1535 125.848 46.816C126.937 46.4739 127.885 45.8882 128.687 45.0481C128.712 45.3584 128.754 45.6625 128.816 45.9587C128.877 46.255 128.955 46.5481 129.051 46.8318L134.175 46.8056C133.936 46.4273 133.766 45.8565 133.667 45.0933C133.567 44.3317 133.515 43.5359 133.511 42.7L133.514 42.7ZM128.447 39.688C128.448 39.9769 128.421 40.3581 128.364 40.8333C128.308 41.3114 128.15 41.7809 127.891 42.2478C127.631 42.7132 127.229 43.1164 126.686 43.4511C126.143 43.7888 125.373 43.9587 124.375 43.9638C123.973 43.9659 123.581 43.9326 123.201 43.8608C122.821 43.792 122.488 43.6677 122.203 43.4909C121.917 43.3141 121.691 43.071 121.522 42.7614C121.355 42.4519 121.269 42.0728 121.267 41.621C121.265 41.1447 121.347 40.7493 121.51 40.4396C121.676 40.1299 121.893 39.8722 122.166 39.668C122.436 39.4637 122.756 39.3023 123.123 39.1805C123.49 39.0603 123.863 38.9632 124.243 38.889C124.646 38.8163 125.049 38.7527 125.451 38.7046C125.857 38.6564 126.241 38.593 126.607 38.5204C126.976 38.4463 127.318 38.3554 127.639 38.2462C127.958 38.137 128.224 37.9897 128.437 37.7965L128.447 39.6896L128.447 39.688ZM142.842 22.7482L137.789 22.774L137.817 28.3119L134.758 28.3276L134.775 31.722L137.835 31.7063L137.89 42.6069C137.895 43.5366 138.055 44.2856 138.366 44.8557C138.678 45.4257 139.101 45.8661 139.635 46.1722C140.171 46.4799 140.788 46.6842 141.49 46.7866C142.188 46.889 142.932 46.9405 143.714 46.9365C144.215 46.934 144.723 46.9191 145.246 46.8949C145.766 46.8676 146.24 46.8191 146.668 46.7432L146.648 42.8125C146.41 42.8614 146.162 42.9011 145.9 42.9239C145.64 42.9499 145.368 42.9635 145.083 42.965C144.231 42.9694 143.66 42.8278 143.373 42.5435C143.089 42.2591 142.944 41.6883 142.939 40.8293L142.892 31.6804L146.593 31.6614L146.575 28.2671L142.875 28.286L142.847 22.7481L142.842 22.7482ZM163.806 38.5619C163.471 37.9797 163.03 37.4933 162.483 37.1027C161.936 36.7137 161.31 36.4004 160.611 36.1642C159.909 35.9312 159.19 35.7336 158.455 35.5698C157.742 35.406 157.044 35.2544 156.354 35.115C155.665 34.9756 155.053 34.8174 154.518 34.6434C153.985 34.4664 153.552 34.2381 153.219 33.9524C152.884 33.6683 152.718 33.3019 152.716 32.8471C152.714 32.466 152.804 32.1613 152.994 31.9344C153.183 31.7076 153.414 31.5343 153.686 31.4115C153.96 31.2918 154.259 31.2134 154.591 31.1748C154.923 31.1378 155.232 31.1193 155.515 31.1179C156.416 31.1133 157.201 31.2813 157.868 31.6237C158.533 31.966 158.905 32.6249 158.979 33.6002L163.782 33.5756C163.682 32.4329 163.386 31.4878 162.897 30.7389C162.408 29.9916 161.793 29.3939 161.056 28.9443C160.319 28.4948 159.482 28.1779 158.541 27.9922C157.604 27.8065 156.638 27.7161 155.643 27.7212C154.648 27.7263 153.672 27.8205 152.728 28.002C151.778 28.1867 150.926 28.5014 150.171 28.9463C149.412 29.3912 148.806 29.9951 148.346 30.7597C147.887 31.5242 147.661 32.5027 147.667 33.6935C147.671 34.5033 147.841 35.1893 148.178 35.7469C148.51 36.3061 148.953 36.7664 149.498 37.1339C150.048 37.4999 150.672 37.7963 151.372 38.0171C152.073 38.2425 152.792 38.4339 153.527 38.5977C155.333 38.9695 156.742 39.3434 157.751 39.7208C158.761 40.0967 159.267 40.6658 159.271 41.4279C159.274 41.8812 159.17 42.2536 158.957 42.5528C158.745 42.8536 158.479 43.0916 158.161 43.2714C157.84 43.4529 157.484 43.5868 157.094 43.6703C156.703 43.7568 156.328 43.8002 155.973 43.802C155.474 43.8046 154.995 43.7471 154.532 43.6311C154.068 43.5137 153.658 43.3314 153.301 43.0827C152.944 42.8341 152.65 42.5144 152.423 42.1222C152.198 41.73 152.081 41.2619 152.078 40.7118L147.276 40.7364C147.331 41.9747 147.613 43.0043 148.129 43.8238C148.641 44.6432 149.296 45.3006 150.095 45.7975C150.891 46.2928 151.802 46.6462 152.824 46.8561C153.843 47.0645 154.887 47.1667 155.954 47.1612C157.02 47.1558 158.024 47.0492 159.031 46.8427C160.039 46.6347 160.932 46.2783 161.712 45.7733C162.494 45.2699 163.121 44.606 163.605 43.7814C164.086 42.9553 164.324 41.9368 164.318 40.7213C164.314 39.8624 164.145 39.1441 163.81 38.5634L163.806 38.5619ZM173.75 21.0886L164.275 46.653L169.896 46.6242L171.858 40.9317L181.358 40.883L183.306 46.5555L189.108 46.5258L179.478 21.0592L173.749 21.0886L173.75 21.0886ZM173.298 36.7446L176.558 27.3652L176.629 27.3648L179.88 36.7109L173.298 36.7446ZM206.496 30.4634C205.804 29.5619 204.934 28.8395 203.888 28.2978C202.841 27.7546 201.596 27.4874 200.15 27.4949C199.01 27.5007 197.969 27.7319 197.022 28.1885C196.073 28.6467 195.296 29.3775 194.686 30.381L194.614 30.3814L194.602 28.0211L189.796 28.0457L189.924 52.9909L194.98 52.965L194.936 44.2095L195.004 44.2091C195.626 45.1125 196.419 45.7923 197.384 46.2499C198.344 46.709 199.397 46.9372 200.535 46.9314C201.888 46.9244 203.067 46.6541 204.071 46.1265C205.077 45.5974 205.915 44.8893 206.587 44.0038C207.259 43.1183 207.755 42.1047 208.085 40.9597C208.408 39.8133 208.57 38.6216 208.564 37.3831C208.557 36.0723 208.382 34.8178 208.047 33.6148C207.706 32.4149 207.192 31.3619 206.499 30.4603L206.496 30.4634ZM203.305 39.4491C203.165 40.1659 202.925 40.791 202.585 41.329C202.243 41.8671 201.796 42.3058 201.237 42.6405C200.683 42.9768 199.99 43.1494 199.16 43.1537C198.331 43.1579 197.667 42.9938 197.096 42.6618C196.525 42.3328 196.065 41.8987 195.718 41.3642C195.371 40.8297 195.12 40.2071 194.962 39.4918C194.804 38.7781 194.725 38.0517 194.721 37.3157C194.717 36.5796 194.782 35.8125 194.921 35.0988C195.061 34.3835 195.3 33.7508 195.643 33.1989C195.981 32.6501 196.432 32.2022 196.989 31.8536C197.544 31.505 198.235 31.3263 199.066 31.322C199.897 31.3178 200.557 31.4896 201.115 31.8325C201.673 32.1738 202.133 32.6232 202.491 33.1823C202.849 33.7413 203.106 34.3777 203.266 35.0899C203.426 35.8036 203.503 36.5316 203.507 37.2707C203.511 38.0098 203.445 38.7354 203.307 39.4491L203.305 39.4491ZM228.179 33.5148C227.84 32.3149 227.325 31.2618 226.632 30.3603C225.939 29.4588 225.072 28.7364 224.025 28.1947C222.977 27.6515 221.73 27.3843 220.284 27.3917C219.147 27.3976 218.103 27.6288 217.158 28.0854C216.212 28.5436 215.432 29.2744 214.82 30.2779L214.751 30.2782L214.739 27.918L209.936 27.9426L210.063 52.8878L215.115 52.8619L215.07 44.1063L215.142 44.106C215.763 45.0094 216.557 45.6892 217.518 46.1468C218.48 46.6059 219.533 46.8341 220.671 46.8282C222.023 46.8213 223.2 46.551 224.207 46.0234C225.211 45.4942 226.051 44.7862 226.721 43.9007C227.395 43.0152 227.892 42.0016 228.218 40.8566C228.546 39.7102 228.705 38.5184 228.698 37.2799C228.692 35.9692 228.52 34.7147 228.18 33.5117L228.179 33.5148ZM223.44 39.346C223.303 40.0628 223.063 40.6879 222.721 41.2259C222.378 41.764 221.93 42.2027 221.375 42.5374C220.82 42.8737 220.127 43.0463 219.296 43.0505C218.465 43.0548 217.8 42.8907 217.229 42.5587C216.657 42.2297 216.2 41.7956 215.851 41.2611C215.506 40.7266 215.253 40.104 215.095 39.3887C214.937 38.675 214.856 37.9486 214.853 37.2126C214.849 36.4765 214.917 35.7094 215.056 34.9957C215.194 34.2804 215.434 33.6476 215.776 33.0958C216.116 32.547 216.565 32.0991 217.122 31.7505C217.676 31.4019 218.369 31.2232 219.2 31.2189C220.031 31.2147 220.689 31.3865 221.248 31.7293C221.808 32.0707 222.266 32.5201 222.626 33.0791C222.985 33.6382 223.244 34.2746 223.401 34.9868C223.56 35.7005 223.639 36.4284 223.643 37.1675C223.647 37.9066 223.579 38.6323 223.44 39.346Z" fill="#25D366"/>
</g>
<defs>
<clipPath id="clip0_3685_5643">
<rect width="227.358" height="53.0503" fill="white" transform="translate(1.18652 8.16406) rotate(-0.29342)"/>
</clipPath>
</defs>
</svg>
